<?xml version="1.0" encoding="UTF-8"?>
<svg width="1280" height="720" overflow="hidden" version="1.1" xmlns="http://www.w3.org/2000/svg"><defs><clipPath id="clip0"><rect width="1280" height="720"/></clipPath></defs><g clip-path="url(#clip0)"><path d="m0 0h1280v720h-1280z" fill="#fff"/><path d="m479.5 24c0-3.0376 2.462-5.5 5.5-5.5h174c3.038 0 5.5 2.4624 5.5 5.5v22c0 3.0376-2.462 5.5-5.5 5.5h-174c-3.038 0-5.5-2.4624-5.5-5.5z" fill="#fff" fill-rule="evenodd" stroke="#000" stroke-miterlimit="8" stroke-width="1.3333"/><g transform="translate(505.83 43)" aria-label="embeddings"><path d="m6.864-1.296q1.152 0 2.112-0.48 0.984-0.504 1.8-1.512l1.176 1.08q-0.984 1.296-2.304 1.944-1.32 0.624-2.952 0.624-2.616 0-4.296-1.704-1.656-1.728-1.656-4.416 0-2.616 1.704-4.368t4.2-1.752q2.544 0 4.128 1.656t1.584 4.32q0 0.192-0.024 0.456-0.024 0.24-0.048 0.36h-9.528q0.192 1.704 1.32 2.76 1.152 1.032 2.784 1.032zm-0.192-8.928q-1.512 0-2.592 0.984t-1.32 2.64h7.632q-0.216-1.68-1.224-2.64-1.008-0.984-2.496-0.984z"/><path d="m14.328-11.592h1.92v1.392q0.648-0.84 1.464-1.248 0.84-0.432 1.872-0.432 1.2 0 2.136 0.504t1.488 1.464q0.648-0.96 1.632-1.464 1.008-0.504 2.256-0.504 2.04 0 3.24 1.32 1.224 1.32 1.224 3.432v7.128h-1.968v-7.008q0-1.464-0.744-2.28-0.72-0.84-2.04-0.84-1.296 0-2.112 0.912-0.792 0.888-0.792 2.328v6.888h-1.944v-7.008q0-1.464-0.744-2.28-0.72-0.84-2.04-0.84-1.296 0-2.112 0.912-0.792 0.888-0.792 2.328v6.888h-1.944z"/><path d="m35.88 0h-1.92v-16.8h1.944v7.008q0.768-0.984 1.872-1.512 1.128-0.552 2.376-0.552 2.448 0 4.08 1.704 1.656 1.68 1.656 4.32 0 2.664-1.68 4.392-1.68 1.704-4.152 1.704-1.224 0-2.328-0.528-1.08-0.528-1.848-1.464zm4.08-10.128q-1.728 0-2.928 1.272-1.2 1.248-1.2 3.12 0 1.824 1.176 3.072 1.176 1.224 2.88 1.224 1.776 0 2.88-1.176 1.128-1.2 1.128-3.168 0-1.944-1.104-3.144-1.08-1.2-2.832-1.2z"/><path d="m53.496-1.296q1.152 0 2.112-0.48 0.984-0.504 1.8-1.512l1.176 1.08q-0.984 1.296-2.304 1.944-1.32 0.624-2.952 0.624-2.616 0-4.296-1.704-1.656-1.728-1.656-4.416 0-2.616 1.704-4.368t4.2-1.752q2.544 0 4.128 1.656t1.584 4.32q0 0.192-0.024 0.456-0.024 0.24-0.048 0.36h-9.528q0.192 1.704 1.32 2.76 1.152 1.032 2.784 1.032zm-0.192-8.928q-1.512 0-2.592 0.984t-1.32 2.64h7.632q-0.216-1.68-1.224-2.64-1.008-0.984-2.496-0.984z"/><path d="m70.416-16.8h1.968v16.8h-1.944v-1.872q-0.792 1.008-1.92 1.56-1.104 0.552-2.376 0.552-2.424 0-4.08-1.68-1.632-1.704-1.632-4.32 0-2.64 1.68-4.368 1.704-1.752 4.176-1.752 1.2 0 2.256 0.504 1.08 0.48 1.872 1.392zm-4.056 15.336q1.752 0 2.928-1.248 1.2-1.272 1.2-3.12 0-1.872-1.152-3.096t-2.88-1.224q-1.776 0-2.904 1.2t-1.128 3.144 1.104 3.144 2.832 1.2z"/><path d="m84.36-16.8h1.968v16.8h-1.944v-1.872q-0.792 1.008-1.92 1.56-1.104 0.552-2.376 0.552-2.424 0-4.08-1.68-1.632-1.704-1.632-4.32 0-2.64 1.68-4.368 1.704-1.752 4.176-1.752 1.2 0 2.256 0.504 1.08 0.48 1.872 1.392zm-4.056 15.336q1.752 0 2.928-1.248 1.2-1.272 1.2-3.12 0-1.872-1.152-3.096t-2.88-1.224q-1.776 0-2.904 1.2t-1.128 3.144 1.104 3.144 2.832 1.2z"/><path d="m88.968-15.48h2.16v2.136h-2.16zm0.096 15.48v-11.592h1.968v11.592z"/><path d="m93.792-11.592h1.92v1.8q0.696-1.008 1.752-1.536 1.08-0.552 2.4-0.552 2.304 0 3.6 1.488t1.296 4.08v6.312h-1.944v-6.192q0-1.824-0.912-2.88-0.888-1.056-2.496-1.056-1.656 0-2.664 1.128t-1.008 2.928v6.072h-1.944z"/><path d="m116.64-1.368v-0.816q-0.792 0.96-1.92 1.488-1.104 0.528-2.376 0.528-2.448 0-4.08-1.632t-1.632-4.2q0-2.544 1.656-4.2 1.68-1.68 4.128-1.68 1.248 0 2.352 0.528t1.896 1.488v-1.728h1.944v10.152q0 2.88-1.536 4.32t-4.632 1.44h-2.928v-1.68h3.024q2.04 0 3.072-1.008t1.032-3zm-4.008-0.528q1.728 0 2.904-1.176 1.2-1.2 1.2-2.928 0-1.776-1.2-2.952-1.176-1.2-2.904-1.2-1.8 0-2.904 1.128t-1.104 3q0 1.848 1.104 3 1.128 1.128 2.904 1.128z"/><path d="m130.46-3.384q0 1.632-1.392 2.664t-3.624 1.032q-1.464 0-2.76-0.456-1.272-0.48-2.304-1.416l1.008-1.488q1.104 0.912 2.064 1.32t2.04 0.408q1.392 0 2.232-0.528 0.864-0.552 0.864-1.416 0-0.888-0.72-1.272-0.72-0.408-2.376-0.432-2.424-0.096-3.552-0.888-1.104-0.792-1.104-2.472 0-1.536 1.272-2.544 1.296-1.032 3.312-1.032 1.368 0 2.568 0.432t2.184 1.272l-0.936 1.464q-0.984-0.792-1.896-1.152t-1.944-0.36q-1.176 0-1.944 0.528-0.744 0.528-0.744 1.296 0 0.84 0.672 1.224t2.136 0.456q2.616 0.072 3.768 0.864 1.176 0.792 1.176 2.496z"/></g><path d="m479.5 123.67c0-12.242 9.925-22.167 22.167-22.167h140.67c12.243 0 22.167 9.925 22.167 22.167v88.666c0 12.243-9.924 22.167-22.167 22.167h-140.67c-12.242 0-22.167-9.924-22.167-22.167z" fill="#fff" fill-rule="evenodd" stroke="#000" stroke-miterlimit="8" stroke-width="1.3333"/><g transform="translate(499.25 174)" aria-label="InceptionResent..."><path d="m1.368 0v-13.3h1.634v13.3z"/><path d="m5.377-9.177h1.52v1.425q0.551-0.798 1.387-1.216 0.855-0.437 1.9-0.437 1.824 0 2.85 1.178t1.026 3.23v4.997h-1.539v-4.902q0-1.444-0.722-2.28-0.703-0.836-1.976-0.836-1.311 0-2.109 0.893t-0.798 2.318v4.807h-1.539z"/><path d="m20.292 0.285q-2.109 0-3.439-1.33-1.311-1.349-1.311-3.515 0-2.052 1.387-3.458t3.401-1.406q1.463 0 2.489 0.684 1.045 0.665 1.577 1.938l-1.311 0.627q-0.437-0.95-1.14-1.425-0.684-0.475-1.634-0.475-1.349 0-2.28 1.026-0.912 1.007-0.912 2.489 0 1.501 0.912 2.508 0.931 0.988 2.318 0.988 0.893 0 1.653-0.475 0.779-0.494 1.254-1.368l1.197 0.646q-0.551 1.178-1.653 1.862t-2.508 0.684z"/><path d="m30.419-1.026q0.912 0 1.672-0.38 0.779-0.399 1.425-1.197l0.931 0.855q-0.779 1.026-1.824 1.539-1.045 0.494-2.337 0.494-2.071 0-3.401-1.349-1.311-1.368-1.311-3.496 0-2.071 1.349-3.458t3.325-1.387q2.014 0 3.268 1.311t1.254 3.42q0 0.152-0.019 0.361-0.019 0.19-0.038 0.285h-7.543q0.152 1.349 1.045 2.185 0.912 0.817 2.204 0.817zm-0.152-7.068q-1.197 0-2.052 0.779t-1.045 2.09h6.042q-0.171-1.33-0.969-2.09-0.798-0.779-1.976-0.779z"/><path d="m37.867 3.42h-1.539v-12.597h1.52v1.482q0.608-0.798 1.501-1.235 0.893-0.456 1.9-0.456 1.938 0 3.23 1.349 1.292 1.33 1.292 3.42 0 2.109-1.349 3.477-1.33 1.349-3.287 1.349-0.931 0-1.805-0.38-0.855-0.399-1.463-1.121zm3.211-11.438q-1.387 0-2.337 1.007-0.931 0.988-0.931 2.47 0 1.463 0.912 2.432 0.931 0.969 2.299 0.969 1.406 0 2.28-0.931 0.893-0.95 0.893-2.508 0-1.539-0.874-2.489-0.855-0.95-2.242-0.95z"/><path d="m47.785-2.451v-5.358h-1.254v-1.368h1.254v-2.812h1.539v2.812h2.128v1.368h-2.128v5.225q0 0.608 0.266 0.912 0.285 0.285 0.855 0.285h1.007v1.387h-1.235q-1.273 0-1.862-0.589-0.57-0.589-0.57-1.862z"/><path d="m53.105-12.255h1.71v1.691h-1.71zm0.076 12.255v-9.177h1.558v9.177z"/><path d="m66.063-4.579q0 2.071-1.387 3.477-1.387 1.387-3.42 1.387t-3.401-1.387q-1.349-1.387-1.349-3.458t1.387-3.458q1.387-1.406 3.42-1.406t3.382 1.387q1.368 1.387 1.368 3.458zm-7.98 0.019q0 1.482 0.912 2.489 0.931 1.007 2.299 1.007 1.349 0 2.261-1.007 0.931-1.007 0.931-2.508 0-1.463-0.931-2.47-0.931-1.026-2.28-1.026t-2.28 1.007q-0.912 1.007-0.912 2.508z"/><path d="m67.659-9.177h1.52v1.425q0.551-0.798 1.387-1.216 0.855-0.437 1.9-0.437 1.824 0 2.85 1.178t1.026 3.23v4.997h-1.539v-4.902q0-1.444-0.722-2.28-0.703-0.836-1.976-0.836-1.311 0-2.109 0.893t-0.798 2.318v4.807h-1.539z"/><path d="m85.595-5.605 3.781 5.605h-1.938l-3.591-5.415h-3.743v5.415h-1.634v-13.3h5.852q2.242 0 3.496 1.045 1.254 1.026 1.254 2.831 0 1.482-0.912 2.489t-2.565 1.33zm1.824-3.781q0-1.159-0.836-1.805-0.817-0.665-2.299-0.665h-4.18v5.016h4.047q1.501 0 2.375-0.684 0.893-0.703 0.893-1.862z"/><path d="m95.076-1.026q0.912 0 1.672-0.38 0.779-0.399 1.425-1.197l0.931 0.855q-0.779 1.026-1.824 1.539-1.045 0.494-2.337 0.494-2.071 0-3.401-1.349-1.311-1.368-1.311-3.496 0-2.071 1.349-3.458t3.325-1.387q2.014 0 3.268 1.311t1.254 3.42q0 0.152-0.019 0.361-0.019 0.19-0.038 0.285h-7.543q0.152 1.349 1.045 2.185 0.912 0.817 2.204 0.817zm-0.152-7.068q-1.197 0-2.052 0.779t-1.045 2.09h6.042q-0.171-1.33-0.969-2.09-0.798-0.779-1.976-0.779z"/><path d="m108.38-2.679q0 1.292-1.102 2.109t-2.869 0.817q-1.159 0-2.185-0.361-1.007-0.38-1.824-1.121l0.798-1.178q0.874 0.722 1.634 1.045t1.615 0.323q1.102 0 1.767-0.418 0.684-0.437 0.684-1.121 0-0.703-0.57-1.007-0.57-0.323-1.881-0.342-1.919-0.076-2.812-0.703-0.874-0.627-0.874-1.957 0-1.216 1.007-2.014 1.026-0.817 2.622-0.817 1.083 0 2.033 0.342t1.729 1.007l-0.741 1.159q-0.779-0.627-1.501-0.912t-1.539-0.285q-0.931 0-1.539 0.418-0.589 0.418-0.589 1.026 0 0.665 0.532 0.969t1.691 0.361q2.071 0.057 2.983 0.684 0.931 0.627 0.931 1.976z"/><path d="m114.36-1.026q0.912 0 1.672-0.38 0.779-0.399 1.425-1.197l0.931 0.855q-0.779 1.026-1.824 1.539-1.045 0.494-2.337 0.494-2.071 0-3.401-1.349-1.311-1.368-1.311-3.496 0-2.071 1.349-3.458t3.325-1.387q2.014 0 3.268 1.311t1.254 3.42q0 0.152-0.019 0.361-0.019 0.19-0.038 0.285h-7.543q0.152 1.349 1.045 2.185 0.912 0.817 2.204 0.817zm-0.152-7.068q-1.197 0-2.052 0.779t-1.045 2.09h6.042q-0.171-1.33-0.969-2.09-0.798-0.779-1.976-0.779z"/><path d="m120.27-9.177h1.52v1.425q0.551-0.798 1.387-1.216 0.855-0.437 1.9-0.437 1.824 0 2.85 1.178t1.026 3.23v4.997h-1.539v-4.902q0-1.444-0.722-2.28-0.703-0.836-1.976-0.836-1.311 0-2.109 0.893t-0.798 2.318v4.807h-1.539z"/><path d="m131.37-2.451v-5.358h-1.254v-1.368h1.254v-2.812h1.539v2.812h2.128v1.368h-2.128v5.225q0 0.608 0.266 0.912 0.285 0.285 0.855 0.285h1.007v1.387h-1.235q-1.273 0-1.862-0.589-0.57-0.589-0.57-1.862z"/><path d="m136.5-1.919h1.919v1.919h-1.919z"/><path d="m140.24-1.919h1.919v1.919h-1.919z"/><path d="m143.98-1.919h1.919v1.919h-1.919z"/></g><path transform="matrix(1 0 0 -1 571 101)" d="m1-2.0997e-6 9e-5 43.333h-2l-9.1e-5 -43.333zm3.0001 42-4 8-4-8z"/><g transform="translate(573.92 81)" aria-label="2 tensors"><path d="m6.444 0h-5.988v-0.84l2.904-2.664q1.032-0.936 1.404-1.488t0.372-1.176q0-0.66-0.492-1.08-0.48-0.432-1.2-0.432-0.888 0-1.404 0.552-0.504 0.54-0.54 1.524h-0.984q0.024-1.368 0.816-2.172 0.804-0.816 2.136-0.816 1.176 0 1.932 0.684 0.768 0.672 0.768 1.716 0 0.84-0.468 1.56-0.456 0.708-1.74 1.836l-2.124 1.896h4.608z"/><path d="m9.972-1.548v-3.384h-0.792v-0.864h0.792v-1.776h0.972v1.776h1.344v0.864h-1.344v3.3q0 0.384 0.168 0.576 0.18 0.18 0.54 0.18h0.636v0.876h-0.78q-0.804 0-1.176-0.372-0.36-0.372-0.36-1.176z"/><path d="m15.972-0.648q0.576 0 1.056-0.24 0.492-0.252 0.9-0.756l0.588 0.54q-0.492 0.648-1.152 0.972-0.66 0.312-1.476 0.312-1.308 0-2.148-0.852-0.828-0.864-0.828-2.208 0-1.308 0.852-2.184t2.1-0.876q1.272 0 2.064 0.828t0.792 2.16q0 0.096-0.012 0.228-0.012 0.12-0.024 0.18h-4.764q0.096 0.852 0.66 1.38 0.576 0.516 1.392 0.516zm-0.096-4.464q-0.756 0-1.296 0.492t-0.66 1.32h3.816q-0.108-0.84-0.612-1.32-0.504-0.492-1.248-0.492z"/><path d="m19.704-5.796h0.96v0.9q0.348-0.504 0.876-0.768 0.54-0.276 1.2-0.276 1.152 0 1.8 0.744t0.648 2.04v3.156h-0.972v-3.096q0-0.912-0.456-1.44-0.444-0.528-1.248-0.528-0.828 0-1.332 0.564t-0.504 1.464v3.036h-0.972z"/><path d="m31.056-1.692q0 0.816-0.696 1.332t-1.812 0.516q-0.732 0-1.38-0.228-0.636-0.24-1.152-0.708l0.504-0.744q0.552 0.456 1.032 0.66t1.02 0.204q0.696 0 1.116-0.264 0.432-0.276 0.432-0.708 0-0.444-0.36-0.636-0.36-0.204-1.188-0.216-1.212-0.048-1.776-0.444-0.552-0.396-0.552-1.236 0-0.768 0.636-1.272 0.648-0.516 1.656-0.516 0.684 0 1.284 0.216t1.092 0.636l-0.468 0.732q-0.492-0.396-0.948-0.576t-0.972-0.18q-0.588 0-0.972 0.264-0.372 0.264-0.372 0.648 0 0.42 0.336 0.612t1.068 0.228q1.308 0.036 1.884 0.432 0.588 0.396 0.588 1.248z"/><path d="m37.812-2.892q0 1.308-0.876 2.196-0.876 0.876-2.16 0.876t-2.148-0.876q-0.852-0.876-0.852-2.184t0.876-2.184q0.876-0.888 2.16-0.888t2.136 0.876q0.864 0.876 0.864 2.184zm-5.04 0.012q0 0.936 0.576 1.572 0.588 0.636 1.452 0.636 0.852 0 1.428-0.636 0.588-0.636 0.588-1.584 0-0.924-0.588-1.56-0.588-0.648-1.44-0.648t-1.44 0.636q-0.576 0.636-0.576 1.584z"/><path d="m38.82-5.796h0.96v0.732q0.264-0.384 0.684-0.576t0.996-0.192h0.528v0.924h-0.54q-0.828 0-1.248 0.432-0.408 0.432-0.408 1.308v3.168h-0.972z"/><path d="m47.448-1.692q0 0.816-0.696 1.332t-1.812 0.516q-0.732 0-1.38-0.228-0.636-0.24-1.152-0.708l0.504-0.744q0.552 0.456 1.032 0.66t1.02 0.204q0.696 0 1.116-0.264 0.432-0.276 0.432-0.708 0-0.444-0.36-0.636-0.36-0.204-1.188-0.216-1.212-0.048-1.776-0.444-0.552-0.396-0.552-1.236 0-0.768 0.636-1.272 0.648-0.516 1.656-0.516 0.684 0 1.284 0.216t1.092 0.636l-0.468 0.732q-0.492-0.396-0.948-0.576t-0.972-0.18q-0.588 0-0.972 0.264-0.372 0.264-0.372 0.648 0 0.42 0.336 0.612t1.068 0.228q1.308 0.036 1.884 0.432 0.588 0.396 0.588 1.248z"/></g><g fill="#fff" fill-rule="evenodd" stroke="#000" stroke-miterlimit="8" stroke-width="1.3333"><path d="m549.5 706.5c0-5.523 9.626-10 21.5-10s21.5 4.477 21.5 10-9.626 10-21.5 10-21.5-4.477-21.5-10z"/><path d="m393.5 411.33c0-26.97 21.864-48.834 48.834-48.834h257.33c26.97 0 48.834 21.864 48.834 48.834v195.33c0 26.97-21.864 48.834-48.834 48.834h-257.33c-26.97 0-48.834-21.864-48.834-48.834z"/><path d="m505.5 271.5c0-5.523 9.626-10 21.5-10s21.5 4.477 21.5 10-9.626 10-21.5 10-21.5-4.477-21.5-10z"/><path d="m584.5 271.5c0-5.523 9.626-10 21.5-10s21.5 4.477 21.5 10-9.626 10-21.5 10-21.5-4.477-21.5-10z"/><path d="m481.5 319.5c0-5.523 9.402-10 21-10s21 4.477 21 10-9.402 10-21 10-21-4.477-21-10z"/><path d="m596.5 315.5c0-5.523 9.626-10 21.5-10s21.5 4.477 21.5 10-9.626 10-21.5 10-21.5-4.477-21.5-10z"/></g><path transform="matrix(1 0 0 -1 571 695.42)" d="m1-2.5974e-6 9e-5 33.753h-2l-8.8e-5 -33.752zm3.0001 32.419-4 8-4-8z"/><path d="m549.5 577.5c0-5.523 9.626-10 21.5-10s21.5 4.477 21.5 10-9.626 10-21.5 10-21.5-4.477-21.5-10z" fill="#fff" fill-rule="evenodd" stroke="#000" stroke-miterlimit="8" stroke-width="1.3333"/><path d="m446.5 611.5c0-5.523 9.626-10 21.5-10s21.5 4.477 21.5 10-9.626 10-21.5 10-21.5-4.477-21.5-10z" fill="#fff" fill-rule="evenodd" stroke="#000" stroke-miterlimit="8" stroke-width="1.3333"/><path d="m481.02 604.1 0.224-1.116 0.814-1.304 2.536-1.987 3.784-1.827 4.728-1.533 5.637-1.33 6.192-1.011 6.625-0.631 13.654-0.501-0.058 4e-3 6.563-0.625-0.067 8e-3 6.125-1-0.071 0.014 5.5-1.312-0.072 0.02 4.687-1.5-0.278 0.14 1.591-1.14 1.165 1.625-1.718 1.232-4.874 1.559-5.572 1.33-6.193 1.011-6.625 0.631-13.654 0.501 0.058-4e-3 -6.563 0.625 0.067-8e-3 -6.125 1 0.068-0.014-5.562 1.313 0.078-0.022-4.625 1.5 0.127-0.051-3.625 1.75 0.182-0.113-2.313 1.812 0.231-0.257-0.625 1 0.133-0.334-0.187 0.938zm65.099-18.017 8.694-2.099-3.537 8.215z"/><g transform="translate(436.78 594)" aria-label="fifo_queue"><path d="m1.02-4.932h-0.792v-0.864h0.792v-1.092q0-0.732 0.384-1.116 0.396-0.396 1.128-0.396h0.792v0.816h-0.648q-0.336 0-0.504 0.18t-0.168 0.54v1.068h1.32v0.864h-1.32v4.932h-0.984zm3.132-2.808h1.08v1.068h-1.08zm0.048 7.74v-5.796h0.984v5.796z"/><path d="m6.948-4.932h-0.792v-0.864h0.792v-1.092q0-0.732 0.384-1.116 0.396-0.396 1.128-0.396h0.792v0.816h-0.648q-0.336 0-0.504 0.18t-0.168 0.54v1.068h1.32v0.864h-1.32v4.932h-0.984z"/><path d="m15.672-2.892q0 1.308-0.876 2.196-0.876 0.876-2.16 0.876t-2.148-0.876q-0.852-0.876-0.852-2.184t0.876-2.184q0.876-0.888 2.16-0.888t2.136 0.876q0.864 0.876 0.864 2.184zm-5.04 0.012q0 0.936 0.576 1.572 0.588 0.636 1.452 0.636 0.852 0 1.428-0.636 0.588-0.636 0.588-1.584 0-0.924-0.588-1.56-0.588-0.648-1.44-0.648t-1.44 0.636q-0.576 0.636-0.576 1.584z"/><path d="m16.02 1.548v-0.876h6.096v0.876z"/><path d="m27.468-5.796h0.972v7.956h-0.984v-3.048q-0.384 0.48-0.948 0.744-0.552 0.264-1.176 0.264-1.224 0-2.052-0.84-0.816-0.852-0.816-2.16 0-1.332 0.84-2.196 0.852-0.864 2.076-0.864 0.612 0 1.164 0.264t0.924 0.732zm-2.04 5.064q0.876 0 1.464-0.624 0.6-0.636 0.6-1.56 0-0.936-0.576-1.548t-1.44-0.612q-0.888 0-1.452 0.6t-0.564 1.572 0.552 1.572 1.416 0.6z"/><path d="m35.124 0h-0.972v-0.888q-0.348 0.504-0.876 0.768-0.528 0.252-1.2 0.252-1.14 0-1.8-0.744-0.648-0.744-0.648-2.028v-3.156h0.984v3.096q0 0.912 0.444 1.44 0.456 0.528 1.26 0.528 0.816 0 1.32-0.564t0.504-1.464v-3.036h0.984z"/><path d="m39.18-0.648q0.576 0 1.056-0.24 0.492-0.252 0.9-0.756l0.588 0.54q-0.492 0.648-1.152 0.972-0.66 0.312-1.476 0.312-1.308 0-2.148-0.852-0.828-0.864-0.828-2.208 0-1.308 0.852-2.184t2.1-0.876q1.272 0 2.064 0.828t0.792 2.16q0 0.096-0.012 0.228-0.012 0.12-0.024 0.18h-4.764q0.096 0.852 0.66 1.38 0.576 0.516 1.392 0.516zm-0.096-4.464q-0.756 0-1.296 0.492t-0.66 1.32h3.816q-0.108-0.84-0.612-1.32-0.504-0.492-1.248-0.492z"/><path d="m48.336 0h-0.972v-0.888q-0.348 0.504-0.876 0.768-0.528 0.252-1.2 0.252-1.14 0-1.8-0.744-0.648-0.744-0.648-2.028v-3.156h0.984v3.096q0 0.912 0.444 1.44 0.456 0.528 1.26 0.528 0.816 0 1.32-0.564t0.504-1.464v-3.036h0.984z"/><path d="m52.392-0.648q0.576 0 1.056-0.24 0.492-0.252 0.9-0.756l0.588 0.54q-0.492 0.648-1.152 0.972-0.66 0.312-1.476 0.312-1.308 0-2.148-0.852-0.828-0.864-0.828-2.208 0-1.308 0.852-2.184t2.1-0.876q1.272 0 2.064 0.828t0.792 2.16q0 0.096-0.012 0.228-0.012 0.12-0.024 0.18h-4.764q0.096 0.852 0.66 1.38 0.576 0.516 1.392 0.516zm-0.096-4.464q-0.756 0-1.296 0.492t-0.66 1.32h3.816q-0.108-0.84-0.612-1.32-0.504-0.492-1.248-0.492z"/></g><path d="m548.3 577.67-2.141-0.335-2.229-1.045-2.087-1.615-2.095-2.226-2-2.709-1.977-3.253-1.966-3.743-1.898-4.238-1.827-4.662-1.822-5.153-1.821-5.588-1.758-5.964-1.694-6.399-1.631-6.712-3.068-14.591-2.88-15.778-2.567-16.9-2.315-17.836-1.94-18.651-1.502-19.271-1.189-19.709-0.688-20.087-0.168-13.532 2-0.025 0.167 13.522v-0.022l0.687 20.062-1e-3 -0.026 1.188 19.688-1e-3 -0.018 1.5 19.25-3e-3 -0.026 1.938 18.625-3e-3 -0.025 2.312 17.813-3e-3 -0.022 2.563 16.875-5e-3 -0.029 2.875 15.75-5e-3 -0.026 3.062 14.562-7e-3 -0.03 1.625 6.687-5e-3 -0.019 1.688 6.375-8e-3 -0.027 1.75 5.937-8e-3 -0.027 1.812 5.563-8e-3 -0.024 1.813 5.125-0.012-0.031 1.813 4.625-0.019-0.044 1.875 4.187-0.027-0.056 1.937 3.687-0.03-0.054 1.937 3.188-0.05-0.075 1.938 2.625-0.077-0.091 2 2.125-0.116-0.106 1.938 1.5-0.188-0.115 2 0.938-0.27-0.083 2 0.313zm-46.246-208.63 3.901-8.049 4.098 7.95z"/><path transform="matrix(1 0 0 -1 592 577.03)" d="m0.22162-0.97513 1.56 0.35454 1.6274 1.1096 1.5053 1.6422 1.4471 2.1706 1.4208 2.7125 1.3393 3.2526 1.3271 3.7284 1.3223 4.2187 1.3213 4.656 1.2563 5.1508 1.2546 5.5204 1.1914 5.9568 1.1903 6.3901 1.1278 6.7041 2.1908 14.459 1.9401 15.771 1.8144 16.83 1.5641 17.831 1.3135 18.576 1.126 19.204 0.7508 19.646 0.5734 33.47-1.9997 0.034-0.5733-33.459 6e-4 0.021-0.75-19.625 1e-3 0.02-1.125-19.187 8e-4 0.012-1.3125-18.563 0.0013 0.017-1.5625-17.813 2e-3 0.0198-1.8125-16.812 0.0017 0.0149-1.9375-15.75 0.0038 0.0277-2.1875-14.438 0.0026 0.0161-1.125-6.6875 3e-3 0.0172-1.1875-6.375 0.0025 0.013-1.1875-5.9375 0.0055 0.0255-1.25-5.5 0.0036 0.0154-1.25-5.125 0.0095 0.036-1.3125-4.625 0.00778 0.0261-1.3125-4.1875 0.01213 0.0362-1.3125-3.6875 0.01742 0.0454-1.3125-3.1874 0.03885 0.08326-1.375-2.625 0.05378 0.09069-1.375-2.0625 0.0949 0.12102-1.375-1.5 0.17381 0.15051-1.375-0.9375 0.34172 0.1489-1.375-0.3125zm33.141 207.97-3.8624 8.067-4.1365-7.93z"/><path transform="matrix(-1.837e-16 -1 -1 1.837e-16 506.04 362.23)" d="m0.030598-0.99953 6.143 0.18805 2.8593 0.19062 2.5394 0.31743 2.1574 0.31727 1.7201 0.33078 1.3469 0.47538 0.5354 0.53539 0.375 0.375-0.3743-0.23588 1.0625 0.375-0.144-0.03902 1.625 0.3125-0.0433-0.00735 2.125 0.3125-0.046-0.00568 2.5 0.25-0.0491-0.00369 2.2759 0.11492-0.1008 1.9975-2.3005-0.11616-2.5476-0.25476-2.1696-0.31907-1.7201-0.33078-1.3469-0.47538-0.5354-0.53539-0.375-0.375 0.3743 0.23588-1.0625-0.375 0.144 0.03902-1.625-0.3125 0.0433 0.00735-2.125-0.3125 0.0215 0.00292-2.5-0.3125 0.05751 0.00551-2.8125-0.1875 0.03592 0.00174-6.125-0.1875zm25.382 0.75298 7.8379 4.309-8.15 3.6849z"/><path transform="matrix(-1.837e-16 -1 -1 1.837e-16 620.82 363.43)" d="m0.026539-0.99965 7.078 0.18791 3.2791 0.18918 2.9723 0.25296 2.4747 0.31727 2.0017 0.32284 1.4566 0.38333 0.6118 0.52439 0.4375 0.375-0.3963-0.20781 1.1875 0.3125-0.0953-0.02017 1.9375 0.3125-0.032-0.00464 2.4375 0.3125-0.0424-0.00452 2.9375 0.25-0.0366-0.00244 3.5864 0.17297-0.0964 1.9977-3.6047-0.17386-2.977-0.25336-2.4747-0.31727-2.0017-0.32284-1.4566-0.38333-0.6118-0.52439-0.4375-0.375 0.3963 0.20781-1.1875-0.3125 0.0953 0.02017-1.9375-0.3125 0.032 0.00464-2.4375-0.3125 0.0424 0.00452-2.9375-0.25 0.0272 0.00194-3.25-0.1875 0.03106 0.00131-7.0625-0.1875zm30.536 0.63405 7.8751 4.2406-8.1175 3.7557z"/><path transform="matrix(1 0 0 -1 502 308.58)" d="m0.95677-0.29086 7.3584 24.205-1.9135 0.5817-7.3584-24.205zm9.8408 22.057-1.5002 8.8175-6.1539-6.4907z"/><path d="m525 260.91 0.446-5.033 1.3-4.549 0.879-1.827 0.988-1.481 1.258-1.101 1.202-0.376 1-0.312-0.36 0.202 1-0.875-0.174 0.198 0.875-1.313-0.075 0.134 0.813-1.75-0.068 0.199 0.608-2.672 1.95 0.445-0.632 2.774-0.889 1.916-0.992 1.487-1.258 1.101-1.202 0.375-1 0.313 0.361-0.202-1 0.875 0.173-0.198-0.875 1.313 0.069-0.121-0.812 1.687 0.06-0.159-1.25 4.375 0.035-0.186-0.438 4.937zm6.504-19.665 5.242-7.247 2.653 8.542z"/><g transform="translate(546.85 558)" aria-label="(batch_jo...batch_sizebatch_joinlabel_bat...Image_b...Inputphase_tr...0 tensors"><path d="m0.492-4.188q0-1.728 0.888-3.204 0.888-1.488 2.544-2.52l0.492 0.696q-1.416 0.948-2.172 2.232-0.744 1.284-0.744 2.772t0.744 2.772q0.756 1.284 2.172 2.232l-0.492 0.696q-1.656-1.032-2.544-2.496-0.888-1.476-0.888-3.18z"/><path d="m6.216 0h-0.96v-8.4h0.972v3.504q0.384-0.492 0.936-0.756 0.564-0.276 1.188-0.276 1.224 0 2.04 0.852 0.828 0.84 0.828 2.16 0 1.332-0.84 2.196-0.84 0.852-2.076 0.852-0.612 0-1.164-0.264-0.54-0.264-0.924-0.732zm2.04-5.064q-0.864 0-1.464 0.636-0.6 0.624-0.6 1.56 0 0.912 0.588 1.536 0.588 0.612 1.44 0.612 0.888 0 1.44-0.588 0.564-0.6 0.564-1.584 0-0.972-0.552-1.572-0.54-0.6-1.416-0.6z"/><path d="m17.208 0h-0.948v-0.948q-0.348 0.504-0.948 0.792-0.588 0.276-1.272 0.276-0.96 0-1.56-0.48-0.6-0.492-0.6-1.284 0-0.876 0.672-1.32 0.672-0.456 1.992-0.456h1.704q-0.012-0.816-0.432-1.26-0.408-0.444-1.176-0.444-0.456 0-0.9 0.192t-0.876 0.588l-0.516-0.648q0.504-0.48 1.104-0.72 0.6-0.252 1.284-0.252 1.164 0 1.812 0.696 0.66 0.684 0.66 1.896zm-0.96-2.664h-1.692q-0.876 0-1.296 0.24t-0.42 0.756q0 0.432 0.36 0.72 0.372 0.288 0.948 0.288 0.864 0 1.452-0.552 0.6-0.564 0.648-1.452z"/><path d="m18.672-1.548v-3.384h-0.792v-0.864h0.792v-1.776h0.972v1.776h1.344v0.864h-1.344v3.3q0 0.384 0.168 0.576 0.18 0.18 0.54 0.18h0.636v0.876h-0.78q-0.804 0-1.176-0.372-0.36-0.372-0.36-1.176z"/><path d="m24.612 0.18q-1.332 0-2.172-0.84-0.828-0.852-0.828-2.22 0-1.296 0.876-2.184t2.148-0.888q0.924 0 1.572 0.432 0.66 0.42 0.996 1.224l-0.828 0.396q-0.276-0.6-0.72-0.9-0.432-0.3-1.032-0.3-0.852 0-1.44 0.648-0.576 0.636-0.576 1.572 0 0.948 0.576 1.584 0.588 0.624 1.464 0.624 0.564 0 1.044-0.3 0.492-0.312 0.792-0.864l0.756 0.408q-0.348 0.744-1.044 1.176t-1.584 0.432z"/><path d="m28.212-8.4h0.972v3.48q0.348-0.492 0.864-0.756 0.528-0.264 1.176-0.264 1.164 0 1.812 0.744 0.66 0.744 0.66 2.04v3.156h-0.972v-3.096q0-0.924-0.456-1.44-0.456-0.528-1.272-0.528t-1.32 0.564q-0.492 0.564-0.492 1.464v3.036h-0.972z"/><path d="m34.236 1.548v-0.876h6.096v0.876z"/><path d="m41.016-7.74h1.08v1.068h-1.08zm1.032 1.944v6.396q0 0.756-0.396 1.152-0.384 0.408-1.128 0.408h-0.696v-0.816h0.564q0.336 0 0.504-0.192 0.168-0.18 0.168-0.54v-6.408z"/><path d="m49.2-2.892q0 1.308-0.876 2.196-0.876 0.876-2.16 0.876t-2.148-0.876q-0.852-0.876-0.852-2.184t0.876-2.184q0.876-0.888 2.16-0.888t2.136 0.876q0.864 0.876 0.864 2.184zm-5.04 0.012q0 0.936 0.576 1.572 0.588 0.636 1.452 0.636 0.852 0 1.428-0.636 0.588-0.636 0.588-1.584 0-0.924-0.588-1.56-0.588-0.648-1.44-0.648t-1.44 0.636q-0.576 0.636-0.576 1.584z"/><path d="m50.409-1.212h1.212v1.212h-1.212z"/><path d="m52.773-1.212h1.212v1.212h-1.212z"/><path d="m55.137-1.212h1.212v1.212h-1.212z"/><path d="m35.211 130h-0.96v-8.4h0.972v3.504q0.384-0.492 0.936-0.756 0.564-0.276 1.188-0.276 1.224 0 2.04 0.852 0.828 0.84 0.828 2.16 0 1.332-0.84 2.196-0.84 0.852-2.076 0.852-0.612 0-1.164-0.264-0.54-0.264-0.924-0.732zm2.04-5.064q-0.864 0-1.464 0.636-0.6 0.624-0.6 1.56 0 0.912 0.588 1.536 0.588 0.612 1.44 0.612 0.888 0 1.44-0.588 0.564-0.6 0.564-1.584 0-0.972-0.552-1.572-0.54-0.6-1.416-0.6z"/><path d="m46.203 130h-0.948v-0.948q-0.348 0.504-0.948 0.792-0.588 0.276-1.272 0.276-0.96 0-1.56-0.48-0.6-0.492-0.6-1.284 0-0.876 0.672-1.32 0.672-0.456 1.992-0.456h1.704q-0.012-0.816-0.432-1.26-0.408-0.444-1.176-0.444-0.456 0-0.9 0.192t-0.876 0.588l-0.516-0.648q0.504-0.48 1.104-0.72 0.6-0.252 1.284-0.252 1.164 0 1.812 0.696 0.66 0.684 0.66 1.896zm-0.96-2.664h-1.692q-0.876 0-1.296 0.24t-0.42 0.756q0 0.432 0.36 0.72 0.372 0.288 0.948 0.288 0.864 0 1.452-0.552 0.6-0.564 0.648-1.452z"/><path d="m47.667 128.45v-3.384h-0.792v-0.864h0.792v-1.776h0.972v1.776h1.344v0.864h-1.344v3.3q0 0.384 0.168 0.576 0.18 0.18 0.54 0.18h0.636v0.876h-0.78q-0.804 0-1.176-0.372-0.36-0.372-0.36-1.176z"/><path d="m53.607 130.18q-1.332 0-2.172-0.84-0.828-0.852-0.828-2.22 0-1.296 0.876-2.184t2.148-0.888q0.924 0 1.572 0.432 0.66 0.42 0.996 1.224l-0.828 0.396q-0.276-0.6-0.72-0.9-0.432-0.3-1.032-0.3-0.852 0-1.44 0.648-0.576 0.636-0.576 1.572 0 0.948 0.576 1.584 0.588 0.624 1.464 0.624 0.564 0 1.044-0.3 0.492-0.312 0.792-0.864l0.756 0.408q-0.348 0.744-1.044 1.176t-1.584 0.432z"/><path d="m57.207 121.6h0.972v3.48q0.348-0.492 0.864-0.756 0.528-0.264 1.176-0.264 1.164 0 1.812 0.744 0.66 0.744 0.66 2.04v3.156h-0.972v-3.096q0-0.924-0.456-1.44-0.456-0.528-1.272-0.528t-1.32 0.564q-0.492 0.564-0.492 1.464v3.036h-0.972z"/><path d="m63.231 131.55v-0.876h6.096v0.876z"/><path d="m74.607 128.31q0 0.816-0.696 1.332t-1.812 0.516q-0.732 0-1.38-0.228-0.636-0.24-1.152-0.708l0.504-0.744q0.552 0.456 1.032 0.66t1.02 0.204q0.696 0 1.116-0.264 0.432-0.276 0.432-0.708 0-0.444-0.36-0.636-0.36-0.204-1.188-0.216-1.212-0.048-1.776-0.444-0.552-0.396-0.552-1.236 0-0.768 0.636-1.272 0.648-0.516 1.656-0.516 0.684 0 1.284 0.216t1.092 0.636l-0.468 0.732q-0.492-0.396-0.948-0.576t-0.972-0.18q-0.588 0-0.972 0.264-0.372 0.264-0.372 0.648 0 0.42 0.336 0.612t1.068 0.228q1.308 0.036 1.884 0.432 0.588 0.396 0.588 1.248z"/><path d="m75.651 122.26h1.08v1.068h-1.08zm0.048 7.74v-5.796h0.984v5.796z"/><path d="m82.767 130h-5.076v-0.768l3.696-4.212h-3.552v-0.816h4.776v0.768l-3.66 4.212h3.816z"/><path d="m86.247 129.35q0.576 0 1.056-0.24 0.492-0.252 0.9-0.756l0.588 0.54q-0.492 0.648-1.152 0.972-0.66 0.312-1.476 0.312-1.308 0-2.148-0.852-0.828-0.864-0.828-2.208 0-1.308 0.852-2.184t2.1-0.876q1.272 0 2.064 0.828t0.792 2.16q0 0.096-0.012 0.228-0.012 0.12-0.024 0.18h-4.764q0.096 0.852 0.66 1.38 0.576 0.516 1.392 0.516zm-0.096-4.464q-0.756 0-1.296 0.492t-0.66 1.32h3.816q-0.108-0.84-0.612-1.32-0.504-0.492-1.248-0.492z"/><path d="m-27.358-171h-1.68v-14.7h1.701v6.132q0.672-0.861 1.638-1.323 0.987-0.483 2.079-0.483 2.142 0 3.57 1.491 1.449 1.47 1.449 3.78 0 2.331-1.47 3.843-1.47 1.491-3.633 1.491-1.071 0-2.037-0.462-0.945-0.462-1.617-1.281zm3.57-8.862q-1.512 0-2.562 1.113-1.05 1.092-1.05 2.73 0 1.596 1.029 2.688 1.029 1.071 2.52 1.071 1.554 0 2.52-1.029 0.987-1.05 0.987-2.772 0-1.701-0.966-2.751-0.945-1.05-2.478-1.05z"/><path d="m-8.1216-171h-1.659v-1.659q-0.609 0.882-1.659 1.386-1.029 0.483-2.226 0.483-1.68 0-2.73-0.84-1.05-0.861-1.05-2.247 0-1.533 1.176-2.31 1.176-0.798 3.486-0.798h2.982q-0.021-1.428-0.756-2.205-0.714-0.777-2.058-0.777-0.798 0-1.575 0.336t-1.533 1.029l-0.903-1.134q0.882-0.84 1.932-1.26 1.05-0.441 2.247-0.441 2.037 0 3.171 1.218 1.155 1.197 1.155 3.318zm-1.68-4.662h-2.961q-1.533 0-2.268 0.42t-0.735 1.323q0 0.756 0.63 1.26 0.651 0.504 1.659 0.504 1.512 0 2.541-0.966 1.05-0.987 1.134-2.541z"/><path d="m-5.5596-173.71v-5.922h-1.386v-1.512h1.386v-3.108h1.701v3.108h2.352v1.512h-2.352v5.775q0 0.672 0.294 1.008 0.315 0.315 0.945 0.315h1.113v1.533h-1.365q-1.407 0-2.058-0.651-0.63-0.651-0.63-2.058z"/><path d="m4.8354-170.68q-2.331 0-3.801-1.47-1.449-1.491-1.449-3.885 0-2.268 1.533-3.822 1.533-1.554 3.759-1.554 1.617 0 2.751 0.756 1.155 0.735 1.743 2.142l-1.449 0.693q-0.483-1.05-1.26-1.575-0.756-0.525-1.806-0.525-1.491 0-2.52 1.134-1.008 1.113-1.008 2.751 0 1.659 1.008 2.772 1.029 1.092 2.562 1.092 0.987 0 1.827-0.525 0.861-0.546 1.386-1.512l1.323 0.714q-0.609 1.302-1.827 2.058t-2.772 0.756z"/><path d="m11.135-185.7h1.701v6.09q0.609-0.861 1.512-1.323 0.924-0.462 2.058-0.462 2.037 0 3.171 1.302 1.155 1.302 1.155 3.57v5.523h-1.701v-5.418q0-1.617-0.798-2.52-0.798-0.924-2.226-0.924t-2.31 0.987q-0.861 0.987-0.861 2.562v5.313h-1.701z"/><path d="m21.677-168.29v-1.533h10.668v1.533z"/><path d="m33.542-184.54h1.89v1.869h-1.89zm1.806 3.402v11.193q0 1.323-0.693 2.016-0.672 0.714-1.974 0.714h-1.218v-1.428h0.987q0.588 0 0.882-0.336 0.294-0.315 0.294-0.945v-11.214z"/><path d="m47.864-176.06q0 2.289-1.533 3.843-1.533 1.533-3.78 1.533t-3.759-1.533q-1.491-1.533-1.491-3.822t1.533-3.822q1.533-1.554 3.78-1.554t3.738 1.533q1.512 1.533 1.512 3.822zm-8.82 0.021q0 1.638 1.008 2.751 1.029 1.113 2.541 1.113 1.491 0 2.499-1.113 1.029-1.113 1.029-2.772 0-1.617-1.029-2.73-1.029-1.134-2.52-1.134t-2.52 1.113q-1.008 1.113-1.008 2.772z"/><path d="m49.733-184.54h1.89v1.869h-1.89zm0.084 13.545v-10.143h1.722v10.143z"/><path d="m53.954-181.14h1.68v1.575q0.609-0.882 1.533-1.344 0.945-0.483 2.1-0.483 2.016 0 3.15 1.302t1.134 3.57v5.523h-1.701v-5.418q0-1.596-0.798-2.52-0.777-0.924-2.184-0.924-1.449 0-2.331 0.987t-0.882 2.562v5.313h-1.701z"/><path d="m46.654-263.4h0.984v8.4h-0.984z"/><path d="m53.998-255h-0.948v-0.948q-0.348 0.504-0.948 0.792-0.588 0.276-1.272 0.276-0.96 0-1.56-0.48-0.6-0.492-0.6-1.284 0-0.876 0.672-1.32 0.672-0.456 1.992-0.456h1.704q-0.012-0.816-0.432-1.26-0.408-0.444-1.176-0.444-0.456 0-0.9 0.192t-0.876 0.588l-0.516-0.648q0.504-0.48 1.104-0.72 0.6-0.252 1.284-0.252 1.164 0 1.812 0.696 0.66 0.684 0.66 1.896zm-0.96-2.664h-1.692q-0.876 0-1.296 0.24t-0.42 0.756q0 0.432 0.36 0.72 0.372 0.288 0.948 0.288 0.864 0 1.452-0.552 0.6-0.564 0.648-1.452z"/><path d="m56.158-255h-0.96v-8.4h0.972v3.504q0.384-0.492 0.936-0.756 0.564-0.276 1.188-0.276 1.224 0 2.04 0.852 0.828 0.84 0.828 2.16 0 1.332-0.84 2.196-0.84 0.852-2.076 0.852-0.612 0-1.164-0.264-0.54-0.264-0.924-0.732zm2.04-5.064q-0.864 0-1.464 0.636-0.6 0.624-0.6 1.56 0 0.912 0.588 1.536 0.588 0.612 1.44 0.612 0.888 0 1.44-0.588 0.564-0.6 0.564-1.584 0-0.972-0.552-1.572-0.54-0.6-1.416-0.6z"/><path d="m64.966-255.65q0.576 0 1.056-0.24 0.492-0.252 0.9-0.756l0.588 0.54q-0.492 0.648-1.152 0.972-0.66 0.312-1.476 0.312-1.308 0-2.148-0.852-0.828-0.864-0.828-2.208 0-1.308 0.852-2.184t2.1-0.876q1.272 0 2.064 0.828t0.792 2.16q0 0.096-0.012 0.228-0.012 0.12-0.024 0.18h-4.764q0.096 0.852 0.66 1.38 0.576 0.516 1.392 0.516zm-0.096-4.464q-0.756 0-1.296 0.492t-0.66 1.32h3.816q-0.108-0.84-0.612-1.32-0.504-0.492-1.248-0.492z"/><path d="m68.806-263.4h0.984v8.4h-0.984z"/><path d="m70.51-253.45v-0.876h6.096v0.876z"/><path d="m78.178-255h-0.96v-8.4h0.972v3.504q0.384-0.492 0.936-0.756 0.564-0.276 1.188-0.276 1.224 0 2.04 0.852 0.828 0.84 0.828 2.16 0 1.332-0.84 2.196-0.84 0.852-2.076 0.852-0.612 0-1.164-0.264-0.54-0.264-0.924-0.732zm2.04-5.064q-0.864 0-1.464 0.636-0.6 0.624-0.6 1.56 0 0.912 0.588 1.536 0.588 0.612 1.44 0.612 0.888 0 1.44-0.588 0.564-0.6 0.564-1.584 0-0.972-0.552-1.572-0.54-0.6-1.416-0.6z"/><path d="m89.17-255h-0.948v-0.948q-0.348 0.504-0.948 0.792-0.588 0.276-1.272 0.276-0.96 0-1.56-0.48-0.6-0.492-0.6-1.284 0-0.876 0.672-1.32 0.672-0.456 1.992-0.456h1.704q-0.012-0.816-0.432-1.26-0.408-0.444-1.176-0.444-0.456 0-0.9 0.192t-0.876 0.588l-0.516-0.648q0.504-0.48 1.104-0.72 0.6-0.252 1.284-0.252 1.164 0 1.812 0.696 0.66 0.684 0.66 1.896zm-0.96-2.664h-1.692q-0.876 0-1.296 0.24t-0.42 0.756q0 0.432 0.36 0.72 0.372 0.288 0.948 0.288 0.864 0 1.452-0.552 0.6-0.564 0.648-1.452z"/><path d="m90.634-256.55v-3.384h-0.792v-0.864h0.792v-1.776h0.972v1.776h1.344v0.864h-1.344v3.3q0 0.384 0.168 0.576 0.18 0.18 0.54 0.18h0.636v0.876h-0.78q-0.804 0-1.176-0.372-0.36-0.372-0.36-1.176z"/><path d="m93.874-256.21h1.212v1.212h-1.212z"/><path d="m96.238-256.21h1.212v1.212h-1.212z"/><path d="m98.602-256.21h1.212v1.212h-1.212z"/><path d="m-98.179-255v-8.4h1.032v8.4z"/><path d="m-95.647-260.8h0.96v0.696q0.324-0.42 0.732-0.624 0.42-0.216 0.936-0.216 0.6 0 1.068 0.252t0.744 0.732q0.324-0.48 0.816-0.732 0.504-0.252 1.128-0.252 1.02 0 1.62 0.66 0.612 0.66 0.612 1.716v3.564h-0.984v-3.504q0-0.732-0.372-1.14-0.36-0.42-1.02-0.42-0.648 0-1.056 0.456-0.396 0.444-0.396 1.164v3.444h-0.972v-3.504q0-0.732-0.372-1.14-0.36-0.42-1.02-0.42-0.648 0-1.056 0.456-0.396 0.444-0.396 1.164v3.444h-0.972z"/><path d="m-80.851-255h-0.948v-0.948q-0.348 0.504-0.948 0.792-0.588 0.276-1.272 0.276-0.96 0-1.56-0.48-0.6-0.492-0.6-1.284 0-0.876 0.672-1.32 0.672-0.456 1.992-0.456h1.704q-0.012-0.816-0.432-1.26-0.408-0.444-1.176-0.444-0.456 0-0.9 0.192t-0.876 0.588l-0.516-0.648q0.504-0.48 1.104-0.72 0.6-0.252 1.284-0.252 1.164 0 1.812 0.696 0.66 0.684 0.66 1.896zm-0.96-2.664h-1.692q-0.876 0-1.296 0.24t-0.42 0.756q0 0.432 0.36 0.72 0.372 0.288 0.948 0.288 0.864 0 1.452-0.552 0.6-0.564 0.648-1.452z"/><path d="m-74.911-255.68v-0.408q-0.396 0.48-0.96 0.744-0.552 0.264-1.188 0.264-1.224 0-2.04-0.816t-0.816-2.1q0-1.272 0.828-2.1 0.84-0.84 2.064-0.84 0.624 0 1.176 0.264t0.948 0.744v-0.864h0.972v5.076q0 1.44-0.768 2.16t-2.316 0.72h-1.464v-0.84h1.512q1.02 0 1.536-0.504t0.516-1.5zm-2.004-0.264q0.864 0 1.452-0.588 0.6-0.6 0.6-1.464 0-0.888-0.6-1.476-0.588-0.6-1.452-0.6-0.9 0-1.452 0.564t-0.552 1.5q0 0.924 0.552 1.5 0.564 0.564 1.452 0.564z"/><path d="m-69.871-255.65q0.576 0 1.056-0.24 0.492-0.252 0.9-0.756l0.588 0.54q-0.492 0.648-1.152 0.972-0.66 0.312-1.476 0.312-1.308 0-2.148-0.852-0.828-0.864-0.828-2.208 0-1.308 0.852-2.184t2.1-0.876q1.272 0 2.064 0.828t0.792 2.16q0 0.096-0.012 0.228-0.012 0.12-0.024 0.18h-4.764q0.096 0.852 0.66 1.38 0.576 0.516 1.392 0.516zm-0.096-4.464q-0.756 0-1.296 0.492t-0.66 1.32h3.816q-0.108-0.84-0.612-1.32-0.504-0.492-1.248-0.492z"/><path d="m-66.799-253.45v-0.876h6.096v0.876z"/><path d="m-59.131-255h-0.96v-8.4h0.972v3.504q0.384-0.492 0.936-0.756 0.564-0.276 1.188-0.276 1.224 0 2.04 0.852 0.828 0.84 0.828 2.16 0 1.332-0.84 2.196-0.84 0.852-2.076 0.852-0.612 0-1.164-0.264-0.54-0.264-0.924-0.732zm2.04-5.064q-0.864 0-1.464 0.636-0.6 0.624-0.6 1.56 0 0.912 0.588 1.536 0.588 0.612 1.44 0.612 0.888 0 1.44-0.588 0.564-0.6 0.564-1.584 0-0.972-0.552-1.572-0.54-0.6-1.416-0.6z"/><path d="m-53.263-256.21h1.212v1.212h-1.212z"/><path d="m-50.899-256.21h1.212v1.212h-1.212z"/><path d="m-48.535-256.21h1.212v1.212h-1.212z"/><path d="m-15.716-299v-7.7h0.946v7.7z"/><path d="m-13.395-304.31h0.88v0.825q0.319-0.462 0.803-0.704 0.495-0.253 1.1-0.253 1.056 0 1.65 0.682t0.594 1.87v2.893h-0.891v-2.838q0-0.836-0.418-1.32-0.407-0.484-1.144-0.484-0.759 0-1.221 0.517t-0.462 1.342v2.783h-0.891z"/><path d="m-6.3766-297.02h-0.891v-7.293h0.88v0.858q0.352-0.462 0.869-0.715 0.517-0.264 1.1-0.264 1.122 0 1.87 0.781 0.748 0.77 0.748 1.98 0 1.221-0.781 2.013-0.77 0.781-1.903 0.781-0.539 0-1.045-0.22-0.495-0.231-0.847-0.649zm1.859-6.622q-0.803 0-1.353 0.583-0.539 0.572-0.539 1.43 0 0.847 0.528 1.408 0.539 0.561 1.331 0.561 0.814 0 1.32-0.539 0.517-0.55 0.517-1.452 0-0.891-0.506-1.441-0.495-0.55-1.298-0.55z"/><path d="m4.0954-299h-0.891v-0.814q-0.319 0.462-0.803 0.704-0.484 0.231-1.1 0.231-1.045 0-1.65-0.682-0.594-0.682-0.594-1.859v-2.893h0.902v2.838q0 0.836 0.407 1.32 0.418 0.484 1.155 0.484 0.748 0 1.21-0.517t0.462-1.342v-2.783h0.902z"/><path d="m5.5474-300.42v-3.102h-0.726v-0.792h0.726v-1.628h0.891v1.628h1.232v0.792h-1.232v3.025q0 0.352 0.154 0.528 0.165 0.165 0.495 0.165h0.583v0.803h-0.715q-0.737 0-1.078-0.341-0.33-0.341-0.33-1.078z"/><path d="m9.4634-297.02h-0.891v-7.293h0.88v0.858q0.352-0.462 0.869-0.715 0.517-0.264 1.1-0.264 1.122 0 1.87 0.781 0.748 0.77 0.748 1.98 0 1.221-0.781 2.013-0.77 0.781-1.903 0.781-0.539 0-1.045-0.22-0.495-0.231-0.847-0.649zm1.859-6.622q-0.803 0-1.353 0.583-0.539 0.572-0.539 1.43 0 0.847 0.528 1.408 0.539 0.561 1.331 0.561 0.814 0 1.32-0.539 0.517-0.55 0.517-1.452 0-0.891-0.506-1.441-0.495-0.55-1.298-0.55z"/><path d="m14.963-306.7h0.891v3.19q0.319-0.451 0.792-0.693 0.484-0.242 1.078-0.242 1.067 0 1.661 0.682 0.605 0.682 0.605 1.87v2.893h-0.891v-2.838q0-0.847-0.418-1.32-0.418-0.484-1.166-0.484t-1.21 0.517q-0.451 0.517-0.451 1.342v2.783h-0.891z"/><path d="m25.655-299h-0.869v-0.869q-0.319 0.462-0.869 0.726-0.539 0.253-1.166 0.253-0.88 0-1.43-0.44-0.55-0.451-0.55-1.177 0-0.803 0.616-1.21 0.616-0.418 1.826-0.418h1.562q-0.011-0.748-0.396-1.155-0.374-0.407-1.078-0.407-0.418 0-0.825 0.176t-0.803 0.539l-0.473-0.594q0.462-0.44 1.012-0.66 0.55-0.231 1.177-0.231 1.067 0 1.661 0.638 0.605 0.627 0.605 1.738zm-0.88-2.442h-1.551q-0.803 0-1.188 0.22t-0.385 0.693q0 0.396 0.33 0.66 0.341 0.264 0.869 0.264 0.792 0 1.331-0.506 0.55-0.517 0.594-1.331z"/><path d="m31.034-300.55q0 0.748-0.638 1.221t-1.661 0.473q-0.671 0-1.265-0.209-0.583-0.22-1.056-0.649l0.462-0.682q0.506 0.418 0.946 0.605t0.935 0.187q0.638 0 1.023-0.242 0.396-0.253 0.396-0.649 0-0.407-0.33-0.583-0.33-0.187-1.089-0.198-1.111-0.044-1.628-0.407-0.506-0.363-0.506-1.133 0-0.704 0.583-1.166 0.594-0.473 1.518-0.473 0.627 0 1.177 0.198t1.001 0.583l-0.429 0.671q-0.451-0.363-0.869-0.528t-0.891-0.165q-0.539 0-0.891 0.242-0.341 0.242-0.341 0.594 0 0.385 0.308 0.561t0.979 0.209q1.199 0.033 1.727 0.396 0.539 0.363 0.539 1.144z"/><path d="m34.499-299.59q0.528 0 0.968-0.22 0.451-0.231 0.825-0.693l0.539 0.495q-0.451 0.594-1.056 0.891-0.605 0.286-1.353 0.286-1.199 0-1.969-0.781-0.759-0.792-0.759-2.024 0-1.199 0.781-2.002t1.925-0.803q1.166 0 1.892 0.759t0.726 1.98q0 0.088-0.011 0.209-0.011 0.11-0.022 0.165h-4.367q0.088 0.781 0.605 1.265 0.528 0.473 1.276 0.473zm-0.088-4.092q-0.693 0-1.188 0.451t-0.605 1.21h3.498q-0.099-0.77-0.561-1.21-0.462-0.451-1.144-0.451z"/><path d="m37.315-297.58v-0.803h5.588v0.803z"/><path d="m43.761-300.42v-3.102h-0.726v-0.792h0.726v-1.628h0.891v1.628h1.232v0.792h-1.232v3.025q0 0.352 0.154 0.528 0.165 0.165 0.495 0.165h0.583v0.803h-0.715q-0.737 0-1.078-0.341-0.33-0.341-0.33-1.078z"/><path d="m46.786-304.31h0.88v0.671q0.242-0.352 0.627-0.528t0.913-0.176h0.484v0.847h-0.495q-0.759 0-1.144 0.396-0.374 0.396-0.374 1.199v2.904h-0.891z"/><path d="m49.679-300.11h1.111v1.111h-1.111z"/><path d="m51.846-300.11h1.111v1.111h-1.111z"/><path d="m54.013-300.11h1.111v1.111h-1.111z"/><path d="m60.381-308.66v-0.352q0-1.771 0.847-2.816t2.266-1.045 2.244 1.034q0.836 1.034 0.836 2.805v0.352q0 1.771-0.847 2.816-0.836 1.045-2.255 1.045t-2.255-1.034-0.836-2.805zm3.091-3.377q-1.012 0-1.584 0.792-0.561 0.792-0.561 2.211v0.352q0 1.43 0.572 2.233 0.572 0.792 1.584 0.792t1.573-0.792q0.572-0.792 0.572-2.211v-0.352q0-1.43-0.572-2.222-0.572-0.803-1.584-0.803z"/><path d="m69.896-306.42v-3.102h-0.726v-0.792h0.726v-1.628h0.891v1.628h1.232v0.792h-1.232v3.025q0 0.352 0.154 0.528 0.165 0.165 0.495 0.165h0.583v0.803h-0.715q-0.737 0-1.078-0.341-0.33-0.341-0.33-1.078z"/><path d="m75.396-305.59q0.528 0 0.968-0.22 0.451-0.231 0.825-0.693l0.539 0.495q-0.451 0.594-1.056 0.891-0.605 0.286-1.353 0.286-1.199 0-1.969-0.781-0.759-0.792-0.759-2.024 0-1.199 0.781-2.002t1.925-0.803q1.166 0 1.892 0.759t0.726 1.98q0 0.088-0.011 0.209-0.011 0.11-0.022 0.165h-4.367q0.088 0.781 0.605 1.265 0.528 0.473 1.276 0.473zm-0.088-4.092q-0.693 0-1.188 0.451t-0.605 1.21h3.498q-0.099-0.77-0.561-1.21-0.462-0.451-1.144-0.451z"/><path d="m78.817-310.31h0.88v0.825q0.319-0.462 0.803-0.704 0.495-0.253 1.1-0.253 1.056 0 1.65 0.682t0.594 1.87v2.893h-0.891v-2.838q0-0.836-0.418-1.32-0.407-0.484-1.144-0.484-0.759 0-1.221 0.517t-0.462 1.342v2.783h-0.891z"/><path d="m89.223-306.55q0 0.748-0.638 1.221t-1.661 0.473q-0.671 0-1.265-0.209-0.583-0.22-1.056-0.649l0.462-0.682q0.506 0.418 0.946 0.605t0.935 0.187q0.638 0 1.023-0.242 0.396-0.253 0.396-0.649 0-0.407-0.33-0.583-0.33-0.187-1.089-0.198-1.111-0.044-1.628-0.407-0.506-0.363-0.506-1.133 0-0.704 0.583-1.166 0.594-0.473 1.518-0.473 0.627 0 1.177 0.198t1.001 0.583l-0.429 0.671q-0.451-0.363-0.869-0.528t-0.891-0.165q-0.539 0-0.891 0.242-0.341 0.242-0.341 0.594 0 0.385 0.308 0.561t0.979 0.209q1.199 0.033 1.727 0.396 0.539 0.363 0.539 1.144z"/><path d="m95.416-307.65q0 1.199-0.803 2.013-0.803 0.803-1.98 0.803t-1.969-0.803q-0.781-0.803-0.781-2.002t0.803-2.002q0.803-0.814 1.98-0.814t1.958 0.803q0.792 0.803 0.792 2.002zm-4.62 0.011q0 0.858 0.528 1.441 0.539 0.583 1.331 0.583 0.781 0 1.309-0.583 0.539-0.583 0.539-1.452 0-0.847-0.539-1.43-0.539-0.594-1.32-0.594t-1.32 0.583q-0.528 0.583-0.528 1.452z"/><path d="m96.34-310.31h0.88v0.671q0.242-0.352 0.627-0.528t0.913-0.176h0.484v0.847h-0.495q-0.759 0-1.144 0.396-0.374 0.396-0.374 1.199v2.904h-0.891z"/><path d="m104.25-306.55q0 0.748-0.638 1.221t-1.661 0.473q-0.671 0-1.265-0.209-0.583-0.22-1.056-0.649l0.462-0.682q0.506 0.418 0.946 0.605t0.935 0.187q0.638 0 1.023-0.242 0.396-0.253 0.396-0.649 0-0.407-0.33-0.583-0.33-0.187-1.089-0.198-1.111-0.044-1.628-0.407-0.506-0.363-0.506-1.133 0-0.704 0.583-1.166 0.594-0.473 1.518-0.473 0.627 0 1.177 0.198t1.001 0.583l-0.429 0.671q-0.451-0.363-0.869-0.528t-0.891-0.165q-0.539 0-0.891 0.242-0.341 0.242-0.341 0.594 0 0.385 0.308 0.561t0.979 0.209q1.199 0.033 1.727 0.396 0.539 0.363 0.539 1.144z"/></g><path d="m569.41 655.28-0.373-61.611 2-0.012 0.373 61.611zm-3.365-60.26 3.952-8.024 4.048 7.976z"/><path d="m604.53 260.73-2.681-20.991 1.984-0.254 2.68 20.991zm-5.488-19.289 2.955-8.442 4.981 7.429z"/></g></svg>
