<svg width="1280" height="720" xmlns="http://www.w3.org/2000/svg" xmlns:xlink="http://www.w3.org/1999/xlink" overflow="hidden"><defs><clipPath id="clip0"><rect x="0" y="0" width="1280" height="720"/></clipPath></defs><g clip-path="url(#clip0)"><rect x="0" y="0" width="1280" height="720" fill="#FFFFFF"/><path d="M479.5 24.0001C479.5 20.9625 481.962 18.5001 485 18.5001L659 18.5001C662.038 18.5001 664.5 20.9625 664.5 24.0001L664.5 46C664.5 49.0376 662.038 51.5 659 51.5L485 51.5C481.962 51.5 479.5 49.0376 479.5 46Z" stroke="#BFBFBF" stroke-width="1.33333" stroke-miterlimit="8" fill="#E7E6E6" fill-rule="evenodd"/><text font-family="IntelOne Display Regular,IntelOne Display Regular_MSFontService,sans-serif" font-weight="400" font-size="24" transform="translate(505.833 43)">embeddings</text><path d="M479.5 123.667C479.5 111.425 489.425 101.5 501.667 101.5L642.333 101.5C654.576 101.5 664.5 111.425 664.5 123.667L664.5 212.333C664.5 224.576 654.576 234.5 642.333 234.5L501.667 234.5C489.425 234.5 479.5 224.576 479.5 212.333Z" stroke="#BFBFBF" stroke-width="1.33333" stroke-miterlimit="8" fill="#E7E6E6" fill-rule="evenodd"/><text font-family="IntelOne Display Regular,IntelOne Display Regular_MSFontService,sans-serif" font-weight="400" font-size="19" transform="translate(499.25 174)">InceptionResent...</text><path d="M1-2.09974e-06 1.00009 43.3332-0.999909 43.3332-1 2.09974e-06ZM4.00009 41.9999 0.000104987 49.9999-3.99991 41.9999Z" fill="#A5A5A5" transform="matrix(1 0 0 -1 571 101)"/><text font-family="IntelOne Display Regular,IntelOne Display Regular_MSFontService,sans-serif" font-weight="400" font-size="12" transform="translate(548.6 81)">2 tensors</text><path d="M549.5 706.5C549.5 700.977 559.126 696.5 571 696.5 582.874 696.5 592.5 700.977 592.5 706.5 592.5 712.023 582.874 716.5 571 716.5 559.126 716.5 549.5 712.023 549.5 706.5Z" stroke="#BFBFBF" stroke-width="1.33333" stroke-miterlimit="8" fill="#FFFFFF" fill-rule="evenodd"/><path d="M393.5 411.334C393.5 384.364 415.364 362.5 442.334 362.5L699.666 362.5C726.636 362.5 748.5 384.364 748.5 411.334L748.5 606.666C748.5 633.636 726.636 655.5 699.666 655.5L442.334 655.5C415.364 655.5 393.5 633.636 393.5 606.666Z" stroke="#BFBFBF" stroke-width="1.33333" stroke-miterlimit="8" fill="#E7E6E6" fill-rule="evenodd"/><path d="M505.5 271.5C505.5 265.977 515.126 261.5 527 261.5 538.874 261.5 548.5 265.977 548.5 271.5 548.5 277.023 538.874 281.5 527 281.5 515.126 281.5 505.5 277.023 505.5 271.5Z" stroke="#BFBFBF" stroke-width="1.33333" stroke-miterlimit="8" fill="#FFFFFF" fill-rule="evenodd"/><path d="M582.5 271.5C582.5 265.977 592.126 261.5 604 261.5 615.874 261.5 625.5 265.977 625.5 271.5 625.5 277.023 615.874 281.5 604 281.5 592.126 281.5 582.5 277.023 582.5 271.5Z" stroke="#BFBFBF" stroke-width="1.33333" stroke-miterlimit="8" fill="#FFFFFF" fill-rule="evenodd"/><path d="M481.5 319.5C481.5 313.977 490.902 309.5 502.5 309.5 514.098 309.5 523.5 313.977 523.5 319.5 523.5 325.023 514.098 329.5 502.5 329.5 490.902 329.5 481.5 325.023 481.5 319.5Z" stroke="#BFBFBF" stroke-width="1.33333" stroke-miterlimit="8" fill="#FFFFFF" fill-rule="evenodd"/><path d="M564.5 318.5C564.5 312.977 574.126 308.5 586 308.5 597.874 308.5 607.5 312.977 607.5 318.5 607.5 324.023 597.874 328.5 586 328.5 574.126 328.5 564.5 324.023 564.5 318.5Z" stroke="#BFBFBF" stroke-width="1.33333" stroke-miterlimit="8" fill="#FFFFFF" fill-rule="evenodd"/><path d="M1-2.59745e-06 1.00009 33.7525-0.999912 33.7525-1 2.59745e-06ZM4.00008 32.4192 0.000104987 40.4192-3.99992 32.4192Z" fill="#A5A5A5" transform="matrix(1 0 0 -1 571 695.419)"/><path d="M482.5 480.5C482.5 474.977 492.126 470.5 504 470.5 515.874 470.5 525.5 474.977 525.5 480.5 525.5 486.023 515.874 490.5 504 490.5 492.126 490.5 482.5 486.023 482.5 480.5Z" stroke="#BFBFBF" stroke-width="1.33333" stroke-miterlimit="8" fill="#FFFFFF" fill-rule="evenodd"/><path d="M459.5 540.5C459.5 534.977 469.126 530.5 481 530.5 492.874 530.5 502.5 534.977 502.5 540.5 502.5 546.023 492.874 550.5 481 550.5 469.126 550.5 459.5 546.023 459.5 540.5Z" stroke="#BFBFBF" stroke-width="1.33333" stroke-miterlimit="8" fill="#FFFFFF" fill-rule="evenodd"/><path d="M0.124035 0.992278-4.37597 1.55478-4.1356 1.49374-8.4481 3.18124-8.279 3.0958-12.3415 5.6583-12.1936 5.54439-15.8186 8.91939-15.7106 8.80144-18.7731 12.7389-18.6808 12.5969-21.0558 17.0344-20.9851 16.8673-22.4851 21.5548-22.4441 21.3646-23.0066 26.2396-23.0215 25.919-22.7715 27.1065-22.9308 26.739-22.0558 27.989-22.2041 27.821-20.8916 29.0085-21.0078 28.9179-19.1328 30.1679-19.2403 30.1056-16.8653 31.2931-16.9235 31.2662-14.111 32.4538-14.1784 32.4281-10.8659 33.5531-10.881 33.5481-7.19347 34.7356-7.24054 34.7217-3.05304 35.8467-3.0731 35.8416 1.4894 36.9666 1.46037 36.9599 6.39787 38.0224 6.38362 38.0194 11.6961 39.0819 11.6747 39.0779 23.2997 41.1404 23.2684 41.1353 36.2059 43.0103 36.1903 43.0082 50.2528 44.8207 50.2282 44.8178 65.2907 46.3803 65.2738 46.3787 81.1488 47.7537 81.1337 47.7525 97.7587 48.94 97.7422 48.939 114.867 49.8765 114.855 49.8759 132.418 50.6259 132.391 50.6251 161.6 51.0831 161.568 53.0829 132.346 52.6247 114.764 51.8738 97.6245 50.9356 80.9837 49.7469 65.0928 48.3705 50.0095 46.8059 35.9269 44.9908 22.9659 43.1124 11.3146 41.0452 5.98424 39.9792 1.02506 38.912-3.56196 37.7809-7.78316 36.6469-11.5016 35.4494-14.8557 34.3103-17.731 33.0963-20.1904 31.8666-22.1786 30.5411-23.6295 29.2284-24.6864 27.7185-25.012 26.1719-24.4197 21.0383-22.8622 16.1709-20.404 11.5782-17.2401 7.51025-13.4878 4.01672-9.26552 1.35343-4.74803-0.414278-0.124035-0.992278ZM160.314 48.0626 168.25 52.1875 160.188 56.0616Z" fill="#A5A5A5" transform="matrix(-6.12323e-17 -1 -1 6.12323e-17 571.162 655.238)"/><path d="M479.002 529.807 479.257 525.986 480.033 522.299 481.198 518.806 482.757 515.621 484.533 512.991 486.626 510.83 489.011 509.427 491.298 508.956 493.423 508.519 493.118 508.636 495.243 507.386 495.032 507.552 496.969 505.552 496.862 505.684 498.612 503.122 498.536 503.253 499.973 500.253 499.911 500.421 501.037 496.324 502.965 496.854 501.816 501.037 500.306 504.187 498.465 506.883 496.374 509.041 493.989 510.444 491.702 510.915 489.577 511.353 489.882 511.235 487.757 512.485 487.968 512.319 486.031 514.319 486.141 514.183 484.454 516.683 484.523 516.563 483.023 519.625 483.074 519.502 481.949 522.877 481.979 522.767 481.229 526.329 481.248 526.19 480.998 529.94ZM497.846 497.308 503 489.998 505.756 498.507Z" fill="#A5A5A5"/><text font-family="IntelOne Display Regular,IntelOne Display Regular_MSFontService,sans-serif" font-weight="400" font-size="12" transform="translate(455.281 524)">fifo_queue</text><path d="M0.0830455 0.996546-2.16695 1.18405-2.00746 1.15764-4.25746 1.72014-4.06854 1.65213-8.38104 3.71463-8.19521 3.59924-12.2577 6.78674-12.1189 6.6545-15.7439 10.842-15.6532 10.7194-18.7157 15.5944-18.6444 15.4589-21.0194 20.9589-20.9686 20.8099-22.4686 26.6849-22.4418 26.5299-23.0043 32.5924-23.0019 32.4389-22.8144 35.5014-22.8335 35.3585-22.2085 38.3585-22.2388 38.2463-21.2388 41.2463-21.2854 41.131-19.9104 44.006-19.9775 43.8872-16.3525 49.3872-16.4623 49.249-11.7748 54.1865-11.9086 54.0686-6.28364 58.1936-6.41704 58.111-0.229543 61.2985-0.392787 61.2319 6.29471 63.2944 6.16149 63.2631 9.59899 63.8256 9.49196 63.814 12.9475 64.0025 16.4907 64.3246 20.0866 65.3053 23.5922 66.8633 26.9422 68.9249 30.2144 71.4271 33.3536 74.4382 36.2858 77.8804 39.0299 81.6456 43.781 90.0709 47.4494 99.4947 48.8483 104.454 49.8651 109.602 50.2358 113.247 48.246 113.449 47.8801 109.851 47.894 109.944 46.894 104.881 46.9125 104.959 45.5375 100.084 45.5681 100.175 41.9431 90.8627 42.0039 90.9912 37.3164 82.6787 37.3794 82.7765 34.6919 79.089 34.7388 79.1485 31.8638 75.7735 31.9328 75.8467 28.8703 72.9092 28.955 72.9819 25.7675 70.5444 25.8509 70.6017 22.6009 68.6017 22.7189 68.6638 19.3439 67.1638 19.4869 67.2148 16.0494 66.2773 16.222 66.3084 12.7845 65.9959 12.8205 65.9985 9.32921 65.8081 5.77082 65.2258-1.06678 63.117-7.40291 59.8529-13.1636 55.6284-17.9737 50.5618-21.6851 44.9307-23.1165 41.9378-24.1546 38.8235-24.8062 35.6957-25.0028 32.4843-24.4259 26.2666-22.8869 20.2386-20.4501 14.5956-17.3061 9.59081-13.568 5.2727-9.34322 1.95784-4.84043-0.19567-2.41386-0.802311-0.0830455-0.996546ZM53.1426 111.75 49.6875 120 45.1606 112.286Z" fill="#A5A5A5" transform="matrix(1 -1.22465e-16 -1.22465e-16 -1 482 480)"/><path d="M0.11268-0.993631 6.27775-0.294499 12.525 1.76646 18.6061 5.09504 24.5257 9.55063 30.2317 15.0664 35.6701 21.5167 40.7805 28.8984 45.5665 37.022 49.9722 45.8334 53.9334 55.3277 57.4534 65.2589 60.4075 75.6926 62.7953 86.4378 64.555 97.4988 65.6234 108.686 65.7773 113.304 63.7785 113.37 63.6256 108.783 63.6295 108.845 62.567 97.7201 62.5749 97.7821 60.8249 86.7821 60.8363 86.8419 58.4613 76.1544 58.4753 76.2099 55.5378 65.8349 55.5575 65.8966 52.0574 56.0216 52.0771 56.0726 48.1396 46.635 48.1681 46.6972 43.7931 37.9472 43.8259 38.0076 39.0759 29.9451 39.1153 30.0067 34.0528 22.6942 34.1105 22.7696 28.7355 16.3946 28.805 16.469 23.18 11.0315 23.2736 11.1115 17.4611 6.73647 17.5824 6.81469 11.6449 3.56469 11.8117 3.63716 5.74921 1.63716 5.94982 1.68113-0.11268 0.993631ZM68.7313 111.871 65 120 60.7357 112.138Z" fill="#A5A5A5" transform="matrix(1 0 0 -1 525 480)"/><path d="M0.0995037-0.995037 3.32303-0.672684 6.56835 0.32078 9.59204 1.89836 12.2893 3.87194 14.5371 6.25196 16.3295 8.97378 17.4745 11.8699 17.8658 14.7399 18.2408 17.4899 18.18 17.2573 19.2425 19.9448 19.1413 19.753 20.8288 22.253 20.727 22.1259 22.852 24.3759 22.7155 24.2555 25.278 26.1305 25.0588 26.009 27.6194 27.033 26.8768 28.89 24.1989 27.8191 21.4607 25.8156 19.2169 23.4397 17.4226 20.7816 16.2755 17.8801 15.8842 15.0101 15.5092 12.2601 15.57 12.4927 14.5075 9.80516 14.6023 9.98749 12.9148 7.42499 13.023 7.56162 10.898 5.31162 11.0345 5.43203 8.47199 3.55703 8.59993 3.63658 5.72493 2.13658 5.89479 2.2062 2.83229 1.2687 3.0255 1.30754-0.0995037 0.995037ZM26.9959 23.7527 33.6875 29.6875 24.9247 31.4799Z" fill="#A5A5A5" transform="matrix(-1.83697e-16 -1 -1 1.83697e-16 531.636 362.655)"/><path d="M589.003 361.51 589.507 354.706 590.084 351.562 590.793 348.662 591.71 346.238 592.732 344.263 593.961 342.88 595.162 342.355 596.162 341.918 595.815 342.169 596.815 341.044 596.674 341.249 597.612 339.437 597.565 339.542 598.44 337.23 598.404 337.346 599.091 334.534 599.071 334.641 599.488 331.469 601.471 331.73 601.047 334.956 600.332 337.881 599.415 340.304 598.393 342.279 597.164 343.662 595.963 344.187 594.963 344.625 595.31 344.373 594.31 345.498 594.451 345.293 593.513 347.106 593.56 347 592.685 349.313 592.721 349.196 592.034 352.009 592.046 351.952 591.484 355.014 591.497 354.908 590.997 361.658ZM596.379 332.579 601.062 324.959 604.348 333.278Z" fill="#A5A5A5"/><path d="M0.956767-0.290856 8.31515 23.9144 6.40162 24.4961-0.956767 0.290856ZM10.7976 21.7662 9.29743 30.5837 3.14351 24.093Z" fill="#A5A5A5" transform="matrix(1 0 0 -1 502 308.584)"/><path d="M526.005 260.558 526.264 257.902 527.067 255.158 528.33 252.698 529.92 250.446 531.795 248.57 533.958 247.083 536.297 246.12 538.609 245.79 540.796 245.477 540.557 245.543 542.682 244.668 542.496 244.768 544.496 243.393 544.355 243.51 546.105 241.76 545.938 241.982 547.674 238.856 549.423 239.828 547.619 243.075 545.705 244.989 543.542 246.477 541.203 247.44 538.891 247.77 536.704 248.082 536.943 248.017 534.818 248.892 535.004 248.791 533.004 250.166 533.145 250.049 531.395 251.799 531.504 251.669 530.004 253.794 530.077 253.674 528.89 255.987 528.96 255.811 528.21 258.373 528.245 258.189 527.995 260.752ZM544.333 239.446 550.5 232.967 551.983 241.788Z" fill="#A5A5A5"/><path d="M598.5 248 610 236.5 621.5 248 615.75 248 615.75 261.5 604.25 261.5 604.25 248Z" stroke="#BFBFBF" stroke-width="1.33333" stroke-miterlimit="8" fill="#E7E6E6" fill-rule="evenodd"/><text font-family="IntelOne Display Regular,IntelOne Display Regular_MSFontService,sans-serif" font-weight="400" font-size="12" transform="translate(476.851 466)">(batch_jo..<tspan font-size="12" x="0" y="14">.</tspan><tspan font-size="12" x="63.7036" y="224">batch_size</tspan><tspan font-size="21" x="32.5221" y="-78">batch_join</tspan><tspan font-size="12" x="82.567" y="-163">label_bat...</tspan><tspan font-size="12" x="-1.65125" y="-162">Image_b...</tspan><tspan font-size="12" x="52.9679" y="-207">Inputphase_tr...</tspan><tspan font-size="11" x="108.775" y="-223">0 tensors</tspan></text></g></svg>