<?xml version="1.0" encoding="UTF-8"?>
<svg width="1280" height="720" overflow="hidden" version="1.1" xmlns="http://www.w3.org/2000/svg"><defs><clipPath id="clipPath8219"><rect width="1280" height="720"/></clipPath><clipPath id="clipPath8225"><rect width="1280" height="720"/></clipPath><clipPath id="clipPath8231"><rect width="1280" height="720"/></clipPath><clipPath id="clipPath8237"><rect width="1280" height="720"/></clipPath><clipPath id="clipPath8243"><rect width="1280" height="720"/></clipPath><clipPath id="clipPath8249"><rect width="1280" height="720"/></clipPath><clipPath id="clipPath8255"><rect width="1280" height="720"/></clipPath><clipPath id="clipPath8261"><rect width="1280" height="720"/></clipPath><clipPath id="clipPath8267"><rect width="1280" height="720"/></clipPath><clipPath id="clipPath8273"><rect width="1280" height="720"/></clipPath><clipPath id="clipPath8279"><rect width="1280" height="720"/></clipPath><clipPath id="clipPath8285"><rect width="1280" height="720"/></clipPath><clipPath id="clipPath8291"><rect width="1280" height="720"/></clipPath><clipPath id="clipPath8297"><rect width="1280" height="720"/></clipPath></defs><path d="m0 0h1280v720h-1280z" clip-path="url(#clipPath8297)" fill="#fff"/><path d="m270.5 197.17c0-39.581 32.087-71.668 71.668-71.668h523.66c39.581 0 71.668 32.087 71.668 71.668v286.66c0 39.581-32.087 71.668-71.668 71.668h-523.66c-39.581 0-71.668-32.087-71.668-71.668z" clip-path="url(#clipPath8291)" fill="#fff" fill-rule="evenodd" stroke="#000" stroke-miterlimit="8" stroke-width="1.3333"/><g aria-label="Predictions"><path d="m533.51 157v-16.8h7.296q2.76 0 4.344 1.392 1.608 1.368 1.608 3.72 0 2.376-1.728 3.816-1.728 1.416-4.608 1.416h-4.848v6.456zm11.136-11.64q0-1.536-1.032-2.4-1.032-0.888-2.88-0.888h-5.16v6.624h4.992q1.872 0 2.976-0.888 1.104-0.912 1.104-2.448z"/><path d="m548.51 145.41h1.92v1.464q0.528-0.768 1.368-1.152t1.992-0.384h1.056v1.848h-1.08q-1.656 0-2.496 0.864-0.816 0.864-0.816 2.616v6.336h-1.944z"/><path d="m561.71 155.7q1.152 0 2.112-0.48 0.984-0.504 1.8-1.512l1.176 1.08q-0.984 1.296-2.304 1.944-1.32 0.624-2.952 0.624-2.616 0-4.296-1.704-1.656-1.728-1.656-4.416 0-2.616 1.704-4.368t4.2-1.752q2.544 0 4.128 1.656t1.584 4.32q0 0.192-0.024 0.456-0.024 0.24-0.048 0.36h-9.528q0.192 1.704 1.32 2.76 1.152 1.032 2.784 1.032zm-0.192-8.928q-1.512 0-2.592 0.984t-1.32 2.64h7.632q-0.216-1.68-1.224-2.64-1.008-0.984-2.496-0.984z"/><path d="m578.63 140.2h1.968v16.8h-1.944v-1.872q-0.792 1.008-1.92 1.56-1.104 0.552-2.376 0.552-2.424 0-4.08-1.68-1.632-1.704-1.632-4.32 0-2.64 1.68-4.368 1.704-1.752 4.176-1.752 1.2 0 2.256 0.504 1.08 0.48 1.872 1.392zm-4.056 15.336q1.752 0 2.928-1.248 1.2-1.272 1.2-3.12 0-1.872-1.152-3.096t-2.88-1.224q-1.776 0-2.904 1.2t-1.128 3.144 1.104 3.144 2.832 1.2z"/><path d="m583.24 141.52h2.16v2.136h-2.16zm0.096 15.48v-11.592h1.968v11.592z"/><path d="m593.54 157.36q-2.664 0-4.344-1.68-1.656-1.704-1.656-4.44 0-2.592 1.752-4.368t4.296-1.776q1.848 0 3.144 0.864 1.32 0.84 1.992 2.448l-1.656 0.792q-0.552-1.2-1.44-1.8-0.864-0.6-2.064-0.6-1.704 0-2.88 1.296-1.152 1.272-1.152 3.144 0 1.896 1.152 3.168 1.176 1.248 2.928 1.248 1.128 0 2.088-0.6 0.984-0.624 1.584-1.728l1.512 0.816q-0.696 1.488-2.088 2.352t-3.168 0.864z"/><path d="m601.38 153.9v-6.768h-1.584v-1.728h1.584v-3.552h1.944v3.552h2.688v1.728h-2.688v6.6q0 0.768 0.336 1.152 0.36 0.36 1.08 0.36h1.272v1.752h-1.56q-1.608 0-2.352-0.744-0.72-0.744-0.72-2.352z"/><path d="m608.1 141.52h2.16v2.136h-2.16zm0.096 15.48v-11.592h1.968v11.592z"/><path d="m624.47 151.22q0 2.616-1.752 4.392-1.752 1.752-4.32 1.752t-4.296-1.752q-1.704-1.752-1.704-4.368t1.752-4.368q1.752-1.776 4.32-1.776t4.272 1.752q1.728 1.752 1.728 4.368zm-10.08 0.024q0 1.872 1.152 3.144 1.176 1.272 2.904 1.272 1.704 0 2.856-1.272 1.176-1.272 1.176-3.168 0-1.848-1.176-3.12-1.176-1.296-2.88-1.296t-2.88 1.272q-1.152 1.272-1.152 3.168z"/><path d="m626.49 145.41h1.92v1.8q0.696-1.008 1.752-1.536 1.08-0.552 2.4-0.552 2.304 0 3.6 1.488t1.296 4.08v6.312h-1.944v-6.192q0-1.824-0.912-2.88-0.888-1.056-2.496-1.056-1.656 0-2.664 1.128t-1.008 2.928v6.072h-1.944z"/><path d="m649.19 153.62q0 1.632-1.392 2.664t-3.624 1.032q-1.464 0-2.76-0.456-1.272-0.48-2.304-1.416l1.008-1.488q1.104 0.912 2.064 1.32t2.04 0.408q1.392 0 2.232-0.528 0.864-0.552 0.864-1.416 0-0.888-0.72-1.272-0.72-0.408-2.376-0.432-2.424-0.096-3.552-0.888-1.104-0.792-1.104-2.472 0-1.536 1.272-2.544 1.296-1.032 3.312-1.032 1.368 0 2.568 0.432t2.184 1.272l-0.936 1.464q-0.984-0.792-1.896-1.152t-1.944-0.36q-1.176 0-1.944 0.528-0.744 0.528-0.744 1.296 0 0.84 0.672 1.224t2.136 0.456q2.616 0.072 3.768 0.864 1.176 0.792 1.176 2.496z"/></g><g fill="#fff" fill-rule="evenodd" stroke-miterlimit="8"><path d="m562 233.5c0-6.351 11.864-11.5 26.5-11.5s26.5 5.149 26.5 11.5-11.864 11.5-26.5 11.5-26.5-5.149-26.5-11.5z" clip-path="url(#clipPath8285)" stroke="#fc4c02" stroke-width="6"/><g stroke="#000" stroke-width="3"><path d="m457.5 329c0-6.351 11.865-11.5 26.5-11.5 14.636 0 26.5 5.149 26.5 11.5s-11.864 11.5-26.5 11.5c-14.635 0-26.5-5.149-26.5-11.5z" clip-path="url(#clipPath8279)"/><path d="m664.5 328.5c0-6.627 11.865-12 26.5-12 14.636 0 26.5 5.373 26.5 12s-11.864 12-26.5 12c-14.635 0-26.5-5.373-26.5-12z" clip-path="url(#clipPath8273)"/><path d="m458.5 395c0-6.351 11.865-11.5 26.5-11.5 14.636 0 26.5 5.149 26.5 11.5s-11.864 11.5-26.5 11.5c-14.635 0-26.5-5.149-26.5-11.5z" clip-path="url(#clipPath8267)"/><path d="m414.5 395.5c0-4.418 3.806-8 8.5-8s8.5 3.582 8.5 8-3.806 8-8.5 8-8.5-3.582-8.5-8z" clip-path="url(#clipPath8261)"/></g></g><path d="m554.88 732 47.502-161.76-5.7569-1.69-47.502 161.76zm52.413-157.19-3.5638-19.806-13.707 14.735z" clip-path="url(#clipPath8255)"/><path d="m431 394h20.798v2h-20.798zm19.465-3 8 4-8 4z" clip-path="url(#clipPath8249)"/><path d="m604.82 553.82-0.37859-1.3629-1.2415-1.3191-1.7749-1.2288-2.2998-1.117-2.757-1.0258-3.2426-1.0173-3.6055-0.88558-4.037-0.88309-9.0483-1.508-10.11-1.1931-10.797-0.7533-11.086-0.2505 0.0439 2e-3 -2.8125-0.1875 0.1551 0.0227-2.75-0.625 0.1534 0.0481-5.5625-2.25 0.1863 0.0994-5.4375-3.6875 0.1284 0.1035-5.25-5 0.0772 0.0824-5.125-6.125 0.0619 0.0821-4.9375-7.3125 0.0435 0.0706-4.625-8.25 0.0306 0.0591-4.375-9.1875 0.0248 0.0565-4.0002-9.9375 0.02 0.0522-3.625-10.688 0.016 0.0536-3.125-11.25 0.011 0.0446-2.687-11.75 9e-3 0.0463-2.187-12.188 7e-3 0.047-1.625-12.437 5e-3 0.051-1-12.688 3e-3 0.055-0.149-6.086-1.999 0.049 0.149 6.113 1.005 12.74 1.631 12.486 2.196 12.234 2.698 11.796 3.138 11.299 3.643 10.74 4.022 9.992 4.403 9.2454 4.6615 8.3152 4.9895 7.3896 5.1944 6.2078 5.3509 5.0961 5.5938 3.7935 5.7357 2.3201 2.9052 0.6603 2.9129 0.1941 11.084 0.2505-0.047-2e-3 10.75 0.74998-0.0476-4e-3 10.062 1.1875-0.0472-7e-3 9 1.5-0.0493-9e-3 4 0.875-0.0248-6e-3 3.5625 0.875-0.0608-0.017 3.1875 1-0.0494-0.0169 2.6875 1-0.0882-0.0377 2.1875 1.0625-0.13231-0.0773 1.625 1.125-0.15899-0.13683 1 1.0625-0.23532-0.41773 0.3125 1.125zm-115.64-139.96-4.195-7.9-3.803 8.096z" clip-path="url(#clipPath8243)"/><path d="m602.02 554.64 0.284-1.42 0.896-1.493 1.319-1.388 1.672-1.271 2.095-1.244 2.394-1.1 5.648-2.094 6.707-1.708 7.385-1.389 7.948-0.82 8.157-0.314-0.111 0.011 2.062-0.313-0.226 0.063 2-0.813-0.196 0.106 2.063-1.437-0.124 0.102 2-1.938-0.085 0.094 2-2.5-0.054 0.074 1.937-2.938-0.033 0.055 2-3.5-0.026 0.049 1.937-3.875-0.025 0.053 1.875-4.375-0.011 0.027 1.875-4.75-0.014 0.037 1.813-5.187-0.01 0.029 1.75-5.562-9e-3 0.03 3.438-12.25-0.012 0.044 3.125-13.5-6e-3 0.031 2.937-14.75-5e-3 0.027 2.688-15.75-5e-3 0.031 2.312-16.688-3e-3 0.027 1.938-17.375-2e-3 0.02 1.625-17.937-3e-3 0.029 1.125-18.437-1e-3 0.02 0.75-18.687v0.027l0.161-12.209 2 0.026-0.162 12.223-0.751 18.711-1.126 18.463-1.628 17.962-1.94 17.399-2.316 16.716-2.693 15.779-2.943 14.778-3.133 13.538-3.448 12.287-1.76 5.593-1.824 5.221-1.888 4.782-1.892 4.415-1.963 3.926-2.03 3.552-1.98 3.002-2.068 2.586-2.104 2.037-2.22 1.548-2.213 0.899-2.235 0.339-8.181 0.314 0.064-4e-3 -7.875 0.812 0.082-0.012-7.312 1.375 0.062-0.013-6.625 1.687 0.101-0.031-5.563 2.062 0.07-0.029-2.313 1.063 0.094-0.049-2 1.187 0.094-0.063-1.562 1.187 0.119-0.107-1.187 1.25 0.132-0.175-0.75 1.25 0.124-0.318-0.25 1.25zm83.938-206.73 4.105-7.946 3.894 8.052z" clip-path="url(#clipPath8237)"/><path d="m483.2 383.11-1.012-36.418 1.999-0.056 1.012 36.418zm-3.974-35.002 3.776-8.108 4.221 7.886z" clip-path="url(#clipPath8231)"/><path d="m691.59 316.55-0.2545-3.563-0.71155-3.5578-1.1629-3.5533-1.6186-3.4314-4.2101-6.4427-5.4328-5.8163-6.511-4.8513-7.1883-3.7532-3.7929-1.4143-3.9078-1.025-3.9783-0.6417-7.9311-0.3777 0.1116 0.0117-3.875-0.625 0.1093 0.0239-3.8125-1.0625 0.0619 0.0194-3.7501-1.3125 0.1325 0.0575-7.0625-3.6875 0.1435 0.0912-6.3125-4.8125 0.1167 0.1043-5.375-5.625 0.1141 0.1439-4.125-6.3125 0.0739 0.1345-1.5-3.3125 0.0548 0.153-1.0184-3.7906-1.9316 0.519 1.0396 3.8693 1.5654 3.4569 4.2175 6.4541 5.493 5.7484 6.4428 4.9119 7.2022 3.7604 3.849 1.3472 3.8977 1.0862 3.9858 0.6429 7.9311 0.3777-0.1116-0.0117 3.875 0.625-0.0945-0.0199 3.8125 1-0.0957-0.0303 3.6875 1.375-0.1134-0.0506 7.0625 3.6875-0.1347-0.0845 6.375 4.75-0.1333-0.1193 5.3125 5.6875-0.10633-0.1356 4.125 6.3125-0.0673-0.1204 1.5625 3.3125-0.046-0.11562 1.125 3.4375-0.0302-0.11492 0.6875 3.4375-0.0169-0.12487 0.25 3.5zm-79.419-67.279-5.2036-7.2748-2.6977 8.5277z" clip-path="url(#clipPath8225)"/><path d="m482 316.91 0.255-3.561 0.713-3.629 1.227-3.554 1.607-3.405 1.987-3.335 2.382-3.218 5.605-5.796 6.634-4.848 7.38-3.754 3.973-1.409 4.027-1.087 4.107-0.642 4.054-0.19 4-0.187-0.107 0.011 4-0.625-0.107 0.022 3.938-1.062-0.079 0.024 3.813-1.375-0.114 0.05 7.25-3.688-0.142 0.088 6.5-4.813-0.12 0.105 5.5-5.625-0.089 0.104 2.313-3.125-0.056 0.083 1.938-3.25-0.045 0.085 1.562-3.312-0.058 0.156 1.084-3.853 1.925 0.542-1.107 3.933-1.618 3.432-1.988 3.334-2.383 3.22-5.604 5.731-6.631 4.91-7.38 3.754-3.91 1.41-4.03 1.087-4.107 0.642-4.054 0.19-4 0.188 0.107-0.011-4 0.625 0.106-0.023-3.937 1.063 0.074-0.023-3.875 1.375 0.119-0.052-7.25 3.688 0.136-0.084-6.5 4.75 0.129-0.112-5.5 5.687 0.085-0.1-2.312 3.125 0.055-0.083-1.938 3.25 0.046-0.085-1.563 3.312 0.041-0.1-1.187 3.438 0.036-0.134-0.688 3.5 0.016-0.122-0.25 3.5zm81.735-67.652 5.2-7.277 2.702 8.527z" clip-path="url(#clipPath8219)"/><g aria-label="Reshape_1SoftmaxShapeReshapeShape"><path d="m563.31 210.28 3.184 4.72h-1.632l-3.024-4.56h-3.152v4.56h-1.376v-11.2h4.928q1.888 0 2.944 0.88 1.056 0.864 1.056 2.384 0 1.248-0.768 2.096t-2.16 1.12zm1.536-3.184q0-0.976-0.704-1.52-0.688-0.56-1.936-0.56h-3.52v4.224h3.408q1.264 0 2-0.576 0.752-0.592 0.752-1.568z"/><path d="m571.29 214.14q0.768 0 1.408-0.32 0.656-0.336 1.2-1.008l0.784 0.72q-0.656 0.864-1.536 1.296-0.88 0.416-1.968 0.416-1.744 0-2.864-1.136-1.104-1.152-1.104-2.944 0-1.744 1.136-2.912t2.8-1.168q1.696 0 2.752 1.104t1.056 2.88q0 0.128-0.016 0.304-0.016 0.16-0.032 0.24h-6.352q0.128 1.136 0.88 1.84 0.768 0.688 1.856 0.688zm-0.128-5.952q-1.008 0-1.728 0.656t-0.88 1.76h5.088q-0.144-1.12-0.816-1.76-0.672-0.656-1.664-0.656z"/><path d="m582.49 212.74q0 1.088-0.928 1.776t-2.416 0.688q-0.976 0-1.84-0.304-0.848-0.32-1.536-0.944l0.672-0.992q0.736 0.608 1.376 0.88t1.36 0.272q0.928 0 1.488-0.352 0.576-0.368 0.576-0.944 0-0.592-0.48-0.848-0.48-0.272-1.584-0.288-1.616-0.064-2.368-0.592-0.736-0.528-0.736-1.648 0-1.024 0.848-1.696 0.864-0.688 2.208-0.688 0.912 0 1.712 0.288t1.456 0.848l-0.624 0.976q-0.656-0.528-1.264-0.768t-1.296-0.24q-0.784 0-1.296 0.352-0.496 0.352-0.496 0.864 0 0.56 0.448 0.816t1.424 0.304q1.744 0.048 2.512 0.576 0.784 0.528 0.784 1.664z"/><path d="m583.8 203.8h1.296v4.64q0.464-0.656 1.152-1.008 0.704-0.352 1.568-0.352 1.552 0 2.416 0.992 0.88 0.992 0.88 2.72v4.208h-1.296v-4.128q0-1.232-0.608-1.92-0.608-0.704-1.696-0.704t-1.76 0.752q-0.656 0.752-0.656 1.952v4.048h-1.296z"/><path d="m599.36 215h-1.264v-1.264q-0.464 0.672-1.264 1.056-0.784 0.368-1.696 0.368-1.28 0-2.08-0.64-0.8-0.656-0.8-1.712 0-1.168 0.896-1.76 0.896-0.608 2.656-0.608h2.272q-0.016-1.088-0.576-1.68-0.544-0.592-1.568-0.592-0.608 0-1.2 0.256t-1.168 0.784l-0.688-0.864q0.672-0.64 1.472-0.96 0.8-0.336 1.712-0.336 1.552 0 2.416 0.928 0.88 0.912 0.88 2.528zm-1.28-3.552h-2.256q-1.168 0-1.728 0.32t-0.56 1.008q0 0.576 0.48 0.96 0.496 0.384 1.264 0.384 1.152 0 1.936-0.736 0.8-0.752 0.864-1.936z"/><path d="m602.25 217.88h-1.296v-10.608h1.28v1.248q0.512-0.672 1.264-1.04 0.752-0.384 1.6-0.384 1.632 0 2.72 1.136 1.088 1.12 1.088 2.88 0 1.776-1.136 2.928-1.12 1.136-2.768 1.136-0.784 0-1.52-0.32-0.72-0.336-1.232-0.944zm2.704-9.632q-1.168 0-1.968 0.848-0.784 0.832-0.784 2.08 0 1.232 0.768 2.048 0.784 0.816 1.936 0.816 1.184 0 1.92-0.784 0.752-0.8 0.752-2.112 0-1.296-0.736-2.096-0.72-0.8-1.888-0.8z"/><path d="m613.98 214.14q0.768 0 1.408-0.32 0.656-0.336 1.2-1.008l0.784 0.72q-0.656 0.864-1.536 1.296-0.88 0.416-1.968 0.416-1.744 0-2.864-1.136-1.104-1.152-1.104-2.944 0-1.744 1.136-2.912t2.8-1.168q1.696 0 2.752 1.104t1.056 2.88q0 0.128-0.016 0.304-0.016 0.16-0.032 0.24h-6.352q0.128 1.136 0.88 1.84 0.768 0.688 1.856 0.688zm-0.128-5.952q-1.008 0-1.728 0.656t-0.88 1.76h5.088q-0.144-1.12-0.816-1.76-0.672-0.656-1.664-0.656z"/><path d="m618.08 217.06v-1.168h8.128v1.168z"/><path d="m628.33 205.02h-1.728v-1.216h3.072v11.2h-1.344z"/><path d="m415.27 302.85q0-0.976-0.768-1.424-0.752-0.448-2.432-0.496-2.304-0.112-3.328-0.8-1.024-0.704-1.024-2.16 0-1.44 1.216-2.416 1.232-0.976 3.088-0.976 1.36 0 2.448 0.464t1.92 1.408l-0.864 0.912q-0.672-0.752-1.584-1.152t-1.92-0.4q-1.28 0-2.112 0.592t-0.832 1.456q0 0.912 0.736 1.328 0.752 0.4 2.416 0.448 2.288 0.096 3.344 0.848 1.056 0.736 1.056 2.256 0 1.504-1.264 2.496t-3.232 0.992q-1.6 0-2.768-0.512-1.152-0.512-2.048-1.632l0.848-0.912q0.816 0.944 1.776 1.392 0.96 0.432 2.192 0.432 1.376 0 2.256-0.608 0.88-0.624 0.88-1.536z"/><path d="m425.86 302.14q0 1.744-1.168 2.928-1.168 1.168-2.88 1.168t-2.864-1.168q-1.136-1.168-1.136-2.912t1.168-2.912q1.168-1.184 2.88-1.184t2.848 1.168q1.152 1.168 1.152 2.912zm-6.72 0.016q0 1.248 0.768 2.096 0.784 0.848 1.936 0.848 1.136 0 1.904-0.848 0.784-0.848 0.784-2.112 0-1.232-0.784-2.08-0.784-0.864-1.92-0.864t-1.92 0.848q-0.768 0.848-0.768 2.112z"/><path d="m427.56 299.42h-1.056v-1.152h1.056v-1.456q0-0.976 0.512-1.488 0.528-0.528 1.504-0.528h1.056v1.088h-0.864q-0.448 0-0.672 0.24t-0.224 0.72v1.424h1.76v1.152h-1.76v6.576h-1.312z"/><path d="m432.09 303.94v-4.512h-1.056v-1.152h1.056v-2.368h1.296v2.368h1.792v1.152h-1.792v4.4q0 0.512 0.224 0.768 0.24 0.24 0.72 0.24h0.848v1.168h-1.04q-1.072 0-1.568-0.496-0.48-0.496-0.48-1.568z"/><path d="m436.49 298.27h1.28v0.928q0.432-0.56 0.976-0.832 0.56-0.288 1.248-0.288 0.8 0 1.424 0.336t0.992 0.976q0.432-0.64 1.088-0.976 0.672-0.336 1.504-0.336 1.36 0 2.16 0.88 0.816 0.88 0.816 2.288v4.752h-1.312v-4.672q0-0.976-0.496-1.52-0.48-0.56-1.36-0.56-0.864 0-1.408 0.608-0.528 0.592-0.528 1.552v4.592h-1.296v-4.672q0-0.976-0.496-1.52-0.48-0.56-1.36-0.56-0.864 0-1.408 0.608-0.528 0.592-0.528 1.552v4.592h-1.296z"/><path d="m456.22 306h-1.264v-1.264q-0.464 0.672-1.264 1.056-0.784 0.368-1.696 0.368-1.28 0-2.08-0.64-0.8-0.656-0.8-1.712 0-1.168 0.896-1.76 0.896-0.608 2.656-0.608h2.272q-0.016-1.088-0.576-1.68-0.544-0.592-1.568-0.592-0.608 0-1.2 0.256t-1.168 0.784l-0.688-0.864q0.672-0.64 1.472-0.96 0.8-0.336 1.712-0.336 1.552 0 2.416 0.928 0.88 0.912 0.88 2.528zm-1.28-3.552h-2.256q-1.168 0-1.728 0.32t-0.56 1.008q0 0.576 0.48 0.96 0.496 0.384 1.264 0.384 1.152 0 1.936-0.736 0.8-0.752 0.864-1.936z"/><path d="m458.57 306h-1.456l3.008-3.984-2.8-3.744h1.536l2.032 2.832 2.064-2.832h1.44l-2.8 3.728 3.056 4h-1.52l-2.272-3.12z"/><path d="m708.55 307.85q0-0.976-0.768-1.424-0.752-0.448-2.432-0.496-2.304-0.112-3.328-0.8-1.024-0.704-1.024-2.16 0-1.44 1.216-2.416 1.232-0.976 3.088-0.976 1.36 0 2.448 0.464t1.92 1.408l-0.864 0.912q-0.672-0.752-1.584-1.152t-1.92-0.4q-1.28 0-2.112 0.592t-0.832 1.456q0 0.912 0.736 1.328 0.752 0.4 2.416 0.448 2.288 0.096 3.344 0.848 1.056 0.736 1.056 2.256 0 1.504-1.264 2.496t-3.232 0.992q-1.6 0-2.768-0.512-1.152-0.512-2.048-1.632l0.848-0.912q0.816 0.944 1.776 1.392 0.96 0.432 2.192 0.432 1.376 0 2.256-0.608 0.88-0.624 0.88-1.536z"/><path d="m711.45 299.8h1.296v4.64q0.464-0.656 1.152-1.008 0.704-0.352 1.568-0.352 1.552 0 2.416 0.992 0.88 0.992 0.88 2.72v4.208h-1.296v-4.128q0-1.232-0.608-1.92-0.608-0.704-1.696-0.704t-1.76 0.752q-0.656 0.752-0.656 1.952v4.048h-1.296z"/><path d="m727 311h-1.264v-1.264q-0.464 0.672-1.264 1.056-0.784 0.368-1.696 0.368-1.28 0-2.08-0.64-0.8-0.656-0.8-1.712 0-1.168 0.896-1.76 0.896-0.608 2.656-0.608h2.272q-0.016-1.088-0.576-1.68-0.544-0.592-1.568-0.592-0.608 0-1.2 0.256t-1.168 0.784l-0.688-0.864q0.672-0.64 1.472-0.96 0.8-0.336 1.712-0.336 1.552 0 2.416 0.928 0.88 0.912 0.88 2.528zm-1.28-3.552h-2.256q-1.168 0-1.728 0.32t-0.56 1.008q0 0.576 0.48 0.96 0.496 0.384 1.264 0.384 1.152 0 1.936-0.736 0.8-0.752 0.864-1.936z"/><path d="m729.9 313.88h-1.296v-10.608h1.28v1.248q0.512-0.672 1.264-1.04 0.752-0.384 1.6-0.384 1.632 0 2.72 1.136 1.088 1.12 1.088 2.88 0 1.776-1.136 2.928-1.12 1.136-2.768 1.136-0.784 0-1.52-0.32-0.72-0.336-1.232-0.944zm2.704-9.632q-1.168 0-1.968 0.848-0.784 0.832-0.784 2.08 0 1.232 0.768 2.048 0.784 0.816 1.936 0.816 1.184 0 1.92-0.784 0.752-0.8 0.752-2.112 0-1.296-0.736-2.096-0.72-0.8-1.888-0.8z"/><path d="m741.63 310.14q0.768 0 1.408-0.32 0.656-0.336 1.2-1.008l0.784 0.72q-0.656 0.864-1.536 1.296-0.88 0.416-1.968 0.416-1.744 0-2.864-1.136-1.104-1.152-1.104-2.944 0-1.744 1.136-2.912t2.8-1.168q1.696 0 2.752 1.104t1.056 2.88q0 0.128-0.016 0.304-0.016 0.16-0.032 0.24h-6.352q0.128 1.136 0.88 1.84 0.768 0.688 1.856 0.688zm-0.128-5.952q-1.008 0-1.728 0.656t-0.88 1.76h5.088q-0.144-1.12-0.816-1.76-0.672-0.656-1.664-0.656z"/><path d="m495.65 371.28 3.184 4.72h-1.632l-3.024-4.56h-3.152v4.56h-1.376v-11.2h4.928q1.888 0 2.944 0.88 1.056 0.864 1.056 2.384 0 1.248-0.768 2.096t-2.16 1.12zm1.536-3.184q0-0.976-0.704-1.52-0.688-0.56-1.936-0.56h-3.52v4.224h3.408q1.264 0 2-0.576 0.752-0.592 0.752-1.568z"/><path d="m503.64 375.14q0.768 0 1.408-0.32 0.656-0.336 1.2-1.008l0.784 0.72q-0.656 0.864-1.536 1.296-0.88 0.416-1.968 0.416-1.744 0-2.864-1.136-1.104-1.152-1.104-2.944 0-1.744 1.136-2.912t2.8-1.168q1.696 0 2.752 1.104t1.056 2.88q0 0.128-0.016 0.304-0.016 0.16-0.032 0.24h-6.352q0.128 1.136 0.88 1.84 0.768 0.688 1.856 0.688zm-0.128-5.952q-1.008 0-1.728 0.656t-0.88 1.76h5.088q-0.144-1.12-0.816-1.76-0.672-0.656-1.664-0.656z"/><path d="m514.84 373.74q0 1.088-0.928 1.776t-2.416 0.688q-0.976 0-1.84-0.304-0.848-0.32-1.536-0.944l0.672-0.992q0.736 0.608 1.376 0.88t1.36 0.272q0.928 0 1.488-0.352 0.576-0.368 0.576-0.944 0-0.592-0.48-0.848-0.48-0.272-1.584-0.288-1.616-0.064-2.368-0.592-0.736-0.528-0.736-1.648 0-1.024 0.848-1.696 0.864-0.688 2.208-0.688 0.912 0 1.712 0.288t1.456 0.848l-0.624 0.976q-0.656-0.528-1.264-0.768t-1.296-0.24q-0.784 0-1.296 0.352-0.496 0.352-0.496 0.864 0 0.56 0.448 0.816t1.424 0.304q1.744 0.048 2.512 0.576 0.784 0.528 0.784 1.664z"/><path d="m516.15 364.8h1.296v4.64q0.464-0.656 1.152-1.008 0.704-0.352 1.568-0.352 1.552 0 2.416 0.992 0.88 0.992 0.88 2.72v4.208h-1.296v-4.128q0-1.232-0.608-1.92-0.608-0.704-1.696-0.704t-1.76 0.752q-0.656 0.752-0.656 1.952v4.048h-1.296z"/><path d="m531.7 376h-1.264v-1.264q-0.464 0.672-1.264 1.056-0.784 0.368-1.696 0.368-1.28 0-2.08-0.64-0.8-0.656-0.8-1.712 0-1.168 0.896-1.76 0.896-0.608 2.656-0.608h2.272q-0.016-1.088-0.576-1.68-0.544-0.592-1.568-0.592-0.608 0-1.2 0.256t-1.168 0.784l-0.688-0.864q0.672-0.64 1.472-0.96 0.8-0.336 1.712-0.336 1.552 0 2.416 0.928 0.88 0.912 0.88 2.528zm-1.28-3.552h-2.256q-1.168 0-1.728 0.32t-0.56 1.008q0 0.576 0.48 0.96 0.496 0.384 1.264 0.384 1.152 0 1.936-0.736 0.8-0.752 0.864-1.936z"/><path d="m534.6 378.88h-1.296v-10.608h1.28v1.248q0.512-0.672 1.264-1.04 0.752-0.384 1.6-0.384 1.632 0 2.72 1.136 1.088 1.12 1.088 2.88 0 1.776-1.136 2.928-1.12 1.136-2.768 1.136-0.784 0-1.52-0.32-0.72-0.336-1.232-0.944zm2.704-9.632q-1.168 0-1.968 0.848-0.784 0.832-0.784 2.08 0 1.232 0.768 2.048 0.784 0.816 1.936 0.816 1.184 0 1.92-0.784 0.752-0.8 0.752-2.112 0-1.296-0.736-2.096-0.72-0.8-1.888-0.8z"/><path d="m546.32 375.14q0.768 0 1.408-0.32 0.656-0.336 1.2-1.008l0.784 0.72q-0.656 0.864-1.536 1.296-0.88 0.416-1.968 0.416-1.744 0-2.864-1.136-1.104-1.152-1.104-2.944 0-1.744 1.136-2.912t2.8-1.168q1.696 0 2.752 1.104t1.056 2.88q0 0.128-0.016 0.304-0.016 0.16-0.032 0.24h-6.352q0.128 1.136 0.88 1.84 0.768 0.688 1.856 0.688zm-0.128-5.952q-1.008 0-1.728 0.656t-0.88 1.76h5.088q-0.144-1.12-0.816-1.76-0.672-0.656-1.664-0.656z"/><path d="m373.58 394.44q0-0.793-0.624-1.157-0.611-0.364-1.976-0.403-1.872-0.091-2.704-0.65-0.832-0.572-0.832-1.755 0-1.17 0.988-1.963 1.001-0.793 2.509-0.793 1.105 0 1.989 0.377t1.56 1.144l-0.702 0.741q-0.546-0.611-1.287-0.936t-1.56-0.325q-1.04 0-1.716 0.481t-0.676 1.183q0 0.741 0.598 1.079 0.611 0.325 1.963 0.364 1.859 0.078 2.717 0.689 0.858 0.598 0.858 1.833 0 1.222-1.027 2.028t-2.626 0.806q-1.3 0-2.249-0.416-0.936-0.416-1.664-1.326l0.689-0.741q0.663 0.767 1.443 1.131 0.78 0.351 1.781 0.351 1.118 0 1.833-0.494 0.715-0.507 0.715-1.248z"/><path d="m375.94 387.9h1.053v3.77q0.377-0.533 0.936-0.819 0.572-0.286 1.274-0.286 1.261 0 1.963 0.806 0.715 0.806 0.715 2.21v3.419h-1.053v-3.354q0-1.001-0.494-1.56-0.494-0.572-1.378-0.572t-1.43 0.611q-0.533 0.611-0.533 1.586v3.289h-1.053z"/><path d="m388.57 397h-1.027v-1.027q-0.377 0.546-1.027 0.858-0.637 0.299-1.378 0.299-1.04 0-1.69-0.52-0.65-0.533-0.65-1.391 0-0.949 0.728-1.43 0.728-0.494 2.158-0.494h1.846q-0.013-0.884-0.468-1.365-0.442-0.481-1.274-0.481-0.494 0-0.975 0.208t-0.949 0.637l-0.559-0.702q0.546-0.52 1.196-0.78 0.65-0.273 1.391-0.273 1.261 0 1.963 0.754 0.715 0.741 0.715 2.054zm-1.04-2.886h-1.833q-0.949 0-1.404 0.26t-0.455 0.819q0 0.468 0.39 0.78 0.403 0.312 1.027 0.312 0.936 0 1.573-0.598 0.65-0.611 0.702-1.573z"/><path d="m390.93 399.34h-1.053v-8.619h1.04v1.014q0.416-0.546 1.027-0.845 0.611-0.312 1.3-0.312 1.326 0 2.21 0.923 0.884 0.91 0.884 2.34 0 1.443-0.923 2.379-0.91 0.923-2.249 0.923-0.637 0-1.235-0.26-0.585-0.273-1.001-0.767zm2.197-7.826q-0.949 0-1.599 0.689-0.637 0.676-0.637 1.69 0 1.001 0.624 1.664 0.637 0.663 1.573 0.663 0.962 0 1.56-0.637 0.611-0.65 0.611-1.716 0-1.053-0.598-1.703-0.585-0.65-1.534-0.65z"/><path d="m400.45 396.3q0.624 0 1.144-0.26 0.533-0.273 0.975-0.819l0.637 0.585q-0.533 0.702-1.248 1.053-0.715 0.338-1.599 0.338-1.417 0-2.327-0.923-0.897-0.936-0.897-2.392 0-1.417 0.923-2.366t2.275-0.949q1.378 0 2.236 0.897t0.858 2.34q0 0.104-0.013 0.247-0.013 0.13-0.026 0.195h-5.161q0.104 0.923 0.715 1.495 0.624 0.559 1.508 0.559zm-0.104-4.836q-0.819 0-1.404 0.533t-0.715 1.43h4.134q-0.117-0.91-0.663-1.43-0.546-0.533-1.352-0.533z"/></g></svg>
