<?xml version="1.0" encoding="UTF-8"?>
<svg width="1280" height="720" overflow="hidden" version="1.1" xmlns="http://www.w3.org/2000/svg"><defs><clipPath id="clipPath7708"><rect width="1280" height="720"/></clipPath><clipPath id="clipPath7714"><rect width="1280" height="720"/></clipPath><clipPath id="clipPath7720"><rect width="1280" height="720"/></clipPath><clipPath id="clipPath7726"><rect width="1280" height="720"/></clipPath><clipPath id="clipPath7732"><rect width="1280" height="720"/></clipPath><clipPath id="clipPath7738"><rect width="1280" height="720"/></clipPath><clipPath id="clipPath7744"><rect width="1280" height="720"/></clipPath><clipPath id="clipPath7750"><rect width="1280" height="720"/></clipPath><clipPath id="clipPath7756"><rect width="1280" height="720"/></clipPath><clipPath id="clipPath7762"><rect width="1280" height="720"/></clipPath><clipPath id="clipPath7768"><rect width="1280" height="720"/></clipPath><clipPath id="clipPath7774"><rect width="1280" height="720"/></clipPath><clipPath id="clipPath7780"><rect width="1280" height="720"/></clipPath><clipPath id="clipPath7786"><rect width="1280" height="720"/></clipPath></defs><path d="m0 0h1280v720h-1280z" clip-path="url(#clipPath7786)" fill="#fff"/><path d="m773.57 721.04-103.53-146.02 1.632-1.157 103.53 146.02zm-105.21-143.2-1.364-8.84 7.89 4.212z" clip-path="url(#clipPath7780)"/><path d="m488.87 768.22 70.93-189.15-3.7454-1.405-70.93 189.15zm73.973-185.87-1.4046-13.343-9.8314 9.13z" clip-path="url(#clipPath7774)"/><path d="m339 189c0-41.975 34.027-76.002 76.002-76.002h391c41.975 0 76.002 34.027 76.002 76.002v304c0 41.975-34.027 76.002-76.002 76.002h-391c-41.975 0-76.002-34.027-76.002-76.002z" clip-path="url(#clipPath7768)" fill="#fff" fill-rule="evenodd" stroke="#fc4c02" stroke-miterlimit="8" stroke-width="6"/><path d="m612-1.8618e-6v102.78h-4v-102.78zm4 100.78-6 12-6-12z" clip-path="url(#clipPath7762)"/><g fill-rule="evenodd" stroke="#000" stroke-miterlimit="8" stroke-width="1.3333"><path d="m448.5 251.5c0-9.389 17.461-17 39-17s39 7.611 39 17-17.461 17-39 17-39-7.611-39-17z" clip-path="url(#clipPath7756)" fill="#fff"/><path d="m421.5 319.5c0-4.418 3.582-8 8-8h116c4.418 0 8 3.582 8 8v32c0 4.418-3.582 8-8 8h-116c-4.418 0-8-3.582-8-8z" clip-path="url(#clipPath7750)" fill="#c4d600"/><path d="m514.5 423c0-9.113 17.461-16.5 39-16.5s39 7.387 39 16.5-17.461 16.5-39 16.5-39-7.387-39-16.5z" clip-path="url(#clipPath7744)" fill="#fff"/></g><path d="m486 234.42 0.376-9.906 1.007-9.88 1.699-9.753 2.264-9.5 2.832-9.123 3.335-8.809 3.776-8.308 4.159-7.813 4.605-7.191 4.863-6.443 5.189-5.695 5.396-4.888 5.61-3.889 5.825-2.944 5.861-1.804 5.945-0.639 11.537-0.376-0.057 3e-3 11.188-1-0.059 7e-3 10.437-1.562-0.06 0.011 9.375-2-0.068 0.017 4.125-1.188-0.04 0.013 3.75-1.25-0.052 0.019 3.313-1.313-0.17 0.087 3.597-2.295 1.076 1.687-3.678 2.345-3.427 1.358-3.796 1.266-4.179 1.203-9.439 2.013-10.497 1.572-11.246 1.005-11.528 0.376 0.074-5e-3 -5.812 0.625 0.187-0.039-5.687 1.75 0.157-0.063-5.688 2.875 0.119-0.071-5.5 3.813 0.101-0.081-5.312 4.812 0.068-0.067-5.125 5.625 0.059-0.071-4.813 6.375 0.044-0.063-4.562 7.125 0.04-0.07-4.125 7.75 0.028-0.056-3.75 8.25 0.025-0.06-3.313 8.75 0.02-0.057-2.812 9.062 0.017-0.064-2.25 9.437 0.013-0.06-1.688 9.687 0.01-0.07-1 9.813 4e-3 -0.064-0.375 9.875zm116.26-118.31 8.369-3.155-2.498 8.589z" clip-path="url(#clipPath7738)"/><path d="m488 311.7 9e-5 -37.029h-2l-9e-5 37.029zm3.0001-35.695-4-8-4 8z" clip-path="url(#clipPath7732)"/><path d="m553.64 405.75-0.4468-4.468-1.2988-4.4158-1.9452-4.0849-2.5951-3.6981-3.0569-3.1219-3.4099-2.4262-3.7223-1.5953-3.7585-0.5184-3.5601-0.4997 0.2549 0.0712-3.5-1.5 0.1859 0.1043-3.25-2.3125 0.1347 0.1152-2.9375-3 0.1041 0.1252-2.5-3.5625 0.0869 0.15-1.875-4 0.0698 0.2035-0.4555-2.0107-1.9505 0.4419 0.4793 2.1162 1.9579 4.1767 2.5969 3.7006 3.0568 3.1219 3.4099 2.4262 3.7212 1.5948 3.6971 0.5189 3.625 0.5-0.2573-0.0715 3.5 1.5-0.1859-0.1043 3.25 2.3125-0.13476-0.1152 2.9375 3-0.10405-0.1252 2.5 3.5625-0.0843-0.1445 1.875 3.9375-0.0565-0.14776 1.25 4.25-0.0357-0.18267 0.4375 4.375zm-34.273-39.652-5.4096-7.123-2.4526 8.6014z" clip-path="url(#clipPath7726)"/><path d="m672.49 577.44-89.685-137.32 1.675-1.094 89.684 137.32zm-91.467-134.56-1.026-8.885 7.724 4.511z" clip-path="url(#clipPath7720)"/><path d="m558.95 577.06-6.612-131.35 1.998-0.101 6.612 131.36zm-9.541-129.87 3.593-8.191 4.397 7.789z" clip-path="url(#clipPath7714)"/><path d="m557.92 577.16-0.3163-5.3772-1.0209-5.3596-1.5291-5.288-2.1662-5.1606-2.668-4.9548-3.1101-4.7604-3.5544-4.5064-3.9313-4.1849-4.2483-3.8679-4.5697-3.4907-4.8234-3.0464-5.0177-2.6041-5.213-2.0979-5.3507-1.5925-5.489-0.9574-5.4323-0.3158 0.0346 3e-3 -2.6875-0.25 0.1552 0.0269-2.6875-0.6875 0.1383 0.0464-2.6875-1.125 0.1254 0.0631-2.625-1.5625 0.0945 0.0639-2.625-2 0.0649 0.0539-2.625-2.375 0.0525 0.051-2.625-2.75 0.0575 0.0658-2.5-3.125 0.0446 0.0603-5-7.3125 0.0531 0.0869-4.6875-8.625 0.0304 0.0606-4.5-9.8125 0.0224 0.0529-4.25-10.875 0.0203 0.057-3.8125-11.813 0.012 0.04-3.5002-12.625 0.011 0.044-3.062-13.375 8e-3 0.038-2.625-13.937 7e-3 0.044-2.063-14.438 5e-3 0.036-1.563-14.75 4e-3 0.043-0.937-15.062 1e-3 0.037-0.21-8.46-1.999 0.049 0.21 8.479 0.94 15.103 1.567 14.79 2.068 14.477 2.633 13.979 3.072 13.416 3.511 12.667 3.8286 11.861 4.2715 10.93 4.5261 9.8694 4.728 8.6996 5.05 7.3856 2.5508 3.1884 2.6804 2.8082 2.6835 2.4279 2.704 2.0602 2.7346 1.6277 2.8198 1.1804 2.8349 0.7252 2.7834 0.2589 5.3924 0.3135-0.1138-0.0132 5.375 0.9375-0.1135-0.0266 5.25 1.5625-0.088-0.0308 5.125 2.0625-0.0873-0.0401 4.9375 2.5625-0.0734-0.0421 4.75 3-0.073-0.0508 4.5 3.4375-0.0662-0.0553 4.1875 3.8125-0.0556-0.0547 3.875 4.125-0.0564-0.0654 3.5 4.4375-0.052-0.0724 3.0625 4.6875-0.0433-0.0728 2.625 4.875-0.0416-0.0871 2.125 5.0625-0.0386-0.1092 1.5 5.1875-0.0217-0.0907 1 5.25-0.0159-0.12839 0.3125 5.3125zm-111.74-210.29-4.197-7.898-3.801 8.097z" clip-path="url(#clipPath7708)"/><g aria-label="Conv2d_1a_7x7ReluBatchNorm3 tensorsconvoluti…"><path d="m536.26 152.58q0 3 1.8 4.992 1.8 1.968 4.512 1.968 1.824 0 3.192-0.84 1.392-0.84 2.376-2.52l1.584 0.912q-1.08 2.064-2.952 3.192-1.848 1.104-4.248 1.104-3.648 0-6.024-2.472-2.352-2.472-2.352-6.288 0-3.744 2.448-6.264 2.472-2.544 6.144-2.544 2.328 0 4.104 1.104 1.8 1.08 2.808 3.096l-1.656 0.984q-0.936-1.704-2.232-2.52t-3.072-0.816q-2.76 0-4.608 1.968-1.824 1.968-1.824 4.944z"/><path d="m563.4 155.22q0 2.616-1.752 4.392-1.752 1.752-4.32 1.752t-4.296-1.752q-1.704-1.752-1.704-4.368t1.752-4.368q1.752-1.776 4.32-1.776t4.272 1.752q1.728 1.752 1.728 4.368zm-10.08 0.024q0 1.872 1.152 3.144 1.176 1.272 2.904 1.272 1.704 0 2.856-1.272 1.176-1.272 1.176-3.168 0-1.848-1.176-3.12-1.176-1.296-2.88-1.296t-2.88 1.272q-1.152 1.272-1.152 3.168z"/><path d="m565.42 149.41h1.92v1.8q0.696-1.008 1.752-1.536 1.08-0.552 2.4-0.552 2.304 0 3.6 1.488t1.296 4.08v6.312h-1.944v-6.192q0-1.824-0.912-2.88-0.888-1.056-2.496-1.056-1.656 0-2.664 1.128t-1.008 2.928v6.072h-1.944z"/><path d="m582.32 161-4.968-11.592h2.136l3.768 9.264 3.744-9.264h2.016l-4.92 11.592z"/><path d="m602.21 161h-11.976v-1.68l5.808-5.328q2.064-1.872 2.808-2.976t0.744-2.352q0-1.32-0.984-2.16-0.96-0.864-2.4-0.864-1.776 0-2.808 1.104-1.008 1.08-1.08 3.048h-1.968q0.048-2.736 1.632-4.344 1.608-1.632 4.272-1.632 2.352 0 3.864 1.368 1.536 1.344 1.536 3.432 0 1.68-0.936 3.12-0.912 1.416-3.48 3.672l-4.248 3.792h9.216z"/><path d="m613.64 144.2h1.968v16.8h-1.944v-1.872q-0.792 1.008-1.92 1.56-1.104 0.552-2.376 0.552-2.424 0-4.08-1.68-1.632-1.704-1.632-4.32 0-2.64 1.68-4.368 1.704-1.752 4.176-1.752 1.2 0 2.256 0.504 1.08 0.48 1.872 1.392zm-4.056 15.336q1.752 0 2.928-1.248 1.2-1.272 1.2-3.12 0-1.872-1.152-3.096t-2.88-1.224q-1.776 0-2.904 1.2t-1.128 3.144 1.104 3.144 2.832 1.2z"/><path d="m616.8 164.1v-1.752h12.192v1.752z"/><path d="m632.19 146.02h-2.592v-1.824h4.608v16.8h-2.016z"/><path d="m647.16 161h-1.896v-1.896q-0.696 1.008-1.896 1.584-1.176 0.552-2.544 0.552-1.92 0-3.12-0.96-1.2-0.984-1.2-2.568 0-1.752 1.344-2.64 1.344-0.912 3.984-0.912h3.408q-0.024-1.632-0.864-2.52-0.816-0.888-2.352-0.888-0.912 0-1.8 0.384t-1.752 1.176l-1.032-1.296q1.008-0.96 2.208-1.44 1.2-0.504 2.568-0.504 2.328 0 3.624 1.392 1.32 1.368 1.32 3.792zm-1.92-5.328h-3.384q-1.752 0-2.592 0.48t-0.84 1.512q0 0.864 0.72 1.44 0.744 0.576 1.896 0.576 1.728 0 2.904-1.104 1.2-1.128 1.296-2.904z"/><path d="m648.24 164.1v-1.752h12.192v1.752z"/><path d="m672.46 145.83-7.176 15.168h-2.232l7.344-15h-9.768v-1.8h11.832z"/><path d="m675.36 161h-2.184l4.512-5.976-4.2-5.616h2.304l3.048 4.248 3.096-4.248h2.16l-4.2 5.592 4.584 6h-2.28l-3.408-4.68z"/><path d="m696.77 145.83-7.176 15.168h-2.232l7.344-15h-9.768v-1.8h11.832z"/><path d="m451.27 223.4 3.781 5.605h-1.938l-3.591-5.415h-3.743v5.415h-1.634v-13.3h5.852q2.242 0 3.496 1.045 1.254 1.026 1.254 2.831 0 1.482-0.912 2.489t-2.565 1.33zm1.824-3.781q0-1.159-0.836-1.805-0.817-0.665-2.299-0.665h-4.18v5.016h4.047q1.501 0 2.375-0.684 0.893-0.703 0.893-1.862z"/><path d="m460.75 227.97q0.912 0 1.672-0.38 0.779-0.399 1.425-1.197l0.931 0.855q-0.779 1.026-1.824 1.539-1.045 0.494-2.337 0.494-2.071 0-3.401-1.349-1.311-1.368-1.311-3.496 0-2.071 1.349-3.458t3.325-1.387q2.014 0 3.268 1.311t1.254 3.42q0 0.152-0.019 0.361-0.019 0.19-0.038 0.285h-7.543q0.152 1.349 1.045 2.185 0.912 0.817 2.204 0.817zm-0.152-7.068q-1.197 0-2.052 0.779t-1.045 2.09h6.042q-0.171-1.33-0.969-2.09-0.798-0.779-1.976-0.779z"/><path d="m466.83 215.7h1.558v13.3h-1.558z"/><path d="m479.16 229h-1.539v-1.406q-0.551 0.798-1.387 1.216-0.836 0.399-1.9 0.399-1.805 0-2.85-1.178-1.026-1.178-1.026-3.211v-4.997h1.558v4.902q0 1.444 0.703 2.28 0.722 0.836 1.995 0.836 1.292 0 2.09-0.893t0.798-2.318v-4.807h1.558z"/><path d="m433.24 343v-14.7h6.363q2.457 0 3.801 1.008t1.344 2.856q0 1.176-0.609 2.037-0.609 0.84-1.827 1.302 1.365 0.357 2.037 1.239 0.693 0.861 0.693 2.226 0 1.806-1.407 2.919t-3.717 1.113zm9.702-10.752q0-1.155-0.861-1.743-0.861-0.609-2.52-0.609h-4.494v4.893h4.767q1.365 0 2.226-0.714 0.882-0.714 0.882-1.827zm0.294 6.699q0-1.176-0.798-1.869t-2.163-0.693h-5.208v5.019h4.977q1.449 0 2.31-0.672 0.882-0.672 0.882-1.785z"/><path d="m455.84 343h-1.659v-1.659q-0.609 0.882-1.659 1.386-1.029 0.483-2.226 0.483-1.68 0-2.73-0.84-1.05-0.861-1.05-2.247 0-1.533 1.176-2.31 1.176-0.798 3.486-0.798h2.982q-0.021-1.428-0.756-2.205-0.714-0.777-2.058-0.777-0.798 0-1.575 0.336t-1.533 1.029l-0.903-1.134q0.882-0.84 1.932-1.26 1.05-0.441 2.247-0.441 2.037 0 3.171 1.218 1.155 1.197 1.155 3.318zm-1.68-4.662h-2.961q-1.533 0-2.268 0.42t-0.735 1.323q0 0.756 0.63 1.26 0.651 0.504 1.659 0.504 1.512 0 2.541-0.966 1.05-0.987 1.134-2.541z"/><path d="m458.4 340.29v-5.922h-1.386v-1.512h1.386v-3.108h1.701v3.108h2.352v1.512h-2.352v5.775q0 0.672 0.294 1.008 0.315 0.315 0.945 0.315h1.113v1.533h-1.365q-1.407 0-2.058-0.651-0.63-0.651-0.63-2.058z"/><path d="m468.8 343.32q-2.331 0-3.801-1.47-1.449-1.491-1.449-3.885 0-2.268 1.533-3.822t3.759-1.554q1.617 0 2.751 0.756 1.155 0.735 1.743 2.142l-1.449 0.693q-0.483-1.05-1.26-1.575-0.756-0.525-1.806-0.525-1.491 0-2.52 1.134-1.008 1.113-1.008 2.751 0 1.659 1.008 2.772 1.029 1.092 2.562 1.092 0.987 0 1.827-0.525 0.861-0.546 1.386-1.512l1.323 0.714q-0.609 1.302-1.827 2.058t-2.772 0.756z"/><path d="m475.1 328.3h1.701v6.09q0.609-0.861 1.512-1.323 0.924-0.462 2.058-0.462 2.037 0 3.171 1.302 1.155 1.302 1.155 3.57v5.523h-1.701v-5.418q0-1.617-0.798-2.52-0.798-0.924-2.226-0.924t-2.31 0.987q-0.861 0.987-0.861 2.562v5.313h-1.701z"/><path d="m488.81 330.92v12.075h-1.764v-14.7h1.932l9.177 12.012v-12.012h1.764v14.7h-1.89z"/><path d="m512.5 337.94q0 2.289-1.533 3.843-1.533 1.533-3.78 1.533t-3.759-1.533q-1.491-1.533-1.491-3.822t1.533-3.822q1.533-1.554 3.78-1.554t3.738 1.533q1.512 1.533 1.512 3.822zm-8.82 0.021q0 1.638 1.008 2.751 1.029 1.113 2.541 1.113 1.491 0 2.499-1.113 1.029-1.113 1.029-2.772 0-1.617-1.029-2.73-1.029-1.134-2.52-1.134t-2.52 1.113q-1.008 1.113-1.008 2.772z"/><path d="m514.26 332.86h1.68v1.281q0.462-0.672 1.197-1.008t1.743-0.336h0.924v1.617h-0.945q-1.449 0-2.184 0.756-0.714 0.756-0.714 2.289v5.544h-1.701z"/><path d="m521.19 332.86h1.68v1.218q0.567-0.735 1.281-1.092 0.735-0.378 1.638-0.378 1.05 0 1.869 0.441t1.302 1.281q0.567-0.84 1.428-1.281 0.882-0.441 1.974-0.441 1.785 0 2.835 1.155 1.071 1.155 1.071 3.003v6.237h-1.722v-6.132q0-1.281-0.651-1.995-0.63-0.735-1.785-0.735-1.134 0-1.848 0.798-0.693 0.777-0.693 2.037v6.027h-1.701v-6.132q0-1.281-0.651-1.995-0.63-0.735-1.785-0.735-1.134 0-1.848 0.798-0.693 0.777-0.693 2.037v6.027h-1.701z"/><path d="m407.07 455.28q0.852 0 1.416-0.468 0.576-0.48 0.576-1.188 0-0.744-0.588-1.176-0.576-0.432-1.608-0.432h-0.528v-0.852h0.504q0.948 0 1.5-0.408 0.552-0.42 0.552-1.068 0-0.6-0.504-0.984t-1.32-0.384q-0.864 0-1.38 0.468-0.504 0.456-0.564 1.26h-0.984q0.036-1.128 0.852-1.884 0.828-0.756 2.124-0.756 1.236 0 2.016 0.636 0.792 0.624 0.792 1.56 0 0.696-0.408 1.212-0.396 0.516-1.152 0.78 0.864 0.24 1.296 0.756t0.432 1.32q0 1.068-0.864 1.8-0.864 0.72-2.184 0.72-1.404 0-2.232-0.756-0.816-0.768-0.828-2.1h0.972q0.048 0.936 0.588 1.44 0.552 0.504 1.524 0.504z"/><path d="m413.71 454.45v-3.384h-0.792v-0.864h0.792v-1.776h0.972v1.776h1.344v0.864h-1.344v3.3q0 0.384 0.168 0.576 0.18 0.18 0.54 0.18h0.636v0.876h-0.78q-0.804 0-1.176-0.372-0.36-0.372-0.36-1.176z"/><path d="m419.71 455.35q0.576 0 1.056-0.24 0.492-0.252 0.9-0.756l0.588 0.54q-0.492 0.648-1.152 0.972-0.66 0.312-1.476 0.312-1.308 0-2.148-0.852-0.828-0.864-0.828-2.208 0-1.308 0.852-2.184t2.1-0.876q1.272 0 2.064 0.828t0.792 2.16q0 0.096-0.012 0.228-0.012 0.12-0.024 0.18h-4.764q0.096 0.852 0.66 1.38 0.576 0.516 1.392 0.516zm-0.096-4.464q-0.756 0-1.296 0.492t-0.66 1.32h3.816q-0.108-0.84-0.612-1.32-0.504-0.492-1.248-0.492z"/><path d="m423.44 450.2h0.96v0.9q0.348-0.504 0.876-0.768 0.54-0.276 1.2-0.276 1.152 0 1.8 0.744t0.648 2.04v3.156h-0.972v-3.096q0-0.912-0.456-1.44-0.444-0.528-1.248-0.528-0.828 0-1.332 0.564t-0.504 1.464v3.036h-0.972z"/><path d="m434.79 454.31q0 0.816-0.696 1.332t-1.812 0.516q-0.732 0-1.38-0.228-0.636-0.24-1.152-0.708l0.504-0.744q0.552 0.456 1.032 0.66t1.02 0.204q0.696 0 1.116-0.264 0.432-0.276 0.432-0.708 0-0.444-0.36-0.636-0.36-0.204-1.188-0.216-1.212-0.048-1.776-0.444-0.552-0.396-0.552-1.236 0-0.768 0.636-1.272 0.648-0.516 1.656-0.516 0.684 0 1.284 0.216t1.092 0.636l-0.468 0.732q-0.492-0.396-0.948-0.576t-0.972-0.18q-0.588 0-0.972 0.264-0.372 0.264-0.372 0.648 0 0.42 0.336 0.612t1.068 0.228q1.308 0.036 1.884 0.432 0.588 0.396 0.588 1.248z"/><path d="m441.55 453.11q0 1.308-0.876 2.196-0.876 0.876-2.16 0.876t-2.148-0.876q-0.852-0.876-0.852-2.184t0.876-2.184q0.876-0.888 2.16-0.888t2.136 0.876q0.864 0.876 0.864 2.184zm-5.04 0.012q0 0.936 0.576 1.572 0.588 0.636 1.452 0.636 0.852 0 1.428-0.636 0.588-0.636 0.588-1.584 0-0.924-0.588-1.56-0.588-0.648-1.44-0.648t-1.44 0.636q-0.576 0.636-0.576 1.584z"/><path d="m442.55 450.2h0.96v0.732q0.264-0.384 0.684-0.576t0.996-0.192h0.528v0.924h-0.54q-0.828 0-1.248 0.432-0.408 0.432-0.408 1.308v3.168h-0.972z"/><path d="m451.18 454.31q0 0.816-0.696 1.332t-1.812 0.516q-0.732 0-1.38-0.228-0.636-0.24-1.152-0.708l0.504-0.744q0.552 0.456 1.032 0.66t1.02 0.204q0.696 0 1.116-0.264 0.432-0.276 0.432-0.708 0-0.444-0.36-0.636-0.36-0.204-1.188-0.216-1.212-0.048-1.776-0.444-0.552-0.396-0.552-1.236 0-0.768 0.636-1.272 0.648-0.516 1.656-0.516 0.684 0 1.284 0.216t1.092 0.636l-0.468 0.732q-0.492-0.396-0.948-0.576t-0.972-0.18q-0.588 0-0.972 0.264-0.372 0.264-0.372 0.648 0 0.42 0.336 0.612t1.068 0.228q1.308 0.036 1.884 0.432 0.588 0.396 0.588 1.248z"/><path d="m562.64 398.5q0 0.15772-9e-3 0.27832-9e-3 0.11133-0.0371 0.19482-0.0186 0.0742-0.0557 0.13916-0.0278 0.0557-0.14844 0.17627-0.11133 0.11133-0.38965 0.2876-0.27832 0.16699-0.63086 0.30615-0.34326 0.12989-0.75146 0.21338-0.4082 0.0835-0.84424 0.0835-0.8999 0-1.5957-0.29688-0.6958-0.29687-1.169-0.86279-0.46387-0.57519-0.71435-1.4009-0.24121-0.83496-0.24121-1.9204 0-1.2339 0.29687-2.1152 0.30615-0.89063 0.82568-1.4565 0.52881-0.56592 1.2339-0.83497 0.71436-0.27832 1.54-0.27832 0.39893 0 0.77002 0.0742 0.38037 0.0742 0.6958 0.19483 0.31543 0.1206 0.55664 0.27832 0.25049 0.15771 0.36182 0.26904t0.14843 0.17627q0.0464 0.0649 0.0742 0.15771 0.0278 0.0835 0.0371 0.19483 9e-3 0.11133 9e-3 0.27832 0 0.36182-0.0835 0.51025-0.0835 0.13916-0.2041 0.13916-0.13916 0-0.3247-0.14843-0.17627-0.15772-0.45459-0.34327-0.27832-0.18554-0.67725-0.33398-0.38965-0.15772-0.92773-0.15772-1.104 0-1.6978 0.85352-0.58447 0.84424-0.58447 2.4585 0 0.80713 0.14844 1.4194 0.15771 0.60303 0.45459 1.0112 0.29687 0.4082 0.72363 0.61231 0.43603 0.19482 0.99267 0.19482 0.52881 0 0.92774-0.16699 0.39892-0.167 0.68652-0.36182 0.29688-0.2041 0.4917-0.36182 0.2041-0.16699 0.31543-0.16699 0.0649 0 0.11133 0.0371 0.0464 0.0371 0.0742 0.12988 0.0371 0.0835 0.0464 0.22266 0.0186 0.12988 0.0186 0.31543z"/><path d="m572.09 395.5q0 1.0205-0.26904 1.8833-0.26905 0.85351-0.80713 1.4751-0.52881 0.62158-1.3359 0.97412-0.79785 0.34326-1.8555 0.34326-1.0298 0-1.7998-0.30615-0.76075-0.30616-1.271-0.89063t-0.76074-1.4194-0.25049-1.8926q0-1.0205 0.25976-1.874 0.26905-0.8628 0.79786-1.4844 0.53808-0.62158 1.3359-0.96484 0.79786-0.34326 1.8648-0.34326 1.0298 0 1.7905 0.30615 0.77002 0.30615 1.2803 0.89062 0.51025 0.58448 0.76074 1.4194 0.25977 0.83496 0.25977 1.8833zm-1.6143 0.10205q0-0.67725-0.12988-1.2803-0.12061-0.60303-0.40821-1.0576-0.28759-0.45459-0.77929-0.71436-0.4917-0.26904-1.2246-0.26904-0.67725 0-1.169 0.24121-0.48242 0.24121-0.79785 0.68652-0.31543 0.43604-0.47314 1.0391-0.14844 0.60302-0.14844 1.3174 0 0.68652 0.12061 1.2896 0.12988 0.60303 0.41748 1.0576 0.29687 0.44531 0.78857 0.71435 0.4917 0.25977 1.2246 0.25977 0.66797 0 1.1597-0.24121t0.80713-0.67725q0.31543-0.43603 0.46386-1.0391 0.14844-0.60303 0.14844-1.3267z"/><path d="m581.53 399.77q0 0.0742-0.0371 0.12988-0.0371 0.0464-0.12061 0.0835-0.0835 0.0371-0.23193 0.0557-0.14844 0.0186-0.3711 0.0186-0.23193 0-0.38037-0.0186t-0.23193-0.0557q-0.0835-0.0371-0.12061-0.0835-0.0371-0.0557-0.0371-0.12988v-4.8892q0-0.71436-0.11133-1.1504-0.11132-0.43604-0.3247-0.75147t-0.55664-0.48242q-0.33399-0.16699-0.7793-0.16699-0.5752 0-1.1504 0.4082-0.5752 0.4082-1.2061 1.1968v5.8354q0 0.0742-0.0371 0.12988-0.0371 0.0464-0.12061 0.0835-0.0835 0.0371-0.23193 0.0557-0.14844 0.0186-0.38037 0.0186-0.22266 0-0.3711-0.0186t-0.24121-0.0557q-0.0835-0.0371-0.1206-0.0835-0.0278-0.0557-0.0278-0.12988v-8.3496q0-0.0742 0.0278-0.12061 0.0278-0.0557 0.11132-0.0928 0.0835-0.0464 0.21338-0.0557 0.12988-0.0186 0.34326-0.0186 0.20411 0 0.33399 0.0186 0.13916 9e-3 0.21338 0.0557 0.0742 0.0371 0.10205 0.0928 0.0371 0.0464 0.0371 0.12061v1.104q0.70508-0.78857 1.4009-1.1504 0.70507-0.37109 1.4194-0.37109 0.83496 0 1.4009 0.28759 0.57519 0.27832 0.92773 0.75147 0.35254 0.47314 0.50098 1.1133 0.15771 0.63086 0.15771 1.5215z"/><path d="m590.85 391.4q0 0.0371-9e-3 0.0835 0 0.0371-9e-3 0.0835t-0.0278 0.10206q-9e-3 0.0557-0.0278 0.1206l-2.8482 7.9321q-0.0371 0.10205-0.10205 0.16699-0.0557 0.0649-0.17627 0.10205-0.1206 0.0371-0.30615 0.0464-0.18555 0.0186-0.46387 0.0186t-0.46387-0.0186q-0.18554-0.0186-0.30615-0.0557-0.11133-0.0371-0.17627-0.10206-0.0649-0.0649-0.10205-0.15771l-2.8389-7.9321q-0.0371-0.11133-0.0649-0.19482-0.0186-0.0835-0.0278-0.12061 0-0.0464 0-0.0742 0-0.0742 0.0371-0.12988 0.0371-0.0557 0.12061-0.0835 0.0928-0.0371 0.23193-0.0464 0.14844-9e-3 0.36182-9e-3 0.26904 0 0.42675 0.0186 0.167 9e-3 0.25049 0.0464 0.0928 0.0371 0.12989 0.0928 0.0464 0.0557 0.0835 0.13916l2.3564 6.8838 0.0371 0.11133 0.0278-0.11133 2.3286-6.8838q0.0186-0.0835 0.0649-0.13916 0.0464-0.0557 0.12989-0.0928 0.0928-0.0371 0.24121-0.0464 0.15771-0.0186 0.4082-0.0186 0.21338 0 0.35254 9e-3t0.21338 0.0464q0.0835 0.0371 0.11133 0.0928 0.0371 0.0464 0.0371 0.1206z"/><path d="m600.18 395.5q0 1.0205-0.26905 1.8833-0.26904 0.85351-0.80713 1.4751-0.52881 0.62158-1.3359 0.97412-0.79786 0.34326-1.8555 0.34326-1.0298 0-1.7998-0.30615-0.76074-0.30616-1.271-0.89063-0.51026-0.58447-0.76075-1.4194-0.25048-0.83496-0.25048-1.8926 0-1.0205 0.25976-1.874 0.26904-0.8628 0.79785-1.4844 0.53809-0.62158 1.3359-0.96484t1.8648-0.34326q1.0298 0 1.7905 0.30615 0.77002 0.30615 1.2803 0.89062 0.51025 0.58448 0.76074 1.4194 0.25977 0.83496 0.25977 1.8833zm-1.6143 0.10205q0-0.67725-0.12989-1.2803-0.1206-0.60303-0.4082-1.0576t-0.7793-0.71436q-0.49169-0.26904-1.2246-0.26904-0.67725 0-1.169 0.24121-0.48242 0.24121-0.79785 0.68652-0.31543 0.43604-0.47315 1.0391-0.14843 0.60302-0.14843 1.3174 0 0.68652 0.1206 1.2896 0.12988 0.60303 0.41748 1.0576 0.29688 0.44531 0.78858 0.71435 0.4917 0.25977 1.2246 0.25977 0.66796 0 1.1597-0.24121t0.80713-0.67725q0.31543-0.43603 0.46387-1.0391t0.14844-1.3267z"/><path d="m603.96 399.77q0 0.0742-0.0371 0.12988-0.0371 0.0464-0.1206 0.0835t-0.23194 0.0557q-0.14843 0.0186-0.38037 0.0186-0.22265 0-0.37109-0.0186t-0.24121-0.0557q-0.0835-0.0371-0.12061-0.0835-0.0278-0.0557-0.0278-0.12988v-12.395q0-0.0742 0.0278-0.12989 0.0371-0.0557 0.12061-0.0928 0.0928-0.0371 0.24121-0.0557 0.14844-0.0186 0.37109-0.0186 0.23194 0 0.38037 0.0186 0.14844 0.0186 0.23194 0.0557t0.1206 0.0928 0.0371 0.12989z"/><path d="m613.95 399.77q0 0.0742-0.0371 0.12988-0.0278 0.0464-0.11132 0.0835-0.0835 0.0371-0.22266 0.0557-0.12988 0.0186-0.32471 0.0186-0.21338 0-0.35254-0.0186-0.12988-0.0186-0.21338-0.0557-0.0742-0.0371-0.10205-0.0835-0.0278-0.0557-0.0278-0.12988v-1.104q-0.71435 0.78858-1.4102 1.1504-0.69581 0.36182-1.4102 0.36182-0.83496 0-1.4102-0.27832-0.56591-0.27832-0.91845-0.75147-0.35254-0.48242-0.51026-1.1133-0.14844-0.64013-0.14844-1.5493v-5.0654q0-0.0742 0.0278-0.12061 0.0371-0.0557 0.12988-0.0928 0.0928-0.0464 0.24121-0.0557 0.14844-0.0186 0.37109-0.0186 0.22266 0 0.3711 0.0186 0.14844 9e-3 0.23193 0.0557 0.0928 0.0371 0.12988 0.0928 0.0371 0.0464 0.0371 0.12061v4.8613q0 0.73291 0.10205 1.1782 0.11133 0.43603 0.32471 0.75146 0.22266 0.30615 0.55664 0.48242 0.33399 0.167 0.7793 0.167 0.57519 0 1.1411-0.40821 0.5752-0.4082 1.2153-1.1968v-5.8354q0-0.0742 0.0278-0.12061 0.0371-0.0557 0.12988-0.0928 0.0928-0.0464 0.23193-0.0557 0.14844-0.0186 0.38037-0.0186 0.22266 0 0.3711 0.0186 0.14844 9e-3 0.23193 0.0557 0.0835 0.0371 0.12061 0.0928 0.0464 0.0464 0.0464 0.12061z"/><path d="m624.04 391.18q0.27832 0 0.38037 0.12988 0.10206 0.1206 0.10206 0.36182v8.0991q0 0.0742-0.0371 0.12988-0.0371 0.0464-0.12989 0.0835-0.0835 0.0371-0.23193 0.0557-0.14844 0.0186-0.36182 0.0186-0.23193 0-0.38037-0.0186t-0.24121-0.0557q-0.0835-0.0371-0.1206-0.0835-0.0371-0.0557-0.0371-0.12988v-7.3198h-4.314v4.6572q0 0.86279 0.25049 1.3081 0.25977 0.43604 0.91846 0.43604 0.21338 0 0.38037-0.0371 0.16699-0.0464 0.29687-0.0928 0.12989-0.0464 0.22266-0.0835 0.0928-0.0464 0.16699-0.0464 0.0464 0 0.0835 0.0278 0.0464 0.0186 0.0649 0.0835 0.0278 0.0649 0.0464 0.17627 0.0186 0.11133 0.0186 0.27832 0 0.26904-0.0371 0.42676-0.0371 0.14844-0.11133 0.23193-0.0742 0.0742-0.22265 0.13916-0.14844 0.0649-0.34327 0.10205-0.18554 0.0464-0.39892 0.0742t-0.42676 0.0278q-0.64941 0-1.1133-0.16699-0.46387-0.17627-0.76074-0.51953-0.29688-0.35254-0.43604-0.88135-0.12988-0.53808-0.12988-1.2617v-4.8799h-1.169q-0.13916 0-0.22265-0.14844-0.0835-0.14843-0.0835-0.48242 0-0.17627 0.0186-0.29687 0.0278-0.12061 0.0649-0.19483 0.0371-0.0835 0.0928-0.11132 0.0649-0.0371 0.13916-0.0371h1.1597v-1.9854q0-0.0649 0.0278-0.1206 0.0371-0.0557 0.12061-0.0928 0.0928-0.0464 0.24121-0.065 0.14844-0.0186 0.37109-0.0186 0.23194 0 0.38037 0.0186 0.14844 0.0186 0.23194 0.065 0.0835 0.0371 0.1206 0.0928t0.0371 0.1206v1.9854zm0.65869-2.5791q0 0.53809-0.2041 0.73291-0.2041 0.19483-0.75146 0.19483-0.53809 0-0.74219-0.18555-0.19482-0.19482-0.19482-0.72363 0-0.53809 0.2041-0.73291 0.2041-0.19483 0.75146-0.19483 0.53809 0 0.73291 0.19483 0.2041 0.18555 0.2041 0.71435z"/><path d="m628.6 399q0 0.64941-0.22266 0.87207-0.21337 0.21338-0.77001 0.21338-0.53809 0-0.75147-0.21338t-0.21338-0.84424q0-0.64942 0.21338-0.86279 0.22266-0.22266 0.7793-0.22266 0.53808 0 0.75146 0.21338t0.21338 0.84424zm4.1841 0q0 0.64941-0.21338 0.87207-0.21337 0.21338-0.77002 0.21338-0.53808 0-0.75146-0.21338t-0.21338-0.84424q0-0.64942 0.21338-0.86279 0.22266-0.22266 0.77002-0.22266t0.75146 0.21338q0.21338 0.21338 0.21338 0.84424zm4.1934 0q0 0.64941-0.22265 0.87207-0.21338 0.21338-0.77002 0.21338-0.53809 0-0.75147-0.21338t-0.21338-0.84424q0-0.64942 0.21338-0.86279 0.22266-0.22266 0.7793-0.22266 0.53808 0 0.75146 0.21338t0.21338 0.84424z"/></g></svg>
