<svg width="1280" height="720" xmlns="http://www.w3.org/2000/svg" xmlns:xlink="http://www.w3.org/1999/xlink" overflow="hidden"><defs><clipPath id="clip0"><rect x="0" y="0" width="1280" height="720"/></clipPath></defs><g clip-path="url(#clip0)"><rect x="0" y="0" width="1280" height="720" fill="#FFFFFF"/><path d="M270.5 197.168C270.5 157.587 302.587 125.5 342.168 125.5L865.832 125.5C905.413 125.5 937.5 157.587 937.5 197.168L937.5 483.832C937.5 523.413 905.413 555.5 865.832 555.5L342.168 555.5C302.587 555.5 270.5 523.413 270.5 483.832Z" stroke="#A5A5A5" stroke-width="1.33333" stroke-miterlimit="8" fill="#E7E6E6" fill-rule="evenodd"/><text font-family="IntelOne Display Regular,IntelOne Display Regular_MSFontService,sans-serif" font-weight="400" font-size="24" transform="translate(537.134 183)">Predictions</text><path d="M432 254C432 247.373 444.088 242 459 242 473.912 242 486 247.373 486 254 486 260.627 473.912 266 459 266 444.088 266 432 260.627 432 254Z" stroke="#FC4C02" stroke-width="6" stroke-miterlimit="8" fill="#FFFFFF" fill-rule="evenodd"/><path d="M390.5 331.5C390.5 324.873 402.365 319.5 417 319.5 431.636 319.5 443.5 324.873 443.5 331.5 443.5 338.127 431.636 343.5 417 343.5 402.365 343.5 390.5 338.127 390.5 331.5Z" stroke="#BFBFBF" stroke-width="3" stroke-miterlimit="8" fill="#FFFFFF" fill-rule="evenodd"/><path d="M508.5 331.5C508.5 324.873 520.365 319.5 535 319.5 549.636 319.5 561.5 324.873 561.5 331.5 561.5 338.127 549.636 343.5 535 343.5 520.365 343.5 508.5 338.127 508.5 331.5Z" stroke="#BFBFBF" stroke-width="3" stroke-miterlimit="8" fill="#FFFFFF" fill-rule="evenodd"/><path d="M479.5 410.5C479.5 403.873 491.365 398.5 506 398.5 520.636 398.5 532.5 403.873 532.5 410.5 532.5 417.127 520.636 422.5 506 422.5 491.365 422.5 479.5 417.127 479.5 410.5Z" stroke="#BFBFBF" stroke-width="3" stroke-miterlimit="8" fill="#FFFFFF" fill-rule="evenodd"/><path d="M441.5 410.5C441.5 406.082 445.306 402.5 450 402.5 454.694 402.5 458.5 406.082 458.5 410.5 458.5 414.918 454.694 418.5 450 418.5 445.306 418.5 441.5 414.918 441.5 410.5Z" stroke="#BFBFBF" stroke-width="3" stroke-miterlimit="8" fill="#FFFFFF" fill-rule="evenodd"/><path d="M2.87846-0.845261 50.3802 160.918 44.6233 162.608-2.87846 0.845261ZM55.2919 156.349 51.7281 176.155 38.0211 161.42Z" fill="#A5A5A5" transform="matrix(1 0 0 -1 552 731.155)"/><path d="M458 409 472.278 409 472.278 411 458 411ZM470.945 406 478.945 410 470.945 414Z" fill="#A5A5A5"/><path d="M639.815 566.412 632.592 566.224 625.411 565.531 618.234 564.523 611.117 563.075 604.004 561.249 597.007 559.043 583.306 553.638 570.037 546.909 557.339 538.989 545.273 530.002 534.021 520.07 523.712 509.196 514.41 497.631 506.172 485.369 499.189 472.535 493.592 459.329 491.322 452.517 489.433 445.716 487.92 438.847 486.847 431.905 486.258 424.717 488.251 424.554 488.838 431.706 488.829 431.635 489.892 438.51 489.88 438.447 491.38 445.26 491.367 445.207 493.242 451.957 493.227 451.909 495.477 458.659 495.449 458.585 501.012 471.71 500.969 471.622 507.907 484.372 507.859 484.292 516.046 496.48 515.995 496.411 525.245 507.911 525.192 507.849 535.442 518.662 535.378 518.6 546.565 528.475 546.501 528.423 558.501 537.36 558.433 537.314 571.058 545.189 570.981 545.146 584.168 551.833 584.083 551.795 597.708 557.17 597.642 557.146 604.579 559.334 604.527 559.319 611.59 561.131 611.541 561.12 618.603 562.558 618.543 562.547 625.668 563.547 625.625 563.542 632.75 564.23 632.68 564.225 639.867 564.413ZM483.316 426.14 486.966 417.975 491.308 425.795Z" fill="#A5A5A5"/><path d="M0.0223824-0.999749 8.41972-0.811749 16.8506-0.245498 33.1035 1.95084 40.9087 3.52447 48.3886 5.41018 55.4327 7.48566 62.0445 9.81554 68.1626 12.3385 73.6662 15.0586 78.5505 17.9765 82.7011 20.9777 86.054 24.1372 88.6095 27.4136 90.2163 30.8949 90.7379 34.22 90.7275 34.1642 91.415 37.3517 91.2771 37.0192 93.3396 40.2067 93.1862 40.0226 96.4987 43.1476 96.3805 43.052 100.818 46.1145 100.725 46.0573 106.287 49.0573 106.21 49.0197 112.71 51.8322 112.652 51.8095 120.09 54.497 120.042 54.4811 128.23 56.9811 128.188 56.9694 137.125 59.2819 137.091 59.2735 146.716 61.3985 146.677 61.3908 156.74 63.2033 156.709 63.1983 167.271 64.7608 167.223 64.7548 189.348 66.9423 189.299 66.9387 200.674 67.5012 200.641 67.5001 205.413 67.5784 205.38 69.5781 200.592 69.4996 189.176 68.9351 167.003 66.7428 156.401 65.1744 146.303 63.3557 136.642 61.2226 127.666 58.9002 119.434 56.3865 111.944 53.68 105.376 50.8381 99.7271 47.7916 95.1817 44.6547 91.726 41.3946 89.4986 37.9522 88.7665 34.558 88.2621 31.3425 88.342 31.6066 86.842 28.3566 86.9615 28.5525 84.524 25.4275 84.6267 25.5403 81.3767 22.4778 81.4766 22.5604 77.4141 19.6229 77.4871 19.671 72.6746 16.796 72.7444 16.834 67.3069 14.1465 67.3688 14.1745 61.3063 11.6745 61.3551 11.6932 54.7926 9.38066 54.8424 9.39673 47.8424 7.33423 47.8805 7.34466 40.443 5.46966 40.4899 5.48028 32.7399 3.91778 32.8036 3.92849 16.6161 1.74099 16.683 1.74775 8.30799 1.18525 8.35262 1.18725-0.0223824 0.999749ZM204.129 64.5569 212.062 68.6875 203.998 72.5558Z" fill="#A5A5A5" transform="matrix(-6.12323e-17 -1 -1 6.12323e-17 603.66 555.021)"/><path d="M485.562 403.081 420.447 348.066 421.738 346.539 486.853 401.553ZM419.529 351.218 416 343 424.692 345.108Z" fill="#A5A5A5"/><path d="M534.965 320.021 529.525 319.704 524.167 318.684 518.816 317.155 513.661 314.991 508.646 312.388 503.82 309.277 499.317 305.789 495.065 301.918 491.195 297.667 487.643 293.1 484.597 288.34 481.929 283.322 479.829 278.167 478.232 272.803 477.622 268.744 479.6 268.446 480.2 272.436 480.169 272.3 481.732 277.55 481.699 277.458 483.762 282.52 483.719 282.428 486.344 287.366 486.303 287.296 489.303 291.983 489.25 291.909 492.75 296.409 492.7 296.349 496.513 300.537 496.447 300.471 500.634 304.283 500.573 304.232 505.011 307.669 504.94 307.62 509.69 310.682 509.609 310.635 514.546 313.197 514.473 313.163 519.535 315.288 519.423 315.248 524.673 316.748 524.585 316.728 529.835 317.728 529.706 317.712 535.081 318.024ZM474.76 270.312 477.961 261.96 482.722 269.532Z" fill="#A5A5A5"/><path d="M415.001 318.975 415.254 313.609 416.08 308.331 417.227 303.425 418.828 299.005 420.704 295.189 422.887 292.212 425.269 290.18 427.732 289.496 429.982 288.871 429.601 289.074 431.726 287.261 431.569 287.431 433.631 284.618 433.54 284.769 435.353 281.081 435.306 281.194 436.806 276.881 436.779 276.97 437.967 272.158 437.945 272.275 438.412 268.483 440.397 268.727 439.923 272.579 438.71 277.494 437.174 281.909 435.296 285.73 433.113 288.708 430.731 290.739 428.268 291.423 426.018 292.048 426.399 291.846 424.274 293.658 424.431 293.489 422.369 296.301 422.46 296.151 420.647 299.838 420.69 299.738 419.128 304.05 419.161 303.937 418.036 308.75 418.05 308.677 417.238 313.865 417.249 313.757 416.999 319.069ZM435.311 269.614 439.938 261.96 443.285 270.254Z" fill="#A5A5A5"/><text font-family="IntelOne Display Regular,IntelOne Display Regular_MSFontService,sans-serif" font-weight="400" font-size="16" transform="translate(425.134 231)">Reshape_1<tspan font-size="16" x="-41.7929" y="80">Softma</tspan><tspan font-size="16" x="8.54047" y="80">x</tspan><tspan font-size="16" x="89.6248" y="81">Shap</tspan><tspan font-size="16" x="126.458" y="81">e</tspan><tspan font-size="16" x="46.3627" y="159">Re</tspan><tspan font-size="16" x="65.696" y="159">s</tspan>hape<tspan font-size="13" x="-27.3558" y="184">S</tspan><tspan font-size="13" x="-18.6891" y="184">hape</tspan></text></g></svg>