<?xml version="1.0" encoding="UTF-8"?>
<svg width="1280" height="720" overflow="hidden" version="1.1" xmlns="http://www.w3.org/2000/svg"><defs><clipPath id="clip0"><rect width="1280" height="720"/></clipPath></defs><g clip-path="url(#clip0)"><path d="m0 0h1280v720h-1280z" fill="#fff"/><path transform="matrix(-1.837e-16 -1 -1 1.837e-16 800.63 382.9)" d="m0.013617-0.99991 32.138 0.43768 31.836 1.2509 31.4 1.9391 30.587 2.7522 29.646 3.3148 14.329 1.8773 14.015 2.0646 13.638 2.1897 13.202 2.315 12.825 2.44 12.331 2.5036 11.769 2.6918 11.328 2.7538 10.709 2.8183 10.086 2.9443 9.527 3.0086 8.842 3.1352 8.158 3.1378 7.478 3.2678 6.671 3.2723 5.932 3.3449 5.131 3.4208 4.272 3.4428 3.412 3.5414 2.477 3.5841 1.592 3.6493 0.533 3.6647-0.631 13.885-1.698 13.457-2.703 12.574-1.64 5.803-1.828 5.484-1.959 4.993-2.156 4.566-2.292 4.01-2.368 3.392-2.532 2.932-1.64 0.865-0.932-1.769 1.472-0.777-0.29 0.231 2.375-2.75-0.063 0.081 2.312-3.312-0.048 0.076 2.25-3.938-0.036 0.069 2.125-4.5-0.027 0.062 1.938-4.937-0.018 0.049 1.812-5.438-0.013 0.045 1.625-5.75-0.016 0.061 2.688-12.5-0.015 0.085 1.688-13.375-7e-3 0.0798 0.625-13.75 9e-3 0.1893-0.5-3.4375 0.073 0.256-1.5-3.4375 0.094 0.1685-2.375-3.4375 0.103 0.1255-3.313-3.4375 0.093 0.0847-4.188-3.375 0.073 0.0535-5.062-3.375 0.063 0.039-5.875-3.3125 0.051 0.0267-6.625-3.25 0.04 0.0185-7.437-3.25 0.041 0.017-8.125-3.125 0.025 0.0092-8.813-3.125 0.033 0.0111-9.5-3 0.021 0.0063-10.062-2.9375 0.026 0.0072-10.688-2.8125 0.018 0.0046-11.312-2.75 0.013 0.0031-11.75-2.6875 0.024 0.0052-12.313-2.5 0.013 0.0024-12.813-2.4375 0.014 0.0026-13.187-2.3125 0.014 0.0024-13.625-2.1875 0.013 0.0019-14-2.0625 0.016 0.0022-14.313-1.875 0.019 0.0023-29.625-3.3125 0.021 0.00217-30.562-2.75 0.028 0.00212-31.375-1.9375 0.0223 0.00113-31.812-1.25 0.0257 6.8e-4 -32.125-0.4375zm324.87 148.89-8.943-0.199 5.524-7.034z"/><path transform="matrix(-1 0 0 1 484.5 247.5)" d="m72.135 14.526c37.952-11.01 73.878 34.026 80.817 101.31l12.894-0.731-22.161 19.989-24.34-17.354 12.908-0.731c-5.578-56.017-31.48-92.261-58.188-81.421z" fill="#F3D64E" fill-rule="evenodd" stroke="#FFD966" stroke-miterlimit="8" stroke-width="1.3333"/><path d="m511.13 261.97c37.778-11.105 73.557 34.048 80.421 101.49l12.818-0.726-22.043 19.874-24.18-17.256 12.831-0.727c-5.514-56.266-31.329-92.68-57.927-81.711z" fill="#F3D64E" fill-rule="evenodd" stroke="#FFD966" stroke-miterlimit="8" stroke-width="1.3333"/><g fill="#fff" fill-rule="evenodd" stroke="#000" stroke-miterlimit="8" stroke-width="1.3333"><path d="m721.33 338.38 11.223-20.63 20.63 11.222-6.783 2.004 15.524 52.561-18.287 5.401-15.524-52.561z"/><path d="m476.5 695.5c0-5.523 9.626-10 21.5-10s21.5 4.477 21.5 10-9.626 10-21.5 10-21.5-4.477-21.5-10z"/><path d="m616.5 31.5c0-5.5229 9.626-10 21.5-10s21.5 4.4771 21.5 10c0 5.5228-9.626 10-21.5 10s-21.5-4.4772-21.5-10z"/><path d="m616.5 74.5c0-5.5229 9.626-10 21.5-10s21.5 4.4771 21.5 10c0 5.5228-9.626 10-21.5 10s-21.5-4.4772-21.5-10z"/></g><g transform="translate(616.02 15)" aria-label="softmax_..."><path d="m4.207-1.582q0 0.4043-0.15234 0.7207-0.14648 0.31641-0.42188 0.5332-0.27539 0.2168-0.65625 0.32812t-0.83789 0.11133q-0.28125 0-0.53906-0.046875-0.25195-0.041016-0.45703-0.10547-0.19922-0.070312-0.33984-0.14062-0.14063-0.076172-0.20508-0.13477-0.064453-0.058594-0.09375-0.16406t-0.029297-0.28711q0-0.11133 0.011719-0.1875 0.011719-0.076172 0.029297-0.12305t0.046875-0.064453q0.035156-0.023437 0.076172-0.023437 0.064453 0 0.1875 0.082031 0.12891 0.076172 0.31055 0.16992 0.1875 0.09375 0.43945 0.17578 0.25195 0.076172 0.58008 0.076172 0.24609 0 0.44531-0.052734 0.19922-0.052734 0.3457-0.15234 0.14648-0.10547 0.22266-0.26367 0.082031-0.1582 0.082031-0.375 0-0.22266-0.11719-0.375-0.11133-0.15234-0.29883-0.26953t-0.42188-0.20508q-0.23438-0.09375-0.48633-0.19336-0.24609-0.09961-0.48633-0.22266-0.23438-0.12891-0.42188-0.31055-0.1875-0.18164-0.30469-0.43359-0.11133-0.25195-0.11133-0.60352 0-0.31055 0.11719-0.5918 0.12305-0.28711 0.36328-0.49805 0.24023-0.2168 0.59766-0.3457 0.36328-0.12891 0.84375-0.12891 0.21094 0 0.42188 0.035156t0.38086 0.087891q0.16992 0.052734 0.28711 0.11719 0.12305 0.058594 0.18164 0.10547 0.064453 0.046875 0.082031 0.082031 0.023437 0.035156 0.029297 0.082031 0.011719 0.041016 0.017578 0.10547 0.011719 0.064453 0.011719 0.1582 0 0.099609-0.011719 0.17578-0.00586 0.070312-0.029297 0.11719-0.017578 0.046875-0.046875 0.070312-0.029297 0.017578-0.064453 0.017578-0.052734 0-0.15234-0.064453-0.099609-0.064452-0.25781-0.13476-0.1582-0.076172-0.375-0.14062-0.21094-0.064453-0.48633-0.064453-0.24609 0-0.43359 0.058594-0.1875 0.052734-0.31055 0.1582-0.11719 0.099609-0.18164 0.24023-0.058594 0.14062-0.058594 0.30469 0 0.22852 0.11719 0.38672 0.11719 0.15234 0.30469 0.26953t0.42773 0.21094q0.24023 0.09375 0.48633 0.19336 0.25195 0.099609 0.49219 0.22266 0.24609 0.12305 0.43359 0.29883 0.1875 0.17578 0.29883 0.42188 0.11719 0.24609 0.11719 0.58594z"/><path d="m10.494-2.8418q0 0.64453-0.16992 1.1895-0.16992 0.53906-0.50977 0.93164-0.33398 0.39258-0.84375 0.61523-0.50391 0.2168-1.1719 0.2168-0.65039 0-1.1367-0.19336-0.48047-0.19336-0.80273-0.5625-0.32227-0.36914-0.48047-0.89648-0.1582-0.52734-0.1582-1.1953 0-0.64453 0.16406-1.1836 0.16992-0.54492 0.50391-0.9375 0.33984-0.39258 0.84375-0.60938 0.50391-0.2168 1.1777-0.2168 0.65039 0 1.1309 0.19336 0.48633 0.19336 0.80859 0.5625 0.32227 0.36914 0.48047 0.89648 0.16406 0.52734 0.16406 1.1895zm-1.0195 0.064453q0-0.42773-0.082031-0.80859-0.076172-0.38086-0.25781-0.66797-0.18164-0.28711-0.49219-0.45117-0.31055-0.16992-0.77344-0.16992-0.42773 0-0.73828 0.15234-0.30469 0.15234-0.50391 0.43359-0.19922 0.27539-0.29883 0.65625-0.09375 0.38086-0.09375 0.83203 0 0.43359 0.076172 0.81445 0.082031 0.38086 0.26367 0.66797 0.1875 0.28125 0.49805 0.45117 0.31055 0.16406 0.77344 0.16406 0.42188 0 0.73242-0.15234t0.50977-0.42773q0.19922-0.27539 0.29297-0.65625t0.09375-0.83789z"/><path d="m13.143-4.7695v4.623q0 0.046875-0.02344 0.082031-0.02344 0.029297-0.08203 0.052734-0.05273 0.023438-0.14648 0.035156-0.09375 0.011719-0.23438 0.011719t-0.23438-0.011719-0.15234-0.035156q-0.05273-0.023438-0.07617-0.052734-0.02344-0.035156-0.02344-0.082031v-4.623h-0.74414q-0.09375 0-0.14062-0.09375-0.04687-0.09375-0.04687-0.30469 0-0.11133 0.01172-0.1875 0.01172-0.076172 0.03516-0.12305 0.02344-0.052734 0.05859-0.070312 0.03516-0.023437 0.08203-0.023437h0.74414v-0.54492q0-0.55078 0.09961-0.94336 0.10547-0.39844 0.31055-0.65039 0.21094-0.25195 0.52734-0.36914 0.32227-0.12305 0.75586-0.12305 0.2168 0 0.42188 0.046875 0.20508 0.041016 0.29297 0.082031 0.08789 0.035156 0.12305 0.070312 0.03516 0.035156 0.05273 0.09375 0.02344 0.052734 0.0293 0.13477 0.01172 0.076172 0.01172 0.1875 0 0.11133-0.01172 0.18164-0.0059 0.064453-0.02344 0.10547-0.01758 0.041016-0.04102 0.058594-0.02344 0.011719-0.05273 0.011719-0.04687 0-0.10547-0.023437-0.05859-0.029297-0.14648-0.058594-0.08789-0.035156-0.21094-0.058594-0.11719-0.029297-0.27539-0.029297-0.2168 0-0.36914 0.070312-0.14648 0.070312-0.24024 0.22266-0.09375 0.14648-0.14062 0.38672-0.04101 0.23438-0.04101 0.57422v0.57422h2.3789v-1.2539q0-0.041016 0.02344-0.076172t0.07617-0.058594q0.05274-0.029297 0.14648-0.041016 0.09375-0.011719 0.24023-0.011719 0.14062 0 0.23438 0.011719t0.14648 0.041016q0.05273 0.023437 0.07617 0.058594 0.02344 0.035156 0.02344 0.076172v1.2539h1.3477q0.04687 0 0.08203 0.023437 0.04102 0.017578 0.06445 0.070312 0.02344 0.046875 0.03516 0.12305 0.01758 0.076172 0.01758 0.1875 0 0.21094-0.05273 0.30469t-0.14062 0.09375h-1.3535v2.9414q0 0.54492 0.1582 0.82617 0.1582 0.27539 0.58008 0.27539 0.12891 0 0.23438-0.023438 0.11133-0.029297 0.19336-0.058594 0.08203-0.029297 0.14062-0.052734 0.06445-0.029297 0.10547-0.029297 0.03516 0 0.05859 0.017578 0.02344 0.011719 0.03516 0.052734 0.01758 0.041016 0.0293 0.11133 0.01172 0.070312 0.01172 0.17578 0 0.16992-0.0293 0.26953-0.02344 0.099609-0.07031 0.14648-0.04687 0.046875-0.13476 0.087891-0.08789 0.041016-0.21094 0.064453-0.11719 0.029297-0.25781 0.046875-0.13477 0.017578-0.26367 0.017578-0.41602 0-0.70898-0.10547-0.29297-0.11133-0.48047-0.32812-0.1875-0.22266-0.27539-0.55664-0.08203-0.33984-0.08203-0.79688v-3.082z"/><path d="m27.129-0.14648q0 0.046875-0.02344 0.082031-0.02344 0.029297-0.07617 0.052734t-0.14648 0.035156q-0.09375 0.011719-0.23438 0.011719-0.14648 0-0.24023-0.011719t-0.15234-0.035156q-0.05273-0.023438-0.07617-0.052734-0.02344-0.035156-0.02344-0.082031v-3.2051q0-0.33398-0.05859-0.60938t-0.1875-0.47461q-0.12891-0.19922-0.32812-0.30469-0.19922-0.10547-0.46875-0.10547-0.33398 0-0.67383 0.25781-0.33398 0.25781-0.73828 0.75586v3.6855q0 0.046875-0.02344 0.082031-0.02344 0.029297-0.08203 0.052734-0.05273 0.023438-0.14648 0.035156-0.09375 0.011719-0.23438 0.011719-0.13477 0-0.23438-0.011719-0.09375-0.011719-0.15234-0.035156-0.05273-0.023438-0.07617-0.052734-0.01758-0.035156-0.01758-0.082031v-3.2051q0-0.33398-0.06445-0.60938t-0.19336-0.47461q-0.12891-0.19922-0.32812-0.30469-0.19336-0.10547-0.46289-0.10547-0.33398 0-0.67383 0.25781-0.33984 0.25781-0.73828 0.75586v3.6855q0 0.046875-0.02344 0.082031-0.02344 0.029297-0.07617 0.052734t-0.14648 0.035156q-0.09375 0.011719-0.24024 0.011719-0.14062 0-0.23438-0.011719t-0.15234-0.035156q-0.05273-0.023438-0.07617-0.052734-0.01758-0.035156-0.01758-0.082031v-5.2734q0-0.046875 0.01758-0.076172 0.01758-0.035156 0.07031-0.058594 0.05273-0.029297 0.13477-0.035156 0.08203-0.011719 0.2168-0.011719 0.12891 0 0.21094 0.011719 0.08789 0.00586 0.13477 0.035156 0.04687 0.023437 0.06445 0.058594 0.02344 0.029297 0.02344 0.076172v0.69727q0.44531-0.49805 0.86133-0.72656 0.42188-0.23438 0.84961-0.23438 0.32812 0 0.58594 0.076172 0.26367 0.076172 0.46289 0.2168 0.19922 0.13477 0.33984 0.32812 0.14062 0.1875 0.23438 0.42188 0.26367-0.28711 0.49805-0.48633 0.24023-0.19922 0.45703-0.32227 0.22266-0.12305 0.42773-0.17578 0.21094-0.058594 0.42188-0.058594 0.50977 0 0.85547 0.18164 0.3457 0.17578 0.55664 0.47461 0.2168 0.29883 0.30469 0.70312 0.09375 0.39844 0.09375 0.84375z"/><path d="m32.865-0.14062q0 0.070312-0.04687 0.10547-0.04688 0.035156-0.12891 0.052734-0.08203 0.017578-0.24023 0.017578-0.15234 0-0.24609-0.017578-0.087891-0.017578-0.12891-0.052734-0.041016-0.035156-0.041016-0.10547v-0.52734q-0.3457 0.36914-0.77344 0.57422-0.42188 0.20508-0.89648 0.20508-0.41602 0-0.75586-0.11133-0.33398-0.10547-0.57422-0.31055-0.23438-0.20508-0.36914-0.50391-0.12891-0.29883-0.12891-0.67969 0-0.44531 0.18164-0.77344 0.18164-0.32812 0.52148-0.54492t0.83203-0.32227q0.49219-0.11133 1.1074-0.11133h0.72656v-0.41016q0-0.30469-0.06445-0.53906t-0.21094-0.38672q-0.14062-0.1582-0.36914-0.23438-0.22852-0.082031-0.5625-0.082031-0.35742 0-0.64453 0.087891-0.28125 0.082031-0.49805 0.1875-0.21094 0.099609-0.35742 0.1875-0.14062 0.082031-0.21094 0.082031-0.04687 0-0.08203-0.023437t-0.06445-0.070312q-0.02344-0.046875-0.03516-0.11719-0.01172-0.076172-0.01172-0.16406 0-0.14648 0.01758-0.22852 0.02344-0.087891 0.09961-0.16406 0.08203-0.076172 0.27539-0.17578 0.19336-0.10547 0.44531-0.1875 0.25195-0.087891 0.55078-0.14062 0.29883-0.058594 0.60352-0.058594 0.56836 0 0.9668 0.12891 0.39844 0.12891 0.64453 0.38086 0.24609 0.24609 0.35742 0.61523 0.11133 0.36914 0.11133 0.86133zm-0.96094-2.4082h-0.82617q-0.39844 0-0.69141 0.070312-0.29297 0.064453-0.48633 0.19922-0.19336 0.12891-0.28711 0.31641-0.08789 0.18164-0.08789 0.42188 0 0.41016 0.25781 0.65625 0.26367 0.24023 0.73242 0.24023 0.38086 0 0.70312-0.19336 0.32812-0.19336 0.68555-0.5918z"/><path d="m38.525-0.25781q0.04687 0.082031 0.04687 0.14062 0 0.052734-0.05859 0.087891-0.05273 0.035156-0.16992 0.046875-0.11133 0.017578-0.29297 0.017578-0.17578 0-0.28125-0.011719-0.099608-0.0058594-0.16406-0.023438-0.05859-0.023438-0.09375-0.052734-0.0293-0.035156-0.05273-0.076172l-1.2656-2.0918-1.2598 2.0918q-0.023438 0.041016-0.058594 0.076172-0.029297 0.029297-0.09375 0.052734-0.05859 0.017578-0.1582 0.023438-0.09961 0.011719-0.26367 0.011719-0.16992 0-0.28125-0.017578-0.10547-0.011719-0.1582-0.046875-0.04687-0.035156-0.04687-0.087891 0.0059-0.058594 0.05859-0.14062l1.6406-2.5723-1.5527-2.4785q-0.04687-0.082031-0.05273-0.13477 0-0.058594 0.05273-0.09375 0.05859-0.041016 0.16992-0.052734 0.11719-0.011719 0.30469-0.011719 0.16992 0 0.26953 0.011719 0.10547 0.00586 0.16406 0.023437 0.05859 0.017578 0.08789 0.046875t0.05273 0.070312l1.2012 1.9629 1.2188-1.9629q0.02344-0.035156 0.05273-0.064453 0.0293-0.029297 0.07617-0.046875 0.05273-0.023437 0.14062-0.029297 0.09375-0.011719 0.25195-0.011719 0.16992 0 0.27539 0.011719 0.11133 0.011719 0.16406 0.046875 0.05273 0.029297 0.04687 0.087891-0.0059 0.058594-0.05859 0.14648l-1.541 2.4492z"/><path d="m44.83 1.7461q0 0.20508-0.04687 0.29883t-0.14648 0.09375h-5.6426q-0.09961 0-0.15234-0.087891-0.05273-0.087891-0.05273-0.29297 0-0.19922 0.05273-0.29883 0.05273-0.099609 0.15234-0.099609h5.6426q0.09375 0 0.14062 0.09375 0.05273 0.09375 0.05273 0.29297z"/><path d="m46.951-0.63867q0 0.41602-0.14062 0.55664-0.13477 0.13477-0.49805 0.13477-0.35156 0-0.48633-0.13477-0.13477-0.13477-0.13477-0.53906 0-0.41602 0.13477-0.55078 0.14062-0.14062 0.50391-0.14062 0.35156 0 0.48633 0.13477 0.13477 0.13477 0.13477 0.53906z"/><path d="m49.98-0.63867q0 0.41602-0.14062 0.55664-0.13477 0.13477-0.49805 0.13477-0.35156 0-0.48633-0.13477-0.13477-0.13477-0.13477-0.53906 0-0.41602 0.13477-0.55078 0.14062-0.14062 0.50391-0.14062 0.35156 0 0.48633 0.13477 0.13477 0.13477 0.13477 0.53906z"/><path d="m53.01-0.63867q0 0.41602-0.14062 0.55664-0.13477 0.13477-0.49805 0.13477-0.35156 0-0.48633-0.13477-0.13477-0.13477-0.13477-0.53906 0-0.41602 0.13477-0.55078 0.14062-0.14062 0.50391-0.14062 0.35156 0 0.48633 0.13477 0.13477 0.13477 0.13477 0.53906z"/></g><path d="m637 64.489v-16.822h2v16.822zm-3-15.489 4-8 4 8z"/><g transform="translate(575.55 64)" aria-label="BiasAdd"><path d="m0.78 0v-8.4h3.636q1.404 0 2.172 0.576t0.768 1.632q0 0.672-0.348 1.164-0.348 0.48-1.044 0.744 0.78 0.204 1.164 0.708 0.396 0.492 0.396 1.272 0 1.032-0.804 1.668t-2.124 0.636zm5.544-6.144q0-0.66-0.492-0.996-0.492-0.348-1.44-0.348h-2.568v2.796h2.724q0.78 0 1.272-0.408 0.504-0.408 0.504-1.044zm0.168 3.828q0-0.672-0.456-1.068t-1.236-0.396h-2.976v2.868h2.844q0.828 0 1.32-0.384 0.504-0.384 0.504-1.02z"/><path d="m8.652-7.74h1.08v1.068h-1.08zm0.048 7.74v-5.796h0.984v5.796z"/><path d="m16.044 0h-0.948v-0.948q-0.348 0.504-0.948 0.792-0.588 0.276-1.272 0.276-0.96 0-1.56-0.48-0.6-0.492-0.6-1.284 0-0.876 0.672-1.32 0.672-0.456 1.992-0.456h1.704q-0.012-0.816-0.432-1.26-0.408-0.444-1.176-0.444-0.456 0-0.9 0.192t-0.876 0.588l-0.516-0.648q0.504-0.48 1.104-0.72 0.6-0.252 1.284-0.252 1.164 0 1.812 0.696 0.66 0.684 0.66 1.896zm-0.96-2.664h-1.692q-0.876 0-1.296 0.24t-0.42 0.756q0 0.432 0.36 0.72 0.372 0.288 0.948 0.288 0.864 0 1.452-0.552 0.6-0.564 0.648-1.452z"/><path d="m21.912-1.692q0 0.816-0.696 1.332t-1.812 0.516q-0.732 0-1.38-0.228-0.636-0.24-1.152-0.708l0.504-0.744q0.552 0.456 1.032 0.66t1.02 0.204q0.696 0 1.116-0.264 0.432-0.276 0.432-0.708 0-0.444-0.36-0.636-0.36-0.204-1.188-0.216-1.212-0.048-1.776-0.444-0.552-0.396-0.552-1.236 0-0.768 0.636-1.272 0.648-0.516 1.656-0.516 0.684 0 1.284 0.216t1.092 0.636l-0.468 0.732q-0.492-0.396-0.948-0.576t-0.972-0.18q-0.588 0-0.972 0.264-0.372 0.264-0.372 0.648 0 0.42 0.336 0.612t1.068 0.228q1.308 0.036 1.884 0.432 0.588 0.396 0.588 1.248z"/><path d="m24.6-2.532-1.104 2.532h-1.08l3.732-8.4h1.008l3.72 8.4h-1.092l-1.116-2.532zm2.028-4.632-1.62 3.72h3.264z"/><path d="m36.228-8.4h0.984v8.4h-0.972v-0.936q-0.396 0.504-0.96 0.78-0.552 0.276-1.188 0.276-1.212 0-2.04-0.84-0.816-0.852-0.816-2.16 0-1.32 0.84-2.184 0.852-0.876 2.088-0.876 0.6 0 1.128 0.252 0.54 0.24 0.936 0.696zm-2.028 7.668q0.876 0 1.464-0.624 0.6-0.636 0.6-1.56 0-0.936-0.576-1.548t-1.44-0.612q-0.888 0-1.452 0.6t-0.564 1.572 0.552 1.572 1.416 0.6z"/><path d="m43.2-8.4h0.984v8.4h-0.972v-0.936q-0.396 0.504-0.96 0.78-0.552 0.276-1.188 0.276-1.212 0-2.04-0.84-0.816-0.852-0.816-2.16 0-1.32 0.84-2.184 0.852-0.876 2.088-0.876 0.6 0 1.128 0.252 0.54 0.24 0.936 0.696zm-2.028 7.668q0.876 0 1.464-0.624 0.6-0.636 0.6-1.56 0-0.936-0.576-1.548t-1.44-0.612q-0.888 0-1.452 0.6t-0.564 1.572 0.552 1.572 1.416 0.6z"/></g><path d="m552.5 118.5c0-5.523 9.626-10 21.5-10s21.5 4.477 21.5 10-9.626 10-21.5 10-21.5-4.477-21.5-10z" fill="#fff" fill-rule="evenodd" stroke="#000" stroke-miterlimit="8" stroke-width="1.3333"/><path d="m572 107.42 0.256-3.193 0.718-3.267 1.236-3.1854 1.614-3.099 1.998-2.9659 2.386-2.8372 5.607-5.2249 6.635-4.3382 7.393-3.3778 7.974-2.1689 1.448-0.1372 0.189 1.9911-1.363 0.1291 0.168-0.0307-7.812 2.125 0.153-0.0553-7.25 3.3125 0.132-0.0726-6.5 4.25 0.134-0.1054-5.5 5.125 0.084-0.088-2.313 2.75 0.064-0.0847-1.937 2.875 0.057-0.097-1.562 3 0.045-0.1004-1.187 3.0629 0.044-0.147-0.687 3.125 0.02-0.135-0.25 3.125zm35.659-36.657 8.338 3.2375-7.593 4.7277z"/><g transform="translate(528.5 102)" aria-label="MatMul"><path d="m7.824-8.4h1.368v8.4h-1.032v-7.08l-2.748 4.8h-0.84l-2.76-4.788v7.068h-1.032v-8.4h1.368l2.844 4.908z"/><path d="m15.588 0h-0.948v-0.948q-0.348 0.504-0.948 0.792-0.588 0.276-1.272 0.276-0.96 0-1.56-0.48-0.6-0.492-0.6-1.284 0-0.876 0.672-1.32 0.672-0.456 1.992-0.456h1.704q-0.012-0.816-0.432-1.26-0.408-0.444-1.176-0.444-0.456 0-0.9 0.192t-0.876 0.588l-0.516-0.648q0.504-0.48 1.104-0.72 0.6-0.252 1.284-0.252 1.164 0 1.812 0.696 0.66 0.684 0.66 1.896zm-0.96-2.664h-1.692q-0.876 0-1.296 0.24t-0.42 0.756q0 0.432 0.36 0.72 0.372 0.288 0.948 0.288 0.864 0 1.452-0.552 0.6-0.564 0.648-1.452z"/><path d="m17.052-1.548v-3.384h-0.792v-0.864h0.792v-1.776h0.972v1.776h1.344v0.864h-1.344v3.3q0 0.384 0.168 0.576 0.18 0.18 0.54 0.18h0.636v0.876h-0.78q-0.804 0-1.176-0.372-0.36-0.372-0.36-1.176z"/><path d="m27.54-8.4h1.368v8.4h-1.032v-7.08l-2.748 4.8h-0.84l-2.76-4.788v7.068h-1.032v-8.4h1.368l2.844 4.908z"/><path d="m35.748 0h-0.972v-0.888q-0.348 0.504-0.876 0.768-0.528 0.252-1.2 0.252-1.14 0-1.8-0.744-0.648-0.744-0.648-2.028v-3.156h0.984v3.096q0 0.912 0.444 1.44 0.456 0.528 1.26 0.528 0.816 0 1.32-0.564t0.504-1.464v-3.036h0.984z"/><path d="m37.116-8.4h0.984v8.4h-0.984z"/></g><path d="m702.5 168.5c0-5.523 9.626-10 21.5-10s21.5 4.477 21.5 10-9.626 10-21.5 10-21.5-4.477-21.5-10z" fill="#fff" fill-rule="evenodd" stroke="#000" stroke-miterlimit="8" stroke-width="1.3333"/><path d="m441.5 162.5c0-5.523 9.626-10 21.5-10s21.5 4.477 21.5 10-9.626 10-21.5 10-21.5-4.477-21.5-10z" fill="#fff" fill-rule="evenodd" stroke="#000" stroke-miterlimit="8" stroke-width="1.3333"/><path d="m461.01 151.85 0.522-3.328 1.609-3.418 2.556-3.278 3.354-3.096 4.15-3.001 4.885-2.855 5.499-2.718 6.118-2.522 6.612-2.33 7.047-2.077 7.422-1.824 7.802-1.51 16.249-2.196 8.431-0.566 1.732-0.039 0.045 2-1.71 0.038 0.045-2e-3 -8.375 0.563 0.066-7e-3 -16.187 2.187 0.056-9e-3 -7.75 1.5 0.049-0.01-7.375 1.812 0.044-0.012-7 2.063 0.049-0.016-6.562 2.312 0.049-0.019-6.063 2.5 0.062-0.028-5.437 2.688 0.061-0.033-4.812 2.812 0.081-0.053-4.063 2.938 0.093-0.076-3.25 3 0.11-0.12-2.437 3.125 0.116-0.189-1.5 3.188 0.083-0.271-0.5 3.187zm82.588-37.727 8.088 3.82-7.909 4.178z"/><path transform="matrix(-1.837e-16 -1 -1 1.837e-16 708.98 160.93)" d="m0.15438-0.98801 4.1473 0.64802 4.229 2.0484 4.0884 3.1799 3.9062 4.2905 3.8126 5.2106 3.6085 6.204 3.343 6.9384 3.1456 7.7381 2.9553 8.3629 2.5762 8.9853 2.3226 9.4784 1.946 9.8558 1.5687 10.228 1.1924 10.481 0.6904 10.607 0.0946 4.044-1.9994 0.047-0.0941-4.023 0.0018 0.041-0.6875-10.562 0.0043 0.0481-1.1875-10.438 0.0052 0.0386-1.5625-10.188 0.0073 0.0421-1.9375-9.8125 0.0098 0.0443-2.3125-9.4375 0.01 0.0376-2.5625-8.9375 0.0184 0.0576-2.9375-8.3125 0.0165 0.0434-3.125-7.6875 0.0255 0.0575-3.3125-6.875 0.0365 0.0687-3.5625-6.125 0.0574 0.0877-3.75-5.125 0.0676 0.0827-3.8125-4.1875 0.1255 0.11613-3.9375-3.0625 0.17801 0.11063-4-1.9375 0.28155 0.08803-4-0.625zm46.595 106.9-3.8118 8.091-4.186-7.904z"/><g transform="translate(406.71 148)" aria-label="feature_s..."><path d="m1.02-4.932h-0.792v-0.864h0.792v-1.092q0-0.732 0.384-1.116 0.396-0.396 1.128-0.396h0.792v0.816h-0.648q-0.336 0-0.504 0.18t-0.168 0.54v1.068h1.32v0.864h-1.32v4.932h-0.984z"/><path d="m6.768-0.648q0.576 0 1.056-0.24 0.492-0.252 0.9-0.756l0.588 0.54q-0.492 0.648-1.152 0.972-0.66 0.312-1.476 0.312-1.308 0-2.148-0.852-0.828-0.864-0.828-2.208 0-1.308 0.852-2.184t2.1-0.876q1.272 0 2.064 0.828t0.792 2.16q0 0.096-0.012 0.228-0.012 0.12-0.024 0.18h-4.764q0.096 0.852 0.66 1.38 0.576 0.516 1.392 0.516zm-0.096-4.464q-0.756 0-1.296 0.492t-0.66 1.32h3.816q-0.108-0.84-0.612-1.32-0.504-0.492-1.248-0.492z"/><path d="m15.48 0h-0.948v-0.948q-0.348 0.504-0.948 0.792-0.588 0.276-1.272 0.276-0.96 0-1.56-0.48-0.6-0.492-0.6-1.284 0-0.876 0.672-1.32 0.672-0.456 1.992-0.456h1.704q-0.012-0.816-0.432-1.26-0.408-0.444-1.176-0.444-0.456 0-0.9 0.192t-0.876 0.588l-0.516-0.648q0.504-0.48 1.104-0.72 0.6-0.252 1.284-0.252 1.164 0 1.812 0.696 0.66 0.684 0.66 1.896zm-0.96-2.664h-1.692q-0.876 0-1.296 0.24t-0.42 0.756q0 0.432 0.36 0.72 0.372 0.288 0.948 0.288 0.864 0 1.452-0.552 0.6-0.564 0.648-1.452z"/><path d="m16.944-1.548v-3.384h-0.792v-0.864h0.792v-1.776h0.972v1.776h1.344v0.864h-1.344v3.3q0 0.384 0.168 0.576 0.18 0.18 0.54 0.18h0.636v0.876h-0.78q-0.804 0-1.176-0.372-0.36-0.372-0.36-1.176z"/><path d="m25.668 0h-0.972v-0.888q-0.348 0.504-0.876 0.768-0.528 0.252-1.2 0.252-1.14 0-1.8-0.744-0.648-0.744-0.648-2.028v-3.156h0.984v3.096q0 0.912 0.444 1.44 0.456 0.528 1.26 0.528 0.816 0 1.32-0.564t0.504-1.464v-3.036h0.984z"/><path d="m26.928-5.796h0.96v0.732q0.264-0.384 0.684-0.576t0.996-0.192h0.528v0.924h-0.54q-0.828 0-1.248 0.432-0.408 0.432-0.408 1.308v3.168h-0.972z"/><path d="m33.528-0.648q0.576 0 1.056-0.24 0.492-0.252 0.9-0.756l0.588 0.54q-0.492 0.648-1.152 0.972-0.66 0.312-1.476 0.312-1.308 0-2.148-0.852-0.828-0.864-0.828-2.208 0-1.308 0.852-2.184t2.1-0.876q1.272 0 2.064 0.828t0.792 2.16q0 0.096-0.012 0.228-0.012 0.12-0.024 0.18h-4.764q0.096 0.852 0.66 1.38 0.576 0.516 1.392 0.516zm-0.096-4.464q-0.756 0-1.296 0.492t-0.66 1.32h3.816q-0.108-0.84-0.612-1.32-0.504-0.492-1.248-0.492z"/><path d="m36.6 1.548v-0.876h6.096v0.876z"/><path d="m47.976-1.692q0 0.816-0.696 1.332t-1.812 0.516q-0.732 0-1.38-0.228-0.636-0.24-1.152-0.708l0.504-0.744q0.552 0.456 1.032 0.66t1.02 0.204q0.696 0 1.116-0.264 0.432-0.276 0.432-0.708 0-0.444-0.36-0.636-0.36-0.204-1.188-0.216-1.212-0.048-1.776-0.444-0.552-0.396-0.552-1.236 0-0.768 0.636-1.272 0.648-0.516 1.656-0.516 0.684 0 1.284 0.216t1.092 0.636l-0.468 0.732q-0.492-0.396-0.948-0.576t-0.972-0.18q-0.588 0-0.972 0.264-0.372 0.264-0.372 0.648 0 0.42 0.336 0.612t1.068 0.228q1.308 0.036 1.884 0.432 0.588 0.396 0.588 1.248z"/><path d="m48.9-1.212h1.212v1.212h-1.212z"/><path d="m51.264-1.212h1.212v1.212h-1.212z"/><path d="m53.628-1.212h1.212v1.212h-1.212z"/></g><path d="m706.5 308.5c0-5.523 9.402-10 21-10s21 4.477 21 10-9.402 10-21 10-21-4.477-21-10z" fill="#fff" fill-rule="evenodd" stroke="#000" stroke-miterlimit="8" stroke-width="1.3333"/><path d="m726.11 297.76-2.94-113.07 1.999-0.052 2.94 113.07zm-5.905-111.66 3.791-8.101 4.207 7.893z"/><path d="m673.5 168.5c0-2.209 1.567-4 3.5-4s3.5 1.791 3.5 4-1.567 4-3.5 4-3.5-1.791-3.5-4z" fill="#fff" fill-rule="evenodd" stroke="#000" stroke-miterlimit="8" stroke-width="1.3333"/><path transform="matrix(1 0 0 -1 680 168.11)" d="m0.0049864-0.99999 15.777 0.078673-0.01 2-15.777-0.078672zm14.459-2.9279 7.98 4.0398-8.0199 3.9601z"/><g transform="translate(641.57 170)" aria-label="shape"><path d="m4.862-1.551q0 0.748-0.638 1.221t-1.661 0.473q-0.671 0-1.265-0.209-0.583-0.22-1.056-0.649l0.462-0.682q0.506 0.418 0.946 0.605t0.935 0.187q0.638 0 1.023-0.242 0.396-0.253 0.396-0.649 0-0.407-0.33-0.583-0.33-0.187-1.089-0.198-1.111-0.044-1.628-0.407-0.506-0.363-0.506-1.133 0-0.704 0.583-1.166 0.594-0.473 1.518-0.473 0.627 0 1.177 0.198t1.001 0.583l-0.429 0.671q-0.451-0.363-0.869-0.528t-0.891-0.165q-0.539 0-0.891 0.242-0.341 0.242-0.341 0.594 0 0.385 0.308 0.561t0.979 0.209q1.199 0.033 1.727 0.396 0.539 0.363 0.539 1.144z"/><path d="m5.764-7.7h0.891v3.19q0.319-0.451 0.792-0.693 0.484-0.242 1.078-0.242 1.067 0 1.661 0.682 0.605 0.682 0.605 1.87v2.893h-0.891v-2.838q0-0.847-0.418-1.32-0.418-0.484-1.166-0.484t-1.21 0.517q-0.451 0.517-0.451 1.342v2.783h-0.891z"/><path d="m16.456 0h-0.869v-0.869q-0.319 0.462-0.869 0.726-0.539 0.253-1.166 0.253-0.88 0-1.43-0.44-0.55-0.451-0.55-1.177 0-0.803 0.616-1.21 0.616-0.418 1.826-0.418h1.562q-0.011-0.748-0.396-1.155-0.374-0.407-1.078-0.407-0.418 0-0.825 0.176t-0.803 0.539l-0.473-0.594q0.462-0.44 1.012-0.66 0.55-0.231 1.177-0.231 1.067 0 1.661 0.638 0.605 0.627 0.605 1.738zm-0.88-2.442h-1.551q-0.803 0-1.188 0.22t-0.385 0.693q0 0.396 0.33 0.66 0.341 0.264 0.869 0.264 0.792 0 1.331-0.506 0.55-0.517 0.594-1.331z"/><path d="m18.447 1.98h-0.891v-7.293h0.88v0.858q0.352-0.462 0.869-0.715 0.517-0.264 1.1-0.264 1.122 0 1.87 0.781 0.748 0.77 0.748 1.98 0 1.221-0.781 2.013-0.77 0.781-1.903 0.781-0.539 0-1.045-0.22-0.495-0.231-0.847-0.649zm1.859-6.622q-0.803 0-1.353 0.583-0.539 0.572-0.539 1.43 0 0.847 0.528 1.408 0.539 0.561 1.331 0.561 0.814 0 1.32-0.539 0.517-0.55 0.517-1.452 0-0.891-0.506-1.441-0.495-0.55-1.298-0.55z"/><path d="m26.51-0.594q0.528 0 0.968-0.22 0.451-0.231 0.825-0.693l0.539 0.495q-0.451 0.594-1.056 0.891-0.605 0.286-1.353 0.286-1.199 0-1.969-0.781-0.759-0.792-0.759-2.024 0-1.199 0.781-2.002t1.925-0.803q1.166 0 1.892 0.759t0.726 1.98q0 0.088-0.011 0.209-0.011 0.11-0.022 0.165h-4.367q0.088 0.781 0.605 1.265 0.528 0.473 1.276 0.473zm-0.088-4.092q-0.693 0-1.188 0.451t-0.605 1.21h3.498q-0.099-0.77-0.561-1.21-0.462-0.451-1.144-0.451z"/></g><path d="m673.5 308c0-1.933 1.567-3.5 3.5-3.5s3.5 1.567 3.5 3.5-1.567 3.5-3.5 3.5-3.5-1.567-3.5-3.5z" fill="#fff" fill-rule="evenodd" stroke="#000" stroke-miterlimit="8" stroke-width="1.3333"/><path d="m680 307h18.891v2h-18.891zm17.558-3 8 4-8 4z"/><g transform="translate(615.56 310)" aria-label="concat_dim"><path d="m3.091 0.165q-1.221 0-1.991-0.77-0.759-0.781-0.759-2.035 0-1.188 0.803-2.002t1.969-0.814q0.847 0 1.441 0.396 0.605 0.385 0.913 1.122l-0.759 0.363q-0.253-0.55-0.66-0.825-0.396-0.275-0.946-0.275-0.781 0-1.32 0.594-0.528 0.583-0.528 1.441 0 0.869 0.528 1.452 0.539 0.572 1.342 0.572 0.517 0 0.957-0.275 0.451-0.286 0.726-0.792l0.693 0.374q-0.319 0.682-0.957 1.078t-1.452 0.396z"/><path d="m11.682-2.651q0 1.199-0.803 2.013-0.803 0.803-1.98 0.803-1.177 0-1.969-0.803-0.781-0.803-0.781-2.002t0.803-2.002q0.803-0.814 1.98-0.814 1.177 0 1.958 0.803 0.792 0.803 0.792 2.002zm-4.62 0.011q0 0.858 0.528 1.441 0.539 0.583 1.331 0.583 0.781 0 1.309-0.583 0.539-0.583 0.539-1.452 0-0.847-0.539-1.43-0.539-0.594-1.32-0.594t-1.32 0.583q-0.528 0.583-0.528 1.452z"/><path d="m12.606-5.313h0.88v0.825q0.319-0.462 0.803-0.704 0.495-0.253 1.1-0.253 1.056 0 1.65 0.682t0.594 1.87v2.893h-0.891v-2.838q0-0.836-0.418-1.32-0.407-0.484-1.144-0.484-0.759 0-1.221 0.517t-0.462 1.342v2.783h-0.891z"/><path d="m21.241 0.165q-1.221 0-1.991-0.77-0.759-0.781-0.759-2.035 0-1.188 0.803-2.002t1.969-0.814q0.847 0 1.441 0.396 0.605 0.385 0.913 1.122l-0.759 0.363q-0.253-0.55-0.66-0.825-0.396-0.275-0.946-0.275-0.781 0-1.32 0.594-0.528 0.583-0.528 1.441 0 0.869 0.528 1.452 0.539 0.572 1.342 0.572 0.517 0 0.957-0.275 0.451-0.286 0.726-0.792l0.693 0.374q-0.319 0.682-0.957 1.078t-1.452 0.396z"/><path d="m29.106 0h-0.869v-0.869q-0.319 0.462-0.869 0.726-0.539 0.253-1.166 0.253-0.88 0-1.43-0.44-0.55-0.451-0.55-1.177 0-0.803 0.616-1.21 0.616-0.418 1.826-0.418h1.562q-0.011-0.748-0.396-1.155-0.374-0.407-1.078-0.407-0.418 0-0.825 0.176t-0.803 0.539l-0.473-0.594q0.462-0.44 1.012-0.66 0.55-0.231 1.177-0.231 1.067 0 1.661 0.638 0.605 0.627 0.605 1.738zm-0.88-2.442h-1.551q-0.803 0-1.188 0.22t-0.385 0.693q0 0.396 0.33 0.66 0.341 0.264 0.869 0.264 0.792 0 1.331-0.506 0.55-0.517 0.594-1.331z"/><path d="m30.448-1.419v-3.102h-0.726v-0.792h0.726v-1.628h0.891v1.628h1.232v0.792h-1.232v3.025q0 0.352 0.154 0.528 0.165 0.165 0.495 0.165h0.583v0.803h-0.715q-0.737 0-1.078-0.341-0.33-0.341-0.33-1.078z"/><path d="m32.868 1.419v-0.803h5.588v0.803z"/><path d="m43.351-7.7h0.902v7.7h-0.891v-0.858q-0.363 0.462-0.88 0.715-0.506 0.253-1.089 0.253-1.111 0-1.87-0.77-0.748-0.781-0.748-1.98 0-1.21 0.77-2.002 0.781-0.803 1.914-0.803 0.55 0 1.034 0.231 0.495 0.22 0.858 0.638zm-1.859 7.029q0.803 0 1.342-0.572 0.55-0.583 0.55-1.43 0-0.858-0.528-1.419t-1.32-0.561q-0.814 0-1.331 0.55t-0.517 1.441 0.506 1.441 1.298 0.55z"/><path d="m45.463-7.095h0.99v0.979h-0.99zm0.044 7.095v-5.313h0.902v5.313z"/><path d="m47.674-5.313h0.88v0.638q0.297-0.385 0.671-0.572 0.385-0.198 0.858-0.198 0.55 0 0.979 0.231t0.682 0.671q0.297-0.44 0.748-0.671 0.462-0.231 1.034-0.231 0.935 0 1.485 0.605 0.561 0.605 0.561 1.573v3.267h-0.902v-3.212q0-0.671-0.341-1.045-0.33-0.385-0.935-0.385-0.594 0-0.968 0.418-0.363 0.407-0.363 1.067v3.157h-0.891v-3.212q0-0.671-0.341-1.045-0.33-0.385-0.935-0.385-0.594 0-0.968 0.418-0.363 0.407-0.363 1.067v3.157h-0.891z"/></g><path d="m411.5 253c0-8.008 6.492-14.5 14.5-14.5h72c8.008 0 14.5 6.492 14.5 14.5v58c0 8.008-6.492 14.5-14.5 14.5h-72c-8.008 0-14.5-6.492-14.5-14.5z" fill="#fff" fill-rule="evenodd" stroke="#000" stroke-miterlimit="8" stroke-width="1.3333"/><g transform="translate(439.48 290)" aria-label="Istm"><path d="m1.728 0v-16.8h2.064v16.8z"/><path d="m16.128-3.384q0 1.632-1.392 2.664t-3.624 1.032q-1.464 0-2.76-0.456-1.272-0.48-2.304-1.416l1.008-1.488q1.104 0.912 2.064 1.32t2.04 0.408q1.392 0 2.232-0.528 0.864-0.552 0.864-1.416 0-0.888-0.72-1.272-0.72-0.408-2.376-0.432-2.424-0.096-3.552-0.888-1.104-0.792-1.104-2.472 0-1.536 1.272-2.544 1.296-1.032 3.312-1.032 1.368 0 2.568 0.432t2.184 1.272l-0.936 1.464q-0.984-0.792-1.896-1.152t-1.944-0.36q-1.176 0-1.944 0.528-0.744 0.528-0.744 1.296 0 0.84 0.672 1.224t2.136 0.456q2.616 0.072 3.768 0.864 1.176 0.792 1.176 2.496z"/><path d="m18.624-3.096v-6.768h-1.584v-1.728h1.584v-3.552h1.944v3.552h2.688v1.728h-2.688v6.6q0 0.768 0.336 1.152 0.36 0.36 1.08 0.36h1.272v1.752h-1.56q-1.608 0-2.352-0.744-0.72-0.744-0.72-2.352z"/><path d="m25.224-11.592h1.92v1.392q0.648-0.84 1.464-1.248 0.84-0.432 1.872-0.432 1.2 0 2.136 0.504t1.488 1.464q0.648-0.96 1.632-1.464 1.008-0.504 2.256-0.504 2.04 0 3.24 1.32 1.224 1.32 1.224 3.432v7.128h-1.968v-7.008q0-1.464-0.744-2.28-0.72-0.84-2.04-0.84-1.296 0-2.112 0.912-0.792 0.888-0.792 2.328v6.888h-1.944v-7.008q0-1.464-0.744-2.28-0.72-0.84-2.04-0.84-1.296 0-2.112 0.912-0.792 0.888-0.792 2.328v6.888h-1.944z"/></g><path d="m447.5 551c0-8.008 6.492-14.5 14.5-14.5h72c8.008 0 14.5 6.492 14.5 14.5v58c0 8.008-6.492 14.5-14.5 14.5h-72c-8.008 0-14.5-6.492-14.5-14.5z" fill="#fff" fill-rule="evenodd" stroke="#000" stroke-miterlimit="8" stroke-width="1.3333"/><g transform="translate(460.76 585)" aria-label="char_embed..."><path d="m3.372 0.18q-1.332 0-2.172-0.84-0.828-0.852-0.828-2.22 0-1.296 0.876-2.184t2.148-0.888q0.924 0 1.572 0.432 0.66 0.42 0.996 1.224l-0.828 0.396q-0.276-0.6-0.72-0.9-0.432-0.3-1.032-0.3-0.852 0-1.44 0.648-0.576 0.636-0.576 1.572 0 0.948 0.576 1.584 0.588 0.624 1.464 0.624 0.564 0 1.044-0.3 0.492-0.312 0.792-0.864l0.756 0.408q-0.348 0.744-1.044 1.176t-1.584 0.432z"/><path d="m6.972-8.4h0.972v3.48q0.348-0.492 0.864-0.756 0.528-0.264 1.176-0.264 1.164 0 1.812 0.744 0.66 0.744 0.66 2.04v3.156h-0.972v-3.096q0-0.924-0.456-1.44-0.456-0.528-1.272-0.528-0.816 0-1.32 0.564-0.492 0.564-0.492 1.464v3.036h-0.972z"/><path d="m18.636 0h-0.948v-0.948q-0.348 0.504-0.948 0.792-0.588 0.276-1.272 0.276-0.96 0-1.56-0.48-0.6-0.492-0.6-1.284 0-0.876 0.672-1.32 0.672-0.456 1.992-0.456h1.704q-0.012-0.816-0.432-1.26-0.408-0.444-1.176-0.444-0.456 0-0.9 0.192t-0.876 0.588l-0.516-0.648q0.504-0.48 1.104-0.72 0.6-0.252 1.284-0.252 1.164 0 1.812 0.696 0.66 0.684 0.66 1.896zm-0.96-2.664h-1.692q-0.876 0-1.296 0.24t-0.42 0.756q0 0.432 0.36 0.72 0.372 0.288 0.948 0.288 0.864 0 1.452-0.552 0.6-0.564 0.648-1.452z"/><path d="m19.836-5.796h0.96v0.732q0.264-0.384 0.684-0.576t0.996-0.192h0.528v0.924h-0.54q-0.828 0-1.248 0.432-0.408 0.432-0.408 1.308v3.168h-0.972z"/><path d="m23.136 1.548v-0.876h6.096v0.876z"/><path d="m32.64-0.648q0.576 0 1.056-0.24 0.492-0.252 0.9-0.756l0.588 0.54q-0.492 0.648-1.152 0.972-0.66 0.312-1.476 0.312-1.308 0-2.148-0.852-0.828-0.864-0.828-2.208 0-1.308 0.852-2.184t2.1-0.876q1.272 0 2.064 0.828t0.792 2.16q0 0.096-0.012 0.228-0.012 0.12-0.024 0.18h-4.764q0.096 0.852 0.66 1.38 0.576 0.516 1.392 0.516zm-0.096-4.464q-0.756 0-1.296 0.492t-0.66 1.32h3.816q-0.108-0.84-0.612-1.32-0.504-0.492-1.248-0.492z"/><path d="m36.372-5.796h0.96v0.696q0.324-0.42 0.732-0.624 0.42-0.216 0.936-0.216 0.6 0 1.068 0.252t0.744 0.732q0.324-0.48 0.816-0.732 0.504-0.252 1.128-0.252 1.02 0 1.62 0.66 0.612 0.66 0.612 1.716v3.564h-0.984v-3.504q0-0.732-0.372-1.14-0.36-0.42-1.02-0.42-0.648 0-1.056 0.456-0.396 0.444-0.396 1.164v3.444h-0.972v-3.504q0-0.732-0.372-1.14-0.36-0.42-1.02-0.42-0.648 0-1.056 0.456-0.396 0.444-0.396 1.164v3.444h-0.972z"/><path d="m47.148 0h-0.96v-8.4h0.972v3.504q0.384-0.492 0.936-0.756 0.564-0.276 1.188-0.276 1.224 0 2.04 0.852 0.828 0.84 0.828 2.16 0 1.332-0.84 2.196-0.84 0.852-2.076 0.852-0.612 0-1.164-0.264-0.54-0.264-0.924-0.732zm2.04-5.064q-0.864 0-1.464 0.636-0.6 0.624-0.6 1.56 0 0.912 0.588 1.536 0.588 0.612 1.44 0.612 0.888 0 1.44-0.588 0.564-0.6 0.564-1.584 0-0.972-0.552-1.572-0.54-0.6-1.416-0.6z"/><path d="m55.956-0.648q0.576 0 1.056-0.24 0.492-0.252 0.9-0.756l0.588 0.54q-0.492 0.648-1.152 0.972-0.66 0.312-1.476 0.312-1.308 0-2.148-0.852-0.828-0.864-0.828-2.208 0-1.308 0.852-2.184t2.1-0.876q1.272 0 2.064 0.828t0.792 2.16q0 0.096-0.012 0.228-0.012 0.12-0.024 0.18h-4.764q0.096 0.852 0.66 1.38 0.576 0.516 1.392 0.516zm-0.096-4.464q-0.756 0-1.296 0.492t-0.66 1.32h3.816q-0.108-0.84-0.612-1.32-0.504-0.492-1.248-0.492z"/><path d="m64.416-8.4h0.984v8.4h-0.972v-0.936q-0.396 0.504-0.96 0.78-0.552 0.276-1.188 0.276-1.212 0-2.04-0.84-0.816-0.852-0.816-2.16 0-1.32 0.84-2.184 0.852-0.876 2.088-0.876 0.6 0 1.128 0.252 0.54 0.24 0.936 0.696zm-2.028 7.668q0.876 0 1.464-0.624 0.6-0.636 0.6-1.56 0-0.936-0.576-1.548t-1.44-0.612q-0.888 0-1.452 0.6t-0.564 1.572 0.552 1.572 1.416 0.6z"/><path d="m66.6-1.212h1.212v1.212h-1.212z"/><path d="m68.964-1.212h1.212v1.212h-1.212z"/><path d="m71.328-1.212h1.212v1.212h-1.212z"/></g><path transform="matrix(1 0 0 -1 461 237.92)" d="m0.99994-0.011055 0.65512 59.257-1.9999 0.0221-0.65512-59.257zm3.6402 57.891-3.9113 8.0438-4.0882-7.9553z"/><path d="m268.5 390.17c0-3.682 2.985-6.667 6.667-6.667h97.666c3.682 0 6.667 2.985 6.667 6.667v26.666c0 3.682-2.985 6.667-6.667 6.667h-97.666c-3.682 0-6.667-2.985-6.667-6.667z" fill="#C4D600" fill-rule="evenodd" stroke="#000" stroke-miterlimit="8" stroke-width="1.3333"/><g transform="translate(289.63 410)" aria-label="Variable"><path d="m6.137 0-5.89-13.3h1.786l4.959 11.21 4.902-11.21h1.748l-5.89 13.3z"/><path d="m21.831 0h-1.501v-1.501q-0.551 0.798-1.501 1.254-0.931 0.437-2.014 0.437-1.52 0-2.47-0.76-0.95-0.779-0.95-2.033 0-1.387 1.064-2.09 1.064-0.722 3.154-0.722h2.698q-0.019-1.292-0.684-1.995-0.646-0.703-1.862-0.703-0.722 0-1.425 0.304t-1.387 0.931l-0.817-1.026q0.798-0.76 1.748-1.14 0.95-0.399 2.033-0.399 1.843 0 2.869 1.102 1.045 1.083 1.045 3.002zm-1.52-4.218h-2.679q-1.387 0-2.052 0.38t-0.665 1.197q0 0.684 0.57 1.14 0.589 0.456 1.501 0.456 1.368 0 2.299-0.874 0.95-0.893 1.026-2.299z"/><path d="m23.731-9.177h1.52v1.159q0.418-0.608 1.083-0.912t1.577-0.304h0.836v1.463h-0.855q-1.311 0-1.976 0.684-0.646 0.684-0.646 2.071v5.016h-1.539z"/><path d="m30.096-12.255h1.71v1.691h-1.71zm0.076 12.255v-9.177h1.558v9.177z"/><path d="m41.8 0h-1.501v-1.501q-0.551 0.798-1.501 1.254-0.931 0.437-2.014 0.437-1.52 0-2.47-0.76-0.95-0.779-0.95-2.033 0-1.387 1.064-2.09 1.064-0.722 3.154-0.722h2.698q-0.019-1.292-0.684-1.995-0.646-0.703-1.862-0.703-0.722 0-1.425 0.304t-1.387 0.931l-0.817-1.026q0.798-0.76 1.748-1.14 0.95-0.399 2.033-0.399 1.843 0 2.869 1.102 1.045 1.083 1.045 3.002zm-1.52-4.218h-2.679q-1.387 0-2.052 0.38t-0.665 1.197q0 0.684 0.57 1.14 0.589 0.456 1.501 0.456 1.368 0 2.299-0.874 0.95-0.893 1.026-2.299z"/><path d="m45.22 0h-1.52v-13.3h1.539v5.548q0.608-0.779 1.482-1.197 0.893-0.437 1.881-0.437 1.938 0 3.23 1.349 1.311 1.33 1.311 3.42 0 2.109-1.33 3.477-1.33 1.349-3.287 1.349-0.969 0-1.843-0.418-0.855-0.418-1.463-1.159zm3.23-8.018q-1.368 0-2.318 1.007-0.95 0.988-0.95 2.47 0 1.444 0.931 2.432 0.931 0.969 2.28 0.969 1.406 0 2.28-0.931 0.893-0.95 0.893-2.508 0-1.539-0.874-2.489-0.855-0.95-2.242-0.95z"/><path d="m54.91-13.3h1.558v13.3h-1.558z"/><path d="m63.08-1.026q0.912 0 1.672-0.38 0.779-0.399 1.425-1.197l0.931 0.855q-0.779 1.026-1.824 1.539-1.045 0.494-2.337 0.494-2.071 0-3.401-1.349-1.311-1.368-1.311-3.496 0-2.071 1.349-3.458t3.325-1.387q2.014 0 3.268 1.311t1.254 3.42q0 0.152-0.019 0.361-0.019 0.19-0.038 0.285h-7.543q0.152 1.349 1.045 2.185 0.912 0.817 2.204 0.817zm-0.152-7.068q-1.197 0-2.052 0.779t-1.045 2.09h6.042q-0.171-1.33-0.969-2.09-0.798-0.779-1.976-0.779z"/></g><path d="m544.5 390.17c0-3.682 2.985-6.667 6.667-6.667h98.666c3.682 0 6.667 2.985 6.667 6.667v26.666c0 3.682-2.985 6.667-6.667 6.667h-98.666c-3.682 0-6.667-2.985-6.667-6.667z" fill="#C4D600" fill-rule="evenodd" stroke="#000" stroke-miterlimit="8" stroke-width="1.3333"/><g transform="translate(558.7 410)" aria-label="Variable_1"><path d="m6.137 0-5.89-13.3h1.786l4.959 11.21 4.902-11.21h1.748l-5.89 13.3z"/><path d="m21.831 0h-1.501v-1.501q-0.551 0.798-1.501 1.254-0.931 0.437-2.014 0.437-1.52 0-2.47-0.76-0.95-0.779-0.95-2.033 0-1.387 1.064-2.09 1.064-0.722 3.154-0.722h2.698q-0.019-1.292-0.684-1.995-0.646-0.703-1.862-0.703-0.722 0-1.425 0.304t-1.387 0.931l-0.817-1.026q0.798-0.76 1.748-1.14 0.95-0.399 2.033-0.399 1.843 0 2.869 1.102 1.045 1.083 1.045 3.002zm-1.52-4.218h-2.679q-1.387 0-2.052 0.38t-0.665 1.197q0 0.684 0.57 1.14 0.589 0.456 1.501 0.456 1.368 0 2.299-0.874 0.95-0.893 1.026-2.299z"/><path d="m23.731-9.177h1.52v1.159q0.418-0.608 1.083-0.912t1.577-0.304h0.836v1.463h-0.855q-1.311 0-1.976 0.684-0.646 0.684-0.646 2.071v5.016h-1.539z"/><path d="m30.096-12.255h1.71v1.691h-1.71zm0.076 12.255v-9.177h1.558v9.177z"/><path d="m41.8 0h-1.501v-1.501q-0.551 0.798-1.501 1.254-0.931 0.437-2.014 0.437-1.52 0-2.47-0.76-0.95-0.779-0.95-2.033 0-1.387 1.064-2.09 1.064-0.722 3.154-0.722h2.698q-0.019-1.292-0.684-1.995-0.646-0.703-1.862-0.703-0.722 0-1.425 0.304t-1.387 0.931l-0.817-1.026q0.798-0.76 1.748-1.14 0.95-0.399 2.033-0.399 1.843 0 2.869 1.102 1.045 1.083 1.045 3.002zm-1.52-4.218h-2.679q-1.387 0-2.052 0.38t-0.665 1.197q0 0.684 0.57 1.14 0.589 0.456 1.501 0.456 1.368 0 2.299-0.874 0.95-0.893 1.026-2.299z"/><path d="m45.22 0h-1.52v-13.3h1.539v5.548q0.608-0.779 1.482-1.197 0.893-0.437 1.881-0.437 1.938 0 3.23 1.349 1.311 1.33 1.311 3.42 0 2.109-1.33 3.477-1.33 1.349-3.287 1.349-0.969 0-1.843-0.418-0.855-0.418-1.463-1.159zm3.23-8.018q-1.368 0-2.318 1.007-0.95 0.988-0.95 2.47 0 1.444 0.931 2.432 0.931 0.969 2.28 0.969 1.406 0 2.28-0.931 0.893-0.95 0.893-2.508 0-1.539-0.874-2.489-0.855-0.95-2.242-0.95z"/><path d="m54.91-13.3h1.558v13.3h-1.558z"/><path d="m63.08-1.026q0.912 0 1.672-0.38 0.779-0.399 1.425-1.197l0.931 0.855q-0.779 1.026-1.824 1.539-1.045 0.494-2.337 0.494-2.071 0-3.401-1.349-1.311-1.368-1.311-3.496 0-2.071 1.349-3.458t3.325-1.387q2.014 0 3.268 1.311t1.254 3.42q0 0.152-0.019 0.361-0.019 0.19-0.038 0.285h-7.543q0.152 1.349 1.045 2.185 0.912 0.817 2.204 0.817zm-0.152-7.068q-1.197 0-2.052 0.779t-1.045 2.09h6.042q-0.171-1.33-0.969-2.09-0.798-0.779-1.976-0.779z"/><path d="m67.944 2.451v-1.387h9.652v1.387z"/><path d="m80.123-11.856h-2.052v-1.444h3.648v13.3h-1.596z"/></g><path d="m476.5 403.5c0-5.523 9.626-10 21.5-10s21.5 4.477 21.5 10-9.626 10-21.5 10-21.5-4.477-21.5-10z" fill="#fff" fill-rule="evenodd" stroke="#000" stroke-miterlimit="8" stroke-width="1.3333"/><path d="m476.5 481.5c0-5.523 9.626-10 21.5-10s21.5 4.477 21.5 10-9.626 10-21.5 10-21.5-4.477-21.5-10z" fill="#fff" fill-rule="evenodd" stroke="#000" stroke-miterlimit="8" stroke-width="1.3333"/><path d="m496.42 393.52-21.2-61.887 1.892-0.648 21.2 61.887zm-23.606-59.653 1.191-8.865 6.377 6.272z"/><path d="m444.5 403c0-1.933 1.567-3.5 3.5-3.5s3.5 1.567 3.5 3.5-1.567 3.5-3.5 3.5-3.5-1.567-3.5-3.5z" fill="#fff" fill-rule="evenodd" stroke="#000" stroke-miterlimit="8" stroke-width="1.3333"/><path d="m451 402h18.378v2h-18.378zm17.045-3 8 4-8 4z"/><path d="m444.5 482c0-1.933 1.567-3.5 3.5-3.5s3.5 1.567 3.5 3.5-1.567 3.5-3.5 3.5-3.5-1.567-3.5-3.5z" fill="#fff" fill-rule="evenodd" stroke="#000" stroke-miterlimit="8" stroke-width="1.3333"/><path d="m451 480h18.378v2h-18.378zm17.045-3 8 4-8 4z"/><g transform="translate(401.25 405)" aria-label="split_dimshape"><path d="m4.862-1.551q0 0.748-0.638 1.221t-1.661 0.473q-0.671 0-1.265-0.209-0.583-0.22-1.056-0.649l0.462-0.682q0.506 0.418 0.946 0.605t0.935 0.187q0.638 0 1.023-0.242 0.396-0.253 0.396-0.649 0-0.407-0.33-0.583-0.33-0.187-1.089-0.198-1.111-0.044-1.628-0.407-0.506-0.363-0.506-1.133 0-0.704 0.583-1.166 0.594-0.473 1.518-0.473 0.627 0 1.177 0.198t1.001 0.583l-0.429 0.671q-0.451-0.363-0.869-0.528t-0.891-0.165q-0.539 0-0.891 0.242-0.341 0.242-0.341 0.594 0 0.385 0.308 0.561t0.979 0.209q1.199 0.033 1.727 0.396 0.539 0.363 0.539 1.144z"/><path d="m6.655 1.98h-0.891v-7.293h0.88v0.858q0.352-0.462 0.869-0.715 0.517-0.264 1.1-0.264 1.122 0 1.87 0.781 0.748 0.77 0.748 1.98 0 1.221-0.781 2.013-0.77 0.781-1.903 0.781-0.539 0-1.045-0.22-0.495-0.231-0.847-0.649zm1.859-6.622q-0.803 0-1.353 0.583-0.539 0.572-0.539 1.43 0 0.847 0.528 1.408 0.539 0.561 1.331 0.561 0.814 0 1.32-0.539 0.517-0.55 0.517-1.452 0-0.891-0.506-1.441-0.495-0.55-1.298-0.55z"/><path d="m12.254-7.7h0.902v7.7h-0.902z"/><path d="m14.476-7.095h0.99v0.979h-0.99zm0.044 7.095v-5.313h0.902v5.313z"/><path d="m16.984-1.419v-3.102h-0.726v-0.792h0.726v-1.628h0.891v1.628h1.232v0.792h-1.232v3.025q0 0.352 0.154 0.528 0.165 0.165 0.495 0.165h0.583v0.803h-0.715q-0.737 0-1.078-0.341-0.33-0.341-0.33-1.078z"/><path d="m19.404 1.419v-0.803h5.588v0.803z"/><path d="m29.887-7.7h0.902v7.7h-0.891v-0.858q-0.363 0.462-0.88 0.715-0.506 0.253-1.089 0.253-1.111 0-1.87-0.77-0.748-0.781-0.748-1.98 0-1.21 0.77-2.002 0.781-0.803 1.914-0.803 0.55 0 1.034 0.231 0.495 0.22 0.858 0.638zm-1.859 7.029q0.803 0 1.342-0.572 0.55-0.583 0.55-1.43 0-0.858-0.528-1.419t-1.32-0.561q-0.814 0-1.331 0.55t-0.517 1.441 0.506 1.441 1.298 0.55z"/><path d="m31.999-7.095h0.99v0.979h-0.99zm0.044 7.095v-5.313h0.902v5.313z"/><path d="m34.21-5.313h0.88v0.638q0.297-0.385 0.671-0.572 0.385-0.198 0.858-0.198 0.55 0 0.979 0.231t0.682 0.671q0.297-0.44 0.748-0.671 0.462-0.231 1.034-0.231 0.935 0 1.485 0.605 0.561 0.605 0.561 1.573v3.267h-0.902v-3.212q0-0.671-0.341-1.045-0.33-0.385-0.935-0.385-0.594 0-0.968 0.418-0.363 0.407-0.363 1.067v3.157h-0.891v-3.212q0-0.671-0.341-1.045-0.33-0.385-0.935-0.385-0.594 0-0.968 0.418-0.363 0.407-0.363 1.067v3.157h-0.891z"/><path d="m16.128 76.449q0 0.748-0.638 1.221t-1.661 0.473q-0.671 0-1.265-0.209-0.583-0.22-1.056-0.649l0.462-0.682q0.506 0.418 0.946 0.605t0.935 0.187q0.638 0 1.023-0.242 0.396-0.253 0.396-0.649 0-0.407-0.33-0.583-0.33-0.187-1.089-0.198-1.111-0.044-1.628-0.407-0.506-0.363-0.506-1.133 0-0.704 0.583-1.166 0.594-0.473 1.518-0.473 0.627 0 1.177 0.198t1.001 0.583l-0.429 0.671q-0.451-0.363-0.869-0.528t-0.891-0.165q-0.539 0-0.891 0.242-0.341 0.242-0.341 0.594 0 0.385 0.308 0.561t0.979 0.209q1.199 0.033 1.727 0.396 0.539 0.363 0.539 1.144z"/><path d="m17.03 70.3h0.891v3.19q0.319-0.451 0.792-0.693 0.484-0.242 1.078-0.242 1.067 0 1.661 0.682 0.605 0.682 0.605 1.87v2.893h-0.891v-2.838q0-0.847-0.418-1.32-0.418-0.484-1.166-0.484t-1.21 0.517q-0.451 0.517-0.451 1.342v2.783h-0.891z"/><path d="m27.722 78h-0.869v-0.869q-0.319 0.462-0.869 0.726-0.539 0.253-1.166 0.253-0.88 0-1.43-0.44-0.55-0.451-0.55-1.177 0-0.803 0.616-1.21 0.616-0.418 1.826-0.418h1.562q-0.011-0.748-0.396-1.155-0.374-0.407-1.078-0.407-0.418 0-0.825 0.176t-0.803 0.539l-0.473-0.594q0.462-0.44 1.012-0.66 0.55-0.231 1.177-0.231 1.067 0 1.661 0.638 0.605 0.627 0.605 1.738zm-0.88-2.442h-1.551q-0.803 0-1.188 0.22t-0.385 0.693q0 0.396 0.33 0.66 0.341 0.264 0.869 0.264 0.792 0 1.331-0.506 0.55-0.517 0.594-1.331z"/><path d="m29.713 79.98h-0.891v-7.293h0.88v0.858q0.352-0.462 0.869-0.715 0.517-0.264 1.1-0.264 1.122 0 1.87 0.781 0.748 0.77 0.748 1.98 0 1.221-0.781 2.013-0.77 0.781-1.903 0.781-0.539 0-1.045-0.22-0.495-0.231-0.847-0.649zm1.859-6.622q-0.803 0-1.353 0.583-0.539 0.572-0.539 1.43 0 0.847 0.528 1.408 0.539 0.561 1.331 0.561 0.814 0 1.32-0.539 0.517-0.55 0.517-1.452 0-0.891-0.506-1.441-0.495-0.55-1.298-0.55z"/><path d="m37.776 77.406q0.528 0 0.968-0.22 0.451-0.231 0.825-0.693l0.539 0.495q-0.451 0.594-1.056 0.891-0.605 0.286-1.353 0.286-1.199 0-1.969-0.781-0.759-0.792-0.759-2.024 0-1.199 0.781-2.002t1.925-0.803q1.166 0 1.892 0.759t0.726 1.98q0 0.088-0.011 0.209-0.011 0.11-0.022 0.165h-4.367q0.088 0.781 0.605 1.265 0.528 0.473 1.276 0.473zm-0.088-4.092q-0.693 0-1.188 0.451t-0.605 1.21h3.498q-0.099-0.77-0.561-1.21-0.462-0.451-1.144-0.451z"/></g><path transform="matrix(1 0 0 -1 498 471.19)" d="m1-1.8041e-6 9e-5 51.528h-2l-9.3e-5 -51.528zm3.0001 50.194-4 8-4-8z"/><path transform="matrix(1 0 0 -1 497 536.32)" d="m0.99994-0.010873 0.42032 38.655-1.9999 0.0217-0.42032-38.655zm3.4056 37.289-3.9128 8.043-4.0867-7.956z"/><path transform="matrix(1 0 0 -1 497 684.48)" d="m1-1.7077e-6 9e-5 54.813h-2l-9.4e-5 -54.812zm3.0001 53.479-4 8-4-8z"/><g transform="translate(434 386)" aria-label="all_embs...Reshapechar_inp..."><path d="m5.616 0h-0.948v-0.948q-0.348 0.504-0.948 0.792-0.588 0.276-1.272 0.276-0.96 0-1.56-0.48-0.6-0.492-0.6-1.284 0-0.876 0.672-1.32 0.672-0.456 1.992-0.456h1.704q-0.012-0.816-0.432-1.26-0.408-0.444-1.176-0.444-0.456 0-0.9 0.192t-0.876 0.588l-0.516-0.648q0.504-0.48 1.104-0.72 0.6-0.252 1.284-0.252 1.164 0 1.812 0.696 0.66 0.684 0.66 1.896zm-0.96-2.664h-1.692q-0.876 0-1.296 0.24t-0.42 0.756q0 0.432 0.36 0.72 0.372 0.288 0.948 0.288 0.864 0 1.452-0.552 0.6-0.564 0.648-1.452z"/><path d="m6.924-8.4h0.984v8.4h-0.984z"/><path d="m9.396-8.4h0.984v8.4h-0.984z"/><path d="m11.1 1.548v-0.876h6.096v0.876z"/><path d="m20.604-0.648q0.576 0 1.056-0.24 0.492-0.252 0.9-0.756l0.588 0.54q-0.492 0.648-1.152 0.972-0.66 0.312-1.476 0.312-1.308 0-2.148-0.852-0.828-0.864-0.828-2.208 0-1.308 0.852-2.184t2.1-0.876q1.272 0 2.064 0.828t0.792 2.16q0 0.096-0.012 0.228-0.012 0.12-0.024 0.18h-4.764q0.096 0.852 0.66 1.38 0.576 0.516 1.392 0.516zm-0.096-4.464q-0.756 0-1.296 0.492t-0.66 1.32h3.816q-0.108-0.84-0.612-1.32-0.504-0.492-1.248-0.492z"/><path d="m24.336-5.796h0.96v0.696q0.324-0.42 0.732-0.624 0.42-0.216 0.936-0.216 0.6 0 1.068 0.252t0.744 0.732q0.324-0.48 0.816-0.732 0.504-0.252 1.128-0.252 1.02 0 1.62 0.66 0.612 0.66 0.612 1.716v3.564h-0.984v-3.504q0-0.732-0.372-1.14-0.36-0.42-1.02-0.42-0.648 0-1.056 0.456-0.396 0.444-0.396 1.164v3.444h-0.972v-3.504q0-0.732-0.372-1.14-0.36-0.42-1.02-0.42-0.648 0-1.056 0.456-0.396 0.444-0.396 1.164v3.444h-0.972z"/><path d="m35.112 0h-0.96v-8.4h0.972v3.504q0.384-0.492 0.936-0.756 0.564-0.276 1.188-0.276 1.224 0 2.04 0.852 0.828 0.84 0.828 2.16 0 1.332-0.84 2.196-0.84 0.852-2.076 0.852-0.612 0-1.164-0.264-0.54-0.264-0.924-0.732zm2.04-5.064q-0.864 0-1.464 0.636-0.6 0.624-0.6 1.56 0 0.912 0.588 1.536 0.588 0.612 1.44 0.612 0.888 0 1.44-0.588 0.564-0.6 0.564-1.584 0-0.972-0.552-1.572-0.54-0.6-1.416-0.6z"/><path d="m45.792-1.692q0 0.816-0.696 1.332t-1.812 0.516q-0.732 0-1.38-0.228-0.636-0.24-1.152-0.708l0.504-0.744q0.552 0.456 1.032 0.66t1.02 0.204q0.696 0 1.116-0.264 0.432-0.276 0.432-0.708 0-0.444-0.36-0.636-0.36-0.204-1.188-0.216-1.212-0.048-1.776-0.444-0.552-0.396-0.552-1.236 0-0.768 0.636-1.272 0.648-0.516 1.656-0.516 0.684 0 1.284 0.216t1.092 0.636l-0.468 0.732q-0.492-0.396-0.948-0.576t-0.972-0.18q-0.588 0-0.972 0.264-0.372 0.264-0.372 0.648 0 0.42 0.336 0.612t1.068 0.228q1.308 0.036 1.884 0.432 0.588 0.396 0.588 1.248z"/><path d="m46.716-1.212h1.212v1.212h-1.212z"/><path d="m49.08-1.212h1.212v1.212h-1.212z"/><path d="m51.444-1.212h1.212v1.212h-1.212z"/><path d="m16.585 76.46 2.388 3.54h-1.224l-2.268-3.42h-2.364v3.42h-1.032v-8.4h3.696q1.416 0 2.208 0.66 0.792 0.648 0.792 1.788 0 0.936-0.576 1.572t-1.62 0.84zm1.152-2.388q0-0.732-0.528-1.14-0.516-0.42-1.452-0.42h-2.64v3.168h2.556q0.948 0 1.5-0.432 0.564-0.444 0.564-1.176z"/><path d="m22.573 79.352q0.576 0 1.056-0.24 0.492-0.252 0.9-0.756l0.588 0.54q-0.492 0.648-1.152 0.972-0.66 0.312-1.476 0.312-1.308 0-2.148-0.852-0.828-0.864-0.828-2.208 0-1.308 0.852-2.184t2.1-0.876q1.272 0 2.064 0.828t0.792 2.16q0 0.096-0.012 0.228-0.012 0.12-0.024 0.18h-4.764q0.096 0.852 0.66 1.38 0.576 0.516 1.392 0.516zm-0.096-4.464q-0.756 0-1.296 0.492t-0.66 1.32h3.816q-0.108-0.84-0.612-1.32-0.504-0.492-1.248-0.492z"/><path d="m30.973 78.308q0 0.816-0.696 1.332t-1.812 0.516q-0.732 0-1.38-0.228-0.636-0.24-1.152-0.708l0.504-0.744q0.552 0.456 1.032 0.66t1.02 0.204q0.696 0 1.116-0.264 0.432-0.276 0.432-0.708 0-0.444-0.36-0.636-0.36-0.204-1.188-0.216-1.212-0.048-1.776-0.444-0.552-0.396-0.552-1.236 0-0.768 0.636-1.272 0.648-0.516 1.656-0.516 0.684 0 1.284 0.216t1.092 0.636l-0.468 0.732q-0.492-0.396-0.948-0.576t-0.972-0.18q-0.588 0-0.972 0.264-0.372 0.264-0.372 0.648 0 0.42 0.336 0.612t1.068 0.228q1.308 0.036 1.884 0.432 0.588 0.396 0.588 1.248z"/><path d="m31.957 71.6h0.972v3.48q0.348-0.492 0.864-0.756 0.528-0.264 1.176-0.264 1.164 0 1.812 0.744 0.66 0.744 0.66 2.04v3.156h-0.972v-3.096q0-0.924-0.456-1.44-0.456-0.528-1.272-0.528t-1.32 0.564q-0.492 0.564-0.492 1.464v3.036h-0.972z"/><path d="m43.621 80h-0.948v-0.948q-0.348 0.504-0.948 0.792-0.588 0.276-1.272 0.276-0.96 0-1.56-0.48-0.6-0.492-0.6-1.284 0-0.876 0.672-1.32 0.672-0.456 1.992-0.456h1.704q-0.012-0.816-0.432-1.26-0.408-0.444-1.176-0.444-0.456 0-0.9 0.192t-0.876 0.588l-0.516-0.648q0.504-0.48 1.104-0.72 0.6-0.252 1.284-0.252 1.164 0 1.812 0.696 0.66 0.684 0.66 1.896zm-0.96-2.664h-1.692q-0.876 0-1.296 0.24t-0.42 0.756q0 0.432 0.36 0.72 0.372 0.288 0.948 0.288 0.864 0 1.452-0.552 0.6-0.564 0.648-1.452z"/><path d="m45.793 82.16h-0.972v-7.956h0.96v0.936q0.384-0.504 0.948-0.78 0.564-0.288 1.2-0.288 1.224 0 2.04 0.852 0.816 0.84 0.816 2.16 0 1.332-0.852 2.196-0.84 0.852-2.076 0.852-0.588 0-1.14-0.24-0.54-0.252-0.924-0.708zm2.028-7.224q-0.876 0-1.476 0.636-0.588 0.624-0.588 1.56 0 0.924 0.576 1.536 0.588 0.612 1.452 0.612 0.888 0 1.44-0.588 0.564-0.6 0.564-1.584 0-0.972-0.552-1.572-0.54-0.6-1.416-0.6z"/><path d="m54.589 79.352q0.576 0 1.056-0.24 0.492-0.252 0.9-0.756l0.588 0.54q-0.492 0.648-1.152 0.972-0.66 0.312-1.476 0.312-1.308 0-2.148-0.852-0.828-0.864-0.828-2.208 0-1.308 0.852-2.184t2.1-0.876q1.272 0 2.064 0.828t0.792 2.16q0 0.096-0.012 0.228-0.012 0.12-0.024 0.18h-4.764q0.096 0.852 0.66 1.38 0.576 0.516 1.392 0.516zm-0.096-4.464q-0.756 0-1.296 0.492t-0.66 1.32h3.816q-0.108-0.84-0.612-1.32-0.504-0.492-1.248-0.492z"/><path d="m5.8157 291.18q-1.332 0-2.172-0.84-0.828-0.852-0.828-2.22 0-1.296 0.876-2.184t2.148-0.888q0.924 0 1.572 0.432 0.66 0.42 0.996 1.224l-0.828 0.396q-0.276-0.6-0.72-0.9-0.432-0.3-1.032-0.3-0.852 0-1.44 0.648-0.576 0.636-0.576 1.572 0 0.948 0.576 1.584 0.588 0.624 1.464 0.624 0.564 0 1.044-0.3 0.492-0.312 0.792-0.864l0.756 0.408q-0.348 0.744-1.044 1.176t-1.584 0.432z"/><path d="m9.4157 282.6h0.972v3.48q0.348-0.492 0.864-0.756 0.528-0.264 1.176-0.264 1.164 0 1.812 0.744 0.66 0.744 0.66 2.04v3.156h-0.972v-3.096q0-0.924-0.456-1.44-0.456-0.528-1.272-0.528t-1.32 0.564q-0.492 0.564-0.492 1.464v3.036h-0.972z"/><path d="m21.08 291h-0.948v-0.948q-0.348 0.504-0.948 0.792-0.588 0.276-1.272 0.276-0.96 0-1.56-0.48-0.6-0.492-0.6-1.284 0-0.876 0.672-1.32 0.672-0.456 1.992-0.456h1.704q-0.012-0.816-0.432-1.26-0.408-0.444-1.176-0.444-0.456 0-0.9 0.192t-0.876 0.588l-0.516-0.648q0.504-0.48 1.104-0.72 0.6-0.252 1.284-0.252 1.164 0 1.812 0.696 0.66 0.684 0.66 1.896zm-0.96-2.664h-1.692q-0.876 0-1.296 0.24t-0.42 0.756q0 0.432 0.36 0.72 0.372 0.288 0.948 0.288 0.864 0 1.452-0.552 0.6-0.564 0.648-1.452z"/><path d="m22.28 285.2h0.96v0.732q0.264-0.384 0.684-0.576t0.996-0.192h0.528v0.924h-0.54q-0.828 0-1.248 0.432-0.408 0.432-0.408 1.308v3.168h-0.972z"/><path d="m25.58 292.55v-0.876h6.096v0.876z"/><path d="m32.348 283.26h1.08v1.068h-1.08zm0.048 7.74v-5.796h0.984v5.796z"/><path d="m34.76 285.2h0.96v0.9q0.348-0.504 0.876-0.768 0.54-0.276 1.2-0.276 1.152 0 1.8 0.744t0.648 2.04v3.156h-0.972v-3.096q0-0.912-0.456-1.44-0.444-0.528-1.248-0.528-0.828 0-1.332 0.564t-0.504 1.464v3.036h-0.972z"/><path d="m42.416 293.16h-0.972v-7.956h0.96v0.936q0.384-0.504 0.948-0.78 0.564-0.288 1.2-0.288 1.224 0 2.04 0.852 0.816 0.84 0.816 2.16 0 1.332-0.852 2.196-0.84 0.852-2.076 0.852-0.588 0-1.14-0.24-0.54-0.252-0.924-0.708zm2.028-7.224q-0.876 0-1.476 0.636-0.588 0.624-0.588 1.56 0 0.924 0.576 1.536 0.588 0.612 1.452 0.612 0.888 0 1.44-0.588 0.564-0.6 0.564-1.584 0-0.972-0.552-1.572-0.54-0.6-1.416-0.6z"/><path d="m48.272 289.79h1.212v1.212h-1.212z"/><path d="m50.636 289.79h1.212v1.212h-1.212z"/><path d="m53 289.79h1.212v1.212h-1.212z"/></g><path d="m722.5 390.17c0-3.682 2.985-6.667 6.667-6.667h97.666c3.682 0 6.667 2.985 6.667 6.667v26.666c0 3.682-2.985 6.667-6.667 6.667h-97.666c-3.682 0-6.667-2.985-6.667-6.667z" fill="#fff" fill-rule="evenodd" stroke="#000" stroke-miterlimit="8" stroke-width="1.3333"/><g transform="translate(745.42 410)" aria-label="softmax"><path d="m8.398-2.679q0 1.292-1.102 2.109t-2.869 0.817q-1.159 0-2.185-0.361-1.007-0.38-1.824-1.121l0.798-1.178q0.874 0.722 1.634 1.045t1.615 0.323q1.102 0 1.767-0.418 0.684-0.437 0.684-1.121 0-0.703-0.57-1.007-0.57-0.323-1.881-0.342-1.919-0.076-2.812-0.703-0.874-0.627-0.874-1.957 0-1.216 1.007-2.014 1.026-0.817 2.622-0.817 1.083 0 2.033 0.342t1.729 1.007l-0.741 1.159q-0.779-0.627-1.501-0.912t-1.539-0.285q-0.931 0-1.539 0.418-0.589 0.418-0.589 1.026 0 0.665 0.532 0.969t1.691 0.361q2.071 0.057 2.983 0.684 0.931 0.627 0.931 1.976z"/><path d="m19.095-4.579q0 2.071-1.387 3.477-1.387 1.387-3.42 1.387t-3.401-1.387q-1.349-1.387-1.349-3.458t1.387-3.458q1.387-1.406 3.42-1.406t3.382 1.387q1.368 1.387 1.368 3.458zm-7.98 0.019q0 1.482 0.912 2.489 0.931 1.007 2.299 1.007 1.349 0 2.261-1.007 0.931-1.007 0.931-2.508 0-1.463-0.931-2.47-0.931-1.026-2.28-1.026t-2.28 1.007q-0.912 1.007-0.912 2.508z"/><path d="m21.109-7.809h-1.254v-1.368h1.254v-1.729q0-1.159 0.608-1.767 0.627-0.627 1.786-0.627h1.254v1.292h-1.026q-0.532 0-0.798 0.285t-0.266 0.855v1.691h2.09v1.368h-2.09v7.809h-1.558z"/><path d="m26.486-2.451v-5.358h-1.254v-1.368h1.254v-2.812h1.539v2.812h2.128v1.368h-2.128v5.225q0 0.608 0.266 0.912 0.285 0.285 0.855 0.285h1.007v1.387h-1.235q-1.273 0-1.862-0.589-0.57-0.589-0.57-1.862z"/><path d="m31.711-9.177h1.52v1.102q0.513-0.665 1.159-0.988 0.665-0.342 1.482-0.342 0.95 0 1.691 0.399t1.178 1.159q0.513-0.76 1.292-1.159 0.798-0.399 1.786-0.399 1.615 0 2.565 1.045 0.969 1.045 0.969 2.717v5.643h-1.558v-5.548q0-1.159-0.589-1.805-0.57-0.665-1.615-0.665-1.026 0-1.672 0.722-0.627 0.703-0.627 1.843v5.453h-1.539v-5.548q0-1.159-0.589-1.805-0.57-0.665-1.615-0.665-1.026 0-1.672 0.722-0.627 0.703-0.627 1.843v5.453h-1.539z"/><path d="m55.138 0h-1.501v-1.501q-0.551 0.798-1.501 1.254-0.931 0.437-2.014 0.437-1.52 0-2.47-0.76-0.95-0.779-0.95-2.033 0-1.387 1.064-2.09 1.064-0.722 3.154-0.722h2.698q-0.019-1.292-0.684-1.995-0.646-0.703-1.862-0.703-0.722 0-1.425 0.304t-1.387 0.931l-0.817-1.026q0.798-0.76 1.748-1.14 0.95-0.399 2.033-0.399 1.843 0 2.869 1.102 1.045 1.083 1.045 3.002zm-1.52-4.218h-2.679q-1.387 0-2.052 0.38t-0.665 1.197q0 0.684 0.57 1.14 0.589 0.456 1.501 0.456 1.368 0 2.299-0.874 0.95-0.893 1.026-2.299z"/><path d="m57.931 0h-1.729l3.572-4.731-3.325-4.446h1.824l2.413 3.363 2.451-3.363h1.71l-3.325 4.427 3.629 4.75h-1.805l-2.698-3.705z"/></g><g transform="matrix(.28494 .95855 -.95855 .28494 736.43 339)" aria-label="8 tensors"><path d="m4.52-1.504q0 0.72-0.6 1.176-0.592 0.448-1.528 0.448-0.928 0-1.52-0.448-0.584-0.448-0.584-1.16 0-0.48 0.28-0.848 0.288-0.368 0.8-0.568-0.448-0.184-0.696-0.52-0.24-0.344-0.24-0.768 0-0.688 0.552-1.112t1.432-0.424q0.872 0 1.416 0.424 0.544 0.416 0.544 1.096 0 0.424-0.248 0.768-0.24 0.336-0.688 0.528 0.512 0.192 0.792 0.56 0.288 0.368 0.288 0.848zm-3.408-2.664q0 0.44 0.36 0.712t0.936 0.272 0.928-0.272q0.36-0.272 0.36-0.728 0-0.424-0.368-0.688-0.36-0.264-0.928-0.264t-0.928 0.272q-0.36 0.264-0.36 0.696zm-0.144 2.656q0 0.456 0.4 0.752 0.408 0.288 1.04 0.288t1.032-0.288q0.4-0.296 0.4-0.768 0-0.48-0.4-0.768-0.4-0.296-1.04-0.296t-1.04 0.296q-0.392 0.296-0.392 0.784z"/><path d="m6.92-1.032v-2.256h-0.528v-0.576h0.528v-1.184h0.648v1.184h0.896v0.576h-0.896v2.2q0 0.256 0.112 0.384 0.12 0.12 0.36 0.12h0.424v0.584h-0.52q-0.536 0-0.784-0.248-0.24-0.248-0.24-0.784z"/><path d="m10.92-0.432q0.384 0 0.704-0.16 0.328-0.168 0.6-0.504l0.392 0.36q-0.328 0.432-0.768 0.648-0.44 0.208-0.984 0.208-0.872 0-1.432-0.568-0.552-0.576-0.552-1.472 0-0.872 0.568-1.456 0.568-0.584 1.4-0.584 0.848 0 1.376 0.552t0.528 1.44q0 0.064-8e-3 0.152-8e-3 0.08-0.016 0.12h-3.176q0.064 0.568 0.44 0.92 0.384 0.344 0.928 0.344zm-0.064-2.976q-0.504 0-0.864 0.328-0.36 0.328-0.44 0.88h2.544q-0.072-0.56-0.408-0.88-0.336-0.328-0.832-0.328z"/><path d="m13.408-3.864h0.64v0.6q0.232-0.336 0.584-0.512 0.36-0.184 0.8-0.184 0.768 0 1.2 0.496t0.432 1.36v2.104h-0.648v-2.064q0-0.608-0.304-0.96-0.296-0.352-0.832-0.352-0.552 0-0.888 0.376t-0.336 0.976v2.024h-0.648z"/><path d="m20.976-1.128q0 0.544-0.464 0.888t-1.208 0.344q-0.488 0-0.92-0.152-0.424-0.16-0.768-0.472l0.336-0.496q0.368 0.304 0.688 0.44t0.68 0.136q0.464 0 0.744-0.176 0.288-0.184 0.288-0.472 0-0.296-0.24-0.424-0.24-0.136-0.792-0.144-0.808-0.032-1.184-0.296-0.368-0.264-0.368-0.824 0-0.512 0.424-0.848 0.432-0.344 1.104-0.344 0.456 0 0.856 0.144t0.728 0.424l-0.312 0.488q-0.328-0.264-0.632-0.384t-0.648-0.12q-0.392 0-0.648 0.176-0.248 0.176-0.248 0.432 0 0.28 0.224 0.408t0.712 0.152q0.872 0.024 1.256 0.288 0.392 0.264 0.392 0.832z"/><path d="m25.48-1.928q0 0.872-0.584 1.464-0.584 0.584-1.44 0.584t-1.432-0.584q-0.568-0.584-0.568-1.456t0.584-1.456q0.584-0.592 1.44-0.592t1.424 0.584q0.576 0.584 0.576 1.456zm-3.36 8e-3q0 0.624 0.384 1.048 0.392 0.424 0.968 0.424 0.568 0 0.952-0.424 0.392-0.424 0.392-1.056 0-0.616-0.392-1.04-0.392-0.432-0.96-0.432t-0.96 0.424q-0.384 0.424-0.384 1.056z"/><path d="m26.152-3.864h0.64v0.488q0.176-0.256 0.456-0.384t0.664-0.128h0.352v0.616h-0.36q-0.552 0-0.832 0.288-0.272 0.288-0.272 0.872v2.112h-0.648z"/><path d="m31.904-1.128q0 0.544-0.464 0.888t-1.208 0.344q-0.488 0-0.92-0.152-0.424-0.16-0.768-0.472l0.336-0.496q0.368 0.304 0.688 0.44t0.68 0.136q0.464 0 0.744-0.176 0.288-0.184 0.288-0.472 0-0.296-0.24-0.424-0.24-0.136-0.792-0.144-0.808-0.032-1.184-0.296-0.368-0.264-0.368-0.824 0-0.512 0.424-0.848 0.432-0.344 1.104-0.344 0.456 0 0.856 0.144t0.728 0.424l-0.312 0.488q-0.328-0.264-0.632-0.384t-0.648-0.12q-0.392 0-0.648 0.176-0.248 0.176-0.248 0.432 0 0.28 0.224 0.408t0.712 0.152q0.872 0.024 1.256 0.288 0.392 0.264 0.392 0.832z"/></g><g transform="matrix(.65218 .75807 -.75807 .65218 543.46 279)" aria-label="3 tensors"><path d="m2.328-0.48q0.568 0 0.944-0.312 0.384-0.32 0.384-0.792 0-0.496-0.392-0.784-0.384-0.288-1.072-0.288h-0.352v-0.568h0.336q0.632 0 1-0.272 0.368-0.28 0.368-0.712 0-0.4-0.336-0.656t-0.88-0.256q-0.576 0-0.92 0.312-0.336 0.304-0.376 0.84h-0.656q0.024-0.752 0.568-1.256 0.552-0.504 1.416-0.504 0.824 0 1.344 0.424 0.528 0.416 0.528 1.04 0 0.464-0.272 0.808-0.264 0.344-0.768 0.52 0.576 0.16 0.864 0.504t0.288 0.88q0 0.712-0.576 1.2-0.576 0.48-1.456 0.48-0.936 0-1.488-0.504-0.544-0.512-0.552-1.4h0.648q0.032 0.624 0.392 0.96 0.368 0.336 1.016 0.336z"/><path d="m6.752-1.032v-2.256h-0.528v-0.576h0.528v-1.184h0.648v1.184h0.896v0.576h-0.896v2.2q0 0.256 0.112 0.384 0.12 0.12 0.36 0.12h0.424v0.584h-0.52q-0.536 0-0.784-0.248-0.24-0.248-0.24-0.784z"/><path d="m10.752-0.432q0.384 0 0.704-0.16 0.328-0.168 0.6-0.504l0.392 0.36q-0.328 0.432-0.768 0.648-0.44 0.208-0.984 0.208-0.872 0-1.432-0.568-0.552-0.576-0.552-1.472 0-0.872 0.568-1.456t1.4-0.584q0.848 0 1.376 0.552t0.528 1.44q0 0.064-8e-3 0.152-8e-3 0.08-0.016 0.12h-3.176q0.064 0.568 0.44 0.92 0.384 0.344 0.928 0.344zm-0.064-2.976q-0.504 0-0.864 0.328-0.36 0.328-0.44 0.88h2.544q-0.072-0.56-0.408-0.88-0.336-0.328-0.832-0.328z"/><path d="m13.24-3.864h0.64v0.6q0.232-0.336 0.584-0.512 0.36-0.184 0.8-0.184 0.768 0 1.2 0.496t0.432 1.36v2.104h-0.648v-2.064q0-0.608-0.304-0.96-0.296-0.352-0.832-0.352-0.552 0-0.888 0.376t-0.336 0.976v2.024h-0.648z"/><path d="m20.808-1.128q0 0.544-0.464 0.888t-1.208 0.344q-0.488 0-0.92-0.152-0.424-0.16-0.768-0.472l0.336-0.496q0.368 0.304 0.688 0.44t0.68 0.136q0.464 0 0.744-0.176 0.288-0.184 0.288-0.472 0-0.296-0.24-0.424-0.24-0.136-0.792-0.144-0.808-0.032-1.184-0.296-0.368-0.264-0.368-0.824 0-0.512 0.424-0.848 0.432-0.344 1.104-0.344 0.456 0 0.856 0.144t0.728 0.424l-0.312 0.488q-0.328-0.264-0.632-0.384t-0.648-0.12q-0.392 0-0.648 0.176-0.248 0.176-0.248 0.432 0 0.28 0.224 0.408t0.712 0.152q0.872 0.024 1.256 0.288 0.392 0.264 0.392 0.832z"/><path d="m25.312-1.928q0 0.872-0.584 1.464-0.584 0.584-1.44 0.584t-1.432-0.584q-0.568-0.584-0.568-1.456t0.584-1.456q0.584-0.592 1.44-0.592t1.424 0.584q0.576 0.584 0.576 1.456zm-3.36 8e-3q0 0.624 0.384 1.048 0.392 0.424 0.968 0.424 0.568 0 0.952-0.424 0.392-0.424 0.392-1.056 0-0.616-0.392-1.04-0.392-0.432-0.96-0.432t-0.96 0.424q-0.384 0.424-0.384 1.056z"/><path d="m25.984-3.864h0.64v0.488q0.176-0.256 0.456-0.384t0.664-0.128h0.352v0.616h-0.36q-0.552 0-0.832 0.288-0.272 0.288-0.272 0.872v2.112h-0.648z"/><path d="m31.736-1.128q0 0.544-0.464 0.888t-1.208 0.344q-0.488 0-0.92-0.152-0.424-0.16-0.768-0.472l0.336-0.496q0.368 0.304 0.688 0.44t0.68 0.136q0.464 0 0.744-0.176 0.288-0.184 0.288-0.472 0-0.296-0.24-0.424-0.24-0.136-0.792-0.144-0.808-0.032-1.184-0.296-0.368-0.264-0.368-0.824 0-0.512 0.424-0.848 0.432-0.344 1.104-0.344 0.456 0 0.856 0.144t0.728 0.424l-0.312 0.488q-0.328-0.264-0.632-0.384t-0.648-0.12q-0.392 0-0.648 0.176-0.248 0.176-0.248 0.432 0 0.28 0.224 0.408t0.712 0.152q0.872 0.024 1.256 0.288 0.392 0.264 0.392 0.832z"/></g><g transform="matrix(.77555 -.63128 .63128 .77555 360.19 300)" aria-label="3 tensors"><path d="m2.328-0.48q0.568 0 0.944-0.312 0.384-0.32 0.384-0.792 0-0.496-0.392-0.784-0.384-0.288-1.072-0.288h-0.352v-0.568h0.336q0.632 0 1-0.272 0.368-0.28 0.368-0.712 0-0.4-0.336-0.656t-0.88-0.256q-0.576 0-0.92 0.312-0.336 0.304-0.376 0.84h-0.656q0.024-0.752 0.568-1.256 0.552-0.504 1.416-0.504 0.824 0 1.344 0.424 0.528 0.416 0.528 1.04 0 0.464-0.272 0.808-0.264 0.344-0.768 0.52 0.576 0.16 0.864 0.504t0.288 0.88q0 0.712-0.576 1.2-0.576 0.48-1.456 0.48-0.936 0-1.488-0.504-0.544-0.512-0.552-1.4h0.648q0.032 0.624 0.392 0.96 0.368 0.336 1.016 0.336z"/><path d="m6.752-1.032v-2.256h-0.528v-0.576h0.528v-1.184h0.648v1.184h0.896v0.576h-0.896v2.2q0 0.256 0.112 0.384 0.12 0.12 0.36 0.12h0.424v0.584h-0.52q-0.536 0-0.784-0.248-0.24-0.248-0.24-0.784z"/><path d="m10.752-0.432q0.384 0 0.704-0.16 0.328-0.168 0.6-0.504l0.392 0.36q-0.328 0.432-0.768 0.648-0.44 0.208-0.984 0.208-0.872 0-1.432-0.568-0.552-0.576-0.552-1.472 0-0.872 0.568-1.456t1.4-0.584q0.848 0 1.376 0.552t0.528 1.44q0 0.064-8e-3 0.152-8e-3 0.08-0.016 0.12h-3.176q0.064 0.568 0.44 0.92 0.384 0.344 0.928 0.344zm-0.064-2.976q-0.504 0-0.864 0.328-0.36 0.328-0.44 0.88h2.544q-0.072-0.56-0.408-0.88-0.336-0.328-0.832-0.328z"/><path d="m13.24-3.864h0.64v0.6q0.232-0.336 0.584-0.512 0.36-0.184 0.8-0.184 0.768 0 1.2 0.496t0.432 1.36v2.104h-0.648v-2.064q0-0.608-0.304-0.96-0.296-0.352-0.832-0.352-0.552 0-0.888 0.376t-0.336 0.976v2.024h-0.648z"/><path d="m20.808-1.128q0 0.544-0.464 0.888t-1.208 0.344q-0.488 0-0.92-0.152-0.424-0.16-0.768-0.472l0.336-0.496q0.368 0.304 0.688 0.44t0.68 0.136q0.464 0 0.744-0.176 0.288-0.184 0.288-0.472 0-0.296-0.24-0.424-0.24-0.136-0.792-0.144-0.808-0.032-1.184-0.296-0.368-0.264-0.368-0.824 0-0.512 0.424-0.848 0.432-0.344 1.104-0.344 0.456 0 0.856 0.144t0.728 0.424l-0.312 0.488q-0.328-0.264-0.632-0.384t-0.648-0.12q-0.392 0-0.648 0.176-0.248 0.176-0.248 0.432 0 0.28 0.224 0.408t0.712 0.152q0.872 0.024 1.256 0.288 0.392 0.264 0.392 0.832z"/><path d="m25.312-1.928q0 0.872-0.584 1.464-0.584 0.584-1.44 0.584t-1.432-0.584q-0.568-0.584-0.568-1.456t0.584-1.456q0.584-0.592 1.44-0.592t1.424 0.584q0.576 0.584 0.576 1.456zm-3.36 8e-3q0 0.624 0.384 1.048 0.392 0.424 0.968 0.424 0.568 0 0.952-0.424 0.392-0.424 0.392-1.056 0-0.616-0.392-1.04-0.392-0.432-0.96-0.432t-0.96 0.424q-0.384 0.424-0.384 1.056z"/><path d="m25.984-3.864h0.64v0.488q0.176-0.256 0.456-0.384t0.664-0.128h0.352v0.616h-0.36q-0.552 0-0.832 0.288-0.272 0.288-0.272 0.872v2.112h-0.648z"/><path d="m31.736-1.128q0 0.544-0.464 0.888t-1.208 0.344q-0.488 0-0.92-0.152-0.424-0.16-0.768-0.472l0.336-0.496q0.368 0.304 0.688 0.44t0.68 0.136q0.464 0 0.744-0.176 0.288-0.184 0.288-0.472 0-0.296-0.24-0.424-0.24-0.136-0.792-0.144-0.808-0.032-1.184-0.296-0.368-0.264-0.368-0.824 0-0.512 0.424-0.848 0.432-0.344 1.104-0.344 0.456 0 0.856 0.144t0.728 0.424l-0.312 0.488q-0.328-0.264-0.632-0.384t-0.648-0.12q-0.392 0-0.648 0.176-0.248 0.176-0.248 0.432 0 0.28 0.224 0.408t0.712 0.152q0.872 0.024 1.256 0.288 0.392 0.264 0.392 0.832z"/></g><g transform="translate(711.07 150)" aria-label="Reshape_3concat"><path d="m5.28-3.54 2.388 3.54h-1.224l-2.268-3.42h-2.364v3.42h-1.032v-8.4h3.696q1.416 0 2.208 0.66 0.792 0.648 0.792 1.788 0 0.936-0.576 1.572t-1.62 0.84zm1.152-2.388q0-0.732-0.528-1.14-0.516-0.42-1.452-0.42h-2.64v3.168h2.556q0.948 0 1.5-0.432 0.564-0.444 0.564-1.176z"/><path d="m11.268-0.648q0.576 0 1.056-0.24 0.492-0.252 0.9-0.756l0.588 0.54q-0.492 0.648-1.152 0.972-0.66 0.312-1.476 0.312-1.308 0-2.148-0.852-0.828-0.864-0.828-2.208 0-1.308 0.852-2.184t2.1-0.876q1.272 0 2.064 0.828t0.792 2.16q0 0.096-0.012 0.228-0.012 0.12-0.024 0.18h-4.764q0.096 0.852 0.66 1.38 0.576 0.516 1.392 0.516zm-0.096-4.464q-0.756 0-1.296 0.492-0.54 0.492-0.66 1.32h3.816q-0.108-0.84-0.612-1.32-0.504-0.492-1.248-0.492z"/><path d="m19.668-1.692q0 0.816-0.696 1.332t-1.812 0.516q-0.732 0-1.38-0.228-0.636-0.24-1.152-0.708l0.504-0.744q0.552 0.456 1.032 0.66t1.02 0.204q0.696 0 1.116-0.264 0.432-0.276 0.432-0.708 0-0.444-0.36-0.636-0.36-0.204-1.188-0.216-1.212-0.048-1.776-0.444-0.552-0.396-0.552-1.236 0-0.768 0.636-1.272 0.648-0.516 1.656-0.516 0.684 0 1.284 0.216t1.092 0.636l-0.468 0.732q-0.492-0.396-0.948-0.576t-0.972-0.18q-0.588 0-0.972 0.264-0.372 0.264-0.372 0.648 0 0.42 0.336 0.612t1.068 0.228q1.308 0.036 1.884 0.432 0.588 0.396 0.588 1.248z"/><path d="m20.652-8.4h0.972v3.48q0.348-0.492 0.864-0.756 0.528-0.264 1.176-0.264 1.164 0 1.812 0.744 0.66 0.744 0.66 2.04v3.156h-0.972v-3.096q0-0.924-0.456-1.44-0.456-0.528-1.272-0.528t-1.32 0.564q-0.492 0.564-0.492 1.464v3.036h-0.972z"/><path d="m32.316 0h-0.948v-0.948q-0.348 0.504-0.948 0.792-0.588 0.276-1.272 0.276-0.96 0-1.56-0.48-0.6-0.492-0.6-1.284 0-0.876 0.672-1.32 0.672-0.456 1.992-0.456h1.704q-0.012-0.816-0.432-1.26-0.408-0.444-1.176-0.444-0.456 0-0.9 0.192t-0.876 0.588l-0.516-0.648q0.504-0.48 1.104-0.72 0.6-0.252 1.284-0.252 1.164 0 1.812 0.696 0.66 0.684 0.66 1.896zm-0.96-2.664h-1.692q-0.876 0-1.296 0.24t-0.42 0.756q0 0.432 0.36 0.72 0.372 0.288 0.948 0.288 0.864 0 1.452-0.552 0.6-0.564 0.648-1.452z"/><path d="m34.488 2.16h-0.972v-7.956h0.96v0.936q0.384-0.504 0.948-0.78 0.564-0.288 1.2-0.288 1.224 0 2.04 0.852 0.816 0.84 0.816 2.16 0 1.332-0.852 2.196-0.84 0.852-2.076 0.852-0.588 0-1.14-0.24-0.54-0.252-0.924-0.708zm2.028-7.224q-0.876 0-1.476 0.636-0.588 0.624-0.588 1.56 0 0.924 0.576 1.536 0.588 0.612 1.452 0.612 0.888 0 1.44-0.588 0.564-0.6 0.564-1.584 0-0.972-0.552-1.572-0.54-0.6-1.416-0.6z"/><path d="m43.284-0.648q0.576 0 1.056-0.24 0.492-0.252 0.9-0.756l0.588 0.54q-0.492 0.648-1.152 0.972-0.66 0.312-1.476 0.312-1.308 0-2.148-0.852-0.828-0.864-0.828-2.208 0-1.308 0.852-2.184t2.1-0.876q1.272 0 2.064 0.828t0.792 2.16q0 0.096-0.012 0.228-0.012 0.12-0.024 0.18h-4.764q0.096 0.852 0.66 1.38 0.576 0.516 1.392 0.516zm-0.096-4.464q-0.756 0-1.296 0.492t-0.66 1.32h3.816q-0.108-0.84-0.612-1.32-0.504-0.492-1.248-0.492z"/><path d="m46.356 1.548v-0.876h6.096v0.876z"/><path d="m55.92-0.72q0.852 0 1.416-0.468 0.576-0.48 0.576-1.188 0-0.744-0.588-1.176-0.576-0.432-1.608-0.432h-0.528v-0.852h0.504q0.948 0 1.5-0.408 0.552-0.42 0.552-1.068 0-0.6-0.504-0.984t-1.32-0.384q-0.864 0-1.38 0.468-0.504 0.456-0.564 1.26h-0.984q0.036-1.128 0.852-1.884 0.828-0.756 2.124-0.756 1.236 0 2.016 0.636 0.792 0.624 0.792 1.56 0 0.696-0.408 1.212-0.396 0.516-1.152 0.78 0.864 0.24 1.296 0.756t0.432 1.32q0 1.068-0.864 1.8-0.864 0.72-2.184 0.72-1.404 0-2.232-0.756-0.816-0.768-0.828-2.1h0.972q0.048 0.936 0.588 1.44 0.552 0.504 1.524 0.504z"/><path d="m-22.214 144.18q-1.332 0-2.172-0.84-0.828-0.852-0.828-2.22 0-1.296 0.876-2.184t2.148-0.888q0.924 0 1.572 0.432 0.66 0.42 0.996 1.224l-0.828 0.396q-0.276-0.6-0.72-0.9-0.432-0.3-1.032-0.3-0.852 0-1.44 0.648-0.576 0.636-0.576 1.572 0 0.948 0.576 1.584 0.588 0.624 1.464 0.624 0.564 0 1.044-0.3 0.492-0.312 0.792-0.864l0.756 0.408q-0.348 0.744-1.044 1.176t-1.584 0.432z"/><path d="m-12.842 141.11q0 1.308-0.876 2.196-0.876 0.876-2.16 0.876t-2.148-0.876q-0.852-0.876-0.852-2.184t0.876-2.184q0.876-0.888 2.16-0.888t2.136 0.876q0.864 0.876 0.864 2.184zm-5.04 0.012q0 0.936 0.576 1.572 0.588 0.636 1.452 0.636 0.852 0 1.428-0.636 0.588-0.636 0.588-1.584 0-0.924-0.588-1.56-0.588-0.648-1.44-0.648t-1.44 0.636q-0.576 0.636-0.576 1.584z"/><path d="m-11.834 138.2h0.96v0.9q0.348-0.504 0.876-0.768 0.54-0.276 1.2-0.276 1.152 0 1.8 0.744t0.648 2.04v3.156h-0.972v-3.096q0-0.912-0.456-1.44-0.444-0.528-1.248-0.528-0.828 0-1.332 0.564-0.504 0.564-0.504 1.464v3.036h-0.972z"/><path d="m-2.4138 144.18q-1.332 0-2.172-0.84-0.828-0.852-0.828-2.22 0-1.296 0.876-2.184t2.148-0.888q0.924 0 1.572 0.432 0.66 0.42 0.996 1.224l-0.828 0.396q-0.276-0.6-0.72-0.9-0.432-0.3-1.032-0.3-0.852 0-1.44 0.648-0.576 0.636-0.576 1.572 0 0.948 0.576 1.584 0.588 0.624 1.464 0.624 0.564 0 1.044-0.3 0.492-0.312 0.792-0.864l0.756 0.408q-0.348 0.744-1.044 1.176-0.696 0.432-1.584 0.432z"/><path d="m6.1662 144h-0.948v-0.948q-0.348 0.504-0.948 0.792-0.588 0.276-1.272 0.276-0.96 0-1.56-0.48-0.6-0.492-0.6-1.284 0-0.876 0.672-1.32 0.672-0.456 1.992-0.456h1.704q-0.012-0.816-0.432-1.26-0.408-0.444-1.176-0.444-0.456 0-0.9 0.192t-0.876 0.588l-0.516-0.648q0.504-0.48 1.104-0.72 0.6-0.252 1.284-0.252 1.164 0 1.812 0.696 0.66 0.684 0.66 1.896zm-0.96-2.664h-1.692q-0.876 0-1.296 0.24t-0.42 0.756q0 0.432 0.36 0.72 0.372 0.288 0.948 0.288 0.864 0 1.452-0.552 0.6-0.564 0.648-1.452z"/><path d="m7.6302 142.45v-3.384h-0.792v-0.864h0.792v-1.776h0.972v1.776h1.344v0.864h-1.344v3.3q0 0.384 0.168 0.576 0.18 0.18 0.54 0.18h0.636v0.876h-0.78q-0.804 0-1.176-0.372-0.36-0.372-0.36-1.176z"/></g></g></svg>
