<svg width="1280" height="720" xmlns="http://www.w3.org/2000/svg" xmlns:xlink="http://www.w3.org/1999/xlink" overflow="hidden"><defs><clipPath id="clip0"><rect x="0" y="0" width="1280" height="720"/></clipPath></defs><g clip-path="url(#clip0)"><rect x="0" y="0" width="1280" height="720" fill="#FFFFFF"/><path d="M0.0116724-0.999932 32.1465-0.624817 63.9801 0.375844 95.3771 2.06453 125.96 4.37857 155.604 7.19285 169.931 8.81952 183.94 10.5707 197.576 12.3846 210.777 14.3241 223.602 16.3886 235.929 18.5161 247.694 20.769 259.024 23.085 269.732 25.5272 279.81 28.0312 289.333 30.537 298.175 33.1709 306.327 35.8674 313.803 38.5688 320.47 41.3991 326.397 44.1735 331.531 47.089 335.8 50.0202 339.218 52.9867 341.716 56.0101 343.335 59.1814 343.88 62.3797 343.246 74.1637 341.544 85.5105 338.832 96.1702 335.363 105.694 333.392 109.954 331.227 113.838 328.926 117.225 326.55 120.115 324 122.598 322.505 123.23 321.727 121.388 323.048 120.829 322.74 121.034 325.115 118.721 325.04 118.802 327.353 115.99 327.298 116.063 329.548 112.751 329.501 112.826 331.626 109.013 331.592 109.08 333.53 104.893 333.498 104.97 336.935 95.5328 336.906 95.6284 339.593 85.0659 339.574 85.1642 341.261 73.9142 341.251 74.0088 341.876 62.3838 341.889 62.6053 341.389 59.6678 341.484 59.9548 339.984 57.0173 340.104 57.1994 337.729 54.3244 337.845 54.4427 334.532 51.5677 334.621 51.6369 330.434 48.7619 330.506 48.8071 325.444 45.9321 325.514 45.9682 319.639 43.2182 319.672 43.233 313.047 40.4205 313.098 40.4405 305.66 37.753 305.686 37.7619 297.561 35.0744 297.589 35.0834 288.777 32.4584 288.808 32.4671 279.308 29.9671 279.321 29.9705 269.259 27.4705 269.278 27.475 258.59 25.0375 258.612 25.0422 247.3 22.7297 247.312 22.7322 235.562 20.4822 235.58 20.4854 223.267 18.3604 223.279 18.3623 210.466 16.2998 210.48 16.3019 197.292 14.3644 197.306 14.3663 183.681 12.5538 183.688 12.5548 169.688 10.8048 169.7 10.8061 155.387 9.18112 155.405 9.18302 125.78 6.37052 125.8 6.37215 95.2371 4.05965 95.2588 4.06106 63.8838 2.37356 63.9061 2.37451 32.0936 1.37451 32.1133 1.37493-0.0116724 0.999932ZM324.854 125.515 315.937 124.812 321.849 118.101Z" fill="#A5A5A5" transform="matrix(-1.83697e-16 -1 -1 1.83697e-16 777.768 382.895)"/><path d="M72.1349 14.5258C110.087 3.51613 146.013 48.5513 152.952 115.833L165.846 115.102 143.685 135.091 119.345 117.737 132.253 117.006C126.675 60.9894 100.773 24.7454 74.0655 35.5853Z" stroke="#FFD966" stroke-width="1.33333" stroke-miterlimit="8" fill="#F3D64E" fill-rule="evenodd" transform="matrix(-1 0 0 1 484.5 247.5)"/><path d="M511.13 261.971C548.908 250.866 584.687 296.019 591.551 363.463L604.369 362.737 582.326 382.611 558.146 365.355 570.977 364.628C565.463 308.362 539.648 271.948 513.05 282.917Z" stroke="#FFD966" stroke-width="1.33333" stroke-miterlimit="8" fill="#F3D64E" fill-rule="evenodd"/><path d="M721.326 338.379 732.549 317.749 753.179 328.971 746.396 330.975 761.92 383.536 743.633 388.937 728.109 336.376Z" stroke="#BFBFBF" stroke-width="1.33333" stroke-miterlimit="8" fill="#E7E6E6" fill-rule="evenodd"/><path d="M421.5 691.5C421.5 685.977 431.126 681.5 443 681.5 454.874 681.5 464.5 685.977 464.5 691.5 464.5 697.023 454.874 701.5 443 701.5 431.126 701.5 421.5 697.023 421.5 691.5Z" stroke="#BFBFBF" stroke-width="1.33333" stroke-miterlimit="8" fill="#FFFFFF" fill-rule="evenodd"/><path d="M595.5 31.5001C595.5 25.9772 605.126 21.5001 617 21.5001 628.874 21.5001 638.5 25.9772 638.5 31.5001 638.5 37.0229 628.874 41.5001 617 41.5001 605.126 41.5001 595.5 37.0229 595.5 31.5001Z" stroke="#BFBFBF" stroke-width="1.33333" stroke-miterlimit="8" fill="#FFFFFF" fill-rule="evenodd"/><path d="M616.5 74.5001C616.5 68.9772 626.126 64.5001 638 64.5001 649.874 64.5001 659.5 68.9772 659.5 74.5001 659.5 80.0229 649.874 84.5001 638 84.5001 626.126 84.5001 616.5 80.0229 616.5 74.5001Z" stroke="#BFBFBF" stroke-width="1.33333" stroke-miterlimit="8" fill="#FFFFFF" fill-rule="evenodd"/><text font-family="Calibri,Calibri_MSFontService,sans-serif" font-weight="400" font-size="12" transform="translate(587.966 16)">softmax_...</text><path d="M636.762 65.1639 619.764 46.5928 621.239 45.2425 638.237 63.8135ZM618.451 49.6019 616 41 624.352 44.2004Z" fill="#A5A5A5"/><text font-family="IntelOne Display Regular,IntelOne Display Regular_MSFontService,sans-serif" font-weight="400" font-size="12" transform="translate(614.6 62)">BiasAdd</text><path d="M552.5 118.5C552.5 112.977 562.126 108.5 574 108.5 585.874 108.5 595.5 112.977 595.5 118.5 595.5 124.023 585.874 128.5 574 128.5 562.126 128.5 552.5 124.023 552.5 118.5Z" stroke="#BFBFBF" stroke-width="1.33333" stroke-miterlimit="8" fill="#FFFFFF" fill-rule="evenodd"/><path d="M572.003 107.42 572.259 104.227 572.977 100.96 574.213 97.7746 575.827 94.6756 577.825 91.7097 580.211 88.8725 585.818 83.6476 592.453 79.3094 599.846 75.9316 607.82 73.7627 609.268 73.6255 609.457 75.6166 608.094 75.7457 608.262 75.715 600.45 77.84 600.603 77.7847 593.353 81.0972 593.485 81.0246 586.985 85.2746 587.119 85.1692 581.619 90.2942 581.703 90.2062 579.39 92.9562 579.454 92.8715 577.517 95.7465 577.574 95.6495 576.012 98.6495 576.057 98.5491 574.87 101.612 574.914 101.465 574.227 104.59 574.247 104.455 573.997 107.58ZM607.662 70.7626 616 74.0001 608.407 78.7278Z" fill="#A5A5A5"/><text font-family="IntelOne Display Regular,IntelOne Display Regular_MSFontService,sans-serif" font-weight="400" font-size="12" transform="translate(553.9 105)">MatMul</text><path d="M706.5 168.5C706.5 162.977 715.902 158.5 727.5 158.5 739.098 158.5 748.5 162.977 748.5 168.5 748.5 174.023 739.098 178.5 727.5 178.5 715.902 178.5 706.5 174.023 706.5 168.5Z" stroke="#BFBFBF" stroke-width="1.33333" stroke-miterlimit="8" fill="#FFFFFF" fill-rule="evenodd"/><path d="M411.5 164.5C411.5 158.977 421.126 154.5 433 154.5 444.874 154.5 454.5 158.977 454.5 164.5 454.5 170.023 444.874 174.5 433 174.5 421.126 174.5 411.5 170.023 411.5 164.5Z" stroke="#BFBFBF" stroke-width="1.33333" stroke-miterlimit="8" fill="#FFFFFF" fill-rule="evenodd"/><path d="M431.019 154.364 431.74 150.759 433.884 147.141 437.208 143.622 441.697 140.287 447.219 137.05 453.601 134.017 460.91 131.118 469.019 128.478 477.748 125.967 487.165 123.769 497.072 121.825 507.365 120.131 528.981 117.813 540.088 117.185 544.63 117.109 544.663 119.109 540.142 119.184 540.181 119.183 529.119 119.808 529.169 119.804 507.607 122.116 507.662 122.109 497.412 123.796 497.442 123.791 487.567 125.728 487.602 125.721 478.227 127.908 478.276 127.896 469.589 130.396 469.622 130.385 461.56 133.01 461.619 132.989 454.369 135.864 454.429 135.838 448.117 138.838 448.193 138.797 442.756 141.985 442.846 141.925 438.471 145.175 438.602 145.059 435.414 148.434 435.548 148.257 433.548 151.632 433.668 151.318 432.981 154.756ZM543.247 114.132 551.312 117.997 543.381 122.131Z" fill="#A5A5A5"/><path d="M0.166858-0.985981 4.37003-0.274675 8.60213 1.77525 12.6912 5.08541 16.5958 9.43816 20.4073 14.8378 24.0125 21.1627 27.4176 28.3511 30.5644 36.2812 33.455 44.89 36.0924 54.058 38.4154 63.7898 40.361 73.9569 41.9293 84.4332 43.1215 95.1634 43.8118 106.145 43.9099 110.437 41.9104 110.483 41.8128 106.21 41.8145 106.25 41.127 95.3127 41.1311 95.3604 39.9436 84.6729 39.9485 84.7105 38.386 74.273 38.3928 74.3129 36.4553 64.1879 36.4648 64.2322 34.1523 54.5447 34.164 54.589 31.539 45.464 31.552 45.5058 28.677 36.9433 28.6955 36.9938 25.5705 29.1188 25.5963 29.1781 22.2213 22.0531 22.2562 22.1202 18.6937 15.8702 18.7455 15.9517 14.9955 10.6392 15.0681 10.7303 11.2556 6.48025 11.3708 6.58974 7.4333 3.40224 7.62657 3.52498 3.62657 1.58748 3.89564 1.67348-0.166858 0.985981ZM46.8786 109.036 43.0625 117.125 38.8807 109.218Z" fill="#A5A5A5" transform="matrix(-1.83697e-16 -1 -1 1.83697e-16 712.097 161.045)"/><text font-family="IntelOne Display Regular,IntelOne Display Regular_MSFontService,sans-serif" font-weight="400" font-size="12" transform="translate(405.943 151)">feature_s...</text><path d="M706.5 308.5C706.5 302.977 715.902 298.5 727.5 298.5 739.098 298.5 748.5 302.977 748.5 308.5 748.5 314.023 739.098 318.5 727.5 318.5 715.902 318.5 706.5 314.023 706.5 308.5Z" stroke="#BFBFBF" stroke-width="1.33333" stroke-miterlimit="8" fill="#FFFFFF" fill-rule="evenodd"/><path d="M1-8.77626e-07 1.0001 112.959-0.999901 112.959-1 8.77626e-07ZM4.0001 111.626 0.000104987 119.626-3.9999 111.626Z" fill="#A5A5A5" transform="matrix(1 0 0 -1 727 297.626)"/><path d="M673.5 168.5C673.5 166.291 675.067 164.5 677 164.5 678.933 164.5 680.5 166.291 680.5 168.5 680.5 170.709 678.933 172.5 677 172.5 675.067 172.5 673.5 170.709 673.5 168.5Z" stroke="#BFBFBF" stroke-width="1.33333" stroke-miterlimit="8" fill="#FFFFFF" fill-rule="evenodd"/><path d="M680 167 698.891 167 698.891 169 680 169ZM697.558 164 705.558 168 697.558 172Z" fill="#A5A5A5"/><text font-family="IntelOne Display Regular,IntelOne Display Regular_MSFontService,sans-serif" font-weight="400" font-size="11" transform="translate(644.516 170)">shape</text><path d="M673.5 308C673.5 306.067 675.067 304.5 677 304.5 678.933 304.5 680.5 306.067 680.5 308 680.5 309.933 678.933 311.5 677 311.5 675.067 311.5 673.5 309.933 673.5 308Z" stroke="#BFBFBF" stroke-width="1.33333" stroke-miterlimit="8" fill="#FFFFFF" fill-rule="evenodd"/><path d="M680 307 698.891 307 698.891 309 680 309ZM697.558 304 705.558 308 697.558 312Z" fill="#A5A5A5"/><text font-family="IntelOne Display Regular,IntelOne Display Regular_MSFontService,sans-serif" font-weight="400" font-size="11" transform="translate(615.116 310)">concat_dim</text><path d="M411.5 253C411.5 244.992 417.992 238.5 426 238.5L498 238.5C506.008 238.5 512.5 244.992 512.5 253L512.5 311C512.5 319.008 506.008 325.5 498 325.5L426 325.5C417.992 325.5 411.5 319.008 411.5 311Z" stroke="#BFBFBF" stroke-width="1.33333" stroke-miterlimit="8" fill="#E7E6E6" fill-rule="evenodd"/><text font-family="IntelOne Display Regular,IntelOne Display Regular_MSFontService,sans-serif" font-weight="400" font-size="24" transform="translate(439.48 290)">Istm</text><path d="M404.5 549C404.5 540.992 410.992 534.5 419 534.5L490 534.5C498.008 534.5 504.5 540.992 504.5 549L504.5 607C504.5 615.008 498.008 621.5 490 621.5L419 621.5C410.992 621.5 404.5 615.008 404.5 607Z" stroke="#BFBFBF" stroke-width="1.33333" stroke-miterlimit="8" fill="#E7E6E6" fill-rule="evenodd"/><text font-family="IntelOne Display Regular,IntelOne Display Regular_MSFontService,sans-serif" font-weight="400" font-size="12" transform="translate(417.413 583)">char_embed...</text><path d="M459.99 237.784 433.856 180.481 435.676 179.651 461.81 236.954ZM431.68 182.939 432 174 438.959 179.619Z" fill="#A5A5A5"/><path d="M268.5 390.167C268.5 386.485 271.485 383.5 275.167 383.5L372.833 383.5C376.515 383.5 379.5 386.485 379.5 390.167L379.5 416.833C379.5 420.515 376.515 423.5 372.833 423.5L275.167 423.5C271.485 423.5 268.5 420.515 268.5 416.833Z" stroke="#000000" stroke-width="1.33333" stroke-miterlimit="8" fill="#C4D600" fill-rule="evenodd"/><text font-family="IntelOne Display Regular,IntelOne Display Regular_MSFontService,sans-serif" font-weight="400" font-size="19" transform="translate(289.634 410)">Variable</text><path d="M544.5 390.167C544.5 386.485 547.485 383.5 551.167 383.5L649.833 383.5C653.515 383.5 656.5 386.485 656.5 390.167L656.5 416.833C656.5 420.515 653.515 423.5 649.833 423.5L551.167 423.5C547.485 423.5 544.5 420.515 544.5 416.833Z" stroke="#000000" stroke-width="1.33333" stroke-miterlimit="8" fill="#C4D600" fill-rule="evenodd"/><text font-family="IntelOne Display Regular,IntelOne Display Regular_MSFontService,sans-serif" font-weight="400" font-size="19" transform="translate(558.7 410)">Variable_1</text><path d="M476.5 403.5C476.5 397.977 486.126 393.5 498 393.5 509.874 393.5 519.5 397.977 519.5 403.5 519.5 409.023 509.874 413.5 498 413.5 486.126 413.5 476.5 409.023 476.5 403.5Z" stroke="#BFBFBF" stroke-width="1.33333" stroke-miterlimit="8" fill="#FFFFFF" fill-rule="evenodd"/><path d="M476.5 481.5C476.5 475.977 486.126 471.5 498 471.5 509.874 471.5 519.5 475.977 519.5 481.5 519.5 487.023 509.874 491.5 498 491.5 486.126 491.5 476.5 487.023 476.5 481.5Z" stroke="#BFBFBF" stroke-width="1.33333" stroke-miterlimit="8" fill="#FFFFFF" fill-rule="evenodd"/><path d="M496.415 393.518 475.215 331.631 477.107 330.983 498.307 392.87ZM472.809 333.865 474 325 480.377 331.272Z" fill="#A5A5A5"/><path d="M444.5 403C444.5 401.067 446.067 399.5 448 399.5 449.933 399.5 451.5 401.067 451.5 403 451.5 404.933 449.933 406.5 448 406.5 446.067 406.5 444.5 404.933 444.5 403Z" stroke="#BFBFBF" stroke-width="1.33333" stroke-miterlimit="8" fill="#FFFFFF" fill-rule="evenodd"/><path d="M451 402 469.378 402 469.378 404 451 404ZM468.045 399 476.045 403 468.045 407Z" fill="#A5A5A5"/><path d="M444.5 482C444.5 480.067 446.067 478.5 448 478.5 449.933 478.5 451.5 480.067 451.5 482 451.5 483.933 449.933 485.5 448 485.5 446.067 485.5 444.5 483.933 444.5 482Z" stroke="#BFBFBF" stroke-width="1.33333" stroke-miterlimit="8" fill="#FFFFFF" fill-rule="evenodd"/><path d="M451 480 469.378 480 469.378 482 451 482ZM468.045 477 476.045 481 468.045 485Z" fill="#A5A5A5"/><text font-family="IntelOne Display Regular,IntelOne Display Regular_MSFontService,sans-serif" font-weight="400" font-size="11" transform="translate(402.129 405)">split_dim<tspan font-size="11" x="14.3303" y="78">shape</tspan></text><path d="M1-1.80407e-06 1.00009 51.5278-0.999907 51.5278-1 1.80407e-06ZM4.00009 50.1944 0.000104987 58.1944-3.99991 50.1944Z" fill="#A5A5A5" transform="matrix(1 0 0 -1 498 471.194)"/><path d="M0.701315-0.712851 39.7919 37.7451 38.3893 39.1708-0.701315 0.712851ZM40.9454 34.6715 43.8429 43.1334 35.3349 40.3743Z" fill="#A5A5A5" transform="matrix(1 0 0 -1 454 534.133)"/><path d="M0.981477-0.191581 11.3832 53.097 9.42026 53.4802-0.981477 0.191581ZM14.0722 51.2137 11.6789 59.8318 6.2204 52.7463Z" fill="#A5A5A5" transform="matrix(1 0 0 -1 442 680.832)"/><text font-family="IntelOne Display Regular,IntelOne Display Regular_MSFontService,sans-serif" font-weight="400" font-size="12" transform="translate(473.333 390)">all_embs...<tspan font-size="12" x="2.36145" y="78">Reshape</tspan><tspan font-size="12" x="-53.3573" y="286">char_inp...</tspan></text><path d="M722.5 390.167C722.5 386.485 725.485 383.5 729.167 383.5L826.833 383.5C830.515 383.5 833.5 386.485 833.5 390.167L833.5 416.833C833.5 420.515 830.515 423.5 826.833 423.5L729.167 423.5C725.485 423.5 722.5 420.515 722.5 416.833Z" stroke="#BFBFBF" stroke-width="1.33333" stroke-miterlimit="8" fill="#E7E6E6" fill-rule="evenodd"/><text font-family="IntelOne Display Regular,IntelOne Display Regular_MSFontService,sans-serif" font-weight="400" font-size="19" transform="translate(745.42 410)">softmax</text><text font-family="IntelOne Display Regular,IntelOne Display Regular_MSFontService,sans-serif" font-weight="400" font-size="8" transform="matrix(0.284936 0.958547 -0.958547 0.284936 736.43 339)">8 tensors</text><text font-family="IntelOne Display Regular,IntelOne Display Regular_MSFontService,sans-serif" font-weight="400" font-size="8" transform="matrix(0.652178 0.758066 -0.758066 0.652178 543.458 279)">3 tensors</text><text font-family="IntelOne Display Regular,IntelOne Display Regular_MSFontService,sans-serif" font-weight="400" font-size="8" transform="matrix(0.775552 -0.631284 0.631284 0.775552 360.189 300)">3 tensors</text><text font-family="IntelOne Display Regular,IntelOne Display Regular_MSFontService,sans-serif" font-weight="400" font-size="12" transform="translate(699.922 155)">Reshape_3<tspan font-size="12" x="11.1452" y="140">concat</tspan></text></g></svg>