<svg width="2912" height="1968" xmlns="http://www.w3.org/2000/svg" xmlns:xlink="http://www.w3.org/1999/xlink" overflow="hidden"><defs><clipPath id="clip0"><rect x="0" y="0" width="2912" height="1968"/></clipPath></defs><g clip-path="url(#clip0)"><rect x="0" y="0" width="2912" height="1968" fill="#FFFFFF"/><text font-family="IntelOne Display Regular,IntelOne Display Regular_MSFontService,sans-serif" font-weight="400" font-size="28" transform="translate(1868.86 564)">(0)     <tspan font-size="28" x="81" y="0">(1)</tspan></text><path d="M1220.5 97.6677C1220.5 73.2746 1240.27 53.5001 1264.67 53.5001L1686.33 53.5001C1710.73 53.5001 1730.5 73.2746 1730.5 97.6677L1730.5 274.332C1730.5 298.725 1710.73 318.5 1686.33 318.5L1264.67 318.5C1240.27 318.5 1220.5 298.725 1220.5 274.332Z" stroke="#000000" stroke-width="1.33333" stroke-miterlimit="8" fill="#FFFFFF" fill-rule="evenodd"/><path d="M1231.5 53.5001 1719.5 53.5001C1725.57 53.5001 1730.5 58.4251 1730.5 64.5004L1730.5 119.5 1220.5 119.5 1220.5 64.5004C1220.5 58.4251 1225.43 53.5001 1231.5 53.5001Z" stroke="#000000" stroke-width="1.33333" stroke-miterlimit="8" fill-rule="evenodd"/><text fill="#FFFFFF" font-family="IntelOne Display Regular,IntelOne Display Regular_MSFontService,sans-serif" font-weight="400" font-size="39" transform="translate(1414.71 102)">Iterator</text><path d="M1200.5 621.834C1200.5 594.588 1222.59 572.5 1249.83 572.5L1630.17 572.5C1657.41 572.5 1679.5 594.588 1679.5 621.834L1679.5 819.166C1679.5 846.412 1657.41 868.5 1630.17 868.5L1249.83 868.5C1222.59 868.5 1200.5 846.412 1200.5 819.166Z" stroke="#000000" stroke-width="1.33333" stroke-miterlimit="8" fill="#FFFFFF" fill-rule="evenodd"/><path d="M1212 572.5 1668 572.5C1674.35 572.5 1679.5 577.649 1679.5 584L1679.5 641.5 1200.5 641.5 1200.5 584C1200.5 577.649 1205.65 572.5 1212 572.5Z" stroke="#000000" stroke-width="1.33333" stroke-miterlimit="8" fill-rule="evenodd"/><path d="M1200.5 978.168C1200.5 959.573 1215.57 944.5 1234.17 944.5L1649.83 944.5C1668.43 944.5 1683.5 959.573 1683.5 978.168L1683.5 1112.83C1683.5 1131.43 1668.43 1146.5 1649.83 1146.5L1234.17 1146.5C1215.57 1146.5 1200.5 1131.43 1200.5 1112.83Z" stroke="#000000" stroke-width="1.33333" stroke-miterlimit="8" fill="#FFFFFF" fill-rule="evenodd"/><path d="M1210.5 944.5 1672.5 944.5C1678.58 944.5 1683.5 949.425 1683.5 955.5L1683.5 1010.5 1199.5 1010.5 1199.5 955.5C1199.5 949.425 1204.42 944.5 1210.5 944.5Z" stroke="#000000" stroke-width="1.33333" stroke-miterlimit="8" fill-rule="evenodd"/><path d="M1667.5 369.334C1667.5 356.723 1677.72 346.5 1690.33 346.5L2001.67 346.5C2014.28 346.5 2024.5 356.723 2024.5 369.334L2024.5 460.666C2024.5 473.277 2014.28 483.5 2001.67 483.5L1690.33 483.5C1677.72 483.5 1667.5 473.277 1667.5 460.666Z" stroke="#000000" stroke-width="1.33333" stroke-miterlimit="8" fill="#FFFFFF" fill-rule="evenodd"/><text font-family="IntelOne Display Regular,IntelOne Display Regular_MSFontService,sans-serif" font-weight="400" font-size="32" transform="translate(1683.04 465)">_output_shapes = []</text><path d="M1678.67 346.5 2013.33 346.5C2019.5 346.5 2024.5 351.5 2024.5 357.667L2024.5 413.5 1667.5 413.5 1667.5 357.667C1667.5 351.5 1672.5 346.5 1678.67 346.5Z" stroke="#000000" stroke-width="1.33333" stroke-miterlimit="8" fill-rule="evenodd"/><text fill="#FFFFFF" font-family="IntelOne Display Regular,IntelOne Display Regular_MSFontService,sans-serif" font-weight="400" font-size="32" transform="translate(1679.59 393)">IteratorGetDevice</text><path d="M790.5 390.334C790.5 383.798 795.798 378.5 802.334 378.5L1354.67 378.5C1361.2 378.5 1366.5 383.798 1366.5 390.334L1366.5 437.666C1366.5 444.202 1361.2 449.5 1354.67 449.5L802.334 449.5C795.798 449.5 790.5 444.202 790.5 437.666Z" stroke="#000000" stroke-width="1.33333" stroke-miterlimit="8" fill="#FFFFFF" fill-rule="evenodd"/><text font-family="IntelOne Display Regular,IntelOne Display Regular_MSFontService,sans-serif" font-weight="400" font-size="28" transform="translate(1146.04 423)">resource_handle </text><path d="M0 0 327.167 0C333.702-2.69746e-15 339 5.29805 339 11.8335L339 71 0 71Z" stroke="#000000" stroke-width="1.33333" stroke-miterlimit="8" fill-rule="evenodd" transform="matrix(-1 0 0 1 1120.5 378.5)"/><text fill="#FFFFFF" font-family="IntelOne Display Regular,IntelOne Display Regular_MSFontService,sans-serif" font-weight="400" font-size="28" transform="translate(813.3 424)">IteratorToStringHandle</text><path d="M977.5 1260.33C977.5 1253.8 982.798 1248.5 989.334 1248.5L1176.67 1248.5C1183.2 1248.5 1188.5 1253.8 1188.5 1260.33L1188.5 1307.67C1188.5 1314.2 1183.2 1319.5 1176.67 1319.5L989.334 1319.5C982.798 1319.5 977.5 1314.2 977.5 1307.67Z" stroke="#000000" stroke-width="1.33333" stroke-miterlimit="8" fill="#FFFFFF" fill-rule="evenodd"/><path d="M0 0 131.166 0C137.702-2.27573e-15 143 5.2981 143 11.8336L143 71 0 71Z" stroke="#000000" stroke-width="1.33333" stroke-miterlimit="8" fill-rule="evenodd" transform="matrix(-1 0 0 1 1120.5 1248.5)"/><text fill="#FFFFFF" font-family="IntelOne Display Regular,IntelOne Display Regular_MSFontService,sans-serif" font-weight="400" font-size="35" transform="translate(1014.78 1296)">Cast</text><path d="M979.5 1441.33C979.5 1434.8 984.798 1429.5 991.333 1429.5L1184.67 1429.5C1191.2 1429.5 1196.5 1434.8 1196.5 1441.33L1196.5 1488.67C1196.5 1495.2 1191.2 1500.5 1184.67 1500.5L991.333 1500.5C984.798 1500.5 979.5 1495.2 979.5 1488.67Z" stroke="#000000" stroke-width="1.33333" stroke-miterlimit="8" fill="#FFFFFF" fill-rule="evenodd"/><path d="M0 0 122.166 0C128.702-2.1325e-15 134 5.29808 134 11.8336L134 71 0 71Z" stroke="#000000" stroke-width="1.33333" stroke-miterlimit="8" fill="#E9E9E9" fill-rule="evenodd" transform="matrix(-1 0 0 1 1113.5 1429.5)"/><path d="M1646.5 1441.33C1646.5 1434.8 1651.8 1429.5 1658.33 1429.5L1855.67 1429.5C1862.2 1429.5 1867.5 1434.8 1867.5 1441.33L1867.5 1488.67C1867.5 1495.2 1862.2 1500.5 1855.67 1500.5L1658.33 1500.5C1651.8 1500.5 1646.5 1495.2 1646.5 1488.67Z" stroke="#000000" stroke-width="1.33333" stroke-miterlimit="8" fill="#FFFFFF" fill-rule="evenodd"/><path d="M0 0 130.166 0C136.702-2.25981e-15 142 5.2981 142 11.8336L142 71 0 71Z" stroke="#000000" stroke-width="1.33333" stroke-miterlimit="8" fill="#E9E9E9" fill-rule="evenodd" transform="matrix(-1 0 0 1 1788.5 1429.5)"/><path d="M130.5 1793.33C130.5 1786.8 135.798 1781.5 142.334 1781.5L694.666 1781.5C701.202 1781.5 706.5 1786.8 706.5 1793.33L706.5 1840.67C706.5 1847.2 701.202 1852.5 694.666 1852.5L142.334 1852.5C135.798 1852.5 130.5 1847.2 130.5 1840.67Z" stroke="#000000" stroke-width="1.33333" stroke-miterlimit="8" fill="#FFFFFF" fill-rule="evenodd"/><path d="M0 0 274.167 0C280.702-2.27573e-15 286 5.29803 286 11.8335L286 71 0 71Z" stroke="#000000" stroke-width="1.33333" stroke-miterlimit="8" fill-rule="evenodd" transform="matrix(-1 0 0 1 416.5 1781.5)"/><rect x="416.5" y="1781.5" width="159" height="71" stroke="#000000" stroke-width="1.33333" stroke-miterlimit="8" fill="#E9E9E9"/><text font-family="IntelOne Display Regular,IntelOne Display Regular_MSFontService,sans-serif" font-weight="400" font-size="32" transform="translate(1236.02 164)">output shapes = [[7,1], [7,1],[7,1]]<tspan font-size="32" x="0" y="38">container = ””</tspan><tspan font-size="32" x="0" y="76">output types = [int64, int64, int64]</tspan><tspan font-size="32" x="0" y="114">shared name = ””</tspan></text><path d="M1730.05 184.001 1735.52 184.253 1740.98 184.951 1746.43 186.092 1751.81 187.675 1757.19 189.636 1762.51 192.041 1767.75 194.883 1772.93 198.043 1782.95 205.349 1792.52 214.038 1801.64 223.852 1810.13 234.792 1817.92 246.606 1824.96 259.298 1831.11 272.678 1836.32 286.62 1840.6 301.069 1843.67 315.896 1845.62 330.913 1846.01 339.42 1844.01 339.511 1843.63 331.045 1843.63 331.129 1841.7 316.191 1841.71 316.266 1838.65 301.516 1838.67 301.596 1834.42 287.221 1834.44 287.288 1829.25 273.413 1829.28 273.48 1823.15 260.168 1823.19 260.235 1816.19 247.61 1816.23 247.676 1808.48 235.926 1808.52 235.988 1800.08 225.113 1800.14 225.181 1791.08 215.431 1791.14 215.49 1781.64 206.865 1781.72 206.933 1771.79 199.683 1771.85 199.729 1766.73 196.604 1766.77 196.629 1761.59 193.817 1761.65 193.849 1756.4 191.474 1756.47 191.502 1751.16 189.564 1751.22 189.584 1745.91 188.022 1745.98 188.041 1740.61 186.916 1740.69 186.929 1735.31 186.242 1735.39 186.249 1729.95 185.999ZM1848.95 337.952 1845.31 346.125 1840.95 338.315Z"/><text font-family="IntelOne Display Regular,IntelOne Display Regular_MSFontService,sans-serif" font-weight="400" font-size="28" transform="translate(1848.13 277)">handle     <tspan font-size="28" x="124.667" y="0">(0)</tspan></text><path d="M1943.5 261.25 1953 261.25 1953 256.5 1962.5 266 1953 275.5 1953 270.75 1943.5 270.75Z" stroke="#000000" stroke-width="0.333333" stroke-miterlimit="8" fill-rule="evenodd"/><text font-family="IntelOne Display Regular,IntelOne Display Regular_MSFontService,sans-serif" font-weight="400" font-size="28" transform="translate(747.795 294)">h<tspan font-size="28" x="15.6667" y="0">andle</tspan><tspan font-size="28" x="129.833" y="0">resource_handle</tspan></text><path d="M0.0373571-0.999302 6.77123-0.747569 13.5363 0.137584 20.2966 1.46436 26.9329 3.36045 33.5565 5.75759 40.1153 8.59551 46.6096 11.9372 52.9686 15.7149 59.2641 19.8699 65.3687 24.464 71.4055 29.4318 77.2618 34.7844 88.5025 46.5275 98.9912 59.5912 108.66 73.7183 117.323 88.847 124.98 104.788 131.508 121.485 136.719 138.749 140.545 156.439 141.991 165.365 142.997 174.414 143.562 183.455 143.627 185.808 141.628 185.864 141.563 183.528 141.564 183.562 141.002 174.562 141.006 174.61 140.006 165.61 140.013 165.66 138.575 156.785 138.585 156.836 134.773 139.211 134.793 139.289 129.605 122.101 129.631 122.177 123.131 105.552 123.161 105.62 115.536 89.7455 115.57 89.8094 106.945 74.7469 106.987 74.8148 97.3623 60.7523 97.4077 60.8136 86.9702 47.8136 87.0276 47.879 75.8401 36.1915 75.8879 36.2381 70.0754 30.9256 70.1146 30.9597 64.1146 26.0222 64.1487 26.049 58.0862 21.4865 58.1367 21.5221 51.8867 17.3971 51.9268 17.4222 45.6143 13.6722 45.6675 13.7017 39.23 10.3892 39.2904 10.4178 32.7904 7.60527 32.8472 7.62781 26.2847 5.25282 26.3503 5.27402 19.7878 3.39902 19.8699 3.41878 13.1824 2.10628 13.2453 2.11655 6.55776 1.24155 6.65014 1.2493-0.0373571 0.999302ZM146.589 184.392 142.812 192.5 138.592 184.614Z" transform="matrix(-1 1.22465e-16 1.22465e-16 1 1220.79 185)"/><path d="M842.5 280.5 852 280.5 852 275.5 861.5 285.5 852 295.5 852 290.5 842.5 290.5Z" stroke="#000000" stroke-width="0.333333" stroke-miterlimit="8" fill-rule="evenodd"/><path d="M1951.5 346.5 2013.33 346.5C2019.5 346.5 2024.5 351.5 2024.5 357.667L2024.5 413.5 1951.5 413.5Z" stroke="#000000" stroke-width="1.33333" stroke-miterlimit="8" fill="#FFFFFF" fill-rule="evenodd"/><path d="M1846.21 483.023 1845.96 494.105 1845.27 505.21 1844.08 516.252 1842.45 527.226 1840.44 538.141 1837.93 548.929 1835.11 559.589 1831.85 570.072 1824.33 590.505 1815.42 610.134 1805.32 628.637 1794.1 646.006 1788.07 654.172 1781.86 661.952 1775.45 669.36 1768.8 676.329 1762.02 682.925 1754.98 689.019 1747.87 694.677 1740.58 699.773 1733.15 704.366 1725.6 708.457 1717.98 711.985 1710.28 714.885 1702.52 717.22 1694.69 718.862 1685.75 719.961 1685.5 717.976 1694.4 716.882 1694.32 716.896 1702.07 715.271 1701.99 715.292 1709.68 712.98 1709.61 713.002 1717.24 710.127 1717.17 710.155 1724.73 706.655 1724.67 706.683 1732.17 702.621 1732.13 702.65 1739.5 698.087 1739.45 698.118 1746.7 693.055 1746.65 693.093 1753.72 687.468 1753.68 687.494 1760.68 681.432 1760.64 681.47 1767.39 674.908 1767.37 674.934 1773.99 667.997 1773.96 668.034 1780.33 660.659 1780.31 660.689 1786.49 652.939 1786.47 652.968 1792.47 644.843 1792.44 644.895 1803.62 627.582 1803.59 627.646 1813.65 609.208 1813.62 609.274 1822.49 589.712 1822.46 589.78 1829.96 569.405 1829.95 569.453 1833.2 559.015 1833.18 559.057 1836 548.432 1835.99 548.461 1838.49 537.711 1838.48 537.757 1840.48 526.882 1840.47 526.916 1842.1 515.978 1842.09 516.018 1843.28 505.018 1843.28 505.063 1843.97 494 1843.96 494.04 1844.21 482.977ZM1687.13 722.909 1678.96 719.25 1686.79 714.916Z"/><path d="M1917.5 549.25 1926.5 549.25 1926.5 544.5 1935.5 554 1926.5 563.5 1926.5 558.75 1917.5 558.75Z" stroke="#000000" stroke-width="0.333333" stroke-miterlimit="8" fill-rule="evenodd"/><path d="M0.0270172-0.999635 25.4893-0.311465 50.7894 1.62988 75.7137 4.8237 100.012 9.14478 123.497 14.5307 146.045 20.8568 167.339 28.059 177.496 31.9463 187.271 36.0193 196.676 40.2203 205.648 44.6746 214.116 49.2535 222.146 53.959 229.746 58.7952 236.724 63.7617 243.201 68.8547 249.118 74.0169 254.48 79.3151 259.154 84.6848 263.203 90.1256 266.567 95.5834 269.238 101.18 271.219 106.804 272.054 111.318 270.087 111.682 269.267 107.244 269.307 107.395 267.369 101.895 267.41 101.993 264.785 96.4932 264.836 96.5871 261.524 91.2121 261.573 91.2845 257.573 85.9095 257.621 85.9691 252.996 80.6566 253.047 80.7113 247.735 75.4613 247.78 75.5036 241.905 70.3786 241.944 70.4111 235.507 65.3486 235.545 65.3772 228.608 60.4397 228.651 60.4687 221.088 55.6562 221.119 55.6753 213.119 50.9878 213.149 51.0046 204.712 46.4421 204.743 46.4582 195.805 42.0207 195.842 42.0381 186.467 37.8506 186.49 37.8606 176.74 33.7981 176.768 33.8089 166.643 29.9339 166.68 29.9473 145.43 22.7598 145.48 22.7753 122.98 16.4628 123.026 16.4747 99.589 11.0997 99.6374 11.1096 75.3874 6.79705 75.4354 6.80439 50.5604 3.61689 50.611 3.62207 25.361 1.68457 25.4105 1.68713-0.0270172 0.999635ZM274.897 109.729 271.812 118.125 266.947 110.62Z" transform="matrix(1.83697e-16 1 1 -1.83697e-16 1082 448)"/><text font-family="IntelOne Display Regular,IntelOne Display Regular_MSFontService,sans-serif" font-weight="400" font-size="28" transform="translate(818.243 564)">string_handle      <tspan font-size="28" x="207.833" y="0">(0)</tspan></text><path d="M998.5 548.5 1007.5 548.5 1007.5 543.5 1016.5 553.5 1007.5 563.5 1007.5 558.5 998.5 558.5Z" stroke="#000000" stroke-width="0.333333" stroke-miterlimit="8" fill-rule="evenodd"/><path d="M1629.5 572.5 1671.17 572.5C1675.77 572.5 1679.5 576.231 1679.5 580.834L1679.5 641.5 1629.5 641.5Z" stroke="#000000" stroke-width="1.33333" stroke-miterlimit="8" fill="#FFFFFF" fill-rule="evenodd"/><rect x="1581.5" y="572.5" width="50" height="69" stroke="#000000" stroke-width="1.33333" stroke-miterlimit="8" fill="#FFFFFF"/><text font-family="IntelOne Display Regular,IntelOne Display Regular_MSFontService,sans-serif" font-weight="400" font-size="26" transform="translate(1587.61 619)">(0)   <tspan font-size="26" x="56.5" y="0">(1)</tspan><tspan fill="#FFFFFF" font-size="28" x="-374.038" y="0">FunctionBufferingResource</tspan><tspan font-size="28" x="-369.566" y="59">output_types = [int64, int64, int64]</tspan><tspan font-size="28" x="-369.566" y="93">_output_shapes = [[.]] </tspan><tspan font-size="28" x="-369.566" y="127">shared_name = ””</tspan><tspan font-size="28" x="-369.566" y="161">buffer_size = 1 </tspan><tspan font-size="28" x="-369.566" y="195">f = </tspan><tspan font-size="28" x="-369.566" y="228">container = ””</tspan></text><path d="M1441 867.983 1442.19 937.374 1440.19 937.408 1439 868.017ZM1445.16 935.99 1441.3 944.057 1437.16 936.126Z"/><text font-family="IntelOne Display Regular,IntelOne Display Regular_MSFontService,sans-serif" font-weight="400" font-size="28" transform="translate(1449.25 913)">(0)     <tspan font-size="28" x="75.8334" y="0">(0)</tspan></text><path d="M1496.5 898.5 1505.5 898.5 1505.5 893.5 1514.5 903.5 1505.5 913.5 1505.5 908.5 1496.5 908.5Z" stroke="#000000" stroke-width="0.333333" stroke-miterlimit="8" fill-rule="evenodd"/><path d="M1626.5 944.5 1673.17 944.5C1678.32 944.5 1682.5 948.679 1682.5 953.834L1682.5 1010.5 1626.5 1010.5Z" stroke="#000000" stroke-width="1.33333" stroke-miterlimit="8" fill="#FFFFFF" fill-rule="evenodd"/><text fill="#FFFFFF" font-family="IntelOne Display Regular,IntelOne Display Regular_MSFontService,sans-serif" font-weight="400" font-size="26" transform="translate(1205.09 986)">FunctionBufferingResourceGetNext<tspan fill="#000000" font-size="28" x="430.48" y="0">(0)</tspan><tspan fill="#000000" font-size="28" x="8.47827" y="69">_output_shapes = [[7,1], [7,1], [7,1]]</tspan><tspan fill="#000000" font-size="28" x="8.47827" y="103">output_types = [int64, int64, int64]</tspan></text><path d="M1683.09 1044 1686.61 1044.32 1690.14 1045.24 1693.64 1046.73 1697.12 1048.79 1700.58 1051.35 1703.96 1054.48 1707.26 1058.03 1710.54 1062.08 1713.77 1066.56 1716.92 1071.48 1720 1076.83 1722.96 1082.56 1725.85 1088.65 1728.67 1095.12 1734.07 1109.04 1738.96 1124.15 1743.41 1140.32 1747.29 1157.36 1750.61 1175.15 1753.24 1193.56 1755.25 1212.42 1756.44 1231.58 1756.72 1244.25 1754.72 1244.3 1754.44 1231.65 1754.44 1231.69 1753.25 1212.56 1753.26 1212.61 1751.26 1193.79 1751.26 1193.83 1748.64 1175.45 1748.64 1175.5 1745.33 1157.75 1745.34 1157.78 1741.46 1140.78 1741.47 1140.83 1737.04 1124.7 1737.05 1124.75 1732.17 1109.68 1732.19 1109.74 1726.82 1095.86 1726.83 1095.9 1724.02 1089.46 1724.03 1089.49 1721.16 1083.43 1721.17 1083.46 1718.24 1077.77 1718.26 1077.81 1715.2 1072.5 1715.22 1072.54 1712.1 1067.66 1712.13 1067.71 1708.94 1063.27 1708.97 1063.32 1705.72 1059.32 1705.77 1059.37 1702.52 1055.87 1702.57 1055.92 1699.26 1052.86 1699.34 1052.93 1695.97 1050.43 1696.05 1050.49 1692.68 1048.49 1692.8 1048.55 1689.42 1047.11 1689.56 1047.16 1686.19 1046.28 1686.35 1046.31 1682.91 1046ZM1759.69 1242.85 1755.88 1250.94 1751.69 1243.03Z"/><path d="M0.058722-0.998274 5.42342-0.682704 10.8374 0.20901 16.2418 1.67138 21.5764 3.64009 26.9059 6.17796 32.0977 9.21707 37.277 12.7541 42.3892 16.7303 47.3733 21.1466 52.2248 25.9981 57.0052 31.2817 61.7282 36.9493 70.6468 49.3222 78.9984 63.0742 86.6551 78.0109 93.5553 94.007 99.6382 110.876 104.843 128.497 108.982 146.683 112.054 165.369 113.936 184.307 114.384 196.739 112.385 196.811 111.938 184.411 111.942 184.474 110.067 165.599 110.076 165.662 107.013 147.037 107.025 147.097 102.9 128.972 102.916 129.033 97.7285 111.471 97.7468 111.527 91.6843 94.7142 91.7068 94.7711 84.8318 78.8336 84.8601 78.8937 77.2351 64.0187 77.2703 64.0816 68.9578 50.3941 69.0013 50.4597 60.1263 38.1472 60.1693 38.2027 55.4818 32.5777 55.5085 32.6084 50.7585 27.3584 50.7929 27.3946 45.9804 22.5821 46.0243 22.6235 41.0868 18.2485 41.1361 18.2894 36.0736 14.3519 36.1235 14.3883 30.9985 10.8883 31.0573 10.9255 25.9323 7.92551 26.0076 7.96536 20.7576 5.46536 20.8413 5.50065 15.5913 3.56315 15.6763 3.59029 10.3638 2.15279 10.4625 2.17421 5.14998 1.29921 5.25378 1.31077-0.058722 0.998274ZM117.334 195.299 113.625 203.437 109.339 195.587Z" transform="matrix(-1 1.22465e-16 1.22465e-16 1 1199.58 1045)"/><text font-family="IntelOne Display Regular,IntelOne Display Regular_MSFontService,sans-serif" font-weight="400" font-size="28" transform="translate(1758.5 1162)">(0)<tspan font-size="28" x="75.8333" y="0">X</tspan><tspan font-size="28" x="-773.72" y="1">(1)     </tspan><tspan font-size="28" x="-702.553" y="1">X</tspan></text><path d="M1026.5 1146.25 1035.5 1146.25 1035.5 1141.5 1044.5 1151 1035.5 1160.5 1035.5 1155.75 1026.5 1155.75Z" stroke="#000000" stroke-width="0.333333" stroke-miterlimit="8" fill-rule="evenodd"/><path d="M1807.5 1146.25 1816.5 1146.25 1816.5 1141.5 1825.5 1151 1816.5 1160.5 1816.5 1155.75 1807.5 1155.75Z" stroke="#000000" stroke-width="0.333333" stroke-miterlimit="8" fill-rule="evenodd"/><path d="M1645.5 1262.17C1645.5 1255.72 1650.72 1250.5 1657.17 1250.5L1844.83 1250.5C1851.28 1250.5 1856.5 1255.72 1856.5 1262.17L1856.5 1308.83C1856.5 1315.28 1851.28 1320.5 1844.83 1320.5L1657.17 1320.5C1650.72 1320.5 1645.5 1315.28 1645.5 1308.83Z" stroke="#000000" stroke-width="1.33333" stroke-miterlimit="8" fill="#FFFFFF" fill-rule="evenodd"/><path d="M0 0 131.333 0C137.777-2.27573e-15 143 5.22346 143 11.6669L143 70 0 70Z" stroke="#000000" stroke-width="1.33333" stroke-miterlimit="8" fill-rule="evenodd" transform="matrix(-1 0 0 1 1788.5 1250.5)"/><text fill="#FFFFFF" font-family="IntelOne Display Regular,IntelOne Display Regular_MSFontService,sans-serif" font-weight="400" font-size="35" transform="translate(1682.38 1298)">Cast</text><path d="M1087 1319 1087 1422.3 1085 1422.3 1085 1319ZM1090 1420.97 1086 1428.97 1082 1420.97Z"/><text font-family="IntelOne Display Regular,IntelOne Display Regular_MSFontService,sans-serif" font-weight="400" font-size="28" transform="translate(995.532 1476)">Identity   <tspan font-size="28" x="132.5" y="0">Input</tspan><tspan font-size="28" x="676.694" y="-1">Identity </tspan><tspan font-size="28" x="798.86" y="-1">Input</tspan></text><path d="M1757 1319 1757 1422.3 1755 1422.3 1755 1319ZM1760 1420.97 1756 1428.97 1752 1420.97Z"/><text font-family="IntelOne Display Regular,IntelOne Display Regular_MSFontService,sans-serif" font-weight="400" font-size="28" transform="translate(1100.74 1369)">y     <tspan font-size="28" x="55.8334" y="0">Input</tspan></text><path d="M1125.5 1357.5 1134.5 1357.5 1134.5 1352.5 1143.5 1362.5 1134.5 1372.5 1134.5 1367.5 1125.5 1367.5Z" stroke="#000000" stroke-width="0.333333" stroke-miterlimit="8" fill-rule="evenodd"/><text font-family="IntelOne Display Regular,IntelOne Display Regular_MSFontService,sans-serif" font-weight="400" font-size="28" transform="translate(1770.79 1372)">y     <tspan font-size="28" x="55.8334" y="0">Input</tspan></text><path d="M1797.5 1356.25 1806.5 1356.25 1806.5 1351.5 1815.5 1361 1806.5 1370.5 1806.5 1365.75 1797.5 1365.75Z" stroke="#000000" stroke-width="0.333333" stroke-miterlimit="8" fill-rule="evenodd"/><path d="M979.5 1599.33C979.5 1592.8 984.798 1587.5 991.334 1587.5L1179.67 1587.5C1186.2 1587.5 1191.5 1592.8 1191.5 1599.33L1191.5 1646.67C1191.5 1653.2 1186.2 1658.5 1179.67 1658.5L991.334 1658.5C984.798 1658.5 979.5 1653.2 979.5 1646.67Z" stroke="#000000" stroke-width="1.33333" stroke-miterlimit="8" fill="#FFFFFF" fill-rule="evenodd"/><path d="M0 0 132.166 0C138.702-2.29164e-15 144 5.29806 144 11.8335L144 71 0 71Z" stroke="#000000" stroke-width="1.33333" stroke-miterlimit="8" fill-rule="evenodd" transform="matrix(-1 0 0 1 1123.5 1587.5)"/><text fill="#FFFFFF" font-family="IntelOne Display Regular,IntelOne Display Regular_MSFontService,sans-serif" font-weight="400" font-size="35" transform="translate(1017.22 1635)">Cast</text><path d="M312.5 1599.33C312.5 1592.8 317.798 1587.5 324.334 1587.5L512.666 1587.5C519.202 1587.5 524.5 1592.8 524.5 1599.33L524.5 1646.67C524.5 1653.2 519.202 1658.5 512.666 1658.5L324.334 1658.5C317.798 1658.5 312.5 1653.2 312.5 1646.67Z" stroke="#000000" stroke-width="1.33333" stroke-miterlimit="8" fill="#FFFFFF" fill-rule="evenodd"/><path d="M0 0 132.166 0C138.702-2.29164e-15 144 5.29806 144 11.8335L144 71 0 71Z" stroke="#000000" stroke-width="1.33333" stroke-miterlimit="8" fill-rule="evenodd" transform="matrix(-1 0 0 1 456.5 1587.5)"/><text fill="#FFFFFF" font-family="IntelOne Display Regular,IntelOne Display Regular_MSFontService,sans-serif" font-weight="400" font-size="35" transform="translate(350.314 1635)">Cast</text><path d="M1645.5 1598.33C1645.5 1591.8 1650.8 1586.5 1657.33 1586.5L1844.67 1586.5C1851.2 1586.5 1856.5 1591.8 1856.5 1598.33L1856.5 1645.67C1856.5 1652.2 1851.2 1657.5 1844.67 1657.5L1657.33 1657.5C1650.8 1657.5 1645.5 1652.2 1645.5 1645.67Z" stroke="#000000" stroke-width="1.33333" stroke-miterlimit="8" fill="#FFFFFF" fill-rule="evenodd"/><path d="M0 0 131.166 0C137.702-2.27573e-15 143 5.2981 143 11.8336L143 71 0 71Z" stroke="#000000" stroke-width="1.33333" stroke-miterlimit="8" fill-rule="evenodd" transform="matrix(-1 0 0 1 1788.5 1586.5)"/><text fill="#FFFFFF" font-family="IntelOne Display Regular,IntelOne Display Regular_MSFontService,sans-serif" font-weight="400" font-size="35" transform="translate(1682.38 1634)">Cast</text><path d="M2316.5 1599.33C2316.5 1592.8 2321.8 1587.5 2328.33 1587.5L2516.67 1587.5C2523.2 1587.5 2528.5 1592.8 2528.5 1599.33L2528.5 1646.67C2528.5 1653.2 2523.2 1658.5 2516.67 1658.5L2328.33 1658.5C2321.8 1658.5 2316.5 1653.2 2316.5 1646.67Z" stroke="#000000" stroke-width="1.33333" stroke-miterlimit="8" fill="#FFFFFF" fill-rule="evenodd"/><path d="M0 0 131.166 0C137.702-2.27573e-15 143 5.2981 143 11.8336L143 71 0 71Z" stroke="#000000" stroke-width="1.33333" stroke-miterlimit="8" fill-rule="evenodd" transform="matrix(-1 0 0 1 2459.5 1587.5)"/><text fill="#FFFFFF" font-family="IntelOne Display Regular,IntelOne Display Regular_MSFontService,sans-serif" font-weight="400" font-size="35" transform="translate(2354.04 1635)">Cast</text><path d="M0.0123447-0.999924 55.7123-0.31227 110.987 1.75113 165.381 5.06484 192.146 7.12846 218.471 9.50464 244.42 12.1933 269.807 15.0697 294.695 18.2588 319.018 21.6353 342.596 25.2 365.547 29.0774 387.685 33.0798 409.077 37.2706 429.532 41.7119 449.111 46.2782 467.694 50.9709 485.217 55.8523 501.68 60.86 516.958 65.9946 531.116 71.2566 543.967 76.5852 555.576 82.0444 565.819 87.5745 574.628 93.1747 578.489 96.0227 581.964 98.866 585.139 101.723 587.819 104.595 590.185 107.537 592.112 110.491 593.686 113.442 594.283 115.652 592.353 116.174 591.785 114.073 591.868 114.283 590.368 111.471 590.412 111.546 588.537 108.671 588.596 108.752 586.283 105.877 586.331 105.932 583.706 103.12 583.768 103.181 580.643 100.368 580.679 100.399 577.242 97.5865 577.281 97.6172 573.469 94.8047 573.526 94.8439 564.776 89.2814 564.837 89.3174 554.65 83.8174 554.699 83.8424 543.137 78.4049 543.179 78.4237 530.367 73.1112 530.402 73.1248 516.277 67.8748 516.306 67.8854 501.056 62.7604 501.084 62.7692 484.646 57.7692 484.669 57.7758 467.169 52.9008 467.193 52.9071 448.63 48.2196 448.648 48.2239 429.085 43.6614 429.1 43.6647 408.663 39.2272 408.683 39.2313 387.308 35.0438 387.322 35.0465 365.197 31.0465 365.208 31.0485 342.271 27.1735 342.288 27.1763 318.725 23.6138 318.737 23.6155 294.425 20.2405 294.435 20.2419 269.56 17.0544 269.575 17.0561 244.2 14.1811 244.209 14.1822 218.272 11.4947 218.285 11.496 191.973 9.12095 191.986 9.12204 165.236 7.05954 165.252 7.06065 110.877 3.74815 110.9 3.7493 55.6502 1.6868 55.6752 1.68742-0.0123447 0.999924ZM596.959 113.786 594.687 122.437 589.129 115.43Z" transform="matrix(-1 1.22465e-16 1.22465e-16 1 978.677 1464)"/><path d="M1196.01 1466 1244.78 1466.69 1293.12 1468.69 1340.7 1471.88 1364.09 1473.94 1387.17 1476.26 1409.87 1478.82 1432.13 1481.63 1453.9 1484.7 1475.16 1487.95 1495.86 1491.52 1515.88 1495.21 1535.27 1499.08 1553.97 1503.21 1571.93 1507.47 1589.01 1511.91 1605.28 1516.54 1620.62 1521.24 1635.02 1526.12 1648.43 1531.13 1660.84 1536.21 1672.07 1541.41 1682.24 1546.69 1691.17 1552.1 1698.93 1557.52 1705.38 1563.09 1710.54 1568.7 1714.28 1574.43 1715.93 1579.15 1714.04 1579.81 1712.43 1575.21 1712.54 1575.42 1708.91 1569.86 1709.01 1569.99 1703.95 1564.49 1704.03 1564.57 1697.66 1559.07 1697.74 1559.13 1690.05 1553.76 1690.11 1553.79 1681.23 1548.42 1681.29 1548.45 1671.16 1543.2 1671.2 1543.22 1660.02 1538.03 1660.06 1538.05 1647.68 1532.99 1647.71 1533 1634.34 1528 1634.37 1528.01 1619.99 1523.13 1620.02 1523.14 1604.71 1518.46 1604.73 1518.46 1588.48 1513.84 1588.5 1513.84 1571.44 1509.41 1571.46 1509.41 1553.52 1505.16 1553.53 1505.16 1534.85 1501.04 1534.87 1501.04 1515.49 1497.17 1515.51 1497.17 1495.51 1493.48 1495.52 1493.49 1474.83 1489.92 1474.85 1489.93 1453.6 1486.68 1453.61 1486.68 1431.86 1483.62 1431.87 1483.62 1409.62 1480.8 1409.64 1480.81 1386.95 1478.24 1386.96 1478.24 1363.9 1475.93 1363.91 1475.93 1340.54 1473.87 1340.56 1473.87 1293 1470.69 1293.02 1470.69 1244.71 1468.69 1244.74 1468.69 1195.99 1468ZM1718.62 1577.34 1716.38 1586 1710.8 1579.01Z"/><path d="M0.0123309-0.999924 55.7748-0.31227 111.111 1.75113 165.569 5.06484 192.333 7.12845 218.721 9.50463 244.67 12.1933 270.12 15.0697 295.007 18.2588 319.331 21.6353 343.033 25.2 365.985 29.0774 388.123 33.0798 409.514 37.2705 430.032 41.7118 449.611 46.2782 468.194 50.9708 485.779 55.8522 502.242 60.8598 517.583 65.9944 531.741 71.2566 544.592 76.5852 556.201 82.0444 566.444 87.5745 575.25 93.1726 579.173 96.0202 582.655 98.8691 585.763 101.723 588.502 104.59 590.873 107.537 592.799 110.491 594.373 113.442 594.971 115.652 593.04 116.174 592.472 114.073 592.555 114.283 591.055 111.471 591.1 111.546 589.225 108.671 589.283 108.752 586.971 105.877 587.027 105.941 584.339 103.128 584.386 103.174 581.324 100.362 581.367 100.399 577.929 97.5865 577.975 97.6218 574.1 94.8093 574.151 94.8439 565.401 89.2814 565.462 89.3174 555.275 83.8174 555.324 83.8424 543.762 78.4049 543.804 78.4237 530.992 73.1112 531.027 73.1248 516.902 67.8748 516.933 67.8858 501.62 62.7608 501.646 62.7692 485.209 57.7692 485.233 57.7761 467.67 52.9011 467.693 52.9071 449.13 48.2196 449.148 48.2239 429.585 43.6614 429.601 43.6649 409.101 39.2274 409.12 39.2313 387.745 35.0438 387.76 35.0465 365.635 31.0465 365.646 31.0485 342.708 27.1735 342.726 27.1764 319.039 23.6139 319.05 23.6155 294.737 20.2405 294.748 20.2419 269.873 17.0544 269.888 17.0562 244.45 14.1812 244.459 14.1822 218.522 11.4947 218.535 11.496 192.16 9.12097 192.173 9.12204 165.423 7.05954 165.439 7.06065 111.002 3.74815 111.025 3.74931 55.7127 1.68681 55.7377 1.68742-0.0123309 0.999924ZM597.646 113.786 595.375 122.437 589.817 115.43Z" transform="matrix(-1 1.22465e-16 1.22465e-16 1 1646.36 1464)"/><path d="M1867.01 1466 1915.84 1466.69 1964.3 1468.69 2011.95 1471.94 2035.41 1474 2058.48 1476.32 2081.18 1478.94 2103.51 1481.76 2125.34 1484.89 2146.6 1488.2 2167.3 1491.77 2187.44 1495.52 2206.83 1499.46 2225.54 1503.59 2243.49 1507.91 2260.64 1512.41 2276.91 1517.04 2292.31 1521.8 2306.71 1526.75 2320.18 1531.76 2332.53 1536.9 2343.82 1542.17 2353.99 1547.5 2362.99 1552.98 2370.74 1558.46 2377.2 1564.03 2382.36 1569.7 2386.09 1575.5 2387.77 1580.33 2385.88 1580.99 2384.24 1576.27 2384.35 1576.48 2380.72 1570.85 2380.82 1570.99 2375.76 1565.42 2375.85 1565.51 2369.47 1560.01 2369.55 1560.07 2361.86 1554.63 2361.92 1554.67 2352.98 1549.23 2353.04 1549.26 2342.91 1543.95 2342.95 1543.97 2331.7 1538.72 2331.74 1538.74 2319.43 1533.61 2319.46 1533.62 2306.03 1528.62 2306.05 1528.63 2291.68 1523.7 2291.7 1523.71 2276.33 1518.96 2276.35 1518.96 2260.1 1514.34 2260.12 1514.34 2243 1509.84 2243.02 1509.85 2225.08 1505.53 2225.1 1505.54 2206.41 1501.41 2206.43 1501.42 2187.05 1497.48 2187.07 1497.48 2166.94 1493.73 2166.96 1493.74 2146.27 1490.17 2146.28 1490.18 2125.03 1486.86 2125.05 1486.86 2103.23 1483.74 2103.25 1483.74 2080.94 1480.93 2080.95 1480.93 2058.26 1478.31 2058.28 1478.31 2035.21 1475.99 2035.22 1476 2011.79 1473.93 2011.81 1473.94 1964.18 1470.69 1964.21 1470.69 1915.77 1468.69 1915.8 1468.69 1866.99 1468ZM2390.47 1578.54 2388.19 1587.19 2382.64 1580.17Z"/><path d="M418 1657 418 1775.14 416 1775.14 416 1657ZM421 1773.8 417 1781.8 413 1773.8Z"/><text font-family="IntelOne Display Regular,IntelOne Display Regular_MSFontService,sans-serif" font-weight="400" font-size="28" transform="translate(436.669 1721)">y     <tspan font-size="28" x="55.8333" y="0">indices</tspan></text><path d="M463.5 1706.5 472.5 1706.5 472.5 1701.5 481.5 1711.5 472.5 1721.5 472.5 1716.5 463.5 1716.5Z" stroke="#000000" stroke-width="0.333333" stroke-miterlimit="8" fill-rule="evenodd"/><path d="M1751 1657 1751 1775.14 1749 1775.14 1749 1657ZM1754 1773.8 1750 1781.8 1746 1773.8Z"/><path d="M1085 1657 1085 1775.14 1083 1775.14 1083 1657ZM1088 1773.8 1084 1781.8 1080 1773.8Z"/><path d="M2423 1657 2423 1775.14 2421 1775.14 2421 1657ZM2426 1773.8 2422 1781.8 2418 1773.8Z"/><text font-family="IntelOne Display Regular,IntelOne Display Regular_MSFontService,sans-serif" font-weight="400" font-size="28" transform="translate(1768.77 1721)">y     <tspan font-size="28" x="55.8334" y="0">indices</tspan><tspan font-size="28" x="-664.294" y="0">y    </tspan><tspan font-size="28" x="-603.294" y="0">indices</tspan><tspan font-size="28" x="671.659" y="0">y     </tspan><tspan font-size="28" x="727.493" y="0">indices</tspan></text><path d="M1134.5 1706.5 1143.5 1706.5 1143.5 1701.5 1152.5 1711.5 1143.5 1721.5 1143.5 1716.5 1134.5 1716.5Z" stroke="#000000" stroke-width="0.333333" stroke-miterlimit="8" fill-rule="evenodd"/><path d="M1796.5 1706.5 1806 1706.5 1806 1701.5 1815.5 1711.5 1806 1721.5 1806 1716.5 1796.5 1716.5Z" stroke="#000000" stroke-width="0.333333" stroke-miterlimit="8" fill-rule="evenodd"/><path d="M2465.5 1706.5 2475 1706.5 2475 1701.5 2484.5 1711.5 2475 1721.5 2475 1716.5 2465.5 1716.5Z" stroke="#000000" stroke-width="0.333333" stroke-miterlimit="8" fill-rule="evenodd"/><text font-family="IntelOne Display Regular,IntelOne Display Regular_MSFontService,sans-serif" font-weight="400" font-size="28" transform="translate(584.199 1819)">indices<tspan font-size="28" x="-155.11" y="0">resource</tspan><tspan fill="#FFFFFF" font-size="28" x="-422.661" y="0">ResourceGather</tspan></text><path d="M796.5 1793.33C796.5 1786.8 801.798 1781.5 808.334 1781.5L1360.67 1781.5C1367.2 1781.5 1372.5 1786.8 1372.5 1793.33L1372.5 1840.67C1372.5 1847.2 1367.2 1852.5 1360.67 1852.5L808.334 1852.5C801.798 1852.5 796.5 1847.2 796.5 1840.67Z" stroke="#000000" stroke-width="1.33333" stroke-miterlimit="8" fill="#FFFFFF" fill-rule="evenodd"/><path d="M0 0 274.167 0C280.702-2.27573e-15 286 5.29803 286 11.8335L286 71 0 71Z" stroke="#000000" stroke-width="1.33333" stroke-miterlimit="8" fill-rule="evenodd" transform="matrix(-1 0 0 1 1082.5 1781.5)"/><rect x="1082.5" y="1781.5" width="158" height="71" stroke="#000000" stroke-width="1.33333" stroke-miterlimit="8" fill="#E9E9E9"/><text font-family="IntelOne Display Regular,IntelOne Display Regular_MSFontService,sans-serif" font-weight="400" font-size="28" transform="translate(1249.99 1819)">indices<tspan font-size="28" x="-155.109" y="0">resource</tspan><tspan fill="#FFFFFF" font-size="28" x="-422.662" y="0">ResourceGather</tspan></text><path d="M1463.5 1794.33C1463.5 1787.8 1468.8 1782.5 1475.33 1782.5L2027.67 1782.5C2034.2 1782.5 2039.5 1787.8 2039.5 1794.33L2039.5 1841.67C2039.5 1848.2 2034.2 1853.5 2027.67 1853.5L1475.33 1853.5C1468.8 1853.5 1463.5 1848.2 1463.5 1841.67Z" stroke="#000000" stroke-width="1.33333" stroke-miterlimit="8" fill="#FFFFFF" fill-rule="evenodd"/><path d="M0 0 274.167 0C280.702-2.27573e-15 286 5.29803 286 11.8335L286 71 0 71Z" stroke="#000000" stroke-width="1.33333" stroke-miterlimit="8" fill-rule="evenodd" transform="matrix(-1 0 0 1 1749.5 1782.5)"/><rect x="1749.5" y="1782.5" width="159" height="71" stroke="#000000" stroke-width="1.33333" stroke-miterlimit="8" fill="#E9E9E9"/><text font-family="IntelOne Display Regular,IntelOne Display Regular_MSFontService,sans-serif" font-weight="400" font-size="28" transform="translate(1917.13 1819)">indices<tspan font-size="28" x="-155.109" y="0">resource</tspan><tspan fill="#FFFFFF" font-size="28" x="-422.662" y="0">ResourceGather</tspan></text><path d="M2135.5 1793.33C2135.5 1786.8 2140.8 1781.5 2147.33 1781.5L2700.67 1781.5C2707.2 1781.5 2712.5 1786.8 2712.5 1793.33L2712.5 1840.67C2712.5 1847.2 2707.2 1852.5 2700.67 1852.5L2147.33 1852.5C2140.8 1852.5 2135.5 1847.2 2135.5 1840.67Z" stroke="#000000" stroke-width="1.33333" stroke-miterlimit="8" fill="#FFFFFF" fill-rule="evenodd"/><path d="M0 0 274.167 0C280.702-2.27573e-15 286 5.29803 286 11.8335L286 71 0 71Z" stroke="#000000" stroke-width="1.33333" stroke-miterlimit="8" fill-rule="evenodd" transform="matrix(-1 0 0 1 2421.5 1781.5)"/><rect x="2421.5" y="1781.5" width="159" height="71" stroke="#000000" stroke-width="1.33333" stroke-miterlimit="8" fill="#E9E9E9"/><text font-family="IntelOne Display Regular,IntelOne Display Regular_MSFontService,sans-serif" font-weight="400" font-size="28" transform="translate(2434.22 1819)">resource<tspan fill="#FFFFFF" font-size="28" x="-267.552" y="0">ResourceGather</tspan><tspan font-size="28" x="151.34" y="0">indices</tspan></text><path d="M418 1852 418 1929.55" stroke="#000000" stroke-width="2" stroke-miterlimit="8" fill="none" fill-rule="evenodd"/><text font-family="IntelOne Display Regular,IntelOne Display Regular_MSFontService,sans-serif" font-weight="400" font-size="28" transform="translate(429.891 1888)">output    <tspan font-size="28" x="121.833" y="0">input</tspan></text><path d="M522.5 1872.25 532 1872.25 532 1867.5 541.5 1877 532 1886.5 532 1881.75 522.5 1881.75Z" stroke="#000000" stroke-width="0.333333" stroke-miterlimit="8" fill-rule="evenodd"/><text font-family="IntelOne Display Regular,IntelOne Display Regular_MSFontService,sans-serif" font-weight="400" font-size="28" transform="translate(1091.02 1886)">output     <tspan font-size="28" x="121.833" y="0">input</tspan></text><path d="M1082 1851 1082 1931.67" stroke="#000000" stroke-width="2" stroke-miterlimit="8" fill="none" fill-rule="evenodd"/><path d="M1185.5 1872.25 1194.5 1872.25 1194.5 1867.5 1203.5 1877 1194.5 1886.5 1194.5 1881.75 1185.5 1881.75Z" stroke="#000000" stroke-width="0.333333" stroke-miterlimit="8" fill-rule="evenodd"/><path d="M1751 1854 1751 1931.49" stroke="#000000" stroke-width="2" stroke-miterlimit="8" fill="none" fill-rule="evenodd"/><text font-family="IntelOne Display Regular,IntelOne Display Regular_MSFontService,sans-serif" font-weight="400" font-size="28" transform="translate(1760.87 1888)">output     <tspan font-size="28" x="116.667" y="0">input</tspan></text><path d="M1848.5 1874.25 1858 1874.25 1858 1869.5 1867.5 1879 1858 1888.5 1858 1883.75 1848.5 1883.75Z" stroke="#000000" stroke-width="0.333333" stroke-miterlimit="8" fill-rule="evenodd"/><path d="M2424 1851 2424 1931.67" stroke="#000000" stroke-width="2" stroke-miterlimit="8" fill="none" fill-rule="evenodd"/><text font-family="IntelOne Display Regular,IntelOne Display Regular_MSFontService,sans-serif" font-weight="400" font-size="28" transform="translate(2431.53 1889)">output     <tspan font-size="28" x="116.667" y="0">input</tspan></text><path d="M2520.5 1872.25 2530 1872.25 2530 1867.5 2539.5 1877 2530 1886.5 2530 1881.75 2520.5 1881.75Z" stroke="#000000" stroke-width="0.333333" stroke-miterlimit="8" fill-rule="evenodd"/><text font-family="IntelOne Display Regular,IntelOne Display Regular_MSFontService,sans-serif" font-weight="400" font-size="28" transform="translate(504.887 1553)">output    <tspan font-size="28" x="121.833" y="0">X</tspan></text><path d="M601.5 1538.25 610.5 1538.25 610.5 1533.5 619.5 1543 610.5 1552.5 610.5 1547.75 601.5 1547.75Z" stroke="#000000" stroke-width="0.333333" stroke-miterlimit="8" fill-rule="evenodd"/><text font-family="IntelOne Display Regular,IntelOne Display Regular_MSFontService,sans-serif" font-weight="400" font-size="28" transform="translate(1129.75 1553)">output    <tspan font-size="28" x="127" y="0">X</tspan></text><path d="M1229.5 1539.25 1238.5 1539.25 1238.5 1534.5 1247.5 1544 1238.5 1553.5 1238.5 1548.75 1229.5 1548.75Z" stroke="#000000" stroke-width="0.333333" stroke-miterlimit="8" fill-rule="evenodd"/><text font-family="IntelOne Display Regular,IntelOne Display Regular_MSFontService,sans-serif" font-weight="400" font-size="28" transform="translate(1472.9 1552)">output    <tspan font-size="28" x="121.833" y="0">X</tspan></text><path d="M1564.5 1538.25 1573.5 1538.25 1573.5 1533.5 1582.5 1543 1573.5 1552.5 1573.5 1547.75 1564.5 1547.75Z" stroke="#000000" stroke-width="0.333333" stroke-miterlimit="8" fill-rule="evenodd"/><text font-family="IntelOne Display Regular,IntelOne Display Regular_MSFontService,sans-serif" font-weight="400" font-size="28" transform="translate(2143.08 1552)">output    <tspan font-size="28" x="121.833" y="0">X</tspan></text><path d="M2239.5 1536.5 2249 1536.5 2249 1531.5 2258.5 1541.5 2249 1551.5 2249 1546.5 2239.5 1546.5Z" stroke="#000000" stroke-width="0.333333" stroke-miterlimit="8" fill-rule="evenodd"/><text font-family="IntelOne Display Regular,IntelOne Display Regular_MSFontService,sans-serif" font-weight="400" font-size="28" transform="translate(1969.43 390)">(0)<tspan font-family="Calibri,Calibri_MSFontService,sans-serif" font-size="35" x="-826.003" y="905">X</tspan><tspan font-family="Calibri,Calibri_MSFontService,sans-serif" font-size="35" x="-157.017" y="905">X</tspan><tspan font-family="Calibri,Calibri_MSFontService,sans-serif" font-size="35" x="-1487.81" y="1243">X</tspan><tspan font-family="Calibri,Calibri_MSFontService,sans-serif" font-size="35" x="-820.941" y="1244">X</tspan><tspan font-family="Calibri,Calibri_MSFontService,sans-serif" font-size="35" x="-158.47" y="1244">X</tspan><tspan font-family="Calibri,Calibri_MSFontService,sans-serif" font-size="35" x="513.189" y="1243">X</tspan></text></g></svg>