<svg width="1280" height="720" xmlns="http://www.w3.org/2000/svg" xmlns:xlink="http://www.w3.org/1999/xlink" overflow="hidden"><defs><clipPath id="clip0"><rect x="0" y="0" width="1280" height="720"/></clipPath></defs><g clip-path="url(#clip0)"><rect x="0" y="0" width="1280" height="720" fill="#FFFFFF"/><path d="M673.84 498.552 674.104 490.978 674.926 483.099 676.157 475.44 677.882 467.85 680.081 460.496 682.625 453.482 685.529 446.844 688.756 440.53 692.387 434.622 696.313 429.168 700.597 424.283 705.259 419.932 710.349 416.238 715.826 413.369 721.823 411.401 727.054 410.838 731.117 410.4 728.831 410.893 732.831 409.58 731.131 410.298 735.069 408.236 733.691 409.09 737.566 406.278 736.506 407.152 740.256 403.652 739.479 404.453 743.042 400.39 742.375 401.228 745.75 396.54 745.298 397.219 748.486 392.032 748.057 392.796 750.932 387.171 750.078 389.403 753.907 374.894 775.501 380.593 771.365 396.264 767.744 403.35 764.113 409.259 760.187 414.712 755.903 419.598 751.241 423.948 746.151 427.642 740.674 430.512 734.677 432.479 729.446 433.043 725.383 433.48 727.669 432.988 723.669 434.3 725.369 433.582 721.431 435.644 722.809 434.79 718.934 437.602 719.994 436.729 716.244 440.229 717.021 439.428 713.458 443.49 714.125 442.652 710.75 447.34 711.202 446.661 708.014 451.849 708.443 451.085 705.568 456.71 705.855 456.103 703.23 462.103 703.497 461.436 701.185 467.811 701.386 467.202 699.386 473.89 699.576 473.165 698.014 480.04 698.15 479.337 697.025 486.337 697.106 485.724 696.356 492.912 696.41 492.141 696.16 499.328ZM729.635 381.882 771.5 344.94 795.242 395.474Z" fill="#BFBFBF"/><path d="M0.999715-11.1218 7.41295-10.5454 14.6502-8.75638 21.5969-5.8356 28.0793-2.09866 34.1735 2.43482 39.8972 7.65133 45.2484 13.502 50.1921 19.9288 54.6623 26.8436 58.6803 34.1869 62.205 41.9275 65.1755 49.9407 67.5906 58.2902 69.395 66.8263 70.5137 75.636 70.8454 83.9947 70.8258 83.6419 71.3883 91.5169 71.1688 89.9728 72.8563 97.8478 72.4786 96.5024 75.1661 104.19 74.6946 103.048 78.3196 110.611 77.7376 109.549 82.2376 116.799 81.6451 115.937 86.9576 122.937 86.2648 122.11 92.3273 128.673 91.7087 128.053 98.3962 134.241 97.6682 133.623 104.981 139.311 104.284 138.811 112.034 143.936 111.222 143.447 119.472 147.947 116.986 146.956 129.577 150.294 123.854 171.881 109.961 168.199 100.111 162.826 91.6078 157.203 83.5796 150.959 76.2199 144.149 69.4938 136.868 63.5384 129.021 58.4425 120.811 54.288 112.144 51.1654 103.212 49.1674 93.8878 48.5366 85.0568 48.2171 77.0053 48.2973 77.9692 47.2973 70.0942 47.4497 70.9969 45.8247 63.3094 46.0231 64.1028 43.8356 56.5403 44.0921 57.3188 41.4046 50.0688 41.7124 50.8151 38.5249 43.8151 38.8914 44.5476 35.2664 37.9226 35.6848 38.6249 31.6848 32.4374 32.2115 33.1834 27.8365 27.4959 28.4476 28.224 23.7601 23.099 24.4781 23.8157 19.5406 19.3157 20.3975 20.022 15.2725 16.2095 16.3605 16.9243 11.0481 13.8618 12.2969 14.4813 6.79693 12.1688 8.44535 12.7154 2.88285 11.3404 4.56279 11.6218-0.999715 11.1218ZM123.575 125.915 159.312 168.812 108.125 191.109Z" fill="#BFBFBF" transform="matrix(-1.83697e-16 -1 -1 1.83697e-16 673.759 499.297)"/><rect x="627.5" y="509.5" width="12" height="21" stroke="#BFBFBF" stroke-width="1.33333" stroke-miterlimit="8" fill="#BFBFBF"/><rect x="748.5" y="509.5" width="24" height="23" stroke="#BFBFBF" stroke-width="1.33333" stroke-miterlimit="8" fill="#BFBFBF"/><path d="M94.5001 326C94.5001 314.126 113.976 304.5 138 304.5 162.024 304.5 181.5 314.126 181.5 326 181.5 337.874 162.024 347.5 138 347.5 113.976 347.5 94.5001 337.874 94.5001 326Z" stroke="#BFBFBF" stroke-width="3" stroke-miterlimit="8" fill="#FFFFFF" fill-rule="evenodd"/><path d="M285.5 325C285.5 313.126 304.976 303.5 329 303.5 353.024 303.5 372.5 313.126 372.5 325 372.5 336.874 353.024 346.5 329 346.5 304.976 346.5 285.5 336.874 285.5 325Z" stroke="#BFBFBF" stroke-width="3" stroke-miterlimit="8" fill="#FFFFFF" fill-rule="evenodd"/><path d="M492.5 325C492.5 313.126 511.976 303.5 536 303.5 560.024 303.5 579.5 313.126 579.5 325 579.5 336.874 560.024 346.5 536 346.5 511.976 346.5 492.5 336.874 492.5 325Z" stroke="#BFBFBF" stroke-width="3" stroke-miterlimit="8" fill="#FFFFFF" fill-rule="evenodd"/><path d="M728.5 324C728.5 312.126 747.976 302.5 772 302.5 796.024 302.5 815.5 312.126 815.5 324 815.5 335.874 796.024 345.5 772 345.5 747.976 345.5 728.5 335.874 728.5 324Z" stroke="#BFBFBF" stroke-width="3" stroke-miterlimit="8" fill="#FFFFFF" fill-rule="evenodd"/><path d="M928.5 324C928.5 312.126 947.976 302.5 972 302.5 996.024 302.5 1015.5 312.126 1015.5 324 1015.5 335.874 996.024 345.5 972 345.5 947.976 345.5 928.5 335.874 928.5 324Z" stroke="#BFBFBF" stroke-width="3" stroke-miterlimit="8" fill="#FFFFFF" fill-rule="evenodd"/><path d="M1142.5 323C1142.5 311.126 1161.98 301.5 1186 301.5 1210.02 301.5 1229.5 311.126 1229.5 323 1229.5 334.874 1210.02 344.5 1186 344.5 1161.98 344.5 1142.5 334.874 1142.5 323Z" stroke="#BFBFBF" stroke-width="3" stroke-miterlimit="8" fill="#FFFFFF" fill-rule="evenodd"/><path d="M586.5 110C586.5 98.1259 605.976 88.5001 630 88.5001 654.024 88.5001 673.5 98.1259 673.5 110 673.5 121.874 654.024 131.5 630 131.5 605.976 131.5 586.5 121.874 586.5 110Z" stroke="#BFBFBF" stroke-width="3" stroke-miterlimit="8" fill="#FFFFFF" fill-rule="evenodd"/><path d="M0.28261-11.1631 10.4395-10.906 20.8747-10.1134 31.2792-8.79638 41.5584-7.01729 51.7297-4.72055 61.8069-2.03765 71.7728 1.10947 81.5445 4.65089 91.1712 8.64564 100.74 13.0673 118.863 22.8106 136.114 33.9191 152.272 46.2829 167.085 59.6606 174.047 66.8872 180.621 74.1844 186.763 81.7797 192.507 89.5046 197.828 97.4867 202.691 105.679 207.024 113.945 211.194 123.004 215.508 139.914 193.868 145.435 189.805 129.511 190.481 131.419 186.856 123.544 187.11 124.059 183.047 116.309 183.335 116.824 178.772 109.137 179.084 109.632 174.084 102.132 174.414 102.601 168.977 95.2882 169.255 95.6467 163.442 88.4592 163.829 88.9117 157.579 81.9742 157.833 82.2471 151.27 75.4346 151.828 75.9749 137.641 63.1624 138.339 63.7433 122.902 51.9308 123.642 52.451 107.142 41.826 107.9 42.2728 90.4622 32.8978 91.0661 33.1993 82.0036 29.0118 82.4076 29.1889 73.2201 25.3764 73.6952 25.561 64.3827 22.186 64.8249 22.3358 55.3249 19.3358 55.8146 19.4783 46.1896 16.9158 46.6029 17.0174 36.9154 14.8299 37.4706 14.9406 27.7206 13.2531 28.2227 13.3283 18.3477 12.0783 18.9043 12.1346 9.02933 11.3846 9.59239 11.4131-0.28261 11.1631ZM235.451 125.337 211.062 175.562 169.675 138.086Z" fill="#BFBFBF" transform="matrix(1 0 0 -1 760 520.514)"/><path d="M0.130595-11.1659 21.6531-10.9142 43.2281-10.0917 64.7428-8.8261 86.1183-6.99211 107.375-4.77789 128.39-1.99272 149.045 1.16551 169.536 4.70722 189.683 8.6985 209.431 13.1291 228.736 17.8762 247.615 23.0078 265.996 28.4587 283.829 34.2339 301.124 40.3381 317.715 46.7584 333.697 53.3804 349.04 60.3484 363.632 67.5806 377.425 75.0222 390.468 82.7064 402.573 90.6686 413.836 98.7409 424.227 107.16 433.583 115.719 441.966 124.572 450.035 134.526 454.938 147.246 434.099 155.278 429.83 144.204 431.575 147.219 424.888 138.969 425.454 139.616 417.642 131.366 418.212 131.926 409.4 123.864 409.908 124.302 400.033 116.302 400.557 116.701 389.745 108.951 390.114 109.204 378.426 101.517 378.895 101.809 366.27 94.3713 366.635 94.5775 353.198 87.3275 353.541 87.5053 339.291 80.4428 339.632 80.6047 324.632 73.7922 324.976 73.9412 309.288 67.4412 309.533 67.5391 293.22 61.2266 293.534 61.3426 276.534 55.3426 276.81 55.436 259.247 49.7485 259.513 49.8308 241.388 44.4558 241.634 44.5257 223.009 39.4632 223.271 39.5311 204.209 34.8436 204.43 34.8958 184.93 30.5208 185.205 30.5788 165.33 26.6413 165.598 26.691 145.348 23.191 145.562 23.2259 125.125 20.1009 125.345 20.1324 104.595 17.3824 104.906 17.4191 83.9056 15.2316 84.1079 15.2508 62.9829 13.4383 63.2818 13.4599 42.0318 12.2099 42.2621 12.2211 20.9496 11.4086 21.2444 11.4159-0.130595 11.1659ZM472.075 129.181 456.125 182.687 409.225 152.394Z" fill="#BFBFBF" transform="matrix(1 0 0 -1 760 520.649)"/><path d="M0.091527-11.1663 30.6831-10.9155 61.3558-10.1613 91.8427-8.96696 122.207-7.26958 152.314-5.13255 182.113-2.55496 211.53 0.462166 240.555 3.85468 269.101 7.56441 297.104 11.7176 324.518 16.2447 351.255 21.026 377.328 26.1902 402.644 31.6689 427.087 37.4018 450.69 43.397 473.3 49.7128 494.914 56.2224 515.563 62.9996 535.064 69.9871 553.406 77.2474 570.446 84.6504 586.304 92.2265 600.865 100.057 613.941 108.019 620.15 112.158 625.881 116.357 631.231 120.57 637.341 125.843 644.815 138.3 625.664 149.79 619.112 138.87 621.392 141.579 616.829 137.641 617.216 137.96 612.216 134.023 612.526 134.258 607.151 130.321 607.556 130.604 601.743 126.729 602.13 126.975 589.505 119.288 590.024 119.585 575.961 112.022 576.436 112.263 560.999 104.888 561.363 105.054 544.675 97.8043 545.015 97.9453 527.015 90.8203 527.358 90.9497 508.171 84.0747 508.455 84.1723 488.08 77.4848 488.342 77.5673 466.967 71.1298 467.183 71.1925 444.808 64.9425 445.063 65.0105 421.688 59.073 421.888 59.1217 397.638 53.4342 397.825 53.4765 372.701 48.039 372.893 48.0789 347.018 42.9539 347.222 42.9923 320.659 38.2423 320.806 38.2675 293.556 33.7675 293.737 33.7958 265.924 29.6708 266.123 29.6985 237.748 26.011 237.891 26.0287 209.016 22.6537 209.173 22.6709 179.923 19.6709 180.1 19.6876 150.475 17.1251 150.647 17.1386 120.709 15.0136 120.877 15.0243 90.6892 13.3368 90.8754 13.3456 60.5629 12.1581 60.7255 12.1633 30.2255 11.4133 30.4085 11.4163-0.091527 11.1663ZM659.274 118.175 651.312 173.437 600.489 150.321Z" fill="#BFBFBF" transform="matrix(1 0 0 -1 772 520.426)"/><path d="M0.107885-11.1661 26.0911-10.9151 52.1204-10.1588 78.076-8.89882 103.834-7.19843 129.408-5.05679 154.735-2.47362 179.807 0.550177 204.436 3.95159 228.695 7.73221 252.53 11.8938 275.797 16.4337 298.56 21.289 320.732 26.4688 342.196 32.0242 363.04 37.7722 383.113 43.8511 402.38 50.1888 420.795 56.7928 438.353 63.6632 454.932 70.7412 470.531 78.0291 485.126 85.4876 498.699 93.2433 511.147 101.129 522.407 109.295 532.475 117.629 542.347 127.274 548.102 139.326 527.947 148.948 523.048 138.686 525.322 141.863 517.197 133.925 517.879 134.539 508.442 126.727 509.007 127.165 498.32 119.415 498.899 119.808 486.962 112.246 487.397 112.508 474.272 105.008 474.731 105.256 460.544 98.0061 460.898 98.1794 445.648 91.0544 445.99 91.2074 429.741 84.2699 430.056 84.3989 412.806 77.6489 413.105 77.7612 394.98 71.2612 395.261 71.3575 376.261 65.1075 376.513 65.1873 356.701 59.1873 356.969 59.2649 336.344 53.5774 336.514 53.6229 315.264 48.1229 315.522 48.1864 293.585 43.0614 293.796 43.1085 271.233 38.296 271.424 38.335 248.361 33.835 248.579 33.8752 224.954 29.7502 225.155 29.7835 201.093 26.0335 201.285 26.0617 176.847 22.6867 177.038 22.7113 152.163 19.7113 152.367 19.734 127.242 17.1715 127.443 17.1902 102.068 15.0652 102.264 15.0799 76.7019 13.3924 76.8961 13.4035 51.1461 12.1535 51.3632 12.162 25.5507 11.412 25.7671 11.4161-0.107885 11.1661ZM563.562 119.749 552.312 174.437 502.962 148.325Z" fill="#BFBFBF" transform="matrix(1 0 0 -1 772 520.426)"/><path d="M673.5 521C673.5 509.126 692.976 499.5 717 499.5 741.024 499.5 760.5 509.126 760.5 521 760.5 532.874 741.024 542.5 717 542.5 692.976 542.5 673.5 532.874 673.5 521Z" stroke="#BFBFBF" stroke-width="3" stroke-miterlimit="8" fill="#FFFFFF" fill-rule="evenodd"/><path d="M651.5 521C651.5 509.126 670.976 499.5 695 499.5 719.024 499.5 738.5 509.126 738.5 521 738.5 532.874 719.024 542.5 695 542.5 670.976 542.5 651.5 532.874 651.5 521Z" stroke="#BFBFBF" stroke-width="3" stroke-miterlimit="8" fill="#FFFFFF" fill-rule="evenodd"/><path d="M630.5 521C630.5 509.126 649.976 499.5 674 499.5 698.024 499.5 717.5 509.126 717.5 521 717.5 532.874 698.024 542.5 674 542.5 649.976 542.5 630.5 532.874 630.5 521Z" stroke="#BFBFBF" stroke-width="3" stroke-miterlimit="8" fill="#FFFFFF" fill-rule="evenodd"/><path d="M630.08 531.963 614.316 531.709 598.394 530.878 582.553 529.601 566.834 527.812 551.239 525.575 535.763 522.825 520.514 519.634 505.46 516.062 490.687 512.097 476.102 507.664 448.139 497.877 434.531 492.395 421.39 486.562 408.711 480.478 396.429 474.112 384.616 467.399 373.397 460.435 362.666 453.26 352.461 445.785 342.861 438.078 333.939 430.141 325.651 421.984 318.027 413.631 311.138 405.07 304.515 395.609 296.711 376.432 317.398 368.014 324.727 386.026 323.532 383.831 329.22 391.956 328.771 391.359 335.209 399.359 334.757 398.832 341.944 406.707 341.529 406.276 349.404 414.026 348.994 413.642 357.494 421.205 357.062 420.839 366.249 428.214 365.858 427.914 375.67 435.101 375.279 434.827 385.654 441.765 385.335 441.56 396.21 448.31 395.839 448.089 407.276 454.589 406.898 454.383 418.835 460.571 418.527 460.417 430.902 466.355 430.602 466.216 443.415 471.904 443.057 471.752 456.244 477.065 455.76 476.883 483.26 486.508 482.819 486.363 497.007 490.676 496.654 490.575 511.091 494.45 510.775 494.37 525.525 497.87 525.233 497.805 540.171 500.93 539.838 500.866 554.963 503.553 554.595 503.494 569.845 505.681 569.522 505.64 584.897 507.39 584.532 507.354 600.032 508.604 599.716 508.583 615.279 509.396 614.876 509.382 630.438 509.632ZM277.852 392.077 297.947 339.985 342.329 373.861Z" fill="#BFBFBF"/><path d="M629.973 532.014 605.345 531.762 580.616 530.942 556.023 529.681 531.616 527.915 507.343 525.709 483.364 523.058 459.594 519.906 436.268 516.438 413.22 512.523 390.625 508.169 368.547 503.501 347.008 498.511 325.953 493.136 305.598 487.447 285.851 481.498 266.815 475.216 248.54 468.616 231.064 461.816 214.436 454.745 198.66 447.464 183.833 439.954 169.909 432.154 157.089 424.19 145.258 416.02 134.565 407.571 125.013 398.954 115.741 389.078 109.987 376.37 130.332 367.158 135.322 378.179 133.29 375.142 140.978 383.329 140.317 382.681 149.254 390.744 148.697 390.273 158.822 398.273 158.245 397.847 169.558 405.659 169.104 405.362 181.479 413.05 181.044 412.793 194.544 420.355 194.133 420.136 208.57 427.448 208.204 427.271 223.641 434.396 223.332 434.259 239.645 441.197 239.324 441.066 256.511 447.753 256.255 447.657 274.255 454.157 273.961 454.056 292.711 460.243 292.433 460.156 311.933 466.031 311.718 465.968 331.843 471.593 331.599 471.528 352.411 476.84 352.17 476.782 373.482 481.719 373.272 481.673 395.147 486.298 394.95 486.258 417.325 490.57 417.082 490.526 439.894 494.401 439.666 494.365 462.791 497.802 462.618 497.778 486.18 500.903 485.939 500.874 509.689 503.499 509.473 503.477 533.535 505.664 533.33 505.648 557.518 507.398 557.284 507.383 581.659 508.633 581.457 508.625 605.957 509.437 605.701 509.432 630.201 509.682ZM93.7671 395.224 106.962 340.973 155.349 368.83Z" fill="#BFBFBF"/><path d="M629.676 532.014 596.144 531.763 562.601 530.947 529.192 529.691 495.968 527.932 463.001 525.734 430.33 523.096 398.114 519.956 366.339 516.502 335.1 512.605 304.373 508.269 274.407 503.62 245.111 498.654 216.55 493.306 188.872 487.645 162.118 481.728 136.27 475.486 111.486 468.928 87.819 462.175 65.2444 455.156 43.9634 447.935 23.8753 440.498 5.25873 432.81-3.67163 428.891-12.1426 424.912-20.2396 420.928-28.0081 416.849-35.3838 412.708-42.3896 408.557-49.0325 404.347-55.2353 400.058-61.1163 395.714-67.5748 390.386-77.0057 376.538-58.5463 363.967-50.0112 376.5-52.1346 374.172-47.1346 378.297-47.6064 377.928-42.1064 381.991-42.3899 381.788-36.5148 385.851-36.889 385.603-30.5765 389.603-30.8607 389.429-24.1107 393.429-24.337 393.298-17.212 397.298-17.4878 397.148-9.98779 401.086-10.2482 400.953-2.37323 404.828-2.55609 404.74 5.69391 408.615 5.43396 408.497 14.1215 412.31 13.8964 412.214 32.2089 419.776 31.8239 419.626 51.5739 426.938 51.2844 426.836 72.2844 433.961 72.012 433.872 94.3245 440.81 94.073 440.735 117.51 447.422 117.303 447.365 141.866 453.865 141.63 453.805 167.255 459.993 167.046 459.944 193.608 465.819 193.434 465.783 220.934 471.408 220.752 471.372 249.127 476.684 248.938 476.651 278.063 481.588 277.908 481.563 307.721 486.188 307.569 486.166 338.132 490.478 337.954 490.454 369.016 494.329 368.841 494.309 400.466 497.746 400.342 497.734 432.405 500.859 432.221 500.842 464.721 503.467 464.564 503.456 497.377 505.643 497.224 505.634 530.287 507.384 530.116 507.376 563.366 508.626 563.218 508.622 596.593 509.434 596.405 509.431 629.843 509.681ZM-91.6297 396.29-84.0535 340.973-33.0706 363.735Z" fill="#BFBFBF"/><path d="M0.0791942-11.1664 35.4086-10.9158 70.7657-10.1622 105.917-8.84403 140.873-7.14958 175.593-4.95213 209.931-2.31554 243.9 0.761093 277.364 4.27709 310.263 8.16972 342.533 12.4388 374.187 17.0237 405.052 21.9897 435.094 27.3319 464.201 32.9269 492.382 38.8399 519.583 45.0107 545.683 51.5041 570.59 58.2511 594.342 65.1998 616.736 72.4114 637.831 79.7596 647.856 83.5909 657.515 87.4039 666.834 91.2973 675.728 95.2005 684.278 99.1863 692.452 103.241 700.223 107.321 707.556 111.474 714.524 115.642 721.068 119.872 727.178 124.189 733.949 129.367 744.14 143.375 726.08 156.514 716.845 143.819 719.092 146.12 713.779 142.058 714.119 142.308 708.369 138.245 708.75 138.503 702.563 134.503 702.893 134.708 696.205 130.708 696.434 130.841 689.372 126.841 689.684 127.012 682.184 123.074 682.413 123.191 674.475 119.253 674.719 119.371 666.407 115.496 666.638 115.6 657.95 111.788 658.133 111.866 649.008 108.054 649.212 108.137 639.712 104.387 639.826 104.431 630.014 100.681 630.327 100.795 609.514 93.5452 609.764 93.6291 587.64 86.5041 587.927 86.5924 564.427 79.7174 564.643 79.7782 539.955 73.0907 540.179 73.1488 514.304 66.7113 514.53 66.765 487.53 60.64 487.707 60.6787 459.707 54.8037 459.892 54.8409 430.955 49.2784 431.107 49.3067 401.232 43.9942 401.414 44.0249 370.726 39.0874 370.899 39.1138 339.399 34.5513 339.535 34.5702 307.41 30.3202 307.563 30.3393 274.813 26.4643 274.958 26.4805 241.646 22.9805 241.805 22.9961 207.993 19.9336 208.145 19.9464 173.958 17.3214 174.107 17.3319 139.545 15.1444 139.709 15.1536 104.897 13.4661 105.019 13.4713 70.019 12.1588 70.1995 12.1641 35.012 11.4141 35.1708 11.4164-0.0791942 11.1664ZM758.411 123.411 752 178.875 700.55 157.19Z" fill="#BFBFBF" transform="matrix(1 0 0 -1 772 519.876)"/><path d="M629.653 531.766 591.392 531.516 553.111 530.763 515.025 529.445 477.142 527.689 439.631 525.494 402.429 522.859 365.66 519.784 329.394 516.271 293.756 512.38 258.798 508.113 224.592 503.468 191.19 498.508 158.649 493.168 127.118 487.515 96.5705 481.607 67.1949 475.38 38.936 468.897 11.9653 462.154-13.7071 455.153-37.9248 447.963-49.5389 444.282-60.763 440.541-71.6315 436.727-82.0437 432.854-92.0636 428.986-101.729 425.082-110.956 421.045-119.778 417.017-128.162 412.954-136.129 408.809-143.64 404.629-150.654 400.368-157.262 396.073-164.456 390.912-176.089 376.46-158.691 362.456-148.012 375.723-150.202 373.652-144.452 377.777-144.875 377.487-138.625 381.55-138.914 381.369-132.226 385.431-132.593 385.217-125.406 389.217-125.682 389.069-117.994 393.069-118.279 392.926-110.154 396.864-110.386 396.754-101.761 400.692-101.923 400.62-92.9229 404.557-93.216 404.434-83.7785 408.246-83.9392 408.183-74.0643 411.995-74.1933 411.946-63.9432 415.759-64.139 415.688-53.4515 419.438-53.6174 419.381-42.5549 423.069-42.7124 423.018-31.2748 426.643-31.4706 426.583-7.47064 433.708-7.71045 433.639 17.727 440.577 17.4971 440.517 44.2472 447.204 44.0356 447.153 72.0981 453.591 71.9171 453.551 101.105 459.739 100.909 459.699 131.284 465.574 131.134 465.546 162.509 471.171 162.347 471.143 194.722 476.456 194.554 476.429 227.804 481.367 227.666 481.347 261.729 485.972 261.58 485.953 296.392 490.203 296.251 490.187 331.751 494.062 331.616 494.048 367.741 497.548 367.594 497.535 404.219 500.597 404.078 500.586 441.14 503.211 441.004 503.202 478.379 505.39 478.243 505.383 515.993 507.133 515.862 507.127 553.8 508.44 553.633 508.435 591.758 509.185 591.612 509.183 629.799 509.433ZM-189.995 396.586-185.024 340.975-133.029 361.319Z" fill="#BFBFBF"/><path d="M630.161 532.014 587.275 531.764 544.331 530.949 501.644 529.695 459.205 527.94 417.022 525.746 375.325 523.113 334.143 519.978 293.526 516.531 253.573 512.642 214.318 508.316 176.011 503.676 138.499 498.72 102.036 493.386 66.7084 487.738 32.4924 481.837-0.501587 475.615-32.0941 469.083-47.3865 465.748-62.3651 462.349-76.9156 458.885-91.0681 455.363-104.881 451.831-118.261 448.17-131.257 444.511-143.784 440.778-155.946 436.977-167.6 433.114-178.819 429.247-189.62 425.308-199.947 421.356-209.818 417.318-219.177 413.215-228.043 409.104-236.399 404.958-244.283 400.723-251.654 396.445-258.497 392.06-266.117 386.709-274.344 375.24-256.196 362.223-249.075 372.152-251.732 369.521-245.857 373.646-246.249 373.383-239.812 377.508-240.231 377.252-233.231 381.315-233.552 381.136-225.989 385.198-226.311 385.032-218.248 389.032-218.513 388.905-209.888 392.905-210.103 392.808-200.978 396.808-201.233 396.7-191.608 400.637-191.845 400.544-181.72 404.419-181.885 404.357-171.26 408.232-171.448 408.165-160.385 411.978-160.51 411.936-149.01 415.748-149.193 415.689-137.193 419.439-137.335 419.396-124.96 423.083-125.122 423.036-112.247 426.661-112.327 426.639-99.0771 430.264-99.2574 430.217-85.5699 433.717-85.6393 433.699-71.5768 437.199-71.6874 437.172-57.2499 440.61-57.3655 440.583-42.4905 443.958-42.5817 443.938-27.3943 447.25-27.5128 447.225 3.92468 453.725 3.73291 453.687 36.5454 459.874 36.3741 459.843 70.4366 465.718 70.3014 465.696 105.489 471.321 105.343 471.299 141.655 476.611 141.501 476.59 178.876 481.527 178.756 481.512 216.944 486.137 216.825 486.123 255.95 490.436 255.808 490.421 295.62 494.296 295.483 494.284 335.983 497.721 335.886 497.713 376.949 500.838 376.805 500.828 418.367 503.453 418.244 503.446 460.306 505.634 460.188 505.628 502.5 507.378 502.366 507.373 544.929 508.623 544.813 508.621 587.625 509.433 587.479 509.431 630.291 509.681ZM-286.778 396.738-284.024 340.973-231.26 359.231Z" fill="#BFBFBF"/><path d="M540.5 521C540.5 514.649 552.365 509.5 567 509.5 581.636 509.5 593.5 514.649 593.5 521 593.5 527.351 581.636 532.5 567 532.5 552.365 532.5 540.5 527.351 540.5 521Z" stroke="#000000" stroke-width="1.33333" stroke-miterlimit="8" stroke-dasharray="5.33333 4" fill="#F3D64E" fill-rule="evenodd"/><path d="M593.01 517 614.751 517.073 614.731 523.073 592.99 523ZM611.771 511.063 629.741 520.124 611.711 529.063Z"/><path d="M0.0320845-3.99987 70.1877-3.43713 139.866-1.81089 174.337-0.622221 208.431 0.754039 242.15 2.44314 275.364 4.31962 308.017 6.38387 340.049 8.63616 371.459 11.1389 402.051 13.829 431.832 16.6445 460.746 19.6485 488.721 22.8403 515.634 26.1575 541.426 29.6006 566.103 33.1706 589.532 36.9293 611.651 40.7515 632.46 44.7002 642.314 46.7087 651.796 48.7181 660.906 50.7914 669.645 52.8661 678.002 55.0025 685.931 57.0792 693.454 59.2285 700.578 61.435 707.278 63.5841 713.565 65.807 719.41 68.0307 724.84 70.2662 729.806 72.5236 734.822 75.1031 738.51 78.7847 732.859 84.4472 729.612 81.2062 730.608 81.9322 726.233 79.6822 726.407 79.7665 721.595 77.579 721.727 77.6362 716.414 75.4487 716.515 75.4886 710.765 73.3011 710.854 73.3337 704.667 71.1462 704.778 71.1839 698.153 69.0589 698.191 69.0709 691.129 66.8834 691.214 66.9086 683.776 64.7836 683.862 64.807 675.987 62.7445 676.009 62.7504 667.697 60.6254 667.763 60.6418 659.076 58.5793 659.112 58.5878 650.05 56.5253 650.108 56.5381 640.671 54.5381 640.701 54.5444 630.889 52.5444 630.942 52.5549 610.192 48.6174 610.256 48.6291 588.194 44.8166 588.241 44.8245 564.866 41.0745 564.927 41.0838 540.302 37.5213 540.346 37.5273 514.596 34.0898 514.636 34.095 487.761 30.7825 487.797 30.7867 459.859 27.5992 459.899 27.6036 431.024 24.6036 431.061 24.6072 401.311 21.7947 401.337 21.7971 370.775 19.1096 370.807 19.1124 339.432 16.6124 339.469 16.6151 307.469 14.3651 307.498 14.367 274.873 12.3045 274.899 12.3061 241.712 10.4311 241.737 10.4325 208.05 8.74499 208.089 8.74675 174.026 7.37175 174.05 7.37262 139.612 6.18512 139.657 6.18641 70.0317 4.56141 70.0929 4.56237-0.0320845 3.99987ZM741.79 70.5376 749.25 96.3125 724.154 86.8157Z" fill="#A5A5A5" transform="matrix(1 0 0 -1 -106 632.298)"/><text font-family="IntelOne Display Regular,IntelOne Display Regular_MSFontService,sans-serif" font-weight="400" font-size="19" transform="translate(469.04 527)">weights</text><path d="M682.5 324C682.5 318.753 687.201 314.5 693 314.5 698.799 314.5 703.5 318.753 703.5 324 703.5 329.247 698.799 333.5 693 333.5 687.201 333.5 682.5 329.247 682.5 324Z" stroke="#BFBFBF" stroke-width="3" stroke-miterlimit="8" fill="#FFFFFF" fill-rule="evenodd"/><path d="M876.5 324.5C876.5 318.977 881.201 314.5 887 314.5 892.799 314.5 897.5 318.977 897.5 324.5 897.5 330.023 892.799 334.5 887 334.5 881.201 334.5 876.5 330.023 876.5 324.5Z" stroke="#BFBFBF" stroke-width="3" stroke-miterlimit="8" fill="#FFFFFF" fill-rule="evenodd"/><path d="M1094.5 323.5C1094.5 317.977 1099.2 313.5 1105 313.5 1110.8 313.5 1115.5 317.977 1115.5 323.5 1115.5 329.023 1110.8 333.5 1105 333.5 1099.2 333.5 1094.5 329.023 1094.5 323.5Z" stroke="#BFBFBF" stroke-width="3" stroke-miterlimit="8" fill="#FFFFFF" fill-rule="evenodd"/><path d="M438.5 325C438.5 319.753 443.201 315.5 449 315.5 454.799 315.5 459.5 319.753 459.5 325 459.5 330.247 454.799 334.5 449 334.5 443.201 334.5 438.5 330.247 438.5 325Z" stroke="#BFBFBF" stroke-width="3" stroke-miterlimit="8" fill="#FFFFFF" fill-rule="evenodd"/><path d="M233.5 325C233.5 319.753 237.977 315.5 243.5 315.5 249.023 315.5 253.5 319.753 253.5 325 253.5 330.247 249.023 334.5 243.5 334.5 237.977 334.5 233.5 330.247 233.5 325Z" stroke="#BFBFBF" stroke-width="3" stroke-miterlimit="8" fill="#FFFFFF" fill-rule="evenodd"/><path d="M49.5001 326C49.5001 320.753 54.2011 316.5 60.0001 316.5 65.799 316.5 70.5001 320.753 70.5001 326 70.5001 331.247 65.799 335.5 60.0001 335.5 54.2011 335.5 49.5001 331.247 49.5001 326Z" stroke="#BFBFBF" stroke-width="3" stroke-miterlimit="8" fill="#FFFFFF" fill-rule="evenodd"/><path d="M459.52 323 484.58 323.327 484.541 326.327 459.48 326ZM483.119 320.308 492.06 324.925 483.002 329.307Z" fill="#A5A5A5"/><path d="M253.502 323 277.502 323.038 277.498 326.038 253.498 326ZM276.007 320.036 285 324.55 275.993 329.036Z" fill="#A5A5A5"/><path d="M70.5076 324 87.5079 324.086 87.4927 327.086 70.4925 327ZM86.0231 321.078 95.0002 325.624 85.9776 330.078Z" fill="#A5A5A5"/><path d="M703.006 322 720.886 322.108 720.874 324.108 702.994 324ZM719.571 319.1 727.547 323.149 719.523 327.1Z" fill="#A5A5A5"/><path d="M0.0180022-0.999838 24.6297-0.556703 24.5937 1.44297-0.0180022 0.999838ZM23.3506-3.58022 31.2773 0.56315 23.2066 4.41848Z" fill="#A5A5A5" transform="matrix(1 0 0 -1 897 323.563)"/><path d="M0.0137689-0.999905 20.5891-0.71658 20.5616 1.28323-0.0137689 0.999905ZM19.2972-3.73465 27.2414 0.375118 19.187 4.26459Z" fill="#A5A5A5" transform="matrix(1 0 0 -1 1115 323.375)"/><path d="M531.001 302.431 531.314 284.25 532.132 266.192 533.517 248.317 535.405 230.947 537.734 214.136 540.505 198.014 543.595 182.757 547.07 168.412 550.87 155.238 554.928 143.318 557.044 137.868 559.229 132.727 561.485 128.021 563.995 123.216 568.052 119.219 573.667 124.917 570.057 128.474 570.795 127.477 568.608 131.664 568.669 131.542 566.482 136.104 566.556 135.939 564.431 140.939 564.479 140.823 562.416 146.135 562.474 145.976 558.474 157.726 558.531 157.546 554.781 170.546 554.825 170.379 551.388 184.567 551.42 184.419 548.358 199.544 548.38 199.427 545.63 215.427 545.65 215.299 543.337 231.986 543.352 231.87 541.477 249.12 541.488 248.996 540.113 266.746 540.121 266.618 539.308 284.556 539.312 284.444 538.999 302.569ZM559.991 115.597 586 109 575.673 133.766Z" fill="#BFBFBF"/><path d="M0.124507-3.99806 18.306-3.43185 36.4205-1.78509 54.2704 0.936707 71.6743 4.54406 88.4499 9.03866 104.611 14.2988 119.9 20.3891 134.191 27.0582 147.443 34.385 159.293 42.1578 164.853 46.2957 169.949 50.5525 174.665 54.8812 178.956 59.3029 182.866 63.8638 186.501 68.665 190.499 77.1116 183.269 80.5345 179.447 72.4614 179.873 73.1646 176.561 68.7896 176.713 68.9782 172.963 64.6032 173.13 64.7859 169.005 60.5359 169.17 60.6969 164.608 56.5094 164.748 56.6322 159.81 52.5072 159.987 52.6464 154.612 48.6464 154.806 48.7822 143.181 41.1572 143.44 41.3131 130.44 34.1256 130.683 34.2497 116.621 27.6872 116.832 27.7785 101.77 21.7785 102.012 21.8661 86.0745 16.6786 86.2773 16.7387 69.7148 12.3012 69.9382 12.3542 52.7507 8.79175 52.9595 8.82929 35.3345 6.14179 35.5754 6.17107 17.7004 4.54607 17.938 4.56056-0.124507 3.99806ZM197.255 71.5806 192.562 98 174.242 78.3947Z" fill="#BFBFBF" transform="matrix(-1.83697e-16 -1 -1 1.83697e-16 770.953 301.56)"/><path d="M324.003 302.334 324.385 293.108 325.549 283.733 327.42 274.44 329.995 265.237 333.209 256.044 337.13 246.982 341.677 238.08 346.788 229.326 352.472 220.705 358.718 212.292 365.465 204.017 372.72 195.998 380.467 188.188 388.595 180.631 397.219 173.339 406.221 166.239 415.605 159.518 425.388 153.038 445.777 141.171 456.445 135.774 467.394 130.711 478.536 126.089 489.929 121.848 501.516 118.049 513.286 114.695 525.139 111.78 537.182 109.435 549.274 107.535 561.489 106.136 565.831 105.929 566.212 113.92 562.003 114.12 562.268 114.099 550.268 115.474 550.433 115.451 538.496 117.326 538.64 117.301 526.765 119.613 526.955 119.571 515.268 122.446 515.409 122.409 503.784 125.722 503.934 125.676 492.496 129.426 492.645 129.373 481.395 133.561 481.532 133.507 470.532 138.07 470.679 138.005 459.866 143.005 459.993 142.944 449.493 148.256 449.7 148.144 429.512 159.894 429.709 159.772 420.084 166.147 420.204 166.064 410.954 172.689 411.102 172.578 402.227 179.578 402.333 179.492 393.833 186.679 393.974 186.554 385.974 193.992 386.09 193.879 378.465 201.567 378.591 201.433 371.466 209.308 371.6 209.152 364.975 217.277 365.087 217.134 358.962 225.384 359.09 225.201 353.527 233.639 353.642 233.454 348.642 242.017 348.75 241.819 344.312 250.507 344.421 250.275 340.609 259.088 340.713 258.82 337.588 267.757 337.665 267.515 335.165 276.452 335.234 276.164 333.421 285.164 333.47 284.867 332.345 293.93 332.372 293.603 331.997 302.665ZM561.471 98.1222 586 109 562.58 122.097Z" fill="#BFBFBF"/><path d="M0.194215-3.99528 9.37299-3.54909 18.7363-2.24863 28.0777-0.0430208 37.261 2.93183 46.4138 6.73478 55.4033 11.2295 64.3262 16.4292 73.0371 22.3859 81.5837 28.9553 89.9952 36.1561 98.2037 43.9828 106.143 52.3032 113.952 61.2546 121.429 70.6959 128.705 80.5663 135.74 90.9607 142.378 101.834 148.82 113.013 154.889 124.644 160.637 136.583 166.007 148.903 170.993 161.526 175.602 174.343 179.768 187.473 183.554 200.786 186.902 214.365 189.742 228.064 192.141 241.888 194.037 255.792 195.366 269.901 195.761 277.878 187.771 278.274 187.38 270.386 187.393 270.562 186.08 256.625 186.099 256.79 184.224 243.04 184.246 243.184 181.871 229.496 181.896 229.625 179.083 216.062 179.116 216.207 175.804 202.77 175.84 202.907 172.09 189.719 172.125 189.835 168 176.835 168.048 176.979 163.486 164.291 163.53 164.407 158.592 151.907 158.646 152.036 153.333 139.848 153.396 139.985 147.708 128.173 147.766 128.288 141.766 116.788 141.847 116.935 135.472 105.872 135.523 105.959 128.961 95.2092 129.062 95.3671 122.125 85.1171 122.218 85.2485 115.03 75.4985 115.114 75.6084 107.739 66.2959 107.861 66.442 100.173 57.6295 100.294 57.7614 92.4811 49.5739 92.6147 49.7075 84.5522 42.02 84.7112 42.1637 76.4612 35.1012 76.6248 35.2339 68.2498 28.7964 68.4296 28.9268 59.9296 23.1143 60.1736 23.2685 51.4861 18.206 51.7111 18.3277 42.9611 13.9527 43.2152 14.0688 34.3402 10.3813 34.6423 10.4928 25.7673 7.61782 26.0808 7.70546 17.0808 5.58046 17.4497 5.64947 8.44973 4.39947 8.80578 4.43278-0.194215 3.99528ZM203.611 273.638 192.5 298.062 179.627 274.519Z" fill="#BFBFBF" transform="matrix(-1.83697e-16 -1 -1 1.83697e-16 971.053 301.486)"/><path d="M0.166522-3.99653 4.8319-3.80214 9.72597-3.19038 19.1712-0.878617 28.6055 2.94789 37.8939 8.11539 47.0334 14.6621 56.0488 22.3896 64.8276 31.3606 73.4922 41.4906 82.0073 52.7382 90.3071 65.0927 98.3989 78.3684 106.287 92.6939 113.977 107.884 121.41 124.009 128.581 140.995 135.495 158.72 142.158 177.198 148.44 196.358 154.467 216.197 160.116 236.599 165.452 257.627 170.346 279.148 174.925 301.103 179.066 323.503 182.767 346.274 186.029 369.356 188.851 392.752 191.172 416.334 193.054 440.17 194.371 464.135 195.187 488.161 195.229 492.209 187.229 492.293 187.188 488.292 187.19 488.386 186.377 464.448 186.381 464.532 185.069 440.657 185.075 440.752 183.2 417.002 183.207 417.079 180.894 393.579 180.904 393.667 178.091 370.354 178.102 370.435 174.852 347.435 174.864 347.517 171.177 324.829 171.192 324.915 167.067 302.602 167.084 302.692 162.522 280.817 162.537 280.887 157.662 259.449 157.685 259.546 152.373 238.609 152.395 238.692 146.77 218.38 146.798 218.475 140.798 198.725 140.824 198.809 134.574 179.746 134.612 179.857 127.987 161.482 128.023 161.579 121.148 143.954 121.19 144.056 114.065 127.181 114.117 127.299 106.742 111.299 106.806 111.432 99.1812 96.3691 99.2461 96.492 91.4336 82.3045 91.522 82.4568 83.522 69.3318 83.6172 69.4806 75.4297 57.2931 75.5608 57.4769 67.1858 46.4144 67.3353 46.6 58.8353 36.6625 59.0161 36.8601 50.4536 28.1101 50.7093 28.3495 41.9593 20.8495 42.2332 21.0643 33.4207 14.7518 33.8053 14.9955 24.9303 10.058 25.3716 10.2692 16.4341 6.64421 16.9865 6.82282 8.04905 4.63532 8.50386 4.71911 4.00386 4.15661 4.33348 4.18403-0.166522 3.99653ZM203.187 488.126 191.437 512.25 179.188 488.376Z" fill="#BFBFBF" transform="matrix(-1.83697e-16 -1 -1 1.83697e-16 1185.33 300.649)"/><path d="M0.21885-3.99401 4.97494-3.7334 9.87045-2.98548 14.8106-1.6997 19.6402 0.04435 24.4323 2.24072 29.1922 4.88509 33.932 7.97912 38.5678 11.505 43.2299 15.4548 47.818 19.7844 52.3155 24.4747 56.8702 29.6067 61.2771 35.0994 65.7521 40.9808 74.4377 53.8507 82.9793 68.0867 91.3161 83.6236 99.4456 100.513 107.438 118.636 115.173 137.943 122.65 158.364 129.87 179.897 136.835 202.362 143.484 225.821 149.879 250.146 155.96 275.288 161.665 301.241 166.992 327.876 171.941 355.19 176.577 383.072 180.713 411.517 184.471 440.392 187.791 469.711 190.61 499.403 192.99 529.409 194.807 559.602 196.185 589.981 197 620.493 197.086 631.03 189.086 631.096 189 620.595 189.001 620.669 188.189 590.232 188.192 590.306 186.817 559.994 186.82 560.053 185.007 529.928 185.013 530.004 182.638 500.066 182.643 500.128 179.83 470.503 179.838 470.575 176.525 441.325 176.533 441.391 172.783 412.579 172.792 412.638 168.667 384.263 168.679 384.344 164.054 356.531 164.064 356.588 159.127 329.338 159.14 329.409 153.828 302.847 153.843 302.921 148.156 277.046 148.175 277.128 142.112 252.065 142.131 252.142 135.756 227.892 135.777 227.966 129.152 204.591 129.179 204.685 122.242 182.31 122.27 182.397 115.082 160.959 115.119 161.063 107.681 140.75 107.724 140.863 100.037 121.675 100.09 121.801 92.1525 103.801 92.2083 103.922 84.1458 87.1724 84.2254 87.3288 75.9754 71.9538 76.07 72.1205 67.6325 58.058 67.7469 58.2376 59.1844 45.5501 59.3167 45.7346 54.9417 39.9846 55.0051 40.0657 50.6926 34.6907 50.8208 34.8426 46.3833 29.8426 46.4879 29.956 42.1129 25.3935 42.2547 25.5342 37.8172 21.3467 37.9768 21.4894 33.4768 17.6769 33.641 17.8088 29.2035 14.4338 29.4385 14.5995 24.9385 11.662 25.1824 11.8091 20.6824 9.30913 20.9584 9.44876 16.4584 7.38626 16.7664 7.51222 12.2664 5.88722 12.6175 5.99603 8.05497 4.80853 8.4584 4.89162 3.9584 4.20412 4.34365 4.24401-0.21885 3.99401ZM205.053 626.965 193.25 651.062 181.054 627.162Z" fill="#BFBFBF" transform="matrix(-1.83697e-16 -1 -1 1.83697e-16 1324.26 302.45)"/><path d="M134.009 303.176 134.654 293.767 136.704 284.176 140.049 274.667 144.546 265.282 150.25 256.013 157.077 246.867 164.96 237.895 173.837 229.082 183.702 220.489 194.491 212.048 206.211 203.813 218.785 195.788 232.104 187.961 246.235 180.391 261.11 173.079 276.658 166.092 292.889 159.298 309.687 152.88 327.099 146.783 345.011 141.001 363.485 135.597 382.334 130.571 401.613 125.987 421.267 121.717 441.243 117.948 461.522 114.62 481.992 111.732 502.717 109.345 523.626 107.461 544.611 106.079 566.739 105.307 567.018 113.302 544.952 114.072 545.075 114.066 524.2 115.441 524.296 115.433 503.484 117.308 503.583 117.298 482.958 119.673 483.059 119.66 462.684 122.535 462.773 122.522 442.585 125.834 442.679 125.818 422.804 129.568 422.912 129.546 403.349 133.796 403.425 133.779 384.238 138.341 384.343 138.315 365.593 143.315 365.685 143.289 347.31 148.664 347.416 148.631 329.604 154.381 329.697 154.35 312.384 160.412 312.49 160.374 295.802 166.749 295.919 166.702 279.794 173.452 279.89 173.411 264.452 180.348 264.577 180.289 249.827 187.539 249.951 187.476 235.951 194.976 236.089 194.898 222.902 202.648 223.027 202.571 210.589 210.509 210.737 210.41 199.175 218.535 199.34 218.413 188.715 226.725 188.877 226.591 179.19 235.028 179.381 234.851 170.693 243.476 170.88 243.277 163.192 252.027 163.393 251.78 156.768 260.655 156.969 260.359 151.469 269.296 151.67 268.928 147.357 277.928 147.523 277.527 144.336 286.589 144.474 286.098 142.537 295.161 142.616 294.598 141.991 303.723ZM562.666 97.3775 586.875 108.95 563.092 121.374Z" fill="#BFBFBF"/><path d="M0.21885-3.99401 5.02428-3.7307 10.0559-2.83465 15.0373-1.3334 19.8833 0.68574 24.7542 3.22128 29.5337 6.27484 34.3348 9.89212 38.9508 13.923 43.6162 18.394 48.2029 23.4329 52.7444 28.87 57.2803 34.7474 61.7403 41.0551 66.1894 47.7924 70.5664 54.9604 74.932 62.5528 79.2344 70.525 83.4631 78.9192 87.6849 87.6778 91.8426 96.8123 95.9995 106.386 100.033 116.28 108.006 137.124 115.793 159.353 123.324 182.825 130.601 207.605 137.56 233.498 144.265 260.443 150.719 288.453 156.797 317.465 162.497 347.342 167.883 378.027 172.892 409.462 177.526 441.585 181.721 474.334 185.478 507.58 188.796 541.387 191.676 575.569 194.055 610.067 195.933 644.876 197.311 679.875 198.125 714.998 198.26 730.215 190.26 730.286 190.125 715.098 190.126 715.155 189.314 680.093 189.316 680.157 187.941 645.22 187.943 645.278 186.068 610.528 186.072 610.588 183.697 576.15 183.702 576.211 180.827 542.086 180.832 542.141 177.519 508.391 177.525 508.449 173.775 475.262 173.782 475.321 169.595 442.633 169.603 442.696 164.978 410.634 164.987 410.692 159.987 379.317 159.998 379.379 154.623 348.754 154.633 348.812 148.946 319 148.96 319.07 142.897 290.133 142.915 290.211 136.477 262.273 136.493 262.341 129.806 235.466 129.825 235.538 122.887 209.726 122.912 209.815 115.662 185.127 115.691 185.222 108.191 161.847 108.225 161.947 100.475 139.822 100.514 139.929 92.5765 119.179 92.6084 119.26 88.6084 109.447 88.6434 109.531 84.5184 100.031 84.5469 100.095 80.4219 91.0321 80.4592 91.1118 76.2717 82.4243 76.3027 82.4871 72.1152 74.1746 72.1674 74.2747 67.9174 66.3997 67.9699 66.4939 63.6574 58.9939 63.7111 59.0846 59.3986 52.0221 59.4746 52.1417 55.0996 45.5167 55.1715 45.6218 50.7965 39.4343 50.8958 39.5688 46.4583 33.8188 46.5551 33.9393 42.1176 28.6268 42.2295 28.7551 37.792 23.8801 37.9824 24.0755 33.4824 19.763 33.619 19.8879 29.1815 16.0129 29.4055 16.1947 24.843 12.7572 25.0964 12.9333 20.5964 10.0583 20.9031 10.2356 16.3406 7.86057 16.649 8.00481 12.149 6.12981 12.5333 6.26736 7.9708 4.89236 8.4237 5.00054 3.8612 4.18804 4.34365 4.24401-0.21885 3.99401ZM206.224 726.144 194.437 750.25 182.225 726.357Z" fill="#BFBFBF" transform="matrix(-1.83697e-16 -1 -1 1.83697e-16 1423.26 303.45)"/><path d="M0.280994-3.99012 4.99405-3.65821 9.94103-2.61308 14.7676-0.958255 19.5919 1.352 24.3744 4.2484 29.0242 7.769 33.6171 11.7714 38.1732 16.3925 42.6986 21.4997 47.1368 27.1601 51.5417 33.2887 55.9443 39.9245 60.2733 47.1182 64.5129 54.7115 68.8167 62.8129 72.9906 71.4135 77.1489 80.4232 81.3076 89.9379 85.4021 99.8907 89.4254 110.263 93.4475 121.01 97.4081 132.263 101.302 143.881 105.128 155.862 108.957 168.228 112.662 181.038 119.994 207.67 127.013 235.686 133.842 265.068 140.357 295.637 146.557 327.389 152.442 360.26 158.014 394.063 163.272 428.87 168.092 464.486 172.598 500.911 176.667 538.028 180.296 575.764 183.55 614.064 186.304 652.802 188.62 691.915 190.434 731.404 191.749 771.08 192.562 810.947 192.687 830.788 184.687 830.838 184.563 811.025 184.563 811.082 183.751 771.269 183.752 771.32 182.44 731.695 182.442 731.746 180.629 692.309 180.632 692.361 178.319 653.299 178.323 653.346 175.573 614.659 175.577 614.714 172.327 576.464 172.331 576.508 168.706 538.82 168.711 538.873 164.649 501.811 164.655 501.866 160.155 465.491 160.161 465.536 155.349 429.974 155.357 430.035 150.107 395.285 150.116 395.338 144.553 361.588 144.563 361.642 138.688 328.83 138.699 328.892 132.512 297.204 132.525 297.271 126.025 266.771 126.041 266.843 119.229 237.53 119.245 237.597 112.245 209.66 112.268 209.749 104.956 183.187 104.97 183.236 101.282 170.486 101.304 170.558 97.4915 158.246 97.5021 158.279 93.6896 146.342 93.7073 146.396 89.8323 134.834 89.8519 134.89 85.9144 123.703 85.9413 123.777 81.9413 113.09 81.9582 113.134 77.9582 102.822 77.9883 102.897 73.9258 93.0218 73.9598 93.102 69.8348 83.6645 69.8682 83.7387 65.7432 74.8012 65.7764 74.8714 61.6514 66.3714 61.7175 66.5016 57.4675 58.5016 57.5075 58.575 53.32 51.075 53.3852 51.1874 49.1352 44.1249 49.2294 44.2739 44.9169 37.7739 45.0019 37.897 40.6894 31.897 40.7897 32.0306 36.4772 26.5306 36.6312 26.7152 32.2562 21.7777 32.4016 21.9333 28.0266 17.4958 28.2471 17.7031 23.8721 13.8906 24.0854 14.064 19.7104 10.7515 20.0529 10.9839 15.6154 8.29644 15.9599 8.48268 11.5224 6.35768 11.9527 6.53378 7.5777 5.03378 8.04818 5.16361 3.61068 4.22611 4.15651 4.30262-0.280994 3.99012ZM200.662 826.738 188.812 850.812 176.662 826.888Z" fill="#BFBFBF" transform="matrix(-1.83697e-16 -1 -1 1.83697e-16 1524 298)"/><path d="M-56.9941 303.231-56.7337 298.479-55.9904 293.546-54.771 288.601-53.0295 283.778-50.9005 278.921-48.2556 274.161-45.2375 269.371-41.7763 264.734-37.9523 260.068-33.6831 255.475-29.0552 250.911-23.9932 246.362-18.6258 241.889-12.8019 237.409-0.250721 228.662 13.746 220.111 29.0902 211.713 45.6669 203.519 63.4186 195.525 82.4108 187.727 102.455 180.186 123.558 172.901 145.651 165.934 168.668 159.223 192.562 152.764 217.272 146.681 242.722 140.976 268.917 135.587 295.736 130.574 323.118 125.937 351.002 121.739 379.383 117.98 408.199 114.66 437.329 111.778 466.775 109.397 496.406 107.518 526.291 106.14 556.237 105.325 566.209 105.221 566.293 113.221 556.354 113.324 556.421 113.323 526.546 114.136 526.622 114.133 496.809 115.508 496.878 115.504 467.316 117.379 467.385 117.374 438.01 119.749 438.081 119.743 409.019 122.618 409.083 122.611 380.333 125.923 380.4 125.915 352.088 129.665 352.158 129.655 324.345 133.843 324.418 133.831 297.105 138.456 297.172 138.444 270.422 143.444 270.493 143.43 244.368 148.805 244.437 148.79 219.062 154.478 219.144 154.459 194.519 160.521 194.606 160.499 170.794 166.936 170.87 166.915 147.932 173.602 148.015 173.577 126.015 180.514 126.118 180.481 105.118 187.731 105.221 187.693 85.2833 195.193 85.3942 195.15 66.5192 202.9 66.6425 202.847 49.0175 210.784 49.1474 210.723 32.7099 218.848 32.8579 218.771 17.6704 227.083 17.8351 226.988 4.02262 235.426 4.22462 235.294-8.15038 243.919-7.99871 243.808-13.6862 248.183-13.5643 248.085-18.8143 252.46-18.7013 252.362-23.6388 256.8-23.504 256.673-28.004 261.11-27.8828 260.986-32.0079 265.423-31.8436 265.235-35.5311 269.735-35.4196 269.592-38.7321 274.03-38.5534 273.77-41.4284 278.332-41.3159 278.142-43.8159 282.642-43.6491 282.306-45.6491 286.868-45.5503 286.621-47.1753 291.121-47.0539 290.72-48.1789 295.282-48.1072 294.921-48.7947 299.483-48.756 299.106-49.006 303.668ZM562.126 97.2633 586.25 109.012 562.376 121.262Z" fill="#BFBFBF"/><path d="M-157.994 303.478-157.731 298.673-156.839 293.666-155.408 288.693-153.377 283.75-150.85 278.962-147.872 274.131-144.316 269.39-140.348 264.706-135.874 260.037-130.971 255.457-125.585 250.904-119.769 246.367-113.53 241.91-106.917 237.459-99.8089 233.08-92.3408 228.713-84.4398 224.415-76.1754 220.125-67.5247 215.894-58.4324 211.727-39.3215 203.555-18.7045 195.572 3.21165 187.785 26.3736 180.253 50.8365 172.977 76.3559 165.954 102.999 159.246 130.697 152.855 159.263 146.778 188.766 141.015 219.018 135.629 250.083 130.618 281.769 126.047 314.078 121.852 346.95 118.095 380.257 114.777 414.003 111.897 448.064 109.517 482.44 107.639 517.002 106.324 551.689 105.51 566.409 105.404 566.467 113.404 551.779 113.51 551.844 113.509 517.219 114.321 517.277 114.319 482.777 115.632 482.843 115.629 448.531 117.504 448.591 117.5 414.591 119.875 414.653 119.87 380.965 122.745 381.021 122.74 347.771 126.053 347.829 126.046 315.017 129.796 315.078 129.789 282.828 133.977 282.884 133.969 251.259 138.531 251.324 138.521 220.324 143.521 220.389 143.51 190.201 148.885 190.267 148.873 160.829 154.623 160.895 154.61 132.395 160.672 132.462 160.657 104.837 167.032 104.914 167.014 78.3516 173.701 78.4363 173.679 52.9988 180.679 53.0779 180.656 28.7029 187.906 28.7995 187.876 5.73705 195.376 5.83919 195.341-15.9733 203.091-15.8682 203.052-36.3682 210.99-36.2398 210.938-55.2397 219.063-55.1459 219.021-64.1459 223.146-64.0552 223.103-72.6177 227.291-72.5322 227.248-80.7197 231.498-80.651 231.461-88.4635 235.711-88.3559 235.65-95.7309 239.963-95.6519 239.915-102.652 244.228-102.516 244.141-109.016 248.516-108.925 248.452-115.05 252.827-114.914 252.726-120.602 257.164-120.48 257.065-125.73 261.502-125.582 261.37-130.332 265.808-130.175 265.652-134.487 270.152-134.323 269.97-138.136 274.47-137.988 274.285-141.363 278.785-141.157 278.484-143.97 283.046-143.837 282.814-146.212 287.314-146.05 286.968-147.925 291.53-147.781 291.116-149.093 295.678-148.999 295.274-149.812 299.836-149.756 299.354-150.006 303.916ZM562.352 97.4331 586.437 109.26 562.525 121.432Z" fill="#BFBFBF"/><path d="M-256.991 303.176-256.662 298.372-255.688 293.295-253.969 288.277-251.738 283.409-248.852 278.509-245.42 273.756-241.475 268.958-236.907 264.324-231.874 259.678-226.283 255.116-220.279 250.58-213.703 246.047-206.644 241.596-199.094 237.155-191.058 232.789-182.597 228.432-173.689 224.136-164.297 219.913-154.478 215.695-144.228 211.545-133.599 207.394-122.531 203.369-111.043 199.352-99.1849 195.399-86.9458 191.445-74.3191 187.613-48.0585 180.092-20.3501 172.82 8.59927 165.865 38.7887 159.163 70.1666 152.712 102.608 146.637 135.979 140.94 170.346 135.556 205.525 130.548 241.517 125.916 278.134 121.722 315.374 117.967 353.175 114.65 391.477 111.771 430.093 109.393 469.083 107.515 508.263 106.139 547.568 105.325 566.969 105.171 567.032 113.171 547.657 113.324 547.708 113.324 508.458 114.136 508.515 114.135 469.39 115.51 469.442 115.507 430.505 117.382 430.558 117.38 391.996 119.755 392.05 119.751 353.8 122.626 353.85 122.622 316.1 125.934 316.151 125.929 278.964 129.679 279.018 129.674 242.455 133.861 242.511 133.854 206.573 138.479 206.626 138.472 171.501 143.472 171.557 143.464 137.244 148.839 137.298 148.83 103.986 154.518 104.049 154.506 71.6737 160.569 71.743 160.555 40.4305 166.993 40.4919 166.979 10.3669 173.667 10.4344 173.651-18.4406 180.589-18.3596 180.569-45.9846 187.819-45.8987 187.795-72.0862 195.295-72.0259 195.277-84.5884 199.09-84.5203 199.068-96.7078 203.006-96.6726 202.994-108.485 206.932-108.43 206.913-119.867 210.913-119.821 210.896-130.821 214.896-130.732 214.863-141.295 218.988-141.249 218.97-151.436 223.095-151.359 223.062-161.109 227.25-161.047 227.223-170.36 231.41-170.262 231.365-179.075 235.615-178.981 235.568-187.356 239.881-187.278 239.839-195.215 244.152-195.097 244.085-202.534 248.46-202.429 248.395-209.366 252.77-209.23 252.68-215.667 257.118-215.527 257.016-221.402 261.454-221.283 261.361-226.721 265.799-226.537 265.639-231.412 270.139-231.277 270.008-235.652 274.445-235.41 274.177-239.16 278.739-239.007 278.542-242.257 283.042-242.053 282.73-244.741 287.292-244.551 286.929-246.614 291.429-246.466 291.058-248.028 295.621-247.884 295.078-248.759 299.64-248.697 299.16-249.009 303.723ZM562.905 97.2029 587 109.012 563.096 121.202Z" fill="#BFBFBF"/><path d="M-226.991 309.481-226.663 304.562-225.704 299.357-224.137 294.247-221.978 289.186-219.232 284.163-215.921 279.262-212.058 274.352-207.702 269.541-202.862 264.766-197.514 259.997-191.618 255.319-185.305 250.664-178.491 246.079-171.193 241.51-163.471 237.016-155.328 232.534-146.733 228.047-137.705 223.691-128.256 219.344-118.378 215.066-108.129 210.79-97.4357 206.576-86.375 202.428-74.9303 198.341-51.032 190.374-25.6918 182.597 1.01961 175.072 28.914 167.864 58.0512 160.971 88.24 154.395 119.493 148.069 151.683 142.182 184.743 136.609 218.678 131.475 253.297 126.718 288.605 122.398 324.534 118.517 360.965 115.074 397.835 112.132 435.016 109.691 472.574 107.751 510.322 106.373 548.256 105.56 566.161 105.441 566.214 113.441 548.339 113.559 548.398 113.558 510.523 114.371 510.583 114.369 472.896 115.744 472.956 115.742 435.456 117.679 435.512 117.676 398.387 120.113 398.443 120.109 361.631 123.047 361.689 123.042 325.314 126.479 325.367 126.474 289.492 130.349 289.548 130.342 254.298 134.655 254.357 134.647 219.795 139.397 219.848 139.389 185.973 144.514 186.04 144.504 153.04 150.066 153.094 150.057 120.97 155.932 121.043 155.917 89.8559 162.23 89.9138 162.218 59.7888 168.78 59.8582 168.764 30.7957 175.639 30.8758 175.62 3.06328 182.807 3.14699 182.784-23.478 190.284-23.3889 190.258-48.6389 198.008-48.5477 197.979-72.3601 205.917-72.2797 205.889-83.6547 209.951-83.5956 209.93-94.5956 214.055-94.5334 214.031-105.158 218.218-105.085 218.188-115.272 222.438-115.223 222.417-125.035 226.667-124.953 226.631-134.328 230.943-134.262 230.912-143.199 235.224-143.086 235.168-151.586 239.605-151.509 239.564-159.571 244.001-159.488 243.954-167.113 248.391-167.002 248.325-174.19 252.825-174.079 252.753-180.767 257.253-180.626 257.154-186.814 261.716-186.701 261.63-192.451 266.193-192.276 266.045-197.463 270.67-197.316 270.532-202.003 275.157-201.847 274.994-206.035 279.619-205.856 279.407-209.544 284.095-209.373 283.861-212.498 288.486-212.303 288.166-214.865 292.853-214.696 292.504-216.696 297.192-216.551 296.795-217.988 301.482-217.879 301.034-218.754 305.784-218.696 305.325-219.009 310.013ZM562.109 97.468 586.187 109.309 562.267 121.467Z" fill="#BFBFBF"/><path d="M-126.994 309.782-126.733 304.888-125.915 299.703-124.494 294.629-122.622 289.614-120.222 284.614-117.32 279.668-113.972 274.745-110.121 269.915-105.856 265.132-101.149 260.361-96.0099 255.671-90.4405 250.998-84.4404 246.402-78.028 241.831-71.2437 237.266-64.0786 232.764-56.5482 228.334-48.5671 223.9-31.6226 215.271-13.235 206.77 6.51385 198.53 27.4994 190.488 49.7948 182.7 73.1968 175.234 97.659 167.958 123.243 161.061 149.755 154.417 177.141 148.15 205.398 142.198 234.47 136.622 264.162 131.485 294.598 126.726 325.537 122.342 357.041 118.458 388.979 115.014 421.357 112.071 453.983 109.628 486.924 107.687 520.052 106.309 553.307 105.433 566.595 105.333 566.656 113.332 553.405 113.432 553.48 113.431 520.293 114.306 520.354 114.304 487.291 115.679 487.36 115.675 454.485 117.613 454.548 117.608 421.986 120.046 422.049 120.041 389.737 122.978 389.804 122.972 357.929 126.409 357.989 126.402 326.552 130.277 326.624 130.268 295.749 134.643 295.805 134.634 265.43 139.384 265.494 139.374 235.869 144.499 235.941 144.485 206.941 150.048 207.012 150.034 178.824 155.971 178.892 155.956 151.58 162.206 151.66 162.187 125.222 168.812 125.291 168.794 99.7912 175.669 99.8903 175.641 75.5153 182.891 75.5907 182.868 52.2782 190.305 52.3815 190.271 30.194 198.021 30.3064 197.98 9.43136 205.98 9.54008 205.936-10.0849 214.124-9.94646 214.063-28.1965 222.5-28.0597 222.434-44.8722 230.996-44.745 230.929-52.62 235.304-52.5345 235.255-59.972 239.63-59.872 239.569-66.9345 244.007-66.8295 243.938-73.517 248.438-73.4282 248.377-79.7407 252.877-79.6302 252.795-85.5052 257.295-85.3664 257.184-90.8039 261.746-90.6788 261.637-95.6789 266.199-95.5275 266.054-100.09 270.679-99.9524 270.532-104.077 275.157-103.935 274.988-107.622 279.613-107.442 279.369-110.63 284.056-110.487 283.831-113.237 288.519-113.081 288.226-115.331 292.913-115.19 292.581-116.94 297.269-116.836 296.948-118.148 301.636-118.049 301.181-118.799 305.931-118.756 305.52-119.006 310.208ZM562.535 97.3629 586.625 109.182 562.716 121.362Z" fill="#BFBFBF"/><path d="M-188.994 309.781-188.731 304.836-187.771 299.629-186.278 294.539-184.192 289.492-181.591 284.49-178.426 279.544-174.818 274.624-170.636 269.789-165.99 265.014-160.905 260.251-155.318 255.563-149.248 250.898-142.756 246.316-135.845 241.751-128.493 237.187-120.698 232.688-112.483 228.265-103.842 223.849-94.8247 219.498-85.4421 215.216-75.6262 210.938-65.4193 206.716-44.0076 198.491-21.216 190.454 2.94911 182.671 28.4096 175.208 54.9901 167.936 82.7554 161.042 111.514 154.401 141.333 148.136 172.021 142.186 203.588 136.612 235.901 131.477 268.894 126.719 302.579 122.336 336.765 118.454 371.511 115.011 406.633 112.069 442.129 109.627 477.878 107.686 513.875 106.309 550 105.432 566.16 105.321 566.216 113.32 550.09 113.432 550.159 113.431 514.097 114.306 514.153 114.304 478.215 115.679 478.279 115.676 442.592 117.614 442.649 117.61 407.212 120.048 407.271 120.043 372.209 122.981 372.269 122.975 337.582 126.413 337.639 126.407 303.514 130.282 303.579 130.274 269.954 134.649 270.008 134.641 237.071 139.391 237.128 139.382 204.878 144.507 204.946 144.496 173.446 150.059 173.511 150.046 142.886 155.984 142.947 155.972 113.197 162.222 113.275 162.204 84.5875 168.829 84.6514 168.814 56.964 175.689 57.0555 175.665 30.5555 182.915 30.6251 182.896 5.25008 190.333 5.35127 190.302-18.7112 198.052-18.6073 198.017-41.2948 206.017-41.1906 205.978-62.5031 214.166-62.4088 214.128-72.5338 218.316-72.4642 218.286-82.2142 222.536-82.1518 222.508-91.4643 226.758-91.3867 226.722-100.324 231.035-100.243 230.994-108.805 235.369-108.729 235.329-116.854 239.704-116.75 239.646-124.438 244.084-124.328 244.018-131.578 248.518-131.483 248.457-138.295 252.957-138.193 252.887-144.568 257.387-144.438 257.291-150.375 261.854-150.241 261.746-155.679 266.309-155.515 266.164-160.453 270.789-160.321 270.659-164.821 275.284-164.662 275.111-168.662 279.736-168.462 279.485-171.899 284.172-171.756 283.963-174.756 288.651-174.576 288.34-177.014 293.027-176.866 292.71-178.803 297.397-178.662 296.995-180.037 301.683-179.941 301.282-180.816 306.032-180.756 305.52-181.006 310.208ZM562.105 97.3484 586.187 109.182 562.271 121.348Z" fill="#BFBFBF"/><path d="M-25.9943 309.534-25.7361 304.691-25.0635 299.58-23.8549 294.544-22.2595 289.558-20.2044 284.586-17.7678 279.713-14.8763 274.784-11.5557 269.966-7.93275 265.179-3.85335 260.387 0.587816 255.689 5.41724 250.988 15.985 241.821 27.9999 232.794 41.3064 223.923 55.9037 215.265 71.6732 206.75 88.6269 198.494 106.685 190.503 125.792 182.709 145.898 175.169 166.937 167.947 188.843 161.042 211.612 154.457 235.133 148.122 259.403 142.226 284.293 136.646 309.871 131.506 335.944 126.742 362.519 122.418 389.528 118.532 416.914 115.086 444.678 112.14 472.689 109.696 500.953 107.753 529.346 106.375 557.863 105.56 566.403 105.485 566.473 113.485 557.973 113.559 558.052 113.558 529.614 114.37 529.694 114.367 501.381 115.742 501.462 115.737 473.274 117.675 473.348 117.669 445.41 120.107 445.484 120.099 417.797 123.037 417.874 123.028 390.562 126.465 390.632 126.456 363.695 130.331 363.767 130.32 337.267 134.632 337.344 134.619 311.344 139.369 311.413 139.356 285.913 144.481 286 144.462 261.188 150.025 261.257 150.009 237.069 155.884 237.165 155.859 213.728 162.172 213.799 162.152 191.111 168.714 191.202 168.687 169.39 175.562 169.486 175.53 148.549 182.718 148.654 182.68 128.654 190.18 128.761 190.138 109.761 197.888 109.869 197.842 91.9311 205.78 92.0638 205.718 75.2513 213.905 75.4006 213.829 59.7756 222.266 59.9154 222.187 45.4779 230.75 45.6563 230.637 32.5313 239.387 32.7152 239.257 20.9027 248.132 21.1211 247.956 10.7461 256.956 10.915 256.801 6.22745 261.363 6.34445 261.244 2.03195 265.807 2.17072 265.652-1.76678 270.277-1.62288 270.098-5.12288 274.723-5.01893 274.579-8.20643 279.204-8.0499 278.958-10.7999 283.646-10.6723 283.411-12.9848 288.036-12.8658 287.775-14.8033 292.462-14.6903 292.153-16.1903 296.841-16.1105 296.555-17.2355 301.243-17.1592 300.831-17.7842 305.581-17.7557 305.272-18.0057 309.96ZM562.333 97.5202 586.437 109.309 562.544 121.519Z" fill="#BFBFBF"/><path d="M-87.9944 309.534-87.7334 304.64-86.9225 299.505-85.6422 294.45-83.8343 289.429-81.5768 284.449-78.875 279.572-75.722 274.646-72.0673 269.816-68.0605 265.034-63.6004 260.251-58.7163 255.56-53.4642 250.884-47.7791 246.285-41.734 241.703-35.3189 237.194-28.5184 232.681-13.9248 223.836 2.10851 215.189 19.5009 206.681 38.1966 198.435 58.0578 190.453 79.0349 182.665 101.198 175.131 124.354 167.914 148.441 161.014 173.517 154.432 199.406 148.101 226.108 142.209 253.554 136.632 281.625 131.494 310.318 126.732 339.637 122.41 369.389 118.526 399.518 115.081 430.088 112.137 460.967 109.694 492.037 107.752 523.36 106.374 554.745 105.56 566.219 105.469 566.282 113.468 554.844 113.559 554.916 113.558 523.604 114.37 523.676 114.368 492.426 115.743 492.499 115.739 461.499 117.677 461.565 117.672 430.753 120.109 430.821 120.103 400.321 123.041 400.392 123.033 370.329 126.471 370.393 126.463 340.705 130.338 340.771 130.329 311.521 134.642 311.592 134.63 282.967 139.38 283.033 139.369 255.033 144.494 255.109 144.479 227.734 150.042 227.799 150.028 201.174 155.903 201.263 155.882 175.45 162.195 175.516 162.178 150.516 168.741 150.601 168.717 126.601 175.592 126.69 175.566 103.628 182.753 103.725 182.721 81.6624 190.221 81.7671 190.184 60.8921 197.934 60.9916 197.896 41.2416 205.833 41.3642 205.782 22.8017 213.969 22.945 213.903 5.69498 222.34 5.83632 222.267-10.0387 230.83-9.86435 230.73-24.3018 239.48-24.1634 239.392-30.8509 243.83-30.7622 243.769-37.0747 248.207-36.959 248.122-42.8965 252.622-42.7968 252.544-48.3593 257.044-48.2153 256.922-53.3403 261.484-53.2291 261.382-57.9791 265.944-57.8245 265.787-62.137 270.412-61.9965 270.253-65.8715 274.878-65.7479 274.723-69.2479 279.348-69.0685 279.091-72.0685 283.778-71.9387 283.56-74.5012 288.185-74.3569 287.898-76.4819 292.586-76.3615 292.289-78.049 296.977-77.935 296.604-79.1225 301.292-79.049 300.933-79.799 305.683-79.7557 305.272-80.0057 309.96ZM562.155 97.5006 586.25 109.309 562.346 121.5Z" fill="#BFBFBF"/><path d="M0.213031-3.99432 5.05893-3.73588 10.108-3.06266 15.1716-1.8474 20.1147-0.177455 25.0756 1.93923 29.9553 4.445 34.8009 7.39164 39.6209 10.7136 44.4292 14.4822 49.1416 18.6136 53.8378 23.1168 58.4803 28.0173 67.6375 38.8279 76.6658 51.0351 85.4752 64.6611 94.0654 79.5046 102.516 95.5866 110.706 112.847 118.695 131.279 126.426 150.764 133.899 171.237 141.119 192.645 148.023 214.988 154.61 238.199 160.881 262.218 166.775 286.924 172.292 312.313 177.431 338.323 182.194 364.957 186.519 392.035 190.341 419.606 193.787 447.548 196.732 475.81 199.176 504.383 201.119 533.208 202.497 562.157 203.374 591.298 203.453 600.404 195.453 600.473 195.375 591.409 195.377 591.495 194.502 562.433 194.505 562.503 193.13 533.628 193.134 533.706 191.197 504.956 191.202 505.028 188.765 476.528 188.772 476.602 185.834 448.415 185.843 448.49 182.405 420.615 182.413 420.674 178.6 393.174 178.613 393.256 174.3 366.256 174.312 366.329 169.562 339.767 169.576 339.838 164.451 313.9 164.466 313.974 158.966 288.662 158.984 288.741 153.109 264.116 153.13 264.198 146.88 240.26 146.902 240.342 140.339 217.217 140.366 217.306 133.491 195.056 133.522 195.153 126.335 173.841 126.368 173.934 118.93 153.559 118.969 153.663 111.282 134.288 111.33 134.403 103.392 116.091 103.449 116.215 95.3236 99.0896 95.3966 99.2357 87.0216 83.2982 87.1005 83.4411 78.6005 68.7536 78.7034 68.9217 70.0159 55.4842 70.159 55.691 61.284 43.691 61.4478 43.8979 52.4478 33.2729 52.5962 33.4385 48.0962 28.6885 48.2315 28.8246 43.669 24.4496 43.8006 24.5703 39.2381 20.5703 39.4075 20.7107 34.7825 17.0857 34.9801 17.2311 30.3551 14.0436 30.5467 14.1677 25.9217 11.3552 26.1728 11.4958 21.5478 9.12077 21.8052 9.24161 17.1177 7.24161 17.4072 7.35208 12.7822 5.78958 13.129 5.88955 8.44151 4.76455 8.84634 4.83991 4.15884 4.21491 4.47447 4.24432-0.213031 3.99432ZM211.418 596.335 199.625 620.437 187.419 596.542Z" fill="#BFBFBF" transform="matrix(-1.83697e-16 -1 -1 1.83697e-16 1293.5 308.747)"/><path d="M0.213031-3.99432 5.11117-3.73309 10.1837-2.92148 15.2653-1.63415 20.2226 0.241594 25.1917 2.49424 30.1101 5.28578 34.9533 8.55818 39.7679 12.2016 44.5693 16.3543 49.2748 20.8663 53.9718 25.8207 58.5811 31.1983 63.1625 36.925 67.748 43.039 72.2606 49.5854 76.7738 56.5142 85.5569 71.3632 94.1398 87.7087 102.58 105.408 110.76 124.348 118.742 144.586 126.467 165.94 133.936 188.472 141.15 211.997 148.05 236.521 154.633 262.037 160.901 288.363 166.792 315.564 172.306 343.445 177.443 372.012 182.204 401.204 186.526 431.025 190.347 461.276 193.791 491.963 196.735 523.031 199.178 554.41 201.12 586.041 202.498 617.921 203.375 649.867 203.468 661.844 195.469 661.907 195.375 649.969 195.377 650.047 194.502 618.172 194.504 618.235 193.129 586.423 193.133 586.495 191.195 554.933 191.2 554.998 188.762 523.685 188.768 523.752 185.83 492.752 185.837 492.821 182.4 462.196 182.407 462.251 178.594 432.064 178.604 432.136 174.291 402.386 174.302 402.456 169.552 373.331 169.563 373.395 164.438 344.895 164.451 344.963 158.951 317.151 158.966 317.222 153.091 290.097 153.109 290.176 146.859 263.926 146.877 263.999 140.314 238.562 140.337 238.646 133.462 214.208 133.488 214.298 126.301 190.86 126.328 190.946 118.891 168.509 118.926 168.611 111.239 147.361 111.279 147.468 103.341 127.343 103.39 127.461 95.2654 108.648 95.327 108.784 86.952 91.2217 87.021 91.3596 78.521 75.1721 78.6197 75.3489 69.9322 60.6614 70.0233 60.8082 65.5858 53.9957 65.6441 54.0827 61.2066 47.6452 61.3 47.775 56.8 41.775 56.8765 41.8738 52.3765 36.2488 52.463 36.3532 47.963 31.1032 48.0972 31.252 43.5347 26.4395 43.669 26.5746 39.1065 22.1996 39.2584 22.338 34.6334 18.338 34.8362 18.5021 30.2112 15.0021 30.3856 15.1269 25.7606 12.0019 26.0256 12.1662 21.4006 9.54124 21.7234 9.70563 17.0359 7.58063 17.2719 7.67864 12.6469 5.92864 13.0802 6.06501 8.3927 4.87751 8.74304 4.94976 4.05554 4.19976 4.47447 4.24432-0.213031 3.99432ZM211.437 657.782 199.625 681.875 187.438 657.97Z" fill="#BFBFBF" transform="matrix(-1.83697e-16 -1 -1 1.83697e-16 1355.02 308.747)"/><path d="M0.213031-3.99432 5.13272-3.73194 10.2918-2.84946 15.3653-1.49655 20.4218 0.45867 25.4099 2.91945 30.2893 5.82073 35.215 9.23589 40.0298 13.1397 44.8202 17.4123 49.5983 22.255 54.2763 27.4455 58.9473 33.0763 63.5413 39.1379 68.1185 45.6224 72.6237 52.4752 77.1147 59.7494 81.6116 67.4132 85.9735 75.5049 90.3249 83.8923 94.6181 92.7312 103.108 111.282 111.349 131.351 119.326 152.645 127.11 175.179 134.64 198.899 141.854 223.74 148.751 249.635 155.33 276.517 161.659 304.277 167.549 332.912 173.124 362.354 178.261 392.484 183.021 423.297 187.342 454.673 191.224 486.609 194.669 518.984 197.612 551.736 200.054 584.862 201.995 618.239 203.373 651.807 204.187 685.499 204.289 699.221 196.289 699.28 196.188 685.592 196.189 685.659 195.376 652.034 195.378 652.102 194.003 618.602 194.007 618.67 192.069 585.357 192.073 585.419 189.636 552.357 189.641 552.42 186.704 519.733 186.71 519.798 183.272 487.486 183.279 487.545 179.404 455.67 179.412 455.733 175.1 424.421 175.109 424.486 170.359 393.736 170.369 393.797 165.244 363.735 165.257 363.807 159.695 334.432 159.707 334.493 153.832 305.931 153.85 306.014 147.538 278.327 147.552 278.388 140.99 251.576 141.01 251.654 134.135 225.842 134.159 225.928 126.971 201.178 127 201.273 119.5 177.648 119.532 177.743 111.782 155.306 111.817 155.403 103.879 134.216 103.925 134.332 95.7373 114.395 95.8003 114.539 87.3628 96.102 87.402 96.1851 83.152 87.4351 83.1994 87.5295 78.8869 79.217 78.9165 79.273 74.604 71.273 74.6751 71.3993 70.2376 63.8368 70.2839 63.9138 65.8464 56.7263 65.9076 56.8223 61.4701 50.0723 61.5446 50.1817 57.0446 43.8067 57.1246 43.9161 52.6246 37.9786 52.7339 38.1163 48.1714 32.6163 48.2786 32.7404 43.7161 27.6779 43.8402 27.8094 39.2152 23.1219 39.4 23.2977 34.775 19.1727 34.9183 19.2945 30.2933 15.5445 30.5334 15.7247 25.8459 12.4747 26.0807 12.6256 21.4557 9.87564 21.7303 10.0247 17.0428 7.71222 17.3699 7.85581 12.6824 6.04331 13.0943 6.17744 8.40685 4.92744 8.76308 5.00524 4.01308 4.19274 4.47447 4.24432-0.213031 3.99432ZM212.259 695.162 200.437 719.25 188.26 695.34Z" fill="#BFBFBF" transform="matrix(-1.83697e-16 -1 -1 1.83697e-16 1392.5 309.747)"/><path d="M0.266076-3.99114 5.15899-3.66495 10.3649-2.77446 15.4784-1.20633 20.5024 0.87028 25.5325 3.48594 30.4276 6.72727 35.3329 10.3899 40.1539 14.6245 44.9363 19.2777 49.7051 24.4976 54.3827 30.1364 59.045 36.2676 63.6306 42.8276 68.201 49.8736 72.6996 57.2867 77.1884 65.1896 81.676 73.5328 86.0326 82.246 90.38 91.3817 94.661 100.888 98.9371 110.824 103.152 121.078 107.303 131.771 111.392 142.842 119.36 165.929 127.138 190.395 134.665 216.109 141.875 243.07 148.769 271.208 155.346 300.337 161.673 330.53 167.56 361.596 173.134 393.534 178.269 426.283 183.027 459.716 187.347 493.776 191.228 528.457 194.671 563.578 197.614 599.2 200.055 635.132 201.996 671.317 203.373 707.755 204.187 744.379 204.301 760.973 196.301 761.028 196.188 744.465 196.188 744.526 195.376 707.964 195.378 708.026 194.003 671.651 194.006 671.714 192.068 635.589 192.072 635.646 189.634 599.771 189.639 599.829 186.701 564.267 186.707 564.328 183.269 529.265 183.275 529.32 179.4 494.695 179.407 494.753 175.094 460.753 175.102 460.814 170.352 427.439 170.361 427.495 165.236 394.807 165.247 394.875 159.685 363 159.695 363.057 153.82 332.057 153.835 332.133 147.523 302.008 147.536 302.069 140.973 273.006 140.99 273.077 134.115 245.014 134.136 245.096 126.948 218.221 126.974 218.311 119.474 192.686 119.501 192.774 111.751 168.399 111.781 168.492 103.844 145.492 103.873 145.573 99.8102 134.573 99.8337 134.635 95.7087 124.01 95.7378 124.083 91.5503 113.896 91.5758 113.956 87.3258 104.081 87.3528 104.142 83.1028 94.705 83.1381 94.7813 78.8256 85.7188 78.8598 85.7888 74.5473 77.1638 74.6023 77.2698 70.1648 69.0198 70.2094 69.1006 65.7719 61.2881 65.8304 61.3876 61.3929 54.0751 61.4566 54.1768 56.9567 47.2393 57.0341 47.3542 52.5341 40.9167 52.6285 41.0462 48.066 35.0462 48.1714 35.1788 43.6089 29.6788 43.7343 29.8229 39.1093 24.7604 39.2731 24.9294 34.6481 20.4294 34.7977 20.5678 30.1727 16.5053 30.4193 16.7051 25.7318 13.2051 25.9166 13.3351 21.2916 10.2726 21.6546 10.4864 16.9671 8.04887 17.2845 8.19667 12.597 6.25917 12.9522 6.38672 8.26474 4.94922 8.76308 5.06774 4.01308 4.25524 4.42142 4.30364-0.266076 3.99114ZM212.273 756.919 200.437 781 188.274 757.083Z" fill="#BFBFBF" transform="matrix(-1.83697e-16 -1 -1 1.83697e-16 1454.02 309.747)"/><path d="M0.273332-3.99065 5.07775-3.66158 10.1225-2.69408 15.1735-1.05594 20.1182 1.1116 25.0332 3.93942 29.7906 7.30926 34.5718 11.1735 39.2648 15.6058 43.9178 20.5173 48.5485 25.9841 53.0961 31.8767 57.6282 38.3237 62.0791 45.1908 66.5173 52.5456 70.9494 60.3969 75.3142 68.6836 79.6051 77.3916 83.8914 86.5314 88.1152 96.1139 92.2684 106.119 96.4171 116.554 100.503 127.366 104.521 138.541 108.542 150.1 112.434 162.092 116.326 174.396 123.851 200.042 131.123 227.062 138.141 255.384 144.907 284.894 151.296 315.46 157.433 347.147 163.195 379.773 168.579 413.332 173.587 447.637 178.219 482.752 182.476 518.558 186.231 554.924 189.611 591.789 192.49 629.158 194.869 666.9 196.746 704.892 198.123 743.136 198.937 781.57 199.057 800.037 191.057 800.089 190.938 781.651 190.938 781.71 190.126 743.335 190.128 743.394 188.753 705.206 188.755 705.26 186.88 667.322 186.883 667.377 184.508 629.689 184.512 629.745 181.637 592.432 181.642 592.49 178.267 555.678 178.271 555.723 174.521 519.411 174.528 519.472 170.278 483.722 170.284 483.773 165.659 448.711 165.667 448.765 160.667 414.515 160.676 414.571 155.301 381.071 155.311 381.133 149.561 348.571 149.573 348.636 143.448 317.011 143.46 317.068 137.085 286.568 137.101 286.644 130.351 257.206 130.367 257.275 123.367 229.025 123.387 229.102 116.137 202.165 116.162 202.251 108.662 176.689 108.686 176.769 104.811 164.519 104.82 164.547 100.945 152.61 100.972 152.689 96.972 141.189 96.9859 141.228 92.9859 130.103 93.0083 130.164 88.9458 119.414 88.9705 119.478 84.8455 109.103 84.8681 109.159 80.7431 99.221 80.7773 99.3009 76.5898 89.8009 76.6285 89.8859 72.3785 80.8234 72.4119 80.893 68.1619 72.268 68.2109 72.3641 63.8984 64.1766 63.9542 64.2789 59.5792 56.5289 59.6377 56.6292 55.2627 49.3792 55.3309 49.4881 50.9559 42.7381 51.0401 42.8629 46.6026 36.5504 46.7083 36.6938 42.2708 30.9438 42.3853 31.0854 37.8853 25.7729 38.0337 25.9385 33.5337 21.1885 33.691 21.3456 29.191 17.0956 29.4232 17.2985 24.8607 13.611 25.0629 13.7641 20.5629 10.5766 20.8802 10.7796 16.3177 8.15461 16.7066 8.35098 12.1441 6.35098 12.516 6.49239 7.89098 4.99239 8.37161 5.11591 3.80911 4.24091 4.28917 4.30315-0.273332 3.99065ZM207.031 795.985 195.187 820.062 183.032 796.141Z" fill="#BFBFBF" transform="matrix(-1.83697e-16 -1 -1 1.83697e-16 1493.24 304.297)"/><path d="M0.273332-3.99065 5.10415-3.65977 10.1954-2.61362 15.2822-0.826374 20.232 1.54681 25.1292 4.56563 29.8971 8.1416 34.6835 12.3379 39.3668 17.0862 44.0108 22.3753 48.633 28.2171 53.1777 34.5542 57.7017 41.4994 62.1458 48.8639 66.5779 56.7785 71.0045 65.189 75.3643 74.0981 79.6511 83.4282 83.9353 93.2567 88.1552 103.586 92.3024 114.331 96.4487 125.451 100.535 137.079 104.55 149.127 108.568 161.556 112.458 174.42 116.347 187.653 120.109 201.26 123.872 215.245 131.139 244.315 138.155 274.695 144.92 306.389 151.307 339.327 157.442 373.384 163.202 408.443 168.585 444.498 173.592 481.425 178.223 519.161 182.479 557.651 186.234 596.701 189.613 636.375 192.492 676.552 194.87 717.104 196.747 758.029 198.124 799.144 198.937 840.448 199.066 861.789 191.067 861.837 190.938 840.524 190.938 840.579 190.126 799.329 190.127 799.384 188.752 758.321 188.754 758.371 186.879 717.496 186.882 717.547 184.507 677.047 184.51 677.098 181.635 636.973 181.639 637.027 178.264 597.402 178.268 597.445 174.518 558.445 174.524 558.502 170.274 520.065 170.28 520.112 165.655 482.425 165.661 482.475 160.661 445.6 160.669 445.653 155.294 409.653 155.303 409.711 149.553 374.711 149.563 374.772 143.438 340.772 143.448 340.824 137.073 307.949 137.088 308.022 130.338 276.397 130.353 276.463 123.353 246.15 123.369 246.22 116.119 217.22 116.137 217.289 112.387 203.352 112.395 203.378 108.645 189.816 108.662 189.878 104.787 176.69 104.796 176.72 100.921 163.908 100.944 163.98 96.9439 151.605 96.9553 151.64 92.9553 139.64 92.9762 139.701 88.9137 128.138 88.9396 128.21 84.8146 117.148 84.8308 117.19 80.7058 106.503 80.7346 106.575 76.5471 96.3253 76.5832 96.4108 72.3332 86.6608 72.3653 86.7325 68.1153 77.4825 68.1571 77.5707 63.8446 68.7582 63.8978 68.863 59.5228 60.5505 59.5725 60.6419 55.1975 52.8294 55.2627 52.9417 50.8877 45.6917 50.9608 45.8082 46.5233 38.9957 46.6245 39.1437 42.187 32.9562 42.3006 33.1069 37.8006 27.4194 37.9317 27.5767 33.4317 22.4517 33.5896 22.6214 29.0896 18.0589 29.3006 18.2578 24.7381 14.2578 24.975 14.45 20.475 11.075 20.776 11.28 16.2135 8.46753 16.5832 8.66936 12.0207 6.48186 12.4241 6.64884 7.79906 5.02384 8.3199 5.16814 3.7574 4.23064 4.28917 4.30315-0.273332 3.99065ZM207.042 857.74 195.187 881.812 183.042 857.886Z" fill="#BFBFBF" transform="matrix(-1.83697e-16 -1 -1 1.83697e-16 1554.76 304.297)"/><path d="M517.5 110C517.5 104.753 521.977 100.5 527.5 100.5 533.023 100.5 537.5 104.753 537.5 110 537.5 115.247 533.023 119.5 527.5 119.5 521.977 119.5 517.5 115.247 517.5 110Z" stroke="#A5A5A5" stroke-width="3" stroke-miterlimit="8" fill="#FFFFFF" fill-rule="evenodd"/><path d="M537 106 571.398 106 571.398 112 537 112ZM568.398 100 586.398 109 568.398 118Z"/><path d="M747.5 110.5C747.5 104.425 757.797 99.5001 770.5 99.5001 783.203 99.5001 793.5 104.425 793.5 110.5 793.5 116.575 783.203 121.5 770.5 121.5 757.797 121.5 747.5 116.575 747.5 110.5Z" stroke="#BFBFBF" stroke-width="3" stroke-miterlimit="8" stroke-dasharray="12 9" fill="#FFFFFF" fill-rule="evenodd"/><path d="M673.029 106 731.478 106.575 731.419 112.575 672.971 112ZM728.537 100.546 746.448 109.722 728.36 118.545Z"/><text font-family="IntelOne Display Regular,IntelOne Display Regular_MSFontService,sans-serif" font-weight="400" font-size="16" transform="translate(9.96115 437)">2 tensors<tspan font-size="16" x="163.896" y="-1">2 tensors</tspan><tspan font-size="16" x="319.025" y="-1">2 tensors</tspan><tspan font-size="16" x="520.732" y="-1">2 tensors</tspan><tspan font-size="16" x="668.044" y="-1">2 tensors</tspan><tspan font-size="16" x="883.871" y="0">2 tensors</tspan><tspan font-size="16" x="1063.65" y="3">2 tensors</tspan><tspan font-size="16" x="1187.76" y="3">2 tensors</tspan><tspan font-size="16" x="633.6" y="-108">stack</tspan><tspan font-size="16" x="390.742" y="-107">stack</tspan><tspan font-size="16" x="186.811" y="-108">stack</tspan><tspan font-size="16" x="1.68137" y="-105">stack</tspan><tspan font-size="16" x="825.775" y="-108">stack</tspan><tspan font-size="16" x="1046.49" y="-109">stack</tspan><tspan font-size="37" x="613.981" y="53">split[0</tspan><tspan font-size="37" x="717.147" y="53">-</tspan><tspan font-size="37" x="728.981" y="53">1]</tspan><tspan font-size="19" x="85.708" y="-145">conv2d_t...</tspan><tspan font-size="19" x="279.092" y="-145">conv2d_t...</tspan><tspan font-size="19" x="484.88" y="-145">conv2d_t...</tspan><tspan font-size="19" x="723.673" y="-148">conv2d_t...</tspan><tspan font-size="19" x="923.476" y="-145">conv2d_t...</tspan><tspan font-size="19" x="1134.74" y="-148">conv2d_t...</tspan><tspan font-size="21" x="593.166" y="-357">concat</tspan><tspan font-size="19" x="788.75" y="-321">ReLU</tspan><tspan font-size="19" x="472.943" y="-324">axis</tspan></text></g></svg>