<svg width="1280" height="605" xmlns="http://www.w3.org/2000/svg" xmlns:xlink="http://www.w3.org/1999/xlink" overflow="hidden"><defs><clipPath id="clip0"><rect x="0" y="0" width="1280" height="605"/></clipPath></defs><g clip-path="url(#clip0)"><rect x="0" y="0" width="1280" height="605.167" fill="#FFFFFF"/><path d="M-292.142 292.083-291.782 286.68-290.568 280.53-288.579 274.56-285.898 268.815-282.619 263.224-278.675 257.744-274.204 252.49-269.217 247.364-263.699 242.321-257.644 237.341-251.12 232.48-244.09 227.683-236.579 222.913-228.546 218.21-220.016 213.621-211.1 209.065-201.748 204.58-191.9 200.102-181.551 195.693-170.826 191.377-159.727 187.063-148.111 182.809-136.139 178.627-123.738 174.513-110.971 170.467-97.802 166.496-84.3114 162.524-70.4034 158.666-41.5955 151.116-11.3986 143.88 20.0365 136.899 52.6512 130.299 86.3055 124.019 121.082 118.053 156.8 112.465 193.321 107.318 230.7 102.55 268.775 98.1582 307.478 94.268 346.738 90.8177 386.492 87.8698 426.626 85.3608 467.086 83.4156 507.802 82.035 555.867 81.1436 556.281 103.479 508.302 104.369 508.473 104.365 467.922 105.74 468.08 105.733 427.778 107.671 427.939 107.662 387.95 110.162 388.079 110.153 348.465 113.09 348.617 113.078 309.502 116.516 309.641 116.503 271.09 120.378 271.252 120.36 233.325 124.735 233.459 124.719 196.219 129.469 196.364 129.449 159.999 134.574 160.167 134.549 124.614 140.112 124.776 140.085 90.1606 146.023 90.3212 145.994 56.8305 152.244 56.9967 152.212 24.5681 158.774 24.774 158.731-6.46744 165.668-6.2858 165.626-36.2775 172.814-36.049 172.756-64.6661 180.256-64.5127 180.215-78.2589 184.027-78.089 183.979-91.4603 187.916-91.3911 187.896-104.45 191.833-104.3 191.787-116.922 195.787-116.779 195.741-129.026 199.803-128.859 199.747-140.669 203.872-140.511 203.815-151.945 208.003-151.74 207.925-162.675 212.175-162.551 212.126-173.11 216.376-172.903 216.29-183.025 220.603-182.78 220.495-192.402 224.87-192.195 224.773-201.318 229.148-201.066 229.024-209.751 233.461-209.541 233.351-217.789 237.788-217.437 237.591-225.123 242.091-224.779 241.882-231.965 246.444-231.656 246.241-238.342 250.803-237.964 250.534-244.088 255.096-243.666 254.767-249.29 259.392-248.85 259.01-253.911 263.635-253.439 263.178-257.938 267.803-257.439 267.255-261.375 271.88-260.816 271.165-264.19 275.853-263.621 274.978-266.37 279.666-265.882 278.737-268.069 283.425-267.595 282.233-269.157 286.921-268.795 285.552-269.732 290.302-269.546 288.882-269.858 293.569ZM544.61 58.9027 589.573 92.0138 545.205 125.919Z" fill="#AEAEAE"/><path d="M0.763052-11.1406 6.07336-10.7768 12.1107-9.53629 18.0236-7.4588 23.666-4.75354 29.1616-1.36584 34.4084 2.56929 39.5946 7.1161 44.605 12.1961 49.5059 17.7777 54.3457 23.8946 59.0814 30.4979 63.7591 37.6791 68.3257 45.2467 72.8591 53.342 77.3769 61.9259 81.8202 71.0057 86.1717 80.4765 90.5161 90.4432 94.7927 100.911 98.9824 111.766 103.165 123.048 107.286 134.774 111.332 146.85 115.379 159.434 119.294 172.316 123.21 185.642 126.993 199.387 130.775 213.445 138.07 242.561 145.177 273.129 151.906 304.947 158.311 337.978 164.463 372.127 170.238 407.283 175.635 443.428 180.653 480.437 185.295 518.259 189.496 556.824 193.321 596.015 196.645 635.782 199.467 676.034 201.849 716.72 203.73 757.661 205.11 798.937 205.937 848.07 183.607 848.446 182.781 799.405 182.786 799.59 181.411 758.477 181.417 758.616 179.543 717.815 179.55 717.955 177.176 677.404 177.184 677.532 174.372 637.418 174.384 637.567 171.072 597.953 171.086 598.108 167.274 559.056 167.287 559.181 163.101 520.754 163.118 520.904 158.495 483.227 158.513 483.368 153.514 446.503 153.535 446.651 148.162 410.661 148.187 410.823 142.439 375.832 142.468 376.002 136.345 342.011 136.372 342.157 129.999 309.291 130.036 309.476 123.35 277.859 123.399 278.078 116.338 247.711 116.383 247.896 109.135 218.967 109.184 219.154 105.435 205.221 105.452 205.282 101.703 191.661 101.755 191.846 97.8813 178.662 97.9109 178.761 94.037 166.015 94.0907 166.186 90.0918 153.752 90.1342 153.881 86.1353 141.947 86.188 142.101 82.1267 130.542 82.1919 130.722 78.068 119.6 78.1205 119.739 73.9966 109.054 74.077 109.257 69.8906 99.0095 69.9914 99.2484 65.7426 89.5011 65.8322 89.7011 61.5833 80.4537 61.7001 80.7 57.3888 71.8899 57.5373 72.1824 53.1635 63.8722 53.3021 64.1274 48.9283 56.3171 49.1106 56.6304 44.7368 49.3824 44.9408 49.7077 40.5045 42.8971 40.787 43.3102 36.3507 37.1244 36.6679 37.5453 32.1691 31.8594 32.5351 32.2984 28.0364 27.1748 28.4772 27.6484 23.9784 23.0872 24.5673 23.6424 20.006 19.6435 20.6675 20.1802 16.1687 16.8062 17.009 17.3785 12.4478 14.5668 13.4798 15.1303 8.91853 12.9434 10.0446 13.4095 5.42089 11.785 6.87492 12.1878 2.31368 11.2506 3.79819 11.453-0.763052 11.1406ZM228.192 836.854 195.009 881.757 161.193 837.329Z" fill="#AEAEAE" transform="matrix(-1.83697e-16 -1.00028 -1 1.83748e-16 1558.76 287.375)"/><path d="M0.610956-11.1499 5.85037-10.8628 11.7213-9.81735 17.452-8.09026 22.9165-5.81339 28.3387-2.99088 33.6178 0.381834 38.8451 4.32025 43.7796 8.62928 48.7401 13.3831 53.5929 18.7143 58.3198 24.3732 63.0305 30.4773 67.6417 36.9988 72.2225 43.9354 76.7136 51.2904 81.1733 59.0464 85.5685 67.1904 89.8697 75.7286 94.1581 84.6255 98.3672 93.9367 102.563 103.535 106.724 113.586 114.775 134.634 122.562 157.046 130.142 180.733 137.465 205.603 144.462 231.641 151.197 258.766 157.679 286.896 163.783 316.033 169.503 346.017 174.906 376.802 179.933 408.347 184.518 440.57 188.724 473.399 192.554 506.803 195.883 540.722 198.708 574.998 201.094 609.584 202.978 644.5 204.297 679.683 205.009 716.517 182.68 716.948 181.97 680.216 181.975 680.419 180.663 645.428 180.672 645.611 178.797 610.871 178.807 611.038 176.433 576.61 176.444 576.758 173.633 542.643 173.648 542.816 170.337 509.076 170.356 509.257 166.545 476.016 166.562 476.163 162.376 443.485 162.397 443.639 157.836 411.585 157.863 411.769 152.865 380.403 152.894 380.576 147.52 349.959 147.55 350.122 141.864 320.317 141.903 320.515 135.843 291.585 135.891 291.803 129.455 263.873 129.499 264.056 122.813 237.126 122.867 237.334 115.931 211.528 116.003 211.784 108.755 187.166 108.832 187.415 101.334 163.984 101.421 164.246 93.7357 142.127 93.8541 142.451 85.9188 121.707 86.0311 121.989 81.9697 112.179 82.0551 112.38 77.9312 102.945 77.9879 103.073 73.8641 93.9502 73.9802 94.199 69.7939 85.5139 69.8803 85.6891 65.6939 77.3789 65.8397 77.6585 61.5909 69.7856 61.7374 70.0485 57.426 62.5505 57.5761 62.8037 53.2648 55.7432 53.477 56.0773 49.1032 49.4541 49.3037 49.7474 44.9299 43.5616 45.2074 43.9371 40.7711 38.1887 41.0411 38.525 36.6048 33.214 36.9172 33.5721 32.4809 28.6984 33.0125 29.2439 28.5137 24.9326 28.8951 25.2815 24.4588 21.4075 25.0842 21.9151 20.523 18.4785 21.2305 18.97 16.7317 16.0958 17.5877 16.5907 13.0264 14.2163 13.8876 14.619 9.38886 12.7445 10.4616 13.1285 5.90033 11.7539 7.1647 12.0559 2.60346 11.2436 3.95029 11.3999-0.610956 11.1499ZM227.225 705.214 194.196 750.231 160.229 705.919Z" fill="#AEAEAE" transform="matrix(-1.83697e-16 -1.00028 -1 1.83748e-16 1427.26 286.527)"/><path d="M0.59471-11.1508 5.92913-10.8663 11.8198-9.85869 17.5835-8.32172 23.3001-6.11131 28.7959-3.40003 34.2253-0.214814 39.5379 3.51842 44.6964 7.70092 49.751 12.2775 54.7756 17.302 59.6842 22.7485 64.5246 28.5836 69.3507 34.8641 74.1001 41.5924 78.724 48.691 83.3153 56.1278 87.8272 63.9268 92.3329 72.1014 96.7689 80.7163 101.135 89.6402 109.718 108.461 118.054 128.694 126.103 150.243 133.942 172.939 141.525 196.826 148.78 221.873 155.776 247.901 162.391 274.866 168.683 302.803 174.658 331.545 180.257 361.112 185.412 391.415 190.186 422.322 194.585 453.867 198.481 485.914 201.936 518.392 204.888 551.303 207.401 584.531 209.349 618.026 210.732 651.719 211.473 685.686 189.145 686.173 188.406 652.314 188.413 652.528 187.038 619.037 187.048 619.228 185.111 585.925 185.124 586.118 182.624 553.065 182.637 553.22 179.7 520.479 179.718 520.663 176.282 488.359 176.301 488.526 172.427 456.66 172.452 456.854 168.078 425.488 168.102 425.65 163.354 394.909 163.381 395.077 158.257 364.96 158.294 365.165 152.733 335.798 152.772 335.993 146.836 307.439 146.875 307.619 140.627 279.877 140.676 280.084 134.115 253.341 134.176 253.579 127.24 227.774 127.299 227.982 120.113 203.177 120.196 203.449 112.698 179.83 112.786 180.097 105.038 157.666 105.132 157.927 97.1971 136.683 97.3329 137.029 89.1477 117.16 89.3127 117.54 80.8775 99.0452 81.0067 99.3186 76.7579 90.6335 76.8608 90.8384 72.5495 82.4658 72.6977 82.744 68.3239 74.8087 68.4377 75.0101 64.0639 67.4497 64.228 67.7242 59.7917 60.5387 59.9367 60.7672 55.5004 53.9566 55.7343 54.3014 51.2356 47.9282 51.5039 48.2925 46.9427 42.3566 47.2027 42.6822 42.6414 37.1837 42.9409 37.53 38.3796 32.4689 38.7786 32.8891 34.1549 28.2654 34.5561 28.6472 29.9324 24.4609 30.3944 24.8568 25.7707 21.1078 26.3832 21.5705 21.7595 18.3214 22.5292 18.8165 17.843 16.0673 18.5531 16.4501 13.8669 14.1382 14.7801 14.539 10.0939 12.727 11.2439 13.1015 6.55767 11.8518 7.55216 12.069 2.80347 11.2567 4.0915 11.4008-0.59471 11.1508ZM233.656 674.316 200.757 719.427 166.662 675.212Z" fill="#AEAEAE" transform="matrix(-1.83697e-16 -1.00028 -1 1.83748e-16 1396.5 292.826)"/><path d="M0.59471-11.1508 5.86896-10.8695 11.6302-9.94773 17.4165-8.48187 22.9679-6.38133 28.4402-3.90055 33.8529-0.8285 39.1811 2.72364 44.2965 6.64779 49.3851 11.0488 54.3454 15.8052 59.256 20.9848 64.1249 26.5874 68.898 32.5538 73.549 38.8425 78.2587 45.58 82.8672 52.7561 91.7868 67.9001 100.576 84.4512 109.145 102.42 117.418 121.64 125.477 142.01 133.268 163.61 140.791 186.241 148.052 209.983 154.993 234.652 161.613 260.314 167.849 286.77 173.763 314.073 179.363 342.074 184.524 370.836 189.239 400.137 193.576 429.994 197.475 460.427 200.869 491.226 203.823 522.396 206.274 553.948 208.223 585.692 209.607 617.651 210.286 648.129 187.958 648.626 187.281 618.266 187.289 618.5 185.914 586.759 185.925 586.96 183.988 555.406 184.001 555.587 181.564 524.221 181.58 524.409 178.643 493.418 178.661 493.587 175.287 462.971 175.31 463.167 171.436 432.925 171.462 433.111 167.15 403.432 167.176 403.601 162.49 374.484 162.524 374.682 157.4 346.127 157.441 346.345 151.88 318.54 151.917 318.714 146.043 291.597 146.088 291.795 139.902 265.552 139.958 265.78 133.398 240.349 133.461 240.584 126.588 216.153 126.659 216.395 119.473 192.901 119.555 193.158 112.12 170.789 112.212 171.055 104.527 149.749 104.647 150.068 96.712 130.011 96.8387 130.318 88.716 111.448 88.8934 111.84 80.5207 94.2818 80.7376 94.7124 72.1774 78.5918 72.4181 79.0219 63.733 64.2759 63.9588 64.6429 59.585 57.8323 59.8287 58.1959 55.33 51.7602 55.5042 52.0025 51.0679 46.0042 51.3262 46.3399 46.8275 40.7165 47.1186 41.0655 42.5574 35.817 42.8822 36.1749 38.321 31.3637 38.696 31.7409 34.1348 27.3671 34.5588 27.7532 29.935 23.7543 30.443 24.1683 25.8818 20.6692 26.4843 21.1005 21.7981 17.9763 22.4804 18.3966 17.8566 15.7723 18.758 16.2312 14.0718 14.1068 14.7306 14.3804 10.1068 12.6309 11.3164 13.0116 6.63016 11.8244 7.60819 12.0261 2.92198 11.2764 4.0915 11.4008-0.59471 11.1508ZM232.469 636.764 199.57 681.875 165.475 637.66Z" fill="#AEAEAE" transform="matrix(-1.83697e-16 -1.00028 -1 1.83748e-16 1359.02 291.826)"/><path d="M0.610956-11.1499 5.71265-10.8704 11.3155-10.0144 16.9309-8.55286 22.35-6.59598 27.6641-4.16033 32.8883-1.258 38.0251 2.09515 43.1112 5.90977 48.0259 10.1322 52.8544 14.6887 57.5703 19.6067 62.3338 24.974 66.9269 30.6988 71.57 36.8675 80.4587 49.9734 89.196 64.5356 97.6774 80.4061 105.991 97.5453 114.022 115.901 121.835 135.402 129.374 155.992 136.714 177.632 143.733 200.334 150.422 223.933 156.851 248.389 162.964 273.725 168.698 299.748 174.048 326.559 179.081 353.99 183.674 381.988 187.887 410.538 191.661 439.529 194.994 468.964 197.823 498.768 200.212 528.878 202.098 559.184 203.483 589.777 204.077 617.333 181.749 617.814 181.158 590.391 181.167 590.655 179.792 560.288 179.802 560.477 177.928 530.36 177.941 530.55 175.567 500.62 175.582 500.793 172.77 471.176 172.791 471.377 169.479 442.135 169.502 442.32 165.753 413.515 165.779 413.704 161.593 385.337 161.621 385.514 157.059 357.71 157.095 357.917 152.097 330.675 152.129 330.844 146.818 304.227 146.864 304.445 141.178 278.639 141.228 278.856 135.167 253.738 135.223 253.957 128.849 229.714 128.906 229.92 122.282 206.551 122.357 206.805 115.422 184.374 115.515 184.662 108.267 163.293 108.356 163.545 100.921 143.239 101.041 143.552 93.3558 124.37 93.491 124.693 85.6182 106.698 85.8015 107.095 77.6788 90.35 77.8773 90.7396 69.6296 75.3064 69.9028 75.7884 61.4676 61.7298 61.8013 62.2524 53.2411 49.6309 53.561 50.0784 49.1872 44.2675 49.3992 44.5403 45.0879 39.1667 45.4458 39.5909 41.0096 34.5923 41.3015 34.9087 36.9277 30.3474 37.3237 30.7402 32.8874 26.5539 33.2743 26.9024 28.8381 23.0909 29.415 23.5543 24.9163 20.1802 25.5123 20.5976 21.0136 17.6609 21.6945 18.0716 17.1958 15.5723 17.9661 15.9621 13.4674 13.9002 14.3273 14.2518 9.82855 12.6273 10.8086 12.931 6.24732 11.7439 7.37355 11.9758 2.87479 11.2885 3.95029 11.3999-0.610956 11.1499ZM226.253 605.937 193.384 651.071 159.259 606.879Z" fill="#AEAEAE" transform="matrix(-1.83697e-16 -1.00028 -1 1.83748e-16 1328.26 285.527)"/><path d="M0.464874-11.157 5.42531-10.9503 11.0242-10.2504 21.3766-7.71664 31.6986-3.53009 41.7253 2.04814 51.4482 9.01277 60.9363 17.1454 70.1629 26.5726 79.1334 37.0602 87.8249 48.6271 96.3091 61.1915 104.628 74.798 112.659 89.3188 120.466 104.805 127.994 121.136 135.248 138.252 142.232 156.158 148.961 174.822 155.298 194.213 161.371 214.202 167.063 234.758 172.435 255.927 177.428 277.607 181.973 299.702 186.202 322.3 189.929 345.227 193.21 368.448 196.048 391.975 198.447 415.774 200.278 439.694 201.669 463.854 202.024 478.534 179.697 479.074 179.347 464.579 179.362 464.952 177.987 441.083 178.001 441.293 176.189 417.612 176.213 417.88 173.839 394.324 173.863 394.542 171.051 371.236 171.08 371.46 167.831 348.467 167.866 348.696 164.18 326.015 164.226 326.277 160.039 303.909 160.078 304.104 155.579 282.235 155.635 282.492 150.699 261.06 150.757 261.3 145.446 240.368 145.508 240.602 139.884 220.295 139.961 220.561 133.963 200.816 134.033 201.039 127.785 181.92 127.895 182.238 121.271 163.868 121.373 164.139 114.5 146.519 114.622 146.818 107.499 130.01 107.639 130.327 100.266 114.332 100.436 114.684 92.8129 99.5633 93.0126 99.9411 85.2022 85.82 85.4466 86.24 77.3863 73.0562 77.6592 73.4806 69.4739 61.3589 69.801 61.8179 61.4908 50.7584 61.9322 51.3087 53.4345 41.374 53.94 41.9263 45.3173 33.1162 46.0306 33.7839 37.2831 26.286 38.0476 26.8856 29.2375 20.5748 30.3113 21.255 21.4387 16.3189 22.6705 16.9086 13.7355 13.2846 15.2778 13.7832 6.34278 11.5963 7.61247 11.8302 3.11371 11.2679 4.03389 11.3444-0.464874 11.157ZM224.115 466.928 191.572 512.296 157.13 468.352Z" fill="#AEAEAE" transform="matrix(-1.83697e-16 -1.00028 -1 1.83748e-16 1189.33 283.726)"/><path d="M0.59471-11.1508 5.7231-10.8773 11.4188-10.1179 17.155-8.74119 22.6665-6.87919 28.1162-4.55399 33.4213-1.82975 38.756 1.3711 43.8866 4.9555 48.9938 8.95844 53.9735 13.3242 58.8803 18.0293 63.8556 23.2091 73.2525 34.3802 82.5416 46.9402 91.5572 60.8852 100.375 76.011 108.968 92.4262 117.263 109.91 125.343 128.489 133.155 148.176 140.69 168.883 147.964 190.451 154.917 212.955 161.549 236.325 167.794 260.484 173.715 285.301 179.323 310.82 184.492 336.979 189.213 363.736 193.555 390.92 197.459 418.621 200.857 446.689 203.814 475.064 206.268 503.76 208.219 532.712 209.606 561.822 210.193 586.505 187.866 587.036 187.282 562.486 187.291 562.751 185.917 533.884 185.929 534.104 183.992 505.362 184.008 505.562 181.571 477.07 181.59 477.276 178.654 449.096 178.674 449.281 175.3 421.414 175.329 421.63 171.455 394.137 171.485 394.341 167.174 367.348 167.204 367.527 162.518 340.972 162.56 341.196 157.436 315.266 157.485 315.498 151.924 290.192 151.968 290.387 146.095 265.769 146.145 265.972 139.96 242.041 140.028 242.295 133.468 219.176 133.541 219.425 126.668 197.181 126.756 197.452 119.57 176.146 119.658 176.396 112.223 155.964 112.337 156.264 104.651 136.894 104.791 137.23 96.8554 118.985 97.0067 119.318 88.884 102.197 89.0794 102.589 80.7067 86.5936 80.953 87.0391 72.3929 72.3556 72.6623 72.7943 63.9772 59.3605 64.3768 59.9378 55.5042 47.9411 55.9368 48.4893 47.0018 37.8672 47.4938 38.4145 42.9326 33.6658 43.2573 33.9903 38.696 29.6165 39.0633 29.9532 34.502 25.9543 34.9749 26.3464 30.3512 22.7224 30.8445 23.0876 26.2833 19.901 26.9333 20.3224 22.2471 17.5106 22.8913 17.8688 18.2676 15.4945 18.9863 15.8318 14.3001 13.8324 15.1083 14.1408 10.4846 12.5787 11.4526 12.8578 6.76642 11.7331 7.89659 11.9435 3.21038 11.3186 4.0915 11.4008-0.59471 11.1508ZM232.345 575.065 199.57 620.267 165.354 576.146Z" fill="#AEAEAE" transform="matrix(-1.83697e-16 -1.00028 -1 1.83748e-16 1297.5 291.826)"/><path d="M-162.15 286.164-161.863 280.923-160.83 275.12-159.187 269.41-156.876 263.785-154.078 258.482-150.804 253.168-146.925 247.995-142.678 242.981-137.917 238.011-132.74 233.174-127.112 228.416-121.068 223.698-114.606 219.081-107.747 214.508-100.533 210.022-92.8803 205.546-84.823 201.161-76.4088 196.793-67.553 192.492-58.3692 188.252-38.9937 179.991-18.2416 171.929 3.86388 164.073 27.2565 156.484 51.8069 149.161 77.5322 142.097 104.31 135.354 132.129 128.932 160.806 122.83 190.419 117.045 220.779 111.637 251.952 106.608 283.738 102.021 316.143 97.8124 349.112 94.0435 382.512 90.7151 416.354 87.8261 450.515 85.4392 484.995 83.5546 519.618 82.2346 555.517 81.5334 555.953 103.869 520.158 104.568 520.365 104.562 485.937 105.874 486.121 105.866 451.818 107.741 451.987 107.73 417.996 110.105 418.168 110.092 384.49 112.967 384.647 112.952 351.406 116.265 351.567 116.248 318.764 119.998 318.934 119.977 286.693 124.164 286.849 124.143 255.233 128.705 255.417 128.677 224.425 133.677 224.604 133.647 194.425 139.022 194.609 138.988 165.179 144.738 165.362 144.7 136.87 150.763 137.057 150.721 109.44 157.096 109.655 157.044 83.1 163.732 83.3297 163.671 57.8368 170.671 58.0718 170.604 33.766 177.854 34.0199 177.775 10.9013 185.275 11.1949 185.175-10.6116 192.925-10.3075 192.812-30.7393 200.75-30.4036 200.613-49.4608 208.738-49.1598 208.604-58.0948 212.729-57.8972 212.636-66.5199 216.823-66.2523 216.689-74.4376 220.939-74.246 220.837-82.0564 225.087-81.7558 224.917-89.1288 229.23-88.8702 229.074-95.8058 233.386-95.5069 233.194-102.068 237.569-101.771 237.364-107.895 241.739-107.516 241.457-113.202 245.894-112.863 245.618-118.111 250.056-117.697 249.687-122.445 254.125-122.006 253.691-126.317 258.191-125.86 257.683-129.671 262.183-129.258 261.665-132.632 266.165-132.059 265.324-134.871 269.886-134.501 269.239-136.876 273.739-136.423 272.771-138.297 277.333-137.894 276.176-139.206 280.738-138.944 279.608-139.756 284.171-139.6 282.824-139.85 287.386ZM544.206 59.3148 589.233 92.3377 544.933 126.329Z" fill="#AEAEAE"/><path d="M-131.151 292.479-130.87 287.215-129.929 281.252-128.314 275.484-126.224 269.883-123.556 264.322-120.383 258.914-116.749 253.568-112.606 248.37-108.09 243.305-103.101 238.246-97.6498 233.332-91.9229 228.525-85.7658 223.691-79.0929 218.933-72.1358 214.315-64.8314 209.725-57.0909 205.143-48.9652 200.592-31.7093 191.834-13.0934 183.225 6.82782 174.885 28.07 166.829 50.4623 158.984 74.0977 151.398 98.7061 144.14 124.421 137.142 151.072 130.462 178.595 124.162 206.968 118.246 236.138 112.65 266.005 107.429 296.499 102.649 327.608 98.3119 359.148 94.4154 391.255 90.9588 423.677 88.0048 456.471 85.554 489.448 83.6062 522.717 82.1593 555.769 81.4915 556.22 103.826 523.298 104.492 523.558 104.483 490.504 105.921 490.677 105.912 457.874 107.85 458.048 107.838 425.432 110.275 425.613 110.26 393.372 113.198 393.554 113.18 361.625 116.617 361.799 116.597 330.432 120.472 330.605 120.449 299.676 124.762 299.863 124.734 269.559 129.484 269.753 129.452 240.073 134.64 240.255 134.606 211.263 140.169 211.438 140.134 183.258 146.009 183.47 145.962 156.165 152.212 156.389 152.159 129.959 158.784 130.176 158.727 104.683 165.665 104.91 165.6 80.5413 172.788 80.7946 172.71 57.4261 180.21 57.706 180.116 35.5871 187.866 35.854 187.769 14.9223 195.706 15.2751 195.565-4.28204 203.753-3.90717 203.588-22.1521 212.025-21.7854 211.848-38.6558 220.41-38.2525 220.195-46.0629 224.57-45.8327 224.437-53.3307 228.875-53.076 228.719-60.1365 233.157-59.9033 233.006-66.589 237.444-66.2811 237.232-72.5919 241.732-72.179 241.423-77.9899 245.985-77.707 245.756-83.143 250.318-82.845 250.059-87.9061 254.621-87.4323 254.168-91.9935 258.793-91.6095 258.384-95.7333 263.009-95.3357 262.537-99.0222 267.162-98.5194 266.48-101.706 271.168-101.309 270.539-104.058 275.226-103.622 274.408-105.872 279.095-105.477 278.168-107.227 282.856-106.935 281.961-108.247 286.648-107.97 285.379-108.72 290.129-108.599 288.982-108.849 293.669ZM544.431 59.2845 589.492 92.2617 545.226 126.298Z" fill="#AEAEAE"/><path d="M-61.15 285.916-60.8711 280.825-60.0281 275.229-58.6457 269.621-56.6904 264.129-54.3299 258.817-51.4272 253.518-48.1521 248.39-44.4273 243.329-40.3575 238.43-35.8338 233.494-30.8825 228.677-25.6945 224.019-20.0522 219.305-14.0318 214.688-1.12767 205.737 13.1747 196.933 28.7486 188.372 45.5856 180.047 63.6221 171.951 82.8123 164.069 103.057 156.451 124.325 149.17 146.568 142.091 169.81 135.331 193.841 128.896 218.672 122.781 244.309 116.984 270.57 111.567 297.522 106.528 325.074 101.934 353.126 97.6562 381.633 93.8794 410.559 90.5457 439.802 87.652 469.366 85.2611 499.188 83.3732 529.219 82.0506 555.703 81.4566 556.203 103.79 529.841 104.382 530.081 104.374 500.277 105.686 500.491 105.675 470.874 107.55 471.069 107.536 441.702 109.911 441.901 109.893 412.847 112.768 413.026 112.749 384.284 116.061 384.472 116.038 356.167 119.788 356.384 119.757 328.517 124.007 328.669 123.983 301.302 128.545 301.518 128.507 274.775 133.507 274.979 133.467 248.924 138.842 249.13 138.797 223.7 144.547 223.907 144.498 199.289 150.561 199.507 150.505 175.701 156.88 175.931 156.815 152.938 163.503 153.206 163.421 131.212 170.421 131.442 170.345 110.448 177.533 110.763 177.419 90.8314 184.919 91.1411 184.798 72.2713 192.548 72.6018 192.406 54.9192 200.343 55.2954 200.166 38.8625 208.291 39.2926 208.066 24.1718 216.379 24.6459 216.103 10.8372 224.603 11.3482 224.269-1.08591 232.894-0.655132 232.579-6.27858 236.892-5.9141 236.6-11.2251 241.037-10.9254 240.778-15.7991 245.153-15.4718 244.847-20.0331 249.285-19.5871 248.825-23.711 253.325-23.3542 252.916-27.0406 257.354-26.6361 256.836-29.9477 261.336-29.5305 260.729-32.4047 265.229-32.0219 264.582-34.5212 269.145-34.1099 268.314-36.1093 272.814-35.7942 272.025-37.4187 276.588-37.0962 275.514-38.2209 280.076-38.0208 279.067-38.7081 283.629-38.6002 282.576-38.8501 287.138ZM544.254 59.2964 589.449 92.0899 545.321 126.306Z" fill="#AEAEAE"/><path d="M-92.1509 292.231-91.8702 286.967-90.9506 281.142-89.5042 275.43-87.4812 269.809-84.9999 264.335-82.0367 258.913-78.5891 253.596-74.679 248.428-70.437 243.363-65.7138 238.296-60.5907 233.374-55.1405 228.521-49.239 223.679-42.9728 218.929-36.3757 214.29-29.3654 209.637-14.4334 200.624 1.86994 191.828 19.5064 183.199 38.3729 174.847 58.4394 166.78 79.6517 158.926 101.923 151.331 125.234 144.064 149.533 137.057 174.759 130.433 200.767 124.134 227.587 118.151 255.167 112.546 283.419 107.385 312.212 102.605 341.583 98.2018 371.457 94.3013 401.761 90.8425 432.434 87.8875 463.425 85.3722 494.685 83.4219 526.083 82.0373 555.499 81.3583 556.014 103.692 526.715 104.368 526.949 104.36 495.77 105.735 495.974 105.724 464.92 107.662 465.128 107.647 434.324 110.147 434.491 110.132 404 113.07 404.195 113.049 374.078 116.487 374.258 116.465 344.578 120.34 344.788 120.31 315.609 124.685 315.782 124.658 287.164 129.408 287.343 129.377 259.288 134.502 259.505 134.46 232.138 140.022 232.345 139.978 205.727 145.916 205.924 145.87 180.119 152.12 180.326 152.068 155.333 158.63 155.592 158.559 131.536 165.496 131.765 165.428 108.709 172.615 108.989 172.524 86.9953 180.024 87.2684 179.926 66.3367 187.676 66.6245 187.565 46.88 195.503 47.2351 195.353 28.7402 203.54 29.1274 203.36 11.8822 211.798 12.2767 211.595-3.5939 220.157-3.1255 219.89-17.6215 228.64-17.2169 228.383-23.9025 232.821-23.6547 232.652-29.9655 237.089-29.6425 236.853-35.5783 241.353-35.2415 241.088-40.8025 245.65-40.4591 245.357-45.5827 249.919-45.2723 249.632-50.021 254.194-49.5893 253.756-53.9007 258.381-53.5083 257.937-57.3822 262.562-57.0373 262.129-60.5364 266.754-60.0723 266.092-63.0715 270.717-62.6417 269.997-65.2035 274.684-64.8313 273.938-66.9557 278.626-66.6195 277.797-68.3066 282.485-67.9884 281.444-69.1756 286.132-68.9703 285.131-69.7201 289.881-69.5993 288.734-69.8492 293.421ZM544.08 59.1901 589.253 92.0138 545.102 126.201Z" fill="#AEAEAE"/><path d="M-30.1508 292.231-29.8778 287.111-29.1201 281.351-27.7622 275.692-25.9963 270.172-23.7423 264.717-21.0734 259.305-17.9098 253.983-14.3702 248.846-10.5279 243.768-6.19536 238.677-1.5249 233.734 3.54383 228.8 14.4525 219.268 26.8519 209.95 40.5432 200.863 55.4122 192.042 71.4364 183.387 88.6386 175.007 106.908 166.921 126.201 159.049 146.497 151.436 167.759 144.156 189.822 137.137 212.757 130.501 236.409 124.193 260.81 118.201 285.906 112.587 311.554 107.419 337.803 102.633 364.502 98.2243 391.646 94.3186 419.219 90.8552 447.098 87.8966 475.296 85.3782 503.702 83.4251 532.252 82.0382 555.874 81.4542 556.426 103.787 532.936 104.368 533.202 104.358 504.897 105.733 505.121 105.72 476.942 107.657 477.169 107.639 449.177 110.139 449.362 110.121 421.682 113.059 421.895 113.034 394.528 116.472 394.726 116.445 367.796 120.32 368.025 120.284 341.533 124.659 341.716 124.628 315.66 129.378 315.864 129.339 290.433 134.464 290.665 134.414 265.797 139.977 266.022 139.924 241.841 145.861 242.056 145.806 218.625 152.056 218.851 151.994 196.169 158.556 196.451 158.471 174.645 165.408 174.876 165.332 153.882 172.519 154.187 172.41 134.192 179.91 134.489 179.794 115.494 187.544 115.795 187.416 97.8627 195.353 98.2331 195.181 81.4253 203.369 81.842 203.155 66.2213 211.592 66.6117 211.371 52.1782 219.934 52.6557 219.634 39.4719 228.384 40.0056 228.006 28.1964 236.881 28.835 236.364 18.4628 245.426 18.9053 245.018 14.2191 249.581 14.5457 249.249 10.2344 253.811 10.6218 253.38 6.68541 258.005 7.08714 257.504 3.5881 262.129 3.87827 261.727 0.691652 266.352 1.09525 265.722-1.65399 270.347-1.2378 269.581-3.54967 274.268-3.24414 273.593-5.1811 278.281-4.86556 277.418-6.36515 282.106-6.14223 281.308-7.26692 285.996-7.054 284.846-7.67883 289.596-7.59925 288.734-7.84918 293.421ZM544.379 59.319 589.645 92.0138 545.592 126.327Z" fill="#AEAEAE"/><path d="M0.542184-11.1535 10.0335-10.6921 20.1167-9.30133 29.9984-6.95184 39.7996-3.799 49.3804 0.210013 58.8902 4.93116 68.1397 10.4272 77.2525 16.5468 86.1583 23.3923 94.7929 30.8404 103.245 38.8992 111.474 47.5202 119.42 56.6392 127.151 66.3183 134.61 76.5025 141.724 87.1081 148.554 98.127 155.133 109.608 161.328 121.48 167.108 133.62 172.632 146.144 177.716 158.95 182.41 172.068 186.648 185.426 190.495 199.018 193.903 212.776 196.795 226.723 199.272 240.997 201.476 263.59 179.248 265.759 177.084 243.58 177.196 244.405 174.822 230.721 174.89 231.079 172.078 217.521 172.173 217.938 168.861 204.566 168.956 204.923 165.207 191.676 165.308 192.013 161.184 179.016 161.314 179.401 156.753 166.655 156.888 167.013 151.952 154.579 152.113 154.965 146.74 142.78 146.875 143.075 141.251 131.266 141.433 131.63 135.435 120.134 135.646 120.52 129.273 109.398 129.471 109.73 122.847 99.0452 123.065 99.382 116.192 89.1349 116.457 89.5132 109.271 79.7034 109.554 80.0735 102.119 70.7635 102.426 71.1312 94.8029 62.3836 95.1441 62.7576 87.2712 54.5099 87.6429 54.8813 79.5826 47.1959 79.9947 47.5698 71.8095 40.5092 72.298 40.9071 63.9253 34.4714 64.5052 34.8883 55.945 29.1399 56.4661 29.4693 47.8435 24.3457 48.5823 24.7479 39.7722 20.3741 40.4272 20.6733 31.6172 16.9869 32.5081 17.3159 23.573 14.4417 24.4096 14.6753 15.4745 12.5509 16.5317 12.749 7.47174 11.4993 8.45534 11.5909-0.542184 11.1535ZM223.077 251.383 192.509 298.105 156.215 255.678Z" fill="#AEAEAE" transform="matrix(-1.83697e-16 -1.00028 -1 1.83748e-16 975.054 284.564)"/><path d="M0.347582-11.1613 18.7374-10.5886 37.276-8.90324 55.5239-6.12075 73.3056-2.43509 90.5274 2.16171 107.018 7.55042 122.766 13.7975 137.48 20.664 151.104 28.2332 163.436 36.2781 169.245 40.6524 174.662 45.1216 180.863 50.8121 187.249 62.9025 167.502 73.3338 162.016 62.9498 164.339 65.961 159.778 61.7746 160.223 62.1614 155.224 58.0375 155.613 58.3446 150.302 54.3457 150.918 54.7773 139.233 47.1544 139.912 47.5635 126.978 40.378 127.679 40.7356 113.62 34.1749 114.225 34.4356 99.104 28.4373 99.7531 28.6719 83.8825 23.4858 84.4712 23.6604 67.8507 19.2241 68.4641 19.3694 51.2814 15.8079 51.8645 15.9127 34.2443 13.226 34.9166 13.3077 17.0465 11.6832 17.7099 11.7236-0.347582 11.1613ZM202.165 42.9699 192.572 97.973 142.455 73.3631Z" fill="#AEAEAE" transform="matrix(-1.83697e-16 -1.00028 -1 1.83748e-16 774.955 284.638)"/><path d="M527.835 285.386 528.15 267.105 528.978 248.769 530.38 230.729 532.29 213.148 534.649 196.056 537.461 179.689 540.658 164.213 544.131 149.676 548.024 136.111 552.692 122.394 560.712 111.816 578.507 125.315 571.578 134.453 573.252 131.303 569.253 143.053 569.415 142.536 565.666 155.598 565.794 155.112 562.42 169.237 562.495 168.901 559.371 184.026 559.44 183.658 556.691 199.658 556.747 199.294 554.436 216.044 554.475 215.723 552.601 232.973 552.632 232.632 551.258 250.319 551.28 249.957 550.468 267.957 550.477 267.646 550.165 285.771ZM536.254 106.971 590.048 92.0161 589.339 147.86Z" fill="#AEAEAE"/><path d="M320.843 285.116 321.237 275.595 322.47 265.66 324.444 255.852 327.153 246.1 330.532 236.501 334.64 227.003 339.381 217.717 344.691 208.621 350.58 199.687 357.051 190.902 364.016 182.423 371.488 174.097 379.481 166.036 387.886 158.281 396.682 150.785 405.969 143.575 415.556 136.642 425.649 129.955 446.372 117.954 457.325 112.346 468.539 107.159 479.932 102.432 491.579 98.0955 503.431 94.2085 515.493 90.7707 527.669 87.8552 540.203 85.3344 555.532 83.7557 557.819 105.978 543.023 107.502 544.081 107.341 532.271 109.716 532.67 109.628 520.923 112.441 521.384 112.32 509.762 115.633 510.181 115.504 498.746 119.254 499.163 119.109 487.916 123.296 488.299 123.146 477.302 127.708 477.711 127.529 466.901 132.529 467.302 132.333 456.805 137.708 457.312 137.432 437.13 149.12 437.701 148.765 428.079 155.14 428.455 154.88 419.208 161.567 419.512 161.339 410.577 168.277 410.971 167.956 402.536 175.143 402.867 174.851 394.806 182.288 395.163 181.944 387.54 189.632 387.922 189.227 380.799 197.164 381.116 196.794 374.493 204.857 374.855 204.391 368.732 212.704 369.065 212.226 363.504 220.664 363.824 220.148 358.826 228.711 359.127 228.159 354.691 236.847 354.995 236.201 351.184 245.013 351.468 244.288 348.344 253.163 348.57 252.443 346.071 261.443 346.258 260.658 344.446 269.658 344.581 268.829 343.457 277.892 343.532 276.977 343.157 286.04ZM542.699 62.4293 590.054 92.0156 548.4 129.205Z" fill="#AEAEAE"/><path d="M129.859 285.764 130.538 275.853 132.788 265.252 136.416 254.936 141.243 244.86 147.32 234.981 154.511 225.413 162.729 216.057 171.928 206.921 182.12 197.976 193.268 189.303 205.189 180.878 218.027 172.683 231.641 164.718 245.994 157.027 261.088 149.606 276.845 142.522 293.245 135.719 310.221 129.168 327.841 122.997 345.926 117.22 364.556 111.769 383.56 106.7 403.012 102.01 422.826 97.7677 442.96 93.9045 463.416 90.547 484.113 87.6346 505.009 85.2277 526.165 83.3213 555.812 81.7823 556.969 104.092 527.535 105.62 527.958 105.59 507.151 107.465 507.427 107.436 486.807 109.811 487.086 109.776 466.654 112.651 466.906 112.612 446.724 115.925 447.02 115.872 427.15 119.685 427.384 119.637 407.827 123.825 408.106 123.761 388.924 128.386 389.185 128.32 370.44 133.32 370.698 133.248 352.328 138.623 352.589 138.543 334.782 144.23 335.076 144.132 317.768 150.195 318.096 150.074 301.413 156.511 301.672 156.408 285.552 163.095 285.851 162.966 270.418 169.903 270.766 169.739 256.02 176.989 256.368 176.811 242.372 184.311 242.736 184.107 229.49 191.857 229.859 191.631 217.425 199.568 217.862 199.275 206.365 207.4 206.777 207.094 196.092 215.407 196.601 214.986 186.917 223.486 187.419 223.017 178.734 231.642 179.256 231.087 171.57 239.837 172.107 239.177 165.484 247.989 166.068 247.132 160.57 256.069 161.13 255.042 156.819 264.042 157.282 262.921 154.096 271.984 154.485 270.597 152.548 279.722 152.765 278.166 152.141 287.291ZM544.257 59.766 589.876 91.965 546.2 126.756Z" fill="#AEAEAE"/><path d="M676.84 480.684 677.103 473.111 677.925 465.231 679.156 457.572 680.881 449.982 683.079 442.628 685.623 435.613 688.526 428.976 691.753 422.661 695.382 416.752 699.308 411.299 703.591 406.413 708.251 402.062 713.34 398.368 718.817 395.498 724.812 393.531 730.042 392.967 734.104 392.53 731.818 393.022 735.817 391.71 734.117 392.428 738.053 390.366 736.676 391.221 740.549 388.408 739.49 389.282 743.238 385.782 742.462 386.583 746.023 382.521 745.357 383.359 748.731 378.671 748.279 379.35 751.466 374.163 751.037 374.927 753.911 369.302 753.057 371.536 756.881 357.036 778.476 362.734 774.345 378.398 770.724 385.484 767.094 391.393 763.168 396.847 758.885 401.732 754.225 406.083 749.136 409.777 743.66 412.647 737.664 414.615 732.434 415.178 728.372 415.616 730.658 415.123 726.659 416.436 728.359 415.717 724.423 417.78 725.801 416.925 721.927 419.737 722.987 418.863 719.238 422.363 720.014 421.562 716.453 425.625 717.119 424.787 713.745 429.474 714.197 428.795 711.01 433.983 711.439 433.219 708.565 438.844 708.852 438.237 706.228 444.237 706.495 443.569 704.183 449.944 704.384 449.336 702.385 456.023 702.575 455.298 701.013 462.173 701.15 461.47 700.025 468.47 700.106 467.857 699.356 475.044 699.41 474.273 699.16 481.461ZM732.609 364.023 774.476 327.073 798.216 377.622Z" fill="#AEAEAE"/><path d="M0.581817-11.1515 8.39818-10.7437 16.6766-9.36395 24.6816-7.21976 32.4313-4.37584 39.9487-0.829879 47.0726 3.33163 53.8266 8.04534 60.0915 13.2544 65.9667 18.9879 71.2324 25.1787 75.8528 31.6474 79.9252 38.5558 83.1464 45.8035 85.6746 53.3138 87.198 61.1593 87.6824 68.2863 88.1198 74.722 87.9407 73.3507 89.1904 79.7864 88.8115 78.3523 90.936 84.663 90.5399 83.6519 93.2891 89.7752 92.7476 88.7224 96.2467 94.7208 95.6878 93.8569 99.7492 99.5428 99.127 98.7499 103.751 104.123 103.085 103.415 108.271 108.476 107.612 107.882 113.173 112.505 110.494 110.855 125.618 117.445 116.696 137.919 100.116 130.694 92.9913 124.77 87.139 119.059 81.869 112.934 77.2151 106.419 73.1579 99.4635 69.9432 92.3035 67.4082 84.7731 65.8848 76.9276 65.4004 69.8006 64.9631 63.3649 65.1421 64.7363 63.8924 58.3005 64.2713 59.7346 62.1468 53.4239 62.5257 54.3965 59.7765 48.2107 60.361 49.346 56.862 43.4102 57.395 44.2301 53.3336 38.5442 53.9144 39.2886 49.2907 33.8526 49.9974 34.6094 44.8113 29.5483 45.4713 30.1429 39.9103 25.5192 40.6587 26.0899 34.6603 21.9035 35.4187 22.3886 29.1079 18.7021 29.9765 19.1595 23.3533 16.0353 24.2702 16.4189 17.4596 13.9196 18.4174 14.223 11.4193 12.3485 12.4728 12.5768 5.34973 11.3896 6.6037 11.5264-0.581817 11.1515ZM120.879 92.3706 153.02 138.024 100.193 156.097Z" fill="#AEAEAE" transform="matrix(-1.83697e-16 -1.00028 -1 1.83748e-16 677 481.133)"/><rect x="628.5" y="492.636" width="11" height="21.0058" stroke="#AEAEAE" stroke-width="1.33333" stroke-miterlimit="8" fill="#AEAEAE"/><rect x="751.5" y="491.635" width="25" height="23.0063" stroke="#AEAEAE" stroke-width="1.33333" stroke-miterlimit="8" fill="#AEAEAE"/><path d="M97.5001 308.085C97.5001 296.208 116.976 286.579 141 286.579 165.024 286.579 184.5 296.208 184.5 308.085 184.5 319.962 165.024 329.591 141 329.591 116.976 329.591 97.5001 319.962 97.5001 308.085Z" stroke="#AEAEAE" stroke-width="3" stroke-miterlimit="8" fill="#FFFFFF" fill-rule="evenodd"/><path d="M288.5 307.085C288.5 295.207 307.976 285.579 332 285.579 356.024 285.579 375.5 295.207 375.5 307.085 375.5 318.962 356.024 328.591 332 328.591 307.976 328.591 288.5 318.962 288.5 307.085Z" stroke="#AEAEAE" stroke-width="3" stroke-miterlimit="8" fill="#FFFFFF" fill-rule="evenodd"/><path d="M495.5 307.085C495.5 295.207 514.976 285.579 539 285.579 563.024 285.579 582.5 295.207 582.5 307.085 582.5 318.962 563.024 328.591 539 328.591 514.976 328.591 495.5 318.962 495.5 307.085Z" stroke="#AEAEAE" stroke-width="3" stroke-miterlimit="8" fill="#FFFFFF" fill-rule="evenodd"/><path d="M731.5 306.084C731.5 294.207 750.976 284.578 775 284.578 799.024 284.578 818.5 294.207 818.5 306.084 818.5 317.962 799.024 327.59 775 327.59 750.976 327.59 731.5 317.962 731.5 306.084Z" stroke="#AEAEAE" stroke-width="3" stroke-miterlimit="8" fill="#FFFFFF" fill-rule="evenodd"/><path d="M931.5 306.084C931.5 294.207 950.976 284.578 975 284.578 999.024 284.578 1018.5 294.207 1018.5 306.084 1018.5 317.962 999.024 327.59 975 327.59 950.976 327.59 931.5 317.962 931.5 306.084Z" stroke="#AEAEAE" stroke-width="3" stroke-miterlimit="8" fill="#FFFFFF" fill-rule="evenodd"/><path d="M1146.5 306.084C1146.5 294.207 1165.98 284.578 1190 284.578 1214.02 284.578 1233.5 294.207 1233.5 306.084 1233.5 317.962 1214.02 327.59 1190 327.59 1165.98 327.59 1146.5 317.962 1146.5 306.084Z" stroke="#AEAEAE" stroke-width="3" stroke-miterlimit="8" fill="#FFFFFF" fill-rule="evenodd"/><path d="M590.5 92.0254C590.5 80.148 609.976 70.5195 634 70.5195 658.024 70.5195 677.5 80.148 677.5 92.0254 677.5 103.903 658.024 113.531 634 113.531 609.976 113.531 590.5 103.903 590.5 92.0254Z" stroke="#AEAEAE" stroke-width="3" stroke-miterlimit="8" fill="#FFFFFF" fill-rule="evenodd"/><path d="M0.28261-11.1631 10.4368-10.906 20.8692-10.1137 31.271-8.797 41.5475-7.01838 51.7162-4.72223 61.7907-2.04005 71.754 1.10625 81.5106 4.64218 91.2113 8.64045 100.727 13.0679 118.832 22.8017 136.078 33.9072 152.222 46.2604 167.095 59.6331 174.083 66.8868 180.571 74.1618 186.759 81.7318 192.519 89.4782 197.839 97.4582 202.7 105.649 207.032 113.912 211.201 122.97 215.511 139.867 193.87 145.386 189.812 129.475 190.489 131.384 186.865 123.512 187.118 124.027 183.057 116.279 183.344 116.794 178.783 109.108 179.094 109.603 174.096 102.105 174.426 102.574 168.99 95.2638 169.305 95.6676 163.432 88.4821 163.744 88.8478 157.558 81.9122 157.85 82.2266 151.289 75.4159 151.865 75.9726 137.619 63.1636 138.299 63.7282 122.866 51.9189 123.606 52.4392 107.111 41.8171 107.868 42.2639 90.4358 32.8915 91.0129 33.1806 82.0154 28.9942 82.4709 29.1939 73.2234 25.3825 73.6738 25.5568 64.3639 22.1827 64.8061 22.3326 55.3087 19.3334 55.7985 19.4759 46.1761 16.9141 46.5894 17.0157 36.9046 14.8288 37.4598 14.9395 27.7125 13.2525 28.2145 13.3276 18.3422 12.078 18.8989 12.1343 9.02661 11.3845 9.58967 11.413-0.28261 11.1631ZM235.453 125.288 211.067 175.514 169.678 138.04Z" fill="#AEAEAE" transform="matrix(1 0 0 -1.00028 764 502.653)"/><path d="M0.130595-11.1659 21.6472-10.9142 43.2154-10.092 64.7867-8.82682 86.1755-6.99168 107.347-4.71653 128.336-1.99804 149.067 1.16216 169.493 4.70346 189.631 8.69309 209.37 13.1216 228.732 17.8672 247.61 22.9985 265.986 28.4479 283.814 34.2216 301.098 40.3217 317.765 46.7467 333.749 53.4332 349.052 60.3833 363.641 67.5499 377.476 75.0143 390.422 82.7437 402.579 90.6325 413.848 98.7746 424.239 107.127 433.59 115.748 441.955 124.515 450.107 134.554 454.978 147.267 434.124 155.258 429.889 144.207 431.648 147.251 424.899 138.94 425.489 139.61 417.679 131.425 418.188 131.926 409.378 123.803 409.952 124.297 400.079 116.361 400.535 116.709 389.726 108.899 390.187 109.215 378.44 101.592 378.795 101.813 366.236 94.3146 366.658 94.5542 353.224 87.3062 353.603 87.5013 339.357 80.5033 339.662 80.6478 324.667 73.8372 324.975 73.9716 309.292 67.4109 309.584 67.5285 293.214 61.2178 293.514 61.3286 276.519 55.3302 276.795 55.4236 259.237 49.7377 259.503 49.82 241.383 44.4465 241.629 44.5164 223.009 39.4553 223.279 39.5252 204.16 34.839 204.373 34.8892 184.879 30.5154 185.153 30.5734 165.284 26.637 165.546 26.6857 145.364 23.1867 145.589 23.2233 125.095 20.0991 125.343 20.1342 104.599 17.4474 104.84 17.476 83.9084 15.2266 84.147 15.2497 63.0278 13.4377 63.3286 13.4594 42.0219 12.2097 42.2503 12.2208 20.9437 11.4085 21.2385 11.4158-0.130595 11.1659ZM472.13 129.21 456.124 182.7 409.256 152.357Z" fill="#AEAEAE" transform="matrix(1 0 0 -1.00028 764 502.787)"/><path d="M0.091527-11.1663 30.6746-10.9156 61.3386-10.1616 91.8802-8.96757 122.174-7.27061 152.272-5.1342 182.062-2.55743 211.535 0.458993 240.503 3.85215 269.026 7.62169 297.071 11.709 324.491 16.2371 351.222 21.0171 377.288 26.18 402.596 31.6571 427.046 37.3917 450.624 43.4438 473.278 49.6908 494.909 56.2054 515.504 62.986 534.98 70.0277 553.295 77.2138 570.425 84.6283 586.285 92.2695 600.826 100.089 613.898 108.049 620.07 112.164 625.802 116.296 631.218 120.561 637.316 125.907 644.759 138.318 625.606 149.804 619.063 138.894 621.278 141.547 616.717 137.549 617.169 137.925 612.171 133.988 612.549 134.274 607.176 130.4 607.512 130.633 601.701 126.759 602.087 127.005 589.466 119.32 589.985 119.617 575.926 112.057 576.368 112.282 560.935 104.846 561.346 105.034 544.601 97.7863 544.958 97.9335 526.963 90.873 527.244 90.9791 508.062 84.0436 508.367 84.1488 488.06 77.4632 488.332 77.5489 466.963 71.1131 467.214 71.1857 444.783 64.9999 444.975 65.0511 421.607 59.0527 421.833 59.1084 397.59 53.4224 397.778 53.4648 372.66 48.0288 372.852 48.0686 346.984 42.945 347.188 42.9835 320.633 38.2348 320.779 38.2599 293.537 33.7612 293.746 33.7937 265.878 29.7323 266.026 29.7528 237.659 26.0038 237.822 26.0242 209.018 22.6502 209.18 22.668 179.876 19.6688 180.05 19.6853 150.433 17.1235 150.605 17.137 120.676 15.0126 120.842 15.0231 90.7253 13.3361 90.9136 13.345 60.547 12.1579 60.7087 12.163 30.2171 11.4132 30.4001 11.4162-0.091527 11.1663ZM659.214 118.189 651.258 173.452 600.433 150.34Z" fill="#AEAEAE" transform="matrix(1 0 0 -1.00028 776 502.565)"/><path d="M0.107885-11.1661 26.0836-10.9152 52.1689-10.1591 78.0545-8.89944 103.867-7.19959 129.435-5.05845 154.757-2.47583 179.758 0.54698 204.441 3.94716 228.695 7.72705 252.523 11.8875 275.784 16.4261 298.556 21.2833 320.703 26.5203 342.213 32.0083 363.008 37.7601 383.087 43.8409 402.348 50.2401 420.726 56.8308 438.272 63.6331 454.926 70.7156 470.545 78.0131 485.118 85.5243 498.7 93.2211 511.067 101.162 522.38 109.252 532.471 117.672 542.326 127.3 548.073 139.344 527.917 148.962 523.025 138.71 525.3 141.888 517.177 133.953 517.826 134.539 508.391 126.666 509.05 127.176 498.303 119.49 498.765 119.803 486.893 112.181 487.421 112.499 474.3 105.064 474.689 105.275 460.506 97.964 460.895 98.1552 445.649 91.0321 446.006 91.1912 429.698 84.2556 430.031 84.3912 412.786 77.7056 413.053 77.8051 394.933 71.3069 395.182 71.3929 376.187 65.0821 376.471 65.1723 356.664 59.174 356.924 59.2492 336.367 53.5633 336.583 53.6208 315.277 48.1848 315.468 48.2317 293.536 43.0456 293.776 43.0996 271.22 38.2885 271.411 38.3274 248.355 33.8287 248.573 33.8689 224.954 29.7451 225.155 29.7783 201.1 26.0293 201.295 26.0581 176.802 22.684 176.985 22.7077 152.18 19.7086 152.387 19.7317 127.269 17.1699 127.47 17.1885 102.102 15.0641 102.3 15.0789 76.6824 13.3919 76.8734 13.4028 51.193 12.1532 51.4122 12.1617 25.5443 11.4119 25.76 11.4161-0.107885 11.1661ZM563.531 119.763 552.285 174.452 502.932 148.343Z" fill="#AEAEAE" transform="matrix(1 0 0 -1.00028 776 502.564)"/><path d="M677.5 503.139C677.5 491.261 696.976 481.633 721 481.633 745.024 481.633 764.5 491.261 764.5 503.139 764.5 515.016 745.024 524.645 721 524.645 696.976 524.645 677.5 515.016 677.5 503.139Z" stroke="#AEAEAE" stroke-width="3" stroke-miterlimit="8" fill="#FFFFFF" fill-rule="evenodd"/><path d="M655.5 503.139C655.5 491.261 674.976 481.633 699 481.633 723.024 481.633 742.5 491.261 742.5 503.139 742.5 515.016 723.024 524.645 699 524.645 674.976 524.645 655.5 515.016 655.5 503.139Z" stroke="#AEAEAE" stroke-width="3" stroke-miterlimit="8" fill="#FFFFFF" fill-rule="evenodd"/><path d="M633.5 503.139C633.5 491.261 652.976 481.633 677 481.633 701.024 481.633 720.5 491.261 720.5 503.139 720.5 515.016 701.024 524.645 677 524.645 652.976 524.645 633.5 515.016 633.5 503.139Z" stroke="#AEAEAE" stroke-width="3" stroke-miterlimit="8" fill="#FFFFFF" fill-rule="evenodd"/><path d="M633.302 513.807 618.984 513.553 604.467 512.782 590.033 511.499 575.749 509.769 561.521 507.589 547.477 504.959 533.579 501.884 519.88 498.426 506.405 494.575 493.046 490.25 467.704 480.76 455.3 475.462 443.33 469.861 431.74 463.935 420.59 457.747 409.857 451.279 399.617 444.537 389.813 437.523 380.571 430.296 371.803 422.835 363.641 415.132 356.099 407.257 349.197 399.158 342.886 390.898 336.855 381.628 330.411 364.262 351.349 356.489 357.36 372.69 356.251 370.484 361.374 378.359 360.887 377.669 366.761 385.356 366.386 384.893 372.884 392.518 372.45 392.037 379.573 399.474 379.173 399.077 386.921 406.39 386.493 406.006 394.866 413.131 394.507 412.839 403.38 419.776 402.999 419.491 412.434 426.241 412.077 425.996 421.949 432.496 421.572 432.258 431.944 438.508 431.6 438.309 442.41 444.309 442.074 444.13 453.32 449.88 452.97 449.709 464.591 455.146 464.246 454.992 476.243 460.117 475.772 459.928 500.64 469.241 500.164 469.074 513.098 473.262 512.727 473.149 525.848 476.899 525.512 476.808 538.884 480.183 538.563 480.108 552.122 483.108 551.765 483.035 565.449 485.597 565.085 485.535 578.956 487.66 578.608 487.612 592.541 489.3 592.188 489.263 606.246 490.513 605.85 490.485 619.971 491.235 619.576 491.221 633.697 491.471ZM311.564 380.066 331.958 328.076 376.144 362.217Z" fill="#AEAEAE"/><path d="M633.207 513.858 610.03 513.607 586.745 512.849 563.584 511.65 540.544 509.945 517.702 507.799 495.105 505.211 472.768 502.181 450.752 498.774 429.039 494.985 407.763 490.818 386.981 486.331 366.624 481.462 346.841 476.278 327.656 470.831 309.034 465.002 291.086 458.976 273.867 452.62 257.381 446.062 241.735 439.227 226.832 432.125 212.904 424.87 199.8 417.38 187.647 409.645 176.523 401.725 166.388 393.575 156.668 384.505 144.816 365.808 163.677 353.845 174.763 371.333 172.949 369.146 181.322 376.959 180.701 376.421 190.261 384.109 189.74 383.714 200.362 391.277 199.882 390.953 211.566 398.391 211.111 398.116 223.795 405.366 223.412 405.157 236.971 412.22 236.616 412.043 251.175 418.98 250.841 418.828 266.15 425.516 265.807 425.373 281.99 431.81 281.729 431.71 298.662 437.96 298.35 437.85 316.032 443.788 315.814 443.717 334.184 449.467 333.898 449.381 352.83 454.756 352.611 454.697 372.168 459.822 371.935 459.763 392.055 464.576 391.813 464.521 412.37 468.958 412.161 468.915 433.217 473.04 432.99 472.998 454.484 476.748 454.273 476.713 476.079 480.088 475.872 480.058 497.991 483.058 497.761 483.029 520.13 485.592 519.904 485.568 542.522 487.693 542.302 487.675 565.108 489.362 564.862 489.347 587.793 490.534 587.579 490.525 610.635 491.275 610.393 491.27 633.449 491.52ZM127.92 383.368 140.964 329.064 189.428 356.794Z" fill="#AEAEAE"/><path d="M632.676 514.156 599.153 513.905 565.557 513.088 532.157 511.832 498.942 510.074 465.983 507.876 433.385 505.237 401.116 502.097 369.338 498.642 338.119 494.684 307.411 490.412 277.444 485.762 248.093 480.796 219.538 475.448 191.855 469.784 165.109 463.804 139.293 457.569 114.516 451.073 90.8424 444.316 68.2598 437.293 46.9848 430.009 26.9225 422.579 8.23444 414.886-0.621887 410.97-9.14008 406.998-17.2495 403.006-24.9826 398.945-32.3574 394.869-39.4273 390.678-46.067 386.404-52.2358 382.137-58.1153 377.793-64.5731 372.464-73.9946 358.621-55.5333 346.049-47.0079 358.575-49.1322 356.245-44.1337 360.37-44.6055 360.002-39.107 364.064-39.3904 363.862-33.517 367.924-33.825 367.719-27.5142 371.781-27.8645 371.565-21.1164 375.565-21.408 375.398-14.285 379.335-14.4955 379.222-6.99756 383.159-7.258 383.027 0.614807 386.902 0.402649 386.8 8.71289 390.675 8.50946 390.583 17.1321 394.395 16.8674 394.282 35.2373 401.845 34.8647 401.699 54.6093 409.011 54.348 408.918 75.3422 416.106 75.0416 416.008 97.348 422.945 97.0965 422.87 120.528 429.558 120.295 429.494 144.85 435.931 144.64 435.879 170.258 442.066 170.073 442.023 196.628 447.961 196.43 447.918 223.923 453.543 223.74 453.507 252.107 458.82 251.915 458.785 281.094 463.723 280.943 463.699 310.748 468.324 310.574 468.298 341.128 472.548 340.994 472.53 372.048 476.468 371.85 476.444 403.467 479.882 403.341 479.869 435.457 482.994 435.277 482.978 467.706 485.603 467.548 485.591 500.351 487.779 500.198 487.77 533.252 489.52 533.081 489.512 566.322 490.762 566.174 490.757 599.602 491.57 599.414 491.567 632.843 491.817ZM-88.6152 378.382-81.0442 323.049-30.0591 345.812Z" fill="#AEAEAE"/><path d="M0.0791942-11.1664 35.3988-10.9159 70.746-10.1625 105.95-8.84469 140.897-7.15067 175.617-4.9532 209.946-2.25457 243.885 0.819352 277.339 4.27151 310.302 8.16426 342.564 12.4323 374.221 17.0176 405.066 22.0432 435.086 27.3188 464.259 32.9144 492.446 38.8288 519.64 45.0607 545.708 51.5462 570.609 58.2284 594.362 65.1776 616.832 72.3932 637.851 79.8005 647.917 83.6231 657.598 87.4444 666.838 91.3316 675.78 95.2278 684.341 99.2187 692.513 103.272 700.282 107.351 707.612 111.503 714.579 115.67 721.121 119.899 727.23 124.215 734 129.392 744.181 143.391 726.119 156.527 716.894 143.843 719.142 146.145 713.831 142.084 714.17 142.333 708.422 138.272 708.803 138.53 702.617 134.531 702.948 134.736 696.262 130.737 696.491 130.871 689.43 126.872 689.743 127.042 682.245 123.106 682.473 123.222 674.538 119.286 674.782 119.403 666.472 115.529 666.73 115.646 657.982 111.834 658.112 111.89 649.052 108.078 649.282 108.172 639.785 104.423 639.921 104.476 630.048 100.727 630.301 100.819 609.557 93.5089 609.854 93.6091 587.673 86.486 587.952 86.5715 564.458 79.6984 564.699 79.7661 540.019 73.1429 540.217 73.1941 514.349 66.7584 514.551 66.8066 487.558 60.6208 487.759 60.665 459.767 54.7916 459.957 54.8297 430.965 49.2687 431.135 49.3001 401.269 44.0515 401.406 44.0747 370.727 39.0761 370.922 39.1061 339.43 34.5449 339.566 34.5637 307.45 30.3149 307.605 30.3343 274.802 26.4604 274.965 26.4784 241.662 23.0419 241.801 23.0554 207.998 19.9937 208.13 20.0049 173.952 17.3181 174.121 17.3302 139.568 15.1433 139.733 15.1525 104.93 13.4654 105.053 13.4707 70.0004 12.1586 70.1801 12.1639 35.0023 11.4141 35.1611 11.4163-0.0791942 11.1664ZM758.448 123.424 752.043 178.888 700.59 157.209Z" fill="#AEAEAE" transform="matrix(1 0 0 -1.00028 776 503.015)"/><path d="M632.653 513.908 594.394 513.657 556.132 512.842 518.065 511.587 480.184 509.831 442.622 507.635 405.367 505 368.607 501.926 332.414 498.412 296.787 494.522 261.777 490.254 227.568 485.608 194.185 480.587 161.666 475.312 130.058 469.655 99.5813 463.684 70.1641 457.459 41.9106 450.976 14.9473 444.233-10.7181 437.232-34.9292 430.042-46.5311 426.364-57.8246 422.62-68.5978 418.816-79.0604 415.011-89.1454 411.116-98.8074 407.148-107.986 403.131-116.775 399.152-125.172 395.017-133.089 390.897-140.66 386.718-147.691 382.446-154.297 378.151-161.48 372.996-173.128 358.58-155.758 344.538-145.06 357.78-147.235 355.725-141.487 359.85-141.91 359.561-135.662 363.623-135.95 363.442-129.264 367.505-129.668 367.271-122.42 371.271-122.66 371.142-114.974 375.142-115.197 375.03-107.074 379.03-107.402 378.875-98.8417 382.75-98.97 382.693-89.9725 386.63-90.2069 386.531-80.772 390.406-80.9915 390.318-71.1192 394.131-71.325 394.054-61.0153 397.804-61.1149 397.768-50.4929 401.518-50.696 401.448-39.5741 405.136-39.7137 405.091-28.2793 408.716-28.475 408.656-4.48163 415.781-4.7215 415.712 20.709 422.65 20.4791 422.59 47.2217 429.277 47.0102 429.226 75.0649 435.664 74.8793 435.623 104.121 441.81 103.957 441.777 134.261 447.714 134.081 447.681 165.51 453.306 165.331 453.275 197.697 458.525 197.57 458.505 230.811 463.505 230.652 463.483 264.706 468.108 264.554 468.088 299.419 472.338 299.28 472.322 334.77 476.197 334.637 476.183 370.69 479.683 370.542 479.67 407.157 482.733 407.014 482.721 444.129 485.346 443.992 485.338 481.42 487.525 481.285 487.518 519.025 489.268 518.876 489.262 556.803 490.512 556.673 490.509 594.787 491.321 594.622 491.319 632.799 491.569ZM-187.075 378.673-182.049 323.051-130.074 343.452Z" fill="#AEAEAE"/><path d="M632.161 514.156 589.224 513.905 546.355 513.09 503.617 511.837 461.189 510.081 419.08 507.888 377.334 505.254 336.1 502.12 295.484 498.672 255.551 494.721 216.379 490.458 178.012 485.818 140.509 480.862 104.058 475.528 68.6673 469.879 34.4574 463.914 1.55731 457.696-30.0872 451.228-45.3881 447.889-60.3624 444.491-74.9089 441.027-89.0807 437.498-102.889 433.903-116.242 430.249-129.228 426.592-141.822 422.857-153.918 419.056-165.623 415.196-176.847 411.327-187.645 407.387-197.969 403.435-207.808 399.409-217.18 395.364-226.025 391.231-234.427 387.029-242.293 382.802-249.663 378.523-256.504 374.138-264.124 368.787-272.341 357.322-254.19 344.306-247.079 354.228-249.737 351.595-243.864 355.72-244.256 355.457-237.82 359.582-238.24 359.326-231.242 363.388-231.562 363.209-224.002 367.271-224.292 367.121-216.17 371.183-216.437 371.054-207.877 375.054-208.179 374.918-199.057 378.856-199.253 378.773-189.631 382.711-189.867 382.617-179.745 386.492-179.91 386.43-169.288 390.305-169.476 390.239-158.417 394.051-158.558 394.003-146.999 397.816-147.149 397.767-135.215 401.517-135.387 401.465-122.953 405.152-123.101 405.11-110.23 408.735-110.309 408.712-97.0628 412.337-97.1968 412.302-83.5131 415.864-83.6288 415.835-69.5702 419.335-69.6807 419.308-55.2473 422.745-55.3629 422.718-40.4919 426.093-40.5832 426.073-25.3999 429.386-25.5436 429.355 5.94775 435.793 5.78497 435.761 38.5259 441.948 38.3705 441.92 72.4235 447.857 72.2656 447.831 107.506 453.456 107.363 453.434 143.665 458.747 143.511 458.725 180.876 463.663 180.754 463.647 218.993 468.272 218.861 468.257 257.912 472.507 257.804 472.496 297.605 476.433 297.451 476.419 337.939 479.857 337.841 479.849 378.955 482.974 378.811 482.964 420.425 485.589 420.303 485.582 462.291 487.769 462.172 487.764 504.473 489.514 504.339 489.509 546.952 490.759 546.837 490.756 589.575 491.569 589.428 491.567 632.291 491.817ZM-284.771 378.83-282.022 323.049-229.257 341.307Z" fill="#AEAEAE"/><path d="M543.5 503.139C543.5 496.786 555.365 491.635 570 491.635 584.636 491.635 596.5 496.786 596.5 503.139 596.5 509.492 584.636 514.642 570 514.642 555.365 514.642 543.5 509.492 543.5 503.139Z" stroke="#C98F00" stroke-width="3" stroke-miterlimit="8" stroke-dasharray="12 9" fill="#FFE17A" fill-rule="evenodd"/><path d="M596.01 500.138 617.751 500.211 617.731 506.213 595.99 506.139ZM614.772 494.2 632.741 503.263 614.711 512.204Z" fill="#808080"/><path d="M0.0170211-3.99996 73.4481-3.68749 146.267-2.87492 182.339-2.24976 218.032-1.49964 253.287-0.624501 287.982 0.375689 322.168 1.50065 355.678 2.68849 388.49 4.00099 420.504 5.37655 451.642 6.87718 481.894 8.50231 511.095 10.128 539.239 11.8792 566.253 13.7552 592.015 15.6311 616.541 17.5706 639.618 19.6344 650.7 20.6362 661.348 21.701 671.609 22.7646 681.561 23.8287 691.028 24.8945 700.172 26.0218 708.88 27.0869 717.17 28.2173 725.012 29.3465 732.42 30.4766 739.414 31.6107 745.96 32.8067 752.021 33.9431 757.585 35.1444 763.066 36.3623 767.653 38.4489 764.341 45.7311 760.134 43.8175 760.922 44.0812 755.861 42.9565 755.885 42.9616 750.386 41.7745 750.493 41.7961 744.495 40.6714 744.513 40.6747 738.015 39.4876 738.094 39.5011 731.158 38.3764 731.195 38.3823 723.822 37.2576 723.855 37.2625 716.045 36.1378 716.075 36.142 707.827 35.0173 707.882 35.0244 699.193 33.9617 690.07 32.837 690.112 32.8419 680.677 31.7797 680.7 31.7822 670.765 30.72 670.778 30.7213 660.53 29.6591 660.545 29.6606 649.923 28.5984 649.961 28.602 638.905 27.6026 615.849 25.5407 615.89 25.5441 591.397 23.6071 591.421 23.609 565.679 21.7345 565.692 21.7355 538.699 19.861 538.728 19.8629 510.611 18.1134 510.637 18.1149 481.465 16.4908 451.224 14.8662 451.245 14.8674 420.129 13.3678 420.15 13.3687 388.171 11.9946 355.367 10.6825 355.385 10.6831 321.905 9.49632 287.727 8.37163 287.743 8.37213 253.065 7.37241 253.081 7.37284 217.841 6.49808 217.856 6.49843 182.178 5.74863 182.193 5.74892 146.14 5.12409 146.165 5.12444 73.3726 4.31216 73.4002 4.31238-0.0170211 3.99996ZM767.665 29.5513 783.971 50.861 757.14 51.1203Z" fill="#AEAEAE" transform="matrix(1 0 0 -1.00028 -107 574.961)"/><text font-family="IntelOne Display Regular,IntelOne Display Regular_MSFontService,sans-serif" font-weight="400" font-size="19" transform="matrix(1 0 0 1.00028 475.001 506)">weights</text><path d="M673.5 307.085C673.5 301.836 678.201 297.582 684 297.582 689.799 297.582 694.5 301.836 694.5 307.085 694.5 312.333 689.799 316.587 684 316.587 678.201 316.587 673.5 312.333 673.5 307.085Z" stroke="#AEAEAE" stroke-width="3" stroke-miterlimit="8" fill="#FFFFFF" fill-rule="evenodd"/><path d="M879.5 307.085C879.5 301.836 884.201 297.582 890 297.582 895.799 297.582 900.5 301.836 900.5 307.085 900.5 312.333 895.799 316.587 890 316.587 884.201 316.587 879.5 312.333 879.5 307.085Z" stroke="#AEAEAE" stroke-width="3" stroke-miterlimit="8" fill="#FFFFFF" fill-rule="evenodd"/><path d="M1097.5 306.084C1097.5 300.836 1102.2 296.582 1108 296.582 1113.8 296.582 1118.5 300.836 1118.5 306.084 1118.5 311.333 1113.8 315.587 1108 315.587 1102.2 315.587 1097.5 311.333 1097.5 306.084Z" stroke="#AEAEAE" stroke-width="3" stroke-miterlimit="8" fill="#FFFFFF" fill-rule="evenodd"/><path d="M442.5 307.085C442.5 301.836 447.201 297.582 453 297.582 458.799 297.582 463.5 301.836 463.5 307.085 463.5 312.333 458.799 316.587 453 316.587 447.201 316.587 442.5 312.333 442.5 307.085Z" stroke="#AEAEAE" stroke-width="3" stroke-miterlimit="8" fill="#FFFFFF" fill-rule="evenodd"/><path d="M236.5 307.085C236.5 301.836 241.201 297.582 247 297.582 252.799 297.582 257.5 301.836 257.5 307.085 257.5 312.333 252.799 316.587 247 316.587 241.201 316.587 236.5 312.333 236.5 307.085Z" stroke="#AEAEAE" stroke-width="3" stroke-miterlimit="8" fill="#FFFFFF" fill-rule="evenodd"/><path d="M52.5001 308.085C52.5001 302.837 57.2011 298.582 63.0001 298.582 68.799 298.582 73.5001 302.837 73.5001 308.085 73.5001 313.333 68.799 317.588 63.0001 317.588 57.2011 317.588 52.5001 313.333 52.5001 308.085Z" stroke="#AEAEAE" stroke-width="3" stroke-miterlimit="8" fill="#FFFFFF" fill-rule="evenodd"/><path d="M463.52 305.084 488.58 305.411 488.541 308.412 463.48 308.085ZM487.119 302.391 496.06 307.01 487.002 311.393Z" fill="#AEAEAE"/><path d="M257.502 306.084 281.503 306.122 281.498 309.123 257.498 309.085ZM280.007 303.119 289 307.635 279.993 312.122Z" fill="#AEAEAE"/><path d="M73.5076 307.085 90.5079 307.171 90.4927 310.172 73.4925 310.085ZM89.0231 304.162 98.0002 308.709 88.9776 313.165Z" fill="#AEAEAE"/><path d="M0.0132675-0.999912 30.2822-0.598283 30.2557 1.40154-0.0132675 0.999912ZM28.9888-3.61571 36.935 0.490079 28.8826 4.38359Z" fill="#AEAEAE" transform="matrix(1 0 0 -1.00028 694 306.575)"/><path d="M0.0180022-0.999838 24.6297-0.556703 24.5937 1.44297-0.0180022 0.999838ZM23.3506-3.58022 31.2773 0.56315 23.2066 4.41848Z" fill="#AEAEAE" transform="matrix(1 0 0 -1.00028 900 306.648)"/><path d="M0.0137689-0.999905 20.589-0.71658 20.5615 1.28323-0.0137689 0.999905ZM19.2971-3.73465 27.2413 0.375118 19.1869 4.26459Z" fill="#AEAEAE" transform="matrix(1 0 0 -1.00028 1118 305.459)"/><path d="M520.5 92.5255C520.5 87.0012 524.977 82.5228 530.5 82.5228 536.023 82.5228 540.5 87.0012 540.5 92.5255 540.5 98.0499 536.023 102.528 530.5 102.528 524.977 102.528 520.5 98.0499 520.5 92.5255Z" stroke="#525252" stroke-width="3" stroke-miterlimit="8" fill="#FFFFFF" fill-rule="evenodd"/><path d="M540 89.0245 574.398 89.0246 574.398 95.0263 540 95.0262ZM571.398 83.0229 589.398 92.0255 571.398 101.028Z" fill="#525252"/><path d="M750.5 93.5258C750.5 87.449 761.021 82.5228 774 82.5228 786.979 82.5228 797.5 87.449 797.5 93.5258 797.5 99.6026 786.979 104.529 774 104.529 761.021 104.529 750.5 99.6026 750.5 93.5258Z" stroke="#525252" stroke-width="3" stroke-miterlimit="8" stroke-dasharray="12 9" fill="#FFFFFF" fill-rule="evenodd"/><path d="M677.029 89.0247 735.478 89.5995 735.419 95.6009 676.971 95.026ZM732.537 83.5687 750.448 92.7478 732.36 101.573Z" fill="#525252"/><text font-family="IntelOne Display Regular,IntelOne Display Regular_MSFontService,sans-serif" font-weight="400" font-size="16" transform="matrix(0.946675 0.322367 -0.3221 0.946936 7.95263 408)">2 tensors</text><text font-family="IntelOne Display Regular,IntelOne Display Regular_MSFontService,sans-serif" font-weight="400" font-size="16" transform="matrix(0.925021 0.380125 -0.379811 0.925276 206.63 419)">2 tensors</text><text font-family="IntelOne Display Regular,IntelOne Display Regular_MSFontService,sans-serif" font-weight="400" font-size="16" transform="matrix(0.828942 0.559642 -0.55918 0.829171 362.557 413)">2 tensors</text><text font-family="IntelOne Display Regular,IntelOne Display Regular_MSFontService,sans-serif" font-weight="400" font-size="16" transform="matrix(0.931919 0.362866 -0.362566 0.932176 601.133 406)">2 tensors</text><text font-family="IntelOne Display Regular,IntelOne Display Regular_MSFontService,sans-serif" font-weight="400" font-size="16" transform="matrix(0.853232 -0.521819 0.521388 0.853467 705.256 427)">2 tensors</text><text font-family="IntelOne Display Regular,IntelOne Display Regular_MSFontService,sans-serif" font-weight="400" font-size="16" transform="matrix(0.722883 -0.691351 0.69078 0.723082 904.687 456)">2 tensors</text><text font-family="IntelOne Display Regular,IntelOne Display Regular_MSFontService,sans-serif" font-weight="400" font-size="16" transform="matrix(0.916431 -0.400413 0.400082 0.916684 1084.33 447)">2 tensors</text><text font-family="IntelOne Display Regular,IntelOne Display Regular_MSFontService,sans-serif" font-weight="400" font-size="16" transform="matrix(0.896532 -0.443224 0.442857 0.896779 1209.73 434)">2 tensors</text><text font-family="IntelOne Display Regular,IntelOne Display Regular_MSFontService,sans-serif" font-weight="400" font-size="16" transform="matrix(1 0 0 1.00028 633.132 313)">stack<tspan font-size="16" x="-232.157" y="0">stack</tspan><tspan font-size="16" x="-437.987" y="0">stack</tspan><tspan font-size="16" x="-621.497" y="0.999724">stack</tspan><tspan font-size="16" x="204.982" y="-0.999724">stack</tspan><tspan font-size="16" x="423.411" y="-2.99917">stack</tspan><tspan font-size="37" x="-16.7055" y="157.956">split[0</tspan><tspan font-size="37" x="86.2945" y="157.956">-</tspan><tspan font-size="37" x="98.1279" y="157.956">1]</tspan><tspan font-size="19" x="-532.672" y="-37.9895">conv2d_t...</tspan><tspan font-size="19" x="-339.154" y="-40.9887">conv2d_t...</tspan><tspan font-size="19" x="-137.712" y="-37.9895">conv2d_t...</tspan><tspan font-size="19" x="97.0378" y="-38.9893">conv2d_t...</tspan><tspan font-size="19" x="300.078" y="-39.989">conv2d_t...</tspan><tspan font-size="19" x="507.696" y="-37.9895">conv2d_t...</tspan><tspan font-size="21" x="-33.1744" y="-248.931">concat</tspan><tspan font-size="19" x="166.876" y="-216.94">ReLU</tspan><tspan font-size="19" x="-151.587" y="-216.94">axis</tspan></text></g></svg>