<svg width="1280" height="720" xmlns="http://www.w3.org/2000/svg" xmlns:xlink="http://www.w3.org/1999/xlink" overflow="hidden"><defs><clipPath id="clip0"><rect x="0" y="0" width="1280" height="720"/></clipPath></defs><g clip-path="url(#clip0)"><rect x="0" y="0" width="1280" height="720" fill="#FFFFFF"/><path d="M232.5 80.3336C232.5 75.455 236.455 71.5001 241.334 71.5001L334.667 71.5001C339.545 71.5001 343.5 75.455 343.5 80.3336L343.5 115.667C343.5 120.545 339.545 124.5 334.667 124.5L241.334 124.5C236.455 124.5 232.5 120.545 232.5 115.667Z" stroke="#C4D600" stroke-width="1.33333" stroke-miterlimit="8" fill="#C4D600" fill-rule="evenodd"/><text fill="#FFFFFF" font-family="IntelOne Display Regular,IntelOne Display Regular_MSFontService,sans-serif" font-weight="400" font-size="24" transform="translate(261.583 106)">input</text><path d="M78.5001 170.334C78.5001 165.455 82.455 161.5 87.3336 161.5L489.666 161.5C494.545 161.5 498.5 165.455 498.5 170.334L498.5 205.666C498.5 210.545 494.545 214.5 489.666 214.5L87.3336 214.5C82.455 214.5 78.5001 210.545 78.5001 205.666Z" stroke="#FC4C02" stroke-width="1.33333" stroke-miterlimit="8" fill="#FC4C02" fill-rule="evenodd"/><text fill="#FFFFFF" font-family="IntelOne Display Regular,IntelOne Display Regular_MSFontService,sans-serif" font-weight="400" font-size="16" transform="translate(108.333 194)">InceptionV4/InceptionV4/Conv2d_1a_3x3/Conv2D</text><path d="M78.5001 260.334C78.5001 255.455 82.455 251.5 87.3336 251.5L489.666 251.5C494.545 251.5 498.5 255.455 498.5 260.334L498.5 295.666C498.5 300.545 494.545 304.5 489.666 304.5L87.3336 304.5C82.455 304.5 78.5001 300.545 78.5001 295.666Z" stroke="#F3D64E" stroke-width="1.33333" stroke-miterlimit="8" fill="#F3D64E" fill-rule="evenodd"/><text font-family="IntelOne Display Regular,IntelOne Display Regular_MSFontService,sans-serif" font-weight="400" font-size="16" transform="translate(121.667 284)">InceptionV4/InceptionV4/Conv2d_1a_3x3/Relu</text><path d="M78.5001 350.334C78.5001 345.455 82.455 341.5 87.3336 341.5L489.666 341.5C494.545 341.5 498.5 345.455 498.5 350.334L498.5 385.666C498.5 390.545 494.545 394.5 489.666 394.5L87.3336 394.5C82.455 394.5 78.5001 390.545 78.5001 385.666Z" stroke="#FC4C02" stroke-width="1.33333" stroke-miterlimit="8" fill="#FC4C02" fill-rule="evenodd"/><text fill="#FFFFFF" font-family="IntelOne Display Regular,IntelOne Display Regular_MSFontService,sans-serif" font-weight="400" font-size="16" transform="translate(106.167 374)">InceptionV4/InceptionV4/Conv2d_2a_3x3/Conv2D</text><path d="M78.5001 440.334C78.5001 435.455 82.455 431.5 87.3336 431.5L489.666 431.5C494.545 431.5 498.5 435.455 498.5 440.334L498.5 475.666C498.5 480.545 494.545 484.5 489.666 484.5L87.3336 484.5C82.455 484.5 78.5001 480.545 78.5001 475.666Z" stroke="#F3D64E" stroke-width="1.33333" stroke-miterlimit="8" fill="#F3D64E" fill-rule="evenodd"/><text font-family="IntelOne Display Regular,IntelOne Display Regular_MSFontService,sans-serif" font-weight="400" font-size="16" transform="translate(119.5 464)">InceptionV4/InceptionV4/Conv2d_2a_3x3/Relu</text><path d="M78.5001 530.334C78.5001 525.455 82.455 521.5 87.3336 521.5L489.666 521.5C494.545 521.5 498.5 525.455 498.5 530.334L498.5 565.666C498.5 570.545 494.545 574.5 489.666 574.5L87.3336 574.5C82.455 574.5 78.5001 570.545 78.5001 565.666Z" stroke="#FC4C02" stroke-width="1.33333" stroke-miterlimit="8" fill="#FC4C02" fill-rule="evenodd"/><text fill="#FFFFFF" font-family="IntelOne Display Regular,IntelOne Display Regular_MSFontService,sans-serif" font-weight="400" font-size="16" transform="translate(105.583 554)">InceptionV4/InceptionV4/Conv2d_2b_3x3/Conv2D</text><path d="M862.5 24.3336C862.5 19.455 866.455 15.5001 871.334 15.5001L964.667 15.5001C969.545 15.5001 973.5 19.455 973.5 24.3336L973.5 59.6665C973.5 64.5452 969.545 68.5 964.667 68.5L871.334 68.5C866.455 68.5 862.5 64.5452 862.5 59.6665Z" stroke="#C4D600" stroke-width="1.33333" stroke-miterlimit="8" fill="#C4D600" fill-rule="evenodd"/><text fill="#FFFFFF" font-family="IntelOne Display Regular,IntelOne Display Regular_MSFontService,sans-serif" font-weight="400" font-size="24" transform="translate(891.583 50)">input</text><path d="M708.5 198.334C708.5 193.455 712.455 189.5 717.334 189.5L1119.67 189.5C1124.55 189.5 1128.5 193.455 1128.5 198.334L1128.5 233.666C1128.5 238.545 1124.55 242.5 1119.67 242.5L717.334 242.5C712.455 242.5 708.5 238.545 708.5 233.666Z" stroke="#FC4C02" stroke-width="1.33333" stroke-miterlimit="8" fill="#FC4C02" fill-rule="evenodd"/><text fill="#FFFFFF" font-family="IntelOne Display Regular,IntelOne Display Regular_MSFontService,sans-serif" font-weight="400" font-size="16" transform="translate(738.333 222)">InceptionV4/InceptionV4/Conv2d_1a_3x3/Conv2D</text><path d="M708.5 286.334C708.5 281.455 712.455 277.5 717.334 277.5L1119.67 277.5C1124.55 277.5 1128.5 281.455 1128.5 286.334L1128.5 321.666C1128.5 326.545 1124.55 330.5 1119.67 330.5L717.334 330.5C712.455 330.5 708.5 326.545 708.5 321.666Z" stroke="#F3D64E" stroke-width="1.33333" stroke-miterlimit="8" fill="#F3D64E" fill-rule="evenodd"/><path d="M708.5 460.334C708.5 455.455 712.455 451.5 717.334 451.5L1119.67 451.5C1124.55 451.5 1128.5 455.455 1128.5 460.334L1128.5 495.666C1128.5 500.545 1124.55 504.5 1119.67 504.5L717.334 504.5C712.455 504.5 708.5 500.545 708.5 495.666Z" stroke="#FC4C02" stroke-width="1.33333" stroke-miterlimit="8" fill="#FC4C02" fill-rule="evenodd"/><text fill="#FFFFFF" font-family="IntelOne Display Regular,IntelOne Display Regular_MSFontService,sans-serif" font-weight="400" font-size="16" transform="translate(736.166 484)">InceptionV4/InceptionV4/Conv2d_2a_3x3/Conv2D</text><path d="M708.5 547.334C708.5 542.455 712.455 538.5 717.334 538.5L1119.67 538.5C1124.55 538.5 1128.5 542.455 1128.5 547.334L1128.5 582.666C1128.5 587.545 1124.55 591.5 1119.67 591.5L717.334 591.5C712.455 591.5 708.5 587.545 708.5 582.666Z" stroke="#F3D64E" stroke-width="1.33333" stroke-miterlimit="8" fill="#F3D64E" fill-rule="evenodd"/><text font-family="IntelOne Display Regular,IntelOne Display Regular_MSFontService,sans-serif" font-weight="400" font-size="16" transform="translate(749.5 571)">InceptionV4/InceptionV4/Conv2d_2a_3x3/Relu</text><path d="M708.5 635.334C708.5 630.455 712.455 626.5 717.334 626.5L1119.67 626.5C1124.55 626.5 1128.5 630.455 1128.5 635.334L1128.5 670.666C1128.5 675.545 1124.55 679.5 1119.67 679.5L717.334 679.5C712.455 679.5 708.5 675.545 708.5 670.666Z" stroke="#FC4C02" stroke-width="1.33333" stroke-miterlimit="8" fill="#FC4C02" fill-rule="evenodd"/><text fill="#FFFFFF" font-family="IntelOne Display Regular,IntelOne Display Regular_MSFontService,sans-serif" font-weight="400" font-size="16" transform="translate(735.583 658)">InceptionV4/InceptionV4/Conv2d_2b_3x3/Conv2D</text><path d="M862.5 110.334C862.5 105.455 866.455 101.5 871.334 101.5L964.667 101.5C969.545 101.5 973.5 105.455 973.5 110.334L973.5 145.667C973.5 150.545 969.545 154.5 964.667 154.5L871.334 154.5C866.455 154.5 862.5 150.545 862.5 145.667Z" stroke="#F3D64E" stroke-width="1.33333" stroke-miterlimit="8" fill="#F3D64E" fill-rule="evenodd"/><text font-family="IntelOne Display Regular,IntelOne Display Regular_MSFontService,sans-serif" font-weight="400" font-size="16" transform="translate(880.25 134)">Mu11_375<tspan font-size="16" x="66.5" y="0">2</tspan></text><path d="M708.5 374.334C708.5 369.455 712.455 365.5 717.334 365.5L1119.67 365.5C1124.55 365.5 1128.5 369.455 1128.5 374.334L1128.5 409.666C1128.5 414.545 1124.55 418.5 1119.67 418.5L717.334 418.5C712.455 418.5 708.5 414.545 708.5 409.666Z" stroke="#F3D64E" stroke-width="1.33333" stroke-miterlimit="8" fill="#F3D64E" fill-rule="evenodd"/><text font-family="IntelOne Display Regular,IntelOne Display Regular_MSFontService,sans-serif" font-weight="400" font-size="16" transform="translate(751.666 398)">InceptionV4/InceptionV4/Conv2d_1a_3x3/Relu</text><path d="M289 124 289 154.333 287 154.333 287 124ZM292 153 288 161 284 153Z"/><path d="M289 214 289 244.333 287 244.333 287 214ZM292 243 288 251 284 243Z"/><path d="M289 304 289 334.333 287 334.333 287 304ZM292 333 288 341 284 333Z"/><path d="M289 394 289 424.333 287 424.333 287 394ZM292 423 288 431 284 423Z"/><path d="M289 484 289 514.333 287 514.333 287 484ZM292 513 288 521 284 513Z"/><path d="M919 68 919 94.3337 917 94.3338 917 68ZM922 93.0004 918 101 914 93.0004Z"/><path d="M1-2.97835e-06 1.00009 28.5833-0.999915 28.5833-1 2.97835e-06ZM4.00008 27.25 0.000104987 35.25-3.99992 27.25Z" transform="matrix(-1 0 0 1 918 154)"/><path d="M919 242 919 270.583 917 270.583 917 242ZM922 269.25 918 277.25 914 269.25Z"/><path d="M919 330 919 357.583 917 357.583 917 330ZM922 356.25 918 364.25 914 356.25Z"/><path d="M919 418 919 444.584 917 444.584 917 418ZM922 443.25 918 451.25 914 443.25Z"/><path d="M919 504 919 531.583 917 531.583 917 504ZM922 530.25 918 538.25 914 530.25Z"/><path d="M919 591 919 618.583 917 618.583 917 591ZM922 617.25 918 625.25 914 617.25Z"/></g></svg>