<svg width="1280" height="720" xmlns="http://www.w3.org/2000/svg" xmlns:xlink="http://www.w3.org/1999/xlink" overflow="hidden"><defs><clipPath id="clip0"><rect x="0" y="0" width="1280" height="720"/></clipPath></defs><g clip-path="url(#clip0)"><rect x="0" y="0" width="1280" height="720" fill="#FFFFFF"/><path d="M317.824 470.434 369.153 545.215 367.504 546.347 316.176 471.566ZM370.872 542.418 372.101 551.277 364.276 546.945Z"/><path d="M0.808814-0.588064 58.4993 78.7586 56.8817 79.9347-0.808814 0.588064ZM60.1416 75.9158 61.6108 84.7386 53.671 80.6203Z" transform="matrix(-1 0 0 1 217.611 469)"/><path d="M0.646754-0.762699 70.4475 58.4269 69.154 59.9523-0.646754 0.762699ZM71.3708 55.2765 74.8854 63.5013 66.1967 61.3781Z" transform="matrix(-1 0 0 1 391.885 334)"/><path d="M310.5 52.0005C310.5 38.4693 321.469 27.5001 335.001 27.5001L449 27.5001C462.531 27.5001 473.5 38.4693 473.5 52.0005L473.5 150C473.5 163.531 462.531 174.5 449 174.5L335.001 174.5C321.469 174.5 310.5 163.531 310.5 150Z" stroke="#E96115" stroke-width="1.33333" stroke-miterlimit="8" fill="#E96115" fill-rule="evenodd"/><text fill="#FFFFFF" font-family="IntelOne Display Regular,IntelOne Display Regular_MSFontService,sans-serif" font-weight="400" font-size="16" transform="translate(334.349 47)">res2c_branch2b<tspan font-size="16" x="1.66669" y="38">bn2c_branch2b</tspan><tspan font-size="16" x="-7.33331" y="76">scale2c_branch2b</tspan><tspan font-size="16" x="-17.08" y="115">res2c_branch2b_relu</tspan></text><path d="M321.5 59.5001 458.879 59.5002" stroke="#FFFFFF" stroke-miterlimit="8" fill="none" fill-rule="evenodd"/><path d="M319.5 99.5001 456.879 99.5002" stroke="#FFFFFF" stroke-miterlimit="8" fill="none" fill-rule="evenodd"/><path d="M319.5 138.5 456.879 138.5" stroke="#FFFFFF" stroke-miterlimit="8" fill="none" fill-rule="evenodd"/><path d="M393-21 393 19.618 391 19.618 391-21ZM396 18.2846 392 26.2846 388 18.2846Z"/><path d="M310.5 240.334C310.5 229.932 318.932 221.5 329.334 221.5L454.666 221.5C465.068 221.5 473.5 229.932 473.5 240.334L473.5 315.666C473.5 326.068 465.068 334.5 454.666 334.5L329.334 334.5C318.932 334.5 310.5 326.068 310.5 315.666Z" stroke="#E96115" stroke-width="1.33333" stroke-miterlimit="8" fill="#E96115" fill-rule="evenodd"/><text fill="#FFFFFF" font-family="IntelOne Display Regular,IntelOne Display Regular_MSFontService,sans-serif" font-weight="400" font-size="16" transform="translate(334.769 244)">res2c_branch2c<tspan font-size="16" x="1.66666" y="38">bn2c_branch2c</tspan><tspan font-size="16" x="-7.33334" y="76">scale2c_branch2c</tspan></text><path d="M323.5 255.5 460.879 255.5" stroke="#FFFFFF" stroke-miterlimit="8" fill="none" fill-rule="evenodd"/><path d="M323.5 296.5 460.879 296.5" stroke="#FFFFFF" stroke-miterlimit="8" fill="none" fill-rule="evenodd"/><path d="M210.5 411.667C210.5 404.395 216.395 398.5 223.667 398.5L310.333 398.5C317.605 398.5 323.5 404.395 323.5 411.667L323.5 464.333C323.5 471.605 317.605 477.5 310.333 477.5L223.667 477.5C216.395 477.5 210.5 471.605 210.5 464.333Z" stroke="#FEC91B" stroke-width="1.33333" stroke-miterlimit="8" fill="#FEC91B" fill-rule="evenodd"/><text font-family="IntelOne Display Regular,IntelOne Display Regular_MSFontService,sans-serif" font-weight="400" font-size="16" transform="translate(246.674 422)">res2c<tspan font-size="16" x="-17.0867" y="38">res2c_relu</tspan></text><path d="M218.5 437.5 310.176 437.5" stroke="#000000" stroke-miterlimit="8" fill="none" fill-rule="evenodd"/><path d="M75.5001 573.334C75.5001 562.932 83.9322 554.5 94.3338 554.5L218.666 554.5C229.068 554.5 237.5 562.932 237.5 573.334L237.5 648.666C237.5 659.068 229.068 667.5 218.666 667.5L94.3338 667.5C83.9322 667.5 75.5001 659.068 75.5001 648.666Z" stroke="#E96115" stroke-width="1.33333" stroke-miterlimit="8" fill="#E96115" fill-rule="evenodd"/><text fill="#FFFFFF" font-family="IntelOne Display Regular,IntelOne Display Regular_MSFontService,sans-serif" font-weight="400" font-size="16" transform="translate(105.428 576)">res3a_branch1<tspan font-size="16" x="1.66666" y="38">bn3a_branch1</tspan><tspan font-size="16" x="-7.5" y="76">scale3c_branch1</tspan></text><path d="M87.5001 588.5 224.879 588.5" stroke="#FFFFFF" stroke-miterlimit="8" fill="none" fill-rule="evenodd"/><path d="M87.5001 629.5 224.879 629.5" stroke="#FFFFFF" stroke-miterlimit="8" fill="none" fill-rule="evenodd"/><path d="M291.5 577.001C291.5 563.469 302.469 552.5 316.001 552.5L429 552.5C442.531 552.5 453.5 563.469 453.5 577.001L453.5 675C453.5 688.531 442.531 699.5 429 699.5L316.001 699.5C302.469 699.5 291.5 688.531 291.5 675Z" stroke="#E96115" stroke-width="1.33333" stroke-miterlimit="8" fill="#E96115" fill-rule="evenodd"/><text fill="#FFFFFF" font-family="IntelOne Display Regular,IntelOne Display Regular_MSFontService,sans-serif" font-weight="400" font-size="16" transform="translate(315.396 572)">res3a_branch2a<tspan font-size="16" x="1.66666" y="38">bn3a_branch2a</tspan><tspan font-size="16" x="-7.33334" y="76">scale3a_branch2a</tspan><tspan font-size="16" x="-17.0867" y="115">res3a_branch2a_relu</tspan></text><path d="M301.5 584.5 438.879 584.5" stroke="#FFFFFF" stroke-miterlimit="8" fill="none" fill-rule="evenodd"/><path d="M299.5 624.5 436.879 624.5" stroke="#FFFFFF" stroke-miterlimit="8" fill="none" fill-rule="evenodd"/><path d="M299.5 663.5 436.879 663.5" stroke="#FFFFFF" stroke-miterlimit="8" fill="none" fill-rule="evenodd"/><path d="M393 173.995 393.207 214.613 391.207 214.623 391 174.005ZM396.2 213.264 392.241 221.285 388.201 213.305Z"/><path d="M141.609 337.207 214.187 392.936 212.969 394.522 140.391 338.793ZM214.957 389.744 218.866 397.789 210.084 396.09Z"/><path d="M0 0 0.000104987 345.275" stroke="#000000" stroke-width="2" stroke-miterlimit="8" fill="none" fill-rule="evenodd" transform="matrix(1 0 0 -1 141 338.275)"/><text font-family="Calibri,Calibri_MSFontService,sans-serif" font-weight="400" font-size="24" transform="translate(401.119 203)">64ch     <tspan font-size="24" x="80.1667" y="0">56x56 </tspan></text><path d="M460.5 196C460.5 194.619 461.619 193.5 463 193.5 464.381 193.5 465.5 194.619 465.5 196 465.5 197.381 464.381 198.5 463 198.5 461.619 198.5 460.5 197.381 460.5 196Z" stroke="#000000" stroke-width="1.33333" stroke-miterlimit="8" fill-rule="evenodd"/><text font-family="Calibri,Calibri_MSFontService,sans-serif" font-weight="400" font-size="24" transform="translate(363.057 381)">256ch     <tspan font-size="24" x="92.3333" y="0">56x56 </tspan></text><path d="M434.5 374C434.5 372.619 435.619 371.5 437 371.5 438.381 371.5 439.5 372.619 439.5 374 439.5 375.381 438.381 376.5 437 376.5 435.619 376.5 434.5 375.381 434.5 374Z" stroke="#000000" stroke-width="1.33333" stroke-miterlimit="8" fill-rule="evenodd"/><text font-family="Calibri,Calibri_MSFontService,sans-serif" font-weight="400" font-size="24" transform="translate(146.67 107)">256ch     <tspan font-size="24" x="92.3333" y="0">56x56 </tspan></text><path d="M218.5 99.5001C218.5 98.3955 219.395 97.5001 220.5 97.5001 221.605 97.5001 222.5 98.3955 222.5 99.5001 222.5 100.605 221.605 101.5 220.5 101.5 219.395 101.5 218.5 100.605 218.5 99.5001Z" stroke="#000000" stroke-width="1.33333" stroke-miterlimit="8" fill-rule="evenodd"/><text font-family="Calibri,Calibri_MSFontService,sans-serif" font-weight="400" font-size="19" transform="translate(217.181 506)">kernel size: 1<tspan font-size="19" x="17.9267" y="23">stride: 2</tspan></text><path d="M220 525 220 546.392 218 546.392 218 525ZM223 545.059 219 553.059 215 545.059Z"/><path d="M311 523 311 544.392 309 544.392 309 523ZM314 543.059 310 551.059 306 543.059Z"/><path d="M0 0 12.2617 9.85449" stroke="#000000" stroke-width="2" stroke-miterlimit="8" fill="none" fill-rule="evenodd" transform="matrix(1 0 0 -1 218 524.854)"/><path d="M310.164 524.854 301 515" stroke="#000000" stroke-width="2" stroke-miterlimit="8" fill="none" fill-rule="evenodd"/><path d="M0 0 0.24126 59.7741" stroke="#000000" stroke-width="2" stroke-miterlimit="8" fill="none" fill-rule="evenodd" transform="matrix(-1 0 0 1 156.241 667)"/><path d="M372 699 372 726.893" stroke="#000000" stroke-width="2" stroke-miterlimit="8" fill="none" fill-rule="evenodd"/><text font-family="Calibri,Calibri_MSFontService,sans-serif" font-weight="400" font-size="19" transform="translate(478.656 47)">stride: 1</text><path d="M960.824 470.434 1012.15 545.215 1010.5 546.347 959.176 471.566ZM1013.87 542.418 1015.1 551.277 1007.28 546.945Z"/><path d="M0.808814-0.588064 58.4993 78.7586 56.8817 79.9347-0.808814 0.588064ZM60.1416 75.9158 61.6108 84.7386 53.671 80.6203Z" transform="matrix(-1 0 0 1 860.611 469)"/><path d="M0.646754-0.762699 70.4475 58.4269 69.154 59.9523-0.646754 0.762699ZM71.3708 55.2765 74.8854 63.5013 66.1967 61.3781Z" transform="matrix(-1 0 0 1 1034.89 334)"/><path d="M953.5 52.0005C953.5 38.4693 964.469 27.5001 978 27.5001L1092 27.5001C1105.53 27.5001 1116.5 38.4693 1116.5 52.0005L1116.5 150C1116.5 163.531 1105.53 174.5 1092 174.5L978 174.5C964.469 174.5 953.5 163.531 953.5 150Z" stroke="#E96115" stroke-width="1.33333" stroke-miterlimit="8" fill="#E96115" fill-rule="evenodd"/><text fill="#FFFFFF" font-family="IntelOne Display Regular,IntelOne Display Regular_MSFontService,sans-serif" font-weight="400" font-size="16" transform="translate(977.059 47)">res2c_branch2b<tspan font-size="16" x="1.66669" y="38">bn2c_branch2b</tspan><tspan font-size="16" x="-7.33331" y="76">scale2c_branch2b</tspan><tspan font-size="16" x="-17.08" y="115">res2c_branch2b_relu</tspan></text><path d="M964.5 59.5001 1101.88 59.5002" stroke="#FFFFFF" stroke-miterlimit="8" fill="none" fill-rule="evenodd"/><path d="M962.5 99.5001 1099.88 99.5002" stroke="#FFFFFF" stroke-miterlimit="8" fill="none" fill-rule="evenodd"/><path d="M962.5 138.5 1099.88 138.5" stroke="#FFFFFF" stroke-miterlimit="8" fill="none" fill-rule="evenodd"/><path d="M1035-21 1035 19.618 1033 19.618 1033-21ZM1038 18.2846 1034 26.2846 1030 18.2846Z"/><path d="M953.5 240.334C953.5 229.932 961.932 221.5 972.334 221.5L1097.67 221.5C1108.07 221.5 1116.5 229.932 1116.5 240.334L1116.5 315.666C1116.5 326.068 1108.07 334.5 1097.67 334.5L972.334 334.5C961.932 334.5 953.5 326.068 953.5 315.666Z" stroke="#E96115" stroke-width="1.33333" stroke-miterlimit="8" fill="#E96115" fill-rule="evenodd"/><text fill="#FFFFFF" font-family="IntelOne Display Regular,IntelOne Display Regular_MSFontService,sans-serif" font-weight="400" font-size="16" transform="translate(977.479 244)">res2c_branch2c<tspan font-size="16" x="1.66669" y="38">bn2c_branch2c</tspan><tspan font-size="16" x="-7.33331" y="76">scale2c_branch2c</tspan></text><path d="M966.5 255.5 1103.88 255.5" stroke="#FFFFFF" stroke-miterlimit="8" fill="none" fill-rule="evenodd"/><path d="M966.5 296.5 1103.88 296.5" stroke="#FFFFFF" stroke-miterlimit="8" fill="none" fill-rule="evenodd"/><path d="M852.5 411.667C852.5 404.395 858.395 398.5 865.667 398.5L953.333 398.5C960.605 398.5 966.5 404.395 966.5 411.667L966.5 464.333C966.5 471.605 960.605 477.5 953.333 477.5L865.667 477.5C858.395 477.5 852.5 471.605 852.5 464.333Z" stroke="#FEC91B" stroke-width="1.33333" stroke-miterlimit="8" fill="#FEC91B" fill-rule="evenodd"/><path d="M861.5 437.5 953.176 437.5" stroke="#000000" stroke-miterlimit="8" fill="none" fill-rule="evenodd"/><path d="M717.5 573.334C717.5 562.932 725.932 554.5 736.334 554.5L861.666 554.5C872.068 554.5 880.5 562.932 880.5 573.334L880.5 648.666C880.5 659.068 872.068 667.5 861.666 667.5L736.334 667.5C725.932 667.5 717.5 659.068 717.5 648.666Z" stroke="#E96115" stroke-width="1.33333" stroke-miterlimit="8" fill="#E96115" fill-rule="evenodd"/><text fill="#FFFFFF" font-family="IntelOne Display Regular,IntelOne Display Regular_MSFontService,sans-serif" font-weight="400" font-size="16" transform="translate(748.139 576)">res3a_branch1<tspan font-size="16" x="1.66663" y="38">bn2c_branch1</tspan><tspan font-size="16" x="-7.33337" y="76">scale2c_branch1</tspan></text><path d="M730.5 588.5 867.879 588.5" stroke="#FFFFFF" stroke-miterlimit="8" fill="none" fill-rule="evenodd"/><path d="M730.5 629.5 867.879 629.5" stroke="#FFFFFF" stroke-miterlimit="8" fill="none" fill-rule="evenodd"/><path d="M933.5 577.001C933.5 563.469 944.469 552.5 958 552.5L1072 552.5C1085.53 552.5 1096.5 563.469 1096.5 577.001L1096.5 675C1096.5 688.531 1085.53 699.5 1072 699.5L958 699.5C944.469 699.5 933.5 688.531 933.5 675Z" stroke="#E96115" stroke-width="1.33333" stroke-miterlimit="8" fill="#E96115" fill-rule="evenodd"/><text fill="#FFFFFF" font-family="IntelOne Display Regular,IntelOne Display Regular_MSFontService,sans-serif" font-weight="400" font-size="16" transform="translate(958.106 572)">res2c_branch2a<tspan font-size="16" x="1.66669" y="38">bn2c_branch2a</tspan><tspan font-size="16" x="-7.33331" y="76">scale2c_branch2a</tspan><tspan font-size="16" x="-17.0867" y="115">res2c_branch2a_relu</tspan></text><path d="M944.5 584.5 1081.88 584.5" stroke="#FFFFFF" stroke-miterlimit="8" fill="none" fill-rule="evenodd"/><path d="M942.5 624.5 1079.88 624.5" stroke="#FFFFFF" stroke-miterlimit="8" fill="none" fill-rule="evenodd"/><path d="M942.5 663.5 1079.88 663.5" stroke="#FFFFFF" stroke-miterlimit="8" fill="none" fill-rule="evenodd"/><path d="M1035 173.995 1035.21 214.613 1033.21 214.623 1033 174.005ZM1038.2 213.264 1034.24 221.285 1030.2 213.305Z"/><path d="M783.609 337.207 856.187 392.936 854.969 394.522 782.391 338.793ZM856.957 389.744 860.866 397.789 852.084 396.09Z"/><path d="M783.241 337.961 783 251" stroke="#000000" stroke-width="2" stroke-miterlimit="8" fill="none" fill-rule="evenodd"/><text font-family="Calibri,Calibri_MSFontService,sans-serif" font-weight="400" font-size="24" transform="translate(1043.83 203)">64ch     <tspan font-size="24" x="80.1666" y="0">28x28 </tspan></text><path d="M1103.5 196C1103.5 194.619 1104.62 193.5 1106 193.5 1107.38 193.5 1108.5 194.619 1108.5 196 1108.5 197.381 1107.38 198.5 1106 198.5 1104.62 198.5 1103.5 197.381 1103.5 196Z" stroke="#000000" stroke-width="1.33333" stroke-miterlimit="8" fill-rule="evenodd"/><text font-family="Calibri,Calibri_MSFontService,sans-serif" font-weight="400" font-size="24" transform="translate(1005.77 381)">256ch     <tspan font-size="24" x="92.3334" y="0">28x28</tspan></text><path d="M1077.5 374C1077.5 372.619 1078.62 371.5 1080 371.5 1081.38 371.5 1082.5 372.619 1082.5 374 1082.5 375.381 1081.38 376.5 1080 376.5 1078.62 376.5 1077.5 375.381 1077.5 374Z" stroke="#000000" stroke-width="1.33333" stroke-miterlimit="8" fill-rule="evenodd"/><text font-family="Calibri,Calibri_MSFontService,sans-serif" font-weight="400" font-size="24" transform="translate(789.38 107)">256ch     <tspan font-size="24" x="92.3333" y="0">56x56 </tspan></text><path d="M860.5 99.5001C860.5 98.3955 861.619 97.5001 863 97.5001 864.381 97.5001 865.5 98.3955 865.5 99.5001 865.5 100.605 864.381 101.5 863 101.5 861.619 101.5 860.5 100.605 860.5 99.5001Z" stroke="#000000" stroke-width="1.33333" stroke-miterlimit="8" fill-rule="evenodd"/><text font-family="Calibri,Calibri_MSFontService,sans-serif" font-weight="400" font-size="19" transform="translate(859.891 506)">kernel size: 1<tspan font-size="19" x="17.9266" y="23">stride: 1</tspan></text><path d="M863 525 863 546.392 861 546.392 861 525ZM866 545.059 862 553.059 858 545.059Z"/><path d="M954 523 954 544.392 952 544.392 952 523ZM957 543.059 953 551.059 949 543.059Z"/><path d="M0 0 12.2617 9.85449" stroke="#000000" stroke-width="2" stroke-miterlimit="8" fill="none" fill-rule="evenodd" transform="matrix(1 0 0 -1 861 524.854)"/><path d="M953.164 524.854 944 515" stroke="#000000" stroke-width="2" stroke-miterlimit="8" fill="none" fill-rule="evenodd"/><path d="M0 0 0.24126 59.7741" stroke="#000000" stroke-width="2" stroke-miterlimit="8" fill="none" fill-rule="evenodd" transform="matrix(-1 0 0 1 798.241 667)"/><path d="M1015 699 1015 726.893" stroke="#000000" stroke-width="2" stroke-miterlimit="8" fill="none" fill-rule="evenodd"/><text font-family="Calibri,Calibri_MSFontService,sans-serif" font-weight="400" font-size="19" transform="translate(1121.37 47)">stride: 2</text><path d="M743.5 215.667C743.5 211.709 746.709 208.5 750.667 208.5L816.333 208.5C820.291 208.5 823.5 211.709 823.5 215.667L823.5 244.333C823.5 248.291 820.291 251.5 816.333 251.5L750.667 251.5C746.709 251.5 743.5 248.291 743.5 244.333Z" stroke="#FEC91B" stroke-width="1.33333" stroke-miterlimit="8" fill="#FEC91B" fill-rule="evenodd"/><text font-family="IntelOne Display Regular,IntelOne Display Regular_MSFontService,sans-serif" font-weight="400" font-size="16" transform="translate(765.385 236)">pool1</text><path d="M782-7.00954 783.989 201.487 781.99 201.506 780-6.99046ZM786.977 200.125 783.053 208.163 778.977 200.202Z"/><text font-family="Calibri,Calibri_MSFontService,sans-serif" font-weight="400" font-size="19" transform="translate(670.304 197)">kernel size: 1<tspan font-size="19" x="0" y="23">stride: 2</tspan><tspan font-size="24" x="-316.066" y="326">256ch     </tspan><tspan font-size="24" x="-223.732" y="326">56x56 </tspan></text><path d="M425.5 516C425.5 514.619 426.619 513.5 428 513.5 429.381 513.5 430.5 514.619 430.5 516 430.5 517.381 429.381 518.5 428 518.5 426.619 518.5 425.5 517.381 425.5 516Z" stroke="#000000" stroke-width="1.33333" stroke-miterlimit="8" fill-rule="evenodd"/><text font-family="Calibri,Calibri_MSFontService,sans-serif" font-weight="400" font-size="24" transform="translate(27.7538 523)">256ch     <tspan font-size="24" x="92.3333" y="0">56x56 </tspan></text><path d="M99.5001 516C99.5001 514.619 100.619 513.5 102 513.5 103.381 513.5 104.5 514.619 104.5 516 104.5 517.381 103.381 518.5 102 518.5 100.619 518.5 99.5001 517.381 99.5001 516Z" stroke="#000000" stroke-width="1.33333" stroke-miterlimit="8" fill-rule="evenodd"/><text font-family="IntelOne Display Regular,IntelOne Display Regular_MSFontService,sans-serif" font-weight="400" font-size="16" transform="translate(887.499 423)">res2c<tspan font-size="16" x="-17.0867" y="38">res2c_relu</tspan><tspan font-family="Calibri,Calibri_MSFontService,sans-serif" font-size="24" x="-229.386" y="100">256ch     </tspan><tspan font-family="Calibri,Calibri_MSFontService,sans-serif" font-size="24" x="-137.053" y="100">28x28</tspan></text><path d="M729.5 516C729.5 514.619 730.619 513.5 732 513.5 733.381 513.5 734.5 514.619 734.5 516 734.5 517.381 733.381 518.5 732 518.5 730.619 518.5 729.5 517.381 729.5 516Z" stroke="#000000" stroke-width="1.33333" stroke-miterlimit="8" fill-rule="evenodd"/><text font-family="Calibri,Calibri_MSFontService,sans-serif" font-weight="400" font-size="24" transform="translate(1005.77 523)">256ch     <tspan font-size="24" x="92.3334" y="0">28x28</tspan></text><path d="M1077.5 516C1077.5 514.619 1078.62 513.5 1080 513.5 1081.38 513.5 1082.5 514.619 1082.5 516 1082.5 517.381 1081.38 518.5 1080 518.5 1078.62 518.5 1077.5 517.381 1077.5 516Z" stroke="#000000" stroke-width="1.33333" stroke-miterlimit="8" fill-rule="evenodd"/></g></svg>