<svg width="1184" height="720" xmlns="http://www.w3.org/2000/svg" xmlns:xlink="http://www.w3.org/1999/xlink" overflow="hidden"><defs><clipPath id="clip0"><rect x="0" y="0" width="1184" height="720"/></clipPath></defs><g clip-path="url(#clip0)"><rect x="0" y="0" width="1184" height="720" fill="#FFFFFF"/><path d="M916.621 87.2164 996.094 150.231 994.852 151.798 915.379 88.7836ZM996.913 147.052 1000.7 155.157 991.943 153.32Z"/><path d="M158.373 578.072 245.217 612.959 244.471 614.815 157.627 579.928ZM245.098 609.678 251.03 616.372 242.116 617.101Z"/><path d="M0.400779-0.916175 79.7243 33.7837 78.9227 35.6161-0.400779 0.916175ZM79.705 30.5008 85.4313 37.3718 76.4988 37.8302Z" transform="matrix(-1 0 0 1 405.431 579)"/><path d="M306.522 77.1472 400.255 134.559 399.21 136.264 305.478 78.8528ZM400.684 131.304 405.417 138.894 396.506 138.126Z"/><path d="M249.5 59.6668C249.5 55.7087 252.709 52.5001 256.667 52.5001L321.333 52.5001C325.291 52.5001 328.5 55.7087 328.5 59.6668L328.5 88.3333C328.5 92.2914 325.291 95.5001 321.333 95.5001L256.667 95.5001C252.709 95.5001 249.5 92.2914 249.5 88.3333Z" stroke="#FEC91B" stroke-width="1.33333" stroke-miterlimit="8" fill="#FEC91B" fill-rule="evenodd"/><text font-family="IntelOne Display Regular,IntelOne Display Regular_MSFontService,sans-serif" font-weight="400" font-size="16" transform="translate(271.007 80)">pool1</text><path d="M290-7 290 45.3624 288 45.3624 288-7ZM293 44.0291 289 52.0291 285 44.0291Z"/><path d="M328.5 164.834C328.5 150.842 339.842 139.5 353.834 139.5L458.166 139.5C472.158 139.5 483.5 150.842 483.5 164.834L483.5 266.166C483.5 280.158 472.158 291.5 458.166 291.5L353.834 291.5C339.842 291.5 328.5 280.158 328.5 266.166Z" stroke="#E96115" stroke-width="1.33333" stroke-miterlimit="8" fill="#E96115" fill-rule="evenodd"/><path d="M328.5 360.834C328.5 346.842 339.842 335.5 353.834 335.5L458.166 335.5C472.158 335.5 483.5 346.842 483.5 360.834L483.5 462.166C483.5 476.158 472.158 487.5 458.166 487.5L353.834 487.5C339.842 487.5 328.5 476.158 328.5 462.166Z" stroke="#E96115" stroke-width="1.33333" stroke-miterlimit="8" fill="#E96115" fill-rule="evenodd"/><path d="M353.5 536.167C353.5 531.38 357.38 527.5 362.167 527.5L450.833 527.5C455.62 527.5 459.5 531.38 459.5 536.167L459.5 570.833C459.5 575.62 455.62 579.5 450.833 579.5L362.167 579.5C357.38 579.5 353.5 575.62 353.5 570.833Z" stroke="#E96115" stroke-width="1.33333" stroke-miterlimit="8" fill="#E96115" fill-rule="evenodd"/><text fill="#FFFFFF" font-family="IntelOne Display Regular,IntelOne Display Regular_MSFontService,sans-serif" font-weight="400" font-size="16" transform="translate(366.645 559)">res1_conv3</text><path d="M79.5001 536.167C79.5001 531.38 83.3803 527.5 88.1668 527.5L227.833 527.5C232.62 527.5 236.5 531.38 236.5 536.167L236.5 570.833C236.5 575.62 232.62 579.5 227.833 579.5L88.1668 579.5C83.3803 579.5 79.5001 575.62 79.5001 570.833Z" stroke="#E96115" stroke-width="1.33333" stroke-miterlimit="8" fill="#E96115" fill-rule="evenodd"/><text fill="#FFFFFF" font-family="IntelOne Display Regular,IntelOne Display Regular_MSFontService,sans-serif" font-weight="400" font-size="16" transform="translate(97.7999 559)">res1_match_conv</text><path d="M224.5 625.667C224.5 621.709 227.709 618.5 231.667 618.5L346.333 618.5C350.291 618.5 353.5 621.709 353.5 625.667L353.5 654.333C353.5 658.291 350.291 661.5 346.333 661.5L231.667 661.5C227.709 661.5 224.5 658.291 224.5 654.333Z" stroke="#FEC91B" stroke-width="1.33333" stroke-miterlimit="8" fill="#FEC91B" fill-rule="evenodd"/><text font-family="IntelOne Display Regular,IntelOne Display Regular_MSFontService,sans-serif" font-weight="400" font-size="16" transform="translate(243.257 646)">res1_eletwise</text><path d="M159 74 159 520.592 157 520.592 157 74ZM162 519.259 158 527.259 154 519.259Z"/><path d="M0 0 91.1792 0.000104987" stroke="#000000" stroke-width="2" stroke-miterlimit="8" fill="none" fill-rule="evenodd" transform="matrix(-1 0 0 1 249.179 74)"/><path d="M407 291 407 328.657 405 328.657 405 291ZM410 327.324 406 335.324 402 327.324Z"/><path d="M1-2.63469e-06 1.00009 33.1812-0.999913 33.1812-1 2.63469e-06ZM4.00008 31.8479 0.000104987 39.8479-3.99992 31.8479Z" transform="matrix(-1 0 0 1 406 487)"/><text fill="#FFFFFF" font-family="IntelOne Display Regular,IntelOne Display Regular_MSFontService,sans-serif" font-weight="400" font-size="16" transform="translate(368.974 163)">res1_conv1<tspan font-size="16" x="-13.08" y="38">res1_conv1_bn</tspan><tspan font-size="16" x="-22.08" y="76">res1_conv1_scale</tspan><tspan font-size="16" x="-17.08" y="115">res1_conv1_relu</tspan></text><path d="M337.5 176.5 474.879 176.5" stroke="#FFFFFF" stroke-miterlimit="8" fill="none" fill-rule="evenodd"/><path d="M337.5 216.5 474.879 216.5" stroke="#FFFFFF" stroke-miterlimit="8" fill="none" fill-rule="evenodd"/><path d="M337.5 256.5 474.879 256.5" stroke="#FFFFFF" stroke-miterlimit="8" fill="none" fill-rule="evenodd"/><text fill="#FFFFFF" font-family="IntelOne Display Regular,IntelOne Display Regular_MSFontService,sans-serif" font-weight="400" font-size="16" transform="translate(366.808 359)">res1_conv2<tspan font-size="16" x="-13.08" y="38">res1_conv2_bn</tspan><tspan font-size="16" x="-22.08" y="76">res1_conv2_scale</tspan><tspan font-size="16" x="-17.08" y="115">res1_conv2_relu</tspan></text><path d="M337.5 372.5 474.879 372.5" stroke="#FFFFFF" stroke-miterlimit="8" fill="none" fill-rule="evenodd"/><path d="M337.5 411.5 474.879 411.5" stroke="#FFFFFF" stroke-miterlimit="8" fill="none" fill-rule="evenodd"/><path d="M337.5 450.5 474.879 450.5" stroke="#FFFFFF" stroke-miterlimit="8" fill="none" fill-rule="evenodd"/><text font-family="Calibri,Calibri_MSFontService,sans-serif" font-weight="400" font-size="24" transform="translate(255.207 689)">before<tspan font-size="24" x="60.6207" y="-651">64ch     112x112 </tspan></text><path d="M375.5 31.0001C375.5 29.6193 376.619 28.5001 378 28.5001 379.381 28.5001 380.5 29.6193 380.5 31.0001 380.5 32.3808 379.381 33.5001 378 33.5001 376.619 33.5001 375.5 32.3808 375.5 31.0001Z" stroke="#000000" stroke-width="1.33333" stroke-miterlimit="8" fill-rule="evenodd"/><text font-family="Calibri,Calibri_MSFontService,sans-serif" font-weight="400" font-size="24" transform="translate(385.853 114)">64ch     56x56 </text><path d="M445.5 107C445.5 105.619 446.619 104.5 448 104.5 449.381 104.5 450.5 105.619 450.5 107 450.5 108.381 449.381 109.5 448 109.5 446.619 109.5 445.5 108.381 445.5 107Z" stroke="#000000" stroke-width="1.33333" stroke-miterlimit="8" fill-rule="evenodd"/><text font-family="Calibri,Calibri_MSFontService,sans-serif" font-weight="400" font-size="24" transform="translate(415.245 320)">64ch     56x56</text><path d="M474.5 313C474.5 311.619 475.619 310.5 477 310.5 478.381 310.5 479.5 311.619 479.5 313 479.5 314.381 478.381 315.5 477 315.5 475.619 315.5 474.5 314.381 474.5 313Z" stroke="#000000" stroke-width="1.33333" stroke-miterlimit="8" fill-rule="evenodd"/><text font-family="Calibri,Calibri_MSFontService,sans-serif" font-weight="400" font-size="24" transform="translate(422.579 514)">64ch     56x56 </text><path d="M482.5 507C482.5 505.619 483.619 504.5 485 504.5 486.381 504.5 487.5 505.619 487.5 507 487.5 508.381 486.381 509.5 485 509.5 483.619 509.5 482.5 508.381 482.5 507Z" stroke="#000000" stroke-width="1.33333" stroke-miterlimit="8" fill-rule="evenodd"/><text font-family="Calibri,Calibri_MSFontService,sans-serif" font-weight="400" font-size="24" transform="translate(164.953 321)">64ch     56x56 </text><path d="M224.5 314C224.5 312.619 225.619 311.5 227 311.5 228.381 311.5 229.5 312.619 229.5 314 229.5 315.381 228.381 316.5 227 316.5 225.619 316.5 224.5 315.381 224.5 314Z" stroke="#000000" stroke-width="1.33333" stroke-miterlimit="8" fill-rule="evenodd"/><text font-family="Calibri,Calibri_MSFontService,sans-serif" font-weight="400" font-size="24" transform="translate(363.051 619)">255ch     56x56 </text><path d="M434.5 612C434.5 610.619 435.619 609.5 437 609.5 438.381 609.5 439.5 610.619 439.5 612 439.5 613.381 438.381 614.5 437 614.5 435.619 614.5 434.5 613.381 434.5 612Z" stroke="#000000" stroke-width="1.33333" stroke-miterlimit="8" fill-rule="evenodd"/><text font-family="Calibri,Calibri_MSFontService,sans-serif" font-weight="400" font-size="24" transform="translate(45.1599 619)">255ch     56x56 </text><path d="M116.5 612C116.5 610.619 117.619 609.5 119 609.5 120.381 609.5 121.5 610.619 121.5 612 121.5 613.381 120.381 614.5 119 614.5 117.619 614.5 116.5 613.381 116.5 612Z" stroke="#000000" stroke-width="1.33333" stroke-miterlimit="8" fill-rule="evenodd"/><path d="M844.5 59.8336C844.5 55.7834 847.783 52.5001 851.834 52.5001L916.167 52.5001C920.217 52.5001 923.5 55.7834 923.5 59.8336L923.5 89.1665C923.5 93.2167 920.217 96.5001 916.167 96.5001L851.834 96.5001C847.783 96.5001 844.5 93.2167 844.5 89.1665Z" stroke="#FEC91B" stroke-width="1.33333" stroke-miterlimit="8" fill="#FEC91B" fill-rule="evenodd"/><text font-family="IntelOne Display Regular,IntelOne Display Regular_MSFontService,sans-serif" font-weight="400" font-size="16" transform="translate(865.963 80)">pool1</text><path d="M885-19 885 45.2376 883 45.2376 883-19ZM888 43.9042 884 51.9043 880 43.9043Z"/><path d="M923.5 167.334C923.5 160.798 928.798 155.5 935.334 155.5L1066.67 155.5C1073.2 155.5 1078.5 160.798 1078.5 167.334L1078.5 214.667C1078.5 221.202 1073.2 226.5 1066.67 226.5L935.334 226.5C928.798 226.5 923.5 221.202 923.5 214.667Z" stroke="#E96115" stroke-width="1.33333" stroke-miterlimit="8" fill="#E96115" fill-rule="evenodd"/><text fill="#FFFFFF" font-family="IntelOne Display Regular,IntelOne Display Regular_MSFontService,sans-serif" font-weight="400" font-size="16" transform="translate(959.398 179)">res1_conv1<tspan font-size="16" x="-17.08" y="38">res1_conv1</tspan><tspan font-size="16" x="56.2533" y="38">_rel</tspan><tspan font-size="16" x="81.5867" y="38">u</tspan></text><path d="M932.5 192.5 1069.88 192.5" stroke="#FFFFFF" stroke-miterlimit="8" fill="none" fill-rule="evenodd"/><path d="M754.373 479.072 841.217 513.959 840.471 515.815 753.627 480.928ZM841.098 510.678 847.03 517.372 838.116 518.101Z"/><path d="M0.400779-0.916175 79.7243 33.7837 78.9227 35.6161-0.400779 0.916175ZM79.705 30.5008 85.4313 37.3718 76.4988 37.8302Z" transform="matrix(-1 0 0 1 1001.43 480)"/><path d="M948.5 437.167C948.5 432.38 952.38 428.5 957.167 428.5L1045.83 428.5C1050.62 428.5 1054.5 432.38 1054.5 437.167L1054.5 471.833C1054.5 476.62 1050.62 480.5 1045.83 480.5L957.167 480.5C952.38 480.5 948.5 476.62 948.5 471.833Z" stroke="#E96115" stroke-width="1.33333" stroke-miterlimit="8" fill="#E96115" fill-rule="evenodd"/><text fill="#FFFFFF" font-family="IntelOne Display Regular,IntelOne Display Regular_MSFontService,sans-serif" font-weight="400" font-size="16" transform="translate(962.335 461)">res1_conv3</text><path d="M675.5 437.167C675.5 432.38 679.38 428.5 684.167 428.5L823.833 428.5C828.62 428.5 832.5 432.38 832.5 437.167L832.5 471.833C832.5 476.62 828.62 480.5 823.833 480.5L684.167 480.5C679.38 480.5 675.5 476.62 675.5 471.833Z" stroke="#E96115" stroke-width="1.33333" stroke-miterlimit="8" fill="#E96115" fill-rule="evenodd"/><text fill="#FFFFFF" font-family="IntelOne Display Regular,IntelOne Display Regular_MSFontService,sans-serif" font-weight="400" font-size="16" transform="translate(693.49 461)">res1_match_conv</text><path d="M820.5 526.667C820.5 522.709 823.709 519.5 827.667 519.5L942.333 519.5C946.291 519.5 949.5 522.709 949.5 526.667L949.5 555.333C949.5 559.291 946.291 562.5 942.333 562.5L827.667 562.5C823.709 562.5 820.5 559.291 820.5 555.333Z" stroke="#FEC91B" stroke-width="1.33333" stroke-miterlimit="8" fill="#FEC91B" fill-rule="evenodd"/><text font-family="IntelOne Display Regular,IntelOne Display Regular_MSFontService,sans-serif" font-weight="400" font-size="16" transform="translate(838.948 547)">res1_eletwise<tspan font-family="Calibri,Calibri_MSFontService,sans-serif" font-size="24" x="119.793" y="-26">256ch     </tspan><tspan font-family="Calibri,Calibri_MSFontService,sans-serif" font-size="24" x="206.627" y="-26">56x56 </tspan></text><path d="M1030.5 513.5C1030.5 512.396 1031.62 511.5 1033 511.5 1034.38 511.5 1035.5 512.396 1035.5 513.5 1035.5 514.605 1034.38 515.5 1033 515.5 1031.62 515.5 1030.5 514.605 1030.5 513.5Z" stroke="#000000" stroke-width="1.33333" stroke-miterlimit="8" fill-rule="evenodd"/><text font-family="Calibri,Calibri_MSFontService,sans-serif" font-weight="400" font-size="24" transform="translate(640.85 521)">256ch     <tspan font-size="24" x="86.8334" y="0">56x56 </tspan></text><path d="M712.5 513.5C712.5 512.396 713.619 511.5 715 511.5 716.381 511.5 717.5 512.396 717.5 513.5 717.5 514.605 716.381 515.5 715 515.5 713.619 515.5 712.5 514.605 712.5 513.5Z" stroke="#000000" stroke-width="1.33333" stroke-miterlimit="8" fill-rule="evenodd"/><path d="M923.5 300.667C923.5 293.947 928.947 288.5 935.667 288.5L1066.33 288.5C1073.05 288.5 1078.5 293.947 1078.5 300.667L1078.5 349.333C1078.5 356.053 1073.05 361.5 1066.33 361.5L935.667 361.5C928.947 361.5 923.5 356.053 923.5 349.333Z" stroke="#E96115" stroke-width="1.33333" stroke-miterlimit="8" fill="#E96115" fill-rule="evenodd"/><text fill="#FFFFFF" font-family="IntelOne Display Regular,IntelOne Display Regular_MSFontService,sans-serif" font-weight="400" font-size="16" transform="translate(957.231 313)">res1_conv2<tspan font-size="16" x="-17.08" y="38">res1_conv2</tspan><tspan font-size="16" x="60.5867" y="38">_rel</tspan><tspan font-size="16" x="85.92" y="38">u</tspan></text><path d="M932.5 326.5 1069.88 326.5" stroke="#FFFFFF" stroke-miterlimit="8" fill="none" fill-rule="evenodd"/><path d="M1002 226 1002 281.62 1000 281.62 1000 226ZM1005 280.287 1001 288.287 997 280.287Z"/><path d="M1002 360.989 1002.66 421.615 1000.66 421.637 1000 361.011ZM1005.65 420.249 1001.73 428.292 997.648 420.336Z"/><path d="M754 73.9987 754.451 421.478 752.451 421.481 752 74.0013ZM757.45 420.141 753.46 428.146 749.45 420.152Z"/><path d="M0 0 90.9044 0.000104987" stroke="#000000" stroke-width="2" stroke-miterlimit="8" fill="none" fill-rule="evenodd" transform="matrix(-1 0 0 1 843.904 74)"/><text font-family="Calibri,Calibri_MSFontService,sans-serif" font-weight="400" font-size="24" transform="translate(910.783 39)">64ch     112x112 </text><path d="M970.5 32.0001C970.5 30.6193 971.619 29.5001 973 29.5001 974.381 29.5001 975.5 30.6193 975.5 32.0001 975.5 33.3808 974.381 34.5001 973 34.5001 971.619 34.5001 970.5 33.3808 970.5 32.0001Z" stroke="#000000" stroke-width="1.33333" stroke-miterlimit="8" fill-rule="evenodd"/><text font-family="Calibri,Calibri_MSFontService,sans-serif" font-weight="400" font-size="24" transform="translate(971.665 114)">64ch     56x56 </text><path d="M1031.5 107C1031.5 105.619 1032.62 104.5 1034 104.5 1035.38 104.5 1036.5 105.619 1036.5 107 1036.5 108.381 1035.38 109.5 1034 109.5 1032.62 109.5 1031.5 108.381 1031.5 107Z" stroke="#000000" stroke-width="1.33333" stroke-miterlimit="8" fill-rule="evenodd"/><text font-family="Calibri,Calibri_MSFontService,sans-serif" font-weight="400" font-size="24" transform="translate(1016.18 263)">64ch     56x56 </text><path d="M1075.5 255C1075.5 253.619 1076.62 252.5 1078 252.5 1079.38 252.5 1080.5 253.619 1080.5 255 1080.5 256.381 1079.38 257.5 1078 257.5 1076.62 257.5 1075.5 256.381 1075.5 255Z" stroke="#000000" stroke-width="1.33333" stroke-miterlimit="8" fill-rule="evenodd"/><text font-family="Calibri,Calibri_MSFontService,sans-serif" font-weight="400" font-size="24" transform="translate(771.067 264)">64ch     56x56 </text><path d="M830.5 257C830.5 255.619 831.619 254.5 833 254.5 834.381 254.5 835.5 255.619 835.5 257 835.5 258.381 834.381 259.5 833 259.5 831.619 259.5 830.5 258.381 830.5 257Z" stroke="#000000" stroke-width="1.33333" stroke-miterlimit="8" fill-rule="evenodd"/><text font-family="Calibri,Calibri_MSFontService,sans-serif" font-weight="400" font-size="24" transform="translate(1017.53 402)">64ch     56x56 </text><path d="M1077.5 395C1077.5 393.619 1078.62 392.5 1080 392.5 1081.38 392.5 1082.5 393.619 1082.5 395 1082.5 396.381 1081.38 397.5 1080 397.5 1078.62 397.5 1077.5 396.381 1077.5 395Z" stroke="#000000" stroke-width="1.33333" stroke-miterlimit="8" fill-rule="evenodd"/><text font-family="Calibri,Calibri_MSFontService,sans-serif" font-weight="400" font-size="24" transform="translate(860.928 589)">after</text></g></svg>