<svg width="1037" height="480" xmlns="http://www.w3.org/2000/svg" xmlns:xlink="http://www.w3.org/1999/xlink" overflow="hidden"><defs><clipPath id="clip0"><rect x="0" y="0" width="1037" height="480"/></clipPath><linearGradient x1="254.5" y1="240.461" x2="408.5" y2="240.461" gradientUnits="userSpaceOnUse" spreadMethod="reflect" id="fill1"><stop offset="0" stop-color="#B9D6E5"/><stop offset="0.99" stop-color="#FFB1B4"/><stop offset="1" stop-color="#FFB1B4"/></linearGradient><linearGradient x1="629.5" y1="240.461" x2="783.5" y2="240.461" gradientUnits="userSpaceOnUse" spreadMethod="reflect" id="fill2"><stop offset="0" stop-color="#B9D6E5"/><stop offset="0.99" stop-color="#FFB1B4"/><stop offset="1" stop-color="#FFB1B4"/></linearGradient></defs><g clip-path="url(#clip0)"><rect x="0" y="0" width="1037" height="479.923" fill="#FFFFFF"/><rect x="16.5" y="50.4919" width="121" height="83.9866" stroke="#000000" stroke-width="1.33355" stroke-miterlimit="8" fill="#FFFFFF"/><text font-family="IntelOne Display Regular,IntelOne Display Regular_MSFontService,sans-serif" font-weight="400" font-size="17" transform="matrix(1 0 0 0.999839 41.343 98)">Model file</text><rect x="356.5" y="50.4919" width="109" height="83.9866" stroke="#B1D272" stroke-width="1.33355" stroke-miterlimit="8" fill="#D7F3A2"/><text font-family="IntelOne Display Regular,IntelOne Display Regular_MSFontService,sans-serif" font-weight="400" font-size="17" transform="matrix(1 0 0 0.999839 394.973 78)">FW<tspan font-size="17" x="26.1709" y="0">-</tspan><tspan font-size="17" x="-24.0839" y="20.0032">dependent </tspan><tspan font-size="17" x="-5.6676" y="40.0064">graph</tspan></text><path d="M498.5 64.49C498.5 56.759 504.768 50.4919 512.5 50.4919L639.5 50.4919C647.232 50.4919 653.5 56.759 653.5 64.49L653.5 120.48C653.5 128.211 647.232 134.478 639.5 134.478L512.5 134.478C504.768 134.478 498.5 128.211 498.5 120.48Z" stroke="#C81326" stroke-width="1.33355" stroke-miterlimit="8" fill="#FFB6B9" fill-rule="evenodd"/><text font-family="IntelOne Display Regular,IntelOne Display Regular_MSFontService,sans-serif" font-weight="400" font-size="17" transform="matrix(1 0 0 0.999839 534.895 78)">Operations <tspan font-size="17" x="6.33435" y="20.0032">attributes </tspan><tspan font-size="17" x="4.25403" y="40.0064">extracting</tspan></text><path d="M828.5 64.4899C828.5 56.759 834.768 50.4919 842.5 50.4919L968.5 50.4919C976.232 50.4919 982.5 56.759 982.5 64.4899L982.5 120.48C982.5 128.211 976.232 134.478 968.5 134.478L842.5 134.478C834.768 134.478 828.5 128.211 828.5 120.48Z" stroke="#C81326" stroke-width="1.33355" stroke-miterlimit="8" fill="#FFB6B9" fill-rule="evenodd"/><text font-family="IntelOne Display Regular,IntelOne Display Regular_MSFontService,sans-serif" font-weight="400" font-size="17" transform="matrix(1 0 0 0.999839 860.405 88)">Front<tspan font-size="17" x="39.3397" y="0">-</tspan><tspan font-size="17" x="44.6739" y="0">phase </tspan><tspan font-size="17" x="-12.2486" y="20.0032">transformations</tspan></text><path d="M254.5 212.466C254.5 204.735 260.768 198.468 268.5 198.468L394.5 198.468C402.232 198.468 408.5 204.735 408.5 212.466L408.5 268.457C408.5 276.187 402.232 282.455 394.5 282.455L268.5 282.455C260.768 282.455 254.5 276.187 254.5 268.457Z" stroke="#548FAD" stroke-width="1.33355" stroke-miterlimit="8" fill="url(#fill1)" fill-rule="evenodd"/><text font-family="IntelOne Display Regular,IntelOne Display Regular_MSFontService,sans-serif" font-weight="400" font-size="17" transform="matrix(1 0 0 0.999839 272.241 226)">NHWC<tspan font-size="17" x="52.8418" y="0">-</tspan><tspan font-size="17" x="58.176" y="0">&gt;NCHW </tspan><tspan font-size="17" x="7.8346" y="20.0032">layout change </tspan><tspan font-size="17" x="23.2571" y="40.0064">(optional)</tspan></text><rect x="816.5" y="198.468" width="121" height="83.9865" stroke="#000000" stroke-width="1.33355" stroke-miterlimit="8" fill="#FFFFFF"/><text font-family="IntelOne Display Regular,IntelOne Display Regular_MSFontService,sans-serif" font-weight="400" font-size="17" transform="matrix(1 0 0 0.999839 831.143 236)">IR: .xml + .bin <tspan font-size="17" x="30.8383" y="20.0032">files</tspan></text><rect x="686.5" y="50.4919" width="109" height="83.9866" stroke="#B1D272" stroke-width="1.33355" stroke-miterlimit="8" fill="#D7F3A2"/><text font-family="IntelOne Display Regular,IntelOne Display Regular_MSFontService,sans-serif" font-weight="400" font-size="17" transform="matrix(1 0 0 0.999839 711.238 88)">Generic <tspan font-size="17" x="6.00098" y="20.0032">Graph</tspan></text><path d="M67.5 212.466C67.5 204.735 73.7681 198.468 81.5003 198.468L207.5 198.468C215.232 198.468 221.5 204.735 221.5 212.466L221.5 268.457C221.5 276.187 215.232 282.455 207.5 282.455L81.5003 282.455C73.7681 282.455 67.5 276.187 67.5 268.457Z" stroke="#C81326" stroke-width="1.33355" stroke-miterlimit="8" fill="#FFB6B9" fill-rule="evenodd"/><text font-family="IntelOne Display Regular,IntelOne Display Regular_MSFontService,sans-serif" font-weight="400" font-size="17" transform="matrix(1 0 0 0.999839 94.658 236)">Middle<tspan font-size="17" x="49.1746" y="0">-</tspan><tspan font-size="17" x="54.5088" y="0">phase </tspan><tspan font-size="17" x="-7.33451" y="20.0032">transformations</tspan></text><path d="M441.5 212.466C441.5 204.735 447.768 198.468 455.5 198.468L582.5 198.468C590.232 198.468 596.5 204.735 596.5 212.466L596.5 268.457C596.5 276.188 590.232 282.455 582.5 282.455L455.5 282.455C447.768 282.455 441.5 276.188 441.5 268.457Z" stroke="#C81326" stroke-width="1.33355" stroke-miterlimit="8" fill="#FFB6B9" fill-rule="evenodd"/><text font-family="IntelOne Display Regular,IntelOne Display Regular_MSFontService,sans-serif" font-weight="400" font-size="17" transform="matrix(1 0 0 0.999839 475.407 236)">Back<tspan font-size="17" x="36.3392" y="0">-</tspan><tspan font-size="17" x="41.6734" y="0">phase </tspan><tspan font-size="17" x="-13.7489" y="20.0032">transformations</tspan></text><path d="M629.5 212.466C629.5 204.735 635.768 198.468 643.5 198.468L769.5 198.468C777.232 198.468 783.5 204.735 783.5 212.466L783.5 268.457C783.5 276.187 777.232 282.455 769.5 282.455L643.5 282.455C635.768 282.455 629.5 276.187 629.5 268.457Z" stroke="#548FAD" stroke-width="1.33355" stroke-miterlimit="8" fill="url(#fill2)" fill-rule="evenodd"/><text font-family="IntelOne Display Regular,IntelOne Display Regular_MSFontService,sans-serif" font-weight="400" font-size="17" transform="matrix(1 0 0 0.999839 670.578 246)">IR Emitter</text><path d="M137 90.9852 163.362 90.9853 163.362 92.9853 137 92.9852ZM162.028 87.9853 170.03 91.9853 162.028 95.9853Z"/><path d="M324 90.9852 349.581 90.9864 349.58 92.9864 324 92.9852ZM348.247 87.9863 356.248 91.9867 348.247 95.9863Z"/><path d="M1.90749e-05-1 26.3569-0.999497 26.3568 1.0005-1.90749e-05 1ZM25.0236-3.99952 33.0235 0.000629921 25.0234 4.00048Z" transform="matrix(1.00016 0 0 -1 465 91.9858)"/><path d="M3.1791e-06-1 26.3574-0.999916 26.3574 1.00008-3.1791e-06 1ZM25.0241-3.99992 33.024 0.000104987 25.024 4.00008Z" transform="matrix(1.00016 0 0 -1 653 91.9853)"/><path d="M3.17915e-06-1 26.3569-0.999916 26.3568 1.00008-3.17915e-06 1ZM25.0235-3.99992 33.0235 0.000104987 25.0235 4.00008Z" transform="matrix(1.00016 0 0 -1 795 91.9853)"/><path d="M0 1-23.9961 1-22.9961 0-22.9961 73.9028-23.9961 72.9028 939.821 72.9028 939.821 148.805 921.491 148.805 921.491 146.805 938.821 146.805 937.821 147.805 937.821 73.9028 938.821 74.9028-24.9961 74.9028-24.9961-1 0-1ZM922.825 151.805 914.825 147.805 922.825 143.805Z" transform="matrix(-1.00016 0 0 1 981.972 91.9852)"/><path d="M3.17914e-06-1 26.357-0.999916 26.357 1.00008-3.17914e-06 1ZM25.0236-3.99992 33.0236 0.000104987 25.0236 4.00008Z" transform="matrix(1.00016 0 0 -1 221 239.962)"/><path d="M3.1792e-06-1 26.3564-0.999916 26.3564 1.00008-3.1792e-06 1ZM25.0231-3.99992 33.0231 0.000104987 25.0231 4.00008Z" transform="matrix(1.00016 0 0 -1 408 239.962)"/><path d="M596 238.961 622.36 238.962 622.36 240.962 596 240.961ZM621.027 235.962 629.028 239.962 621.027 243.962Z"/><path d="M3.17928e-06-1 26.3556-0.999916 26.3556 1.00008-3.17928e-06 1ZM25.0223-3.99992 33.0223 0.000104987 25.0222 4.00008Z" transform="matrix(1.00016 0 0 -1 783 239.962)"/><text font-family="IntelOne Display Regular,IntelOne Display Regular_MSFontService,sans-serif" font-weight="400" font-size="20" transform="matrix(1 0 0 0.999839 25.1452 335)">Legend:</text><rect x="16.5" y="373.44" width="121" height="83.9865" stroke="#000000" stroke-width="1.33355" stroke-miterlimit="8" fill="#FFFFFF"/><text font-family="IntelOne Display Regular,IntelOne Display Regular_MSFontService,sans-serif" font-weight="400" font-size="17" transform="matrix(1 0 0 0.999839 33.6753 421)">Phsycial file</text><path d="M170.5 387.438C170.5 379.707 176.768 373.44 184.5 373.44L310.5 373.44C318.232 373.44 324.5 379.707 324.5 387.438L324.5 443.428C324.5 451.159 318.232 457.426 310.5 457.426L184.5 457.426C176.768 457.426 170.5 451.159 170.5 443.428Z" stroke="#548FAD" stroke-width="1.33355" stroke-miterlimit="8" fill="#B9D6E5" fill-rule="evenodd"/><text font-family="IntelOne Display Regular,IntelOne Display Regular_MSFontService,sans-serif" font-weight="400" font-size="17" transform="matrix(1 0 0 0.999839 228.499 401)">Non<tspan font-size="17" x="31.1717" y="0">-</tspan><tspan font-size="17" x="-45.0072" y="20.0032">customizable MO </tspan><tspan font-size="17" x="-25.2507" y="40.0064">Component</tspan></text><path d="M356.5 387.438C356.5 379.707 362.768 373.44 370.5 373.44L496.5 373.44C504.232 373.44 510.5 379.707 510.5 387.438L510.5 443.428C510.5 451.159 504.232 457.426 496.5 457.426L370.5 457.426C362.768 457.426 356.5 451.159 356.5 443.428Z" stroke="#C81326" stroke-width="1.33355" stroke-miterlimit="8" fill="#FFB6B9" fill-rule="evenodd"/><text font-family="IntelOne Display Regular,IntelOne Display Regular_MSFontService,sans-serif" font-weight="400" font-size="17" transform="matrix(1 0 0 0.999839 383.381 411)">Customizable <tspan font-size="17" x="-8.83475" y="20.0032">MO Component</tspan></text><rect x="542.5" y="373.44" width="110" height="83.9865" stroke="#B1D272" stroke-width="1.33355" stroke-miterlimit="8" fill="#D7F3A2"/><text font-family="IntelOne Display Regular,IntelOne Display Regular_MSFontService,sans-serif" font-weight="400" font-size="17" transform="matrix(1 0 0 0.999839 557.943 411)">In<tspan font-size="17" x="13.1688" y="0">-</tspan><tspan font-size="17" x="18.503" y="0">memory </tspan><tspan font-size="17" x="16.416" y="20.0032">object</tspan></text><path d="M170.5 64.4899C170.5 56.759 176.768 50.4919 184.5 50.4919L310.5 50.4919C318.232 50.4919 324.5 56.759 324.5 64.4899L324.5 120.48C324.5 128.211 318.232 134.478 310.5 134.478L184.5 134.478C176.768 134.478 170.5 128.211 170.5 120.48Z" stroke="#548FAD" stroke-width="1.33355" stroke-miterlimit="8" fill="#B9D6E5" fill-rule="evenodd"/><text font-family="IntelOne Display Regular,IntelOne Display Regular_MSFontService,sans-serif" font-weight="400" font-size="17" transform="matrix(1 0 0 0.999839 199.494 98)">Model loader</text></g></svg>