<svg width="1325" height="576" xmlns="http://www.w3.org/2000/svg" xmlns:xlink="http://www.w3.org/1999/xlink" overflow="hidden"><defs><clipPath id="clip0"><rect x="0" y="0" width="1325" height="576"/></clipPath><linearGradient x1="398.5" y1="288.464" x2="552.5" y2="288.464" gradientUnits="userSpaceOnUse" spreadMethod="reflect" id="fill1"><stop offset="0" stop-color="#B9D6E5"/><stop offset="0.99" stop-color="#FFB1B4"/><stop offset="1" stop-color="#FFB1B4"/></linearGradient><linearGradient x1="773.5" y1="288.464" x2="927.5" y2="288.464" gradientUnits="userSpaceOnUse" spreadMethod="reflect" id="fill2"><stop offset="0" stop-color="#B9D6E5"/><stop offset="0.99" stop-color="#FFB1B4"/><stop offset="1" stop-color="#FFB1B4"/></linearGradient></defs><g clip-path="url(#clip0)"><rect x="0" y="0" width="1325" height="575.928" fill="#FFFFFF"/><rect x="160.5" y="98.4876" width="121" height="83.9895" stroke="#000000" stroke-width="1.3335" stroke-miterlimit="8" fill="#FFFFFF"/><text font-family="IntelOne Display Regular,IntelOne Display Regular_MSFontService,sans-serif" font-weight="400" font-size="17" transform="matrix(1 0 0 0.999874 185.359 146)">Model file</text><rect x="500.5" y="98.4876" width="109" height="83.9895" stroke="#B1D272" stroke-width="1.3335" stroke-miterlimit="8" fill="#D7F3A2"/><text font-family="IntelOne Display Regular,IntelOne Display Regular_MSFontService,sans-serif" font-weight="400" font-size="17" transform="matrix(1 0 0 0.999874 538.977 126)">FW<tspan font-size="17" x="26.1699" y="0">-</tspan><tspan font-size="17" x="-24.0831" y="20.0025">dependent </tspan><tspan font-size="17" x="-5.66742" y="40.005">graph</tspan></text><path d="M642.5 112.486C642.5 104.755 648.768 98.4876 656.5 98.4876L783.5 98.4876C791.232 98.4876 797.5 104.755 797.5 112.486L797.5 168.478C797.5 176.21 791.232 182.477 783.5 182.477L656.5 182.477C648.768 182.477 642.5 176.21 642.5 168.478Z" stroke="#C81326" stroke-width="1.3335" stroke-miterlimit="8" fill="#FFB6B9" fill-rule="evenodd"/><text font-family="IntelOne Display Regular,IntelOne Display Regular_MSFontService,sans-serif" font-weight="400" font-size="17" transform="matrix(1 0 0 0.999874 678.894 126)">Operations <tspan font-size="17" x="6.33417" y="20.0025">attributes </tspan><tspan font-size="17" x="4.25391" y="40.005">extracting</tspan></text><path d="M972.5 112.486C972.5 104.755 978.768 98.4876 986.5 98.4876L1112.5 98.4876C1120.23 98.4876 1126.5 104.755 1126.5 112.486L1126.5 168.478C1126.5 176.21 1120.23 182.477 1112.5 182.477L986.5 182.477C978.768 182.477 972.5 176.21 972.5 168.478Z" stroke="#C81326" stroke-width="1.3335" stroke-miterlimit="8" fill="#FFB6B9" fill-rule="evenodd"/><text font-family="IntelOne Display Regular,IntelOne Display Regular_MSFontService,sans-serif" font-weight="400" font-size="17" transform="matrix(1 0 0 0.999874 1004.39 136)">Front<tspan font-size="17" x="39.3382" y="0">-</tspan><tspan font-size="17" x="44.6723" y="0">phase </tspan><tspan font-size="17" x="-12.2482" y="20.0025">transformations</tspan></text><path d="M398.5 260.468C398.5 252.736 404.768 246.469 412.5 246.469L538.5 246.469C546.232 246.469 552.5 252.736 552.5 260.468L552.5 316.46C552.5 324.191 546.232 330.458 538.5 330.458L412.5 330.458C404.768 330.458 398.5 324.191 398.5 316.46Z" stroke="#548FAD" stroke-width="1.3335" stroke-miterlimit="8" fill="url(#fill1)" fill-rule="evenodd"/><text font-family="IntelOne Display Regular,IntelOne Display Regular_MSFontService,sans-serif" font-weight="400" font-size="17" transform="matrix(1 0 0 0.999874 416.249 274)">NHWC<tspan font-size="17" x="52.84" y="0">-</tspan><tspan font-size="17" x="58.174" y="0">&gt;NCHW </tspan><tspan font-size="17" x="7.83432" y="20.0025">layout change </tspan><tspan font-size="17" x="23.2563" y="40.005">(optional)</tspan></text><rect x="960.5" y="246.469" width="121" height="83.9895" stroke="#000000" stroke-width="1.3335" stroke-miterlimit="8" fill="#FFFFFF"/><text font-family="IntelOne Display Regular,IntelOne Display Regular_MSFontService,sans-serif" font-weight="400" font-size="17" transform="matrix(1 0 0 0.999874 975.132 284)">IR: .xml + .bin <tspan font-size="17" x="30.8372" y="20.0025">files</tspan></text><rect x="830.5" y="98.4876" width="109" height="83.9895" stroke="#B1D272" stroke-width="1.3335" stroke-miterlimit="8" fill="#D7F3A2"/><text font-family="IntelOne Display Regular,IntelOne Display Regular_MSFontService,sans-serif" font-weight="400" font-size="17" transform="matrix(1 0 0 0.999874 855.231 136)">Generic <tspan font-size="17" x="6.00079" y="20.0025">Graph</tspan></text><path d="M211.5 260.468C211.5 252.736 217.768 246.469 225.5 246.469L351.5 246.469C359.232 246.469 365.5 252.736 365.5 260.468L365.5 316.46C365.5 324.191 359.232 330.458 351.5 330.458L225.5 330.458C217.768 330.458 211.5 324.191 211.5 316.46Z" stroke="#C81326" stroke-width="1.3335" stroke-miterlimit="8" fill="#FFB6B9" fill-rule="evenodd"/><text font-family="IntelOne Display Regular,IntelOne Display Regular_MSFontService,sans-serif" font-weight="400" font-size="17" transform="matrix(1 0 0 0.999874 238.673 284)">Middle<tspan font-size="17" x="49.1728" y="0">-</tspan><tspan font-size="17" x="54.5069" y="0">phase </tspan><tspan font-size="17" x="-7.33426" y="20.0025">transformations</tspan></text><path d="M585.5 260.467C585.5 252.736 591.768 246.469 599.5 246.469L726.5 246.469C734.232 246.469 740.5 252.736 740.5 260.467L740.5 316.46C740.5 324.191 734.232 330.458 726.5 330.458L599.5 330.458C591.768 330.458 585.5 324.191 585.5 316.46Z" stroke="#C81326" stroke-width="1.3335" stroke-miterlimit="8" fill="#FFB6B9" fill-rule="evenodd"/><text font-family="IntelOne Display Regular,IntelOne Display Regular_MSFontService,sans-serif" font-weight="400" font-size="17" transform="matrix(1 0 0 0.999874 619.408 284)">Back<tspan font-size="17" x="36.3379" y="0">-</tspan><tspan font-size="17" x="41.6719" y="0">phase </tspan><tspan font-size="17" x="-13.7484" y="20.0025">transformations</tspan></text><path d="M773.5 260.467C773.5 252.736 779.768 246.469 787.5 246.469L913.5 246.469C921.232 246.469 927.5 252.736 927.5 260.467L927.5 316.46C927.5 324.191 921.232 330.458 913.5 330.458L787.5 330.458C779.768 330.458 773.5 324.191 773.5 316.46Z" stroke="#548FAD" stroke-width="1.3335" stroke-miterlimit="8" fill="url(#fill2)" fill-rule="evenodd"/><text font-family="IntelOne Display Regular,IntelOne Display Regular_MSFontService,sans-serif" font-weight="400" font-size="17" transform="matrix(1 0 0 0.999874 814.572 294)">IR Emitter</text><path d="M281 138.982 307.361 138.982 307.361 140.982 281 140.982ZM306.028 135.982 314.029 139.982 306.028 143.982Z"/><path d="M468 138.982 493.58 138.984 493.58 140.984 468 140.982ZM492.246 135.983 500.247 139.984 492.246 143.983Z"/><path d="M1.90749e-05-1 26.3569-0.999497 26.3568 1.0005-1.90749e-05 1ZM25.0236-3.99952 33.0235 0.000629921 25.0234 4.00048Z" transform="matrix(1.00013 0 0 -1 609 139.983)"/><path d="M3.1791e-06-1 26.3574-0.999916 26.3574 1.00008-3.1791e-06 1ZM25.0241-3.99992 33.024 0.000104987 25.024 4.00008Z" transform="matrix(1.00013 0 0 -1 797 139.982)"/><path d="M3.17915e-06-1 26.3569-0.999916 26.3568 1.00008-3.17915e-06 1ZM25.0235-3.99992 33.0235 0.000104987 25.0235 4.00008Z" transform="matrix(1.00013 0 0 -1 939 139.982)"/><path d="M0 1-23.9961 1-22.9961 0-22.9961 73.9028-23.9961 72.9028 939.821 72.9028 939.821 148.805 921.491 148.805 921.491 146.805 938.821 146.805 937.821 147.805 937.821 73.9028 938.821 74.9028-24.9961 74.9028-24.9961-1 0-1ZM922.825 151.805 914.825 147.805 922.825 143.805Z" transform="matrix(-1.00013 0 0 1 1125.94 139.982)"/><path d="M3.17914e-06-1 26.357-0.999916 26.357 1.00008-3.17914e-06 1ZM25.0236-3.99992 33.0236 0.000104987 25.0236 4.00008Z" transform="matrix(1.00013 0 0 -1 365 287.964)"/><path d="M3.1792e-06-1 26.3564-0.999916 26.3564 1.00008-3.1792e-06 1ZM25.0231-3.99992 33.0231 0.000104987 25.0231 4.00008Z" transform="matrix(1.00013 0 0 -1 552 287.964)"/><path d="M740 286.964 766.359 286.964 766.359 288.964 740 288.964ZM765.026 283.964 773.027 287.964 765.026 291.964Z"/><path d="M3.17928e-06-1 26.3556-0.999916 26.3556 1.00008-3.17928e-06 1ZM25.0223-3.99992 33.0223 0.000104987 25.0222 4.00008Z" transform="matrix(1.00013 0 0 -1 927 287.964)"/><text font-family="IntelOne Display Regular,IntelOne Display Regular_MSFontService,sans-serif" font-weight="400" font-size="20" transform="matrix(1 0 0 0.999874 169.162 383)">Legend:</text><rect x="160.5" y="421.447" width="121" height="83.9895" stroke="#000000" stroke-width="1.3335" stroke-miterlimit="8" fill="#FFFFFF"/><text font-family="IntelOne Display Regular,IntelOne Display Regular_MSFontService,sans-serif" font-weight="400" font-size="17" transform="matrix(1 0 0 0.999874 177.692 469)">Phsycial file</text><path d="M314.5 435.445C314.5 427.714 320.768 421.447 328.5 421.447L454.5 421.447C462.232 421.447 468.5 427.714 468.5 435.445L468.5 491.438C468.5 499.169 462.232 505.436 454.5 505.436L328.5 505.436C320.768 505.436 314.5 499.169 314.5 491.438Z" stroke="#548FAD" stroke-width="1.3335" stroke-miterlimit="8" fill="#B9D6E5" fill-rule="evenodd"/><text font-family="IntelOne Display Regular,IntelOne Display Regular_MSFontService,sans-serif" font-weight="400" font-size="17" transform="matrix(1 0 0 0.999874 372.509 449)">Non<tspan font-size="17" x="31.1706" y="0">-</tspan><tspan font-size="17" x="-45.0057" y="20.0025">customizable MO </tspan><tspan font-size="17" x="-25.2498" y="40.005">Component</tspan></text><path d="M500.5 435.445C500.5 427.714 506.768 421.447 514.5 421.447L640.5 421.447C648.232 421.447 654.5 427.714 654.5 435.445L654.5 491.438C654.5 499.169 648.232 505.436 640.5 505.436L514.5 505.436C506.768 505.436 500.5 499.169 500.5 491.438Z" stroke="#C81326" stroke-width="1.3335" stroke-miterlimit="8" fill="#FFB6B9" fill-rule="evenodd"/><text font-family="IntelOne Display Regular,IntelOne Display Regular_MSFontService,sans-serif" font-weight="400" font-size="17" transform="matrix(1 0 0 0.999874 527.385 459)">Customizable <tspan font-size="17" x="-8.83447" y="20.0025">MO Component</tspan></text><rect x="686.5" y="421.447" width="110" height="83.9895" stroke="#B1D272" stroke-width="1.3335" stroke-miterlimit="8" fill="#D7F3A2"/><text font-family="IntelOne Display Regular,IntelOne Display Regular_MSFontService,sans-serif" font-weight="400" font-size="17" transform="matrix(1 0 0 0.999874 701.941 459)">In<tspan font-size="17" x="13.1683" y="0">-</tspan><tspan font-size="17" x="18.5023" y="0">memory </tspan><tspan font-size="17" x="16.4154" y="20.0025">object</tspan></text><path d="M314.5 112.486C314.5 104.755 320.768 98.4876 328.5 98.4876L454.5 98.4876C462.232 98.4876 468.5 104.755 468.5 112.486L468.5 168.478C468.5 176.21 462.232 182.477 454.5 182.477L328.5 182.477C320.768 182.477 314.5 176.21 314.5 168.478Z" stroke="#548FAD" stroke-width="1.3335" stroke-miterlimit="8" fill="#B9D6E5" fill-rule="evenodd"/><text font-family="IntelOne Display Regular,IntelOne Display Regular_MSFontService,sans-serif" font-weight="400" font-size="17" transform="matrix(1 0 0 0.999874 343.506 146)">Model loader</text></g></svg>