<svg width="1443" height="528" xmlns="http://www.w3.org/2000/svg" xmlns:xlink="http://www.w3.org/1999/xlink" overflow="hidden"><defs><clipPath id="clip0"><rect x="0" y="0" width="1443" height="528"/></clipPath></defs><g clip-path="url(#clip0)"><rect x="0" y="0" width="1443" height="528.061" fill="#FFFFFF"/><rect x="23.5" y="76.5089" width="171" height="91.0105" stroke="#000000" stroke-width="1.33318" stroke-miterlimit="8" fill="#E9E9E9"/><text font-family="IntelOne Display Regular,IntelOne Display Regular_MSFontService,sans-serif" font-weight="400" font-size="16" transform="matrix(1 0 0 1.00012 69.9651 97)">Operation1<tspan font-size="16" x="-18.0779" y="39.9954">{attr_a: value_a,</tspan><tspan font-size="16" x="-26.8302" y="58.9932">attr_b: value_b, ... }</tspan></text><rect x="448.5" y="76.5089" width="171" height="91.0105" stroke="#000000" stroke-width="1.33318" stroke-miterlimit="8" fill="#E9E9E9"/><text font-family="IntelOne Display Regular,IntelOne Display Regular_MSFontService,sans-serif" font-weight="400" font-size="16" transform="matrix(1 0 0 1.00012 492.635 97)">Operation2<tspan font-size="16" x="-15.9981" y="39.9954">{attr_c: value_c,</tspan><tspan font-size="16" x="-24.5838" y="58.9932">attr_d: value_d, ... }</tspan></text><rect x="1251.5" y="68.5079" width="171" height="92.0106" stroke="#000000" stroke-width="1.33318" stroke-miterlimit="8" fill="#E9E9E9"/><text font-family="IntelOne Display Regular,IntelOne Display Regular_MSFontService,sans-serif" font-weight="400" font-size="16" transform="matrix(1 0 0 1.00012 1295.25 89)">Operation3<tspan font-size="16" x="-10.5787" y="39.9954">{attr_i: value_i,</tspan><tspan font-size="16" x="-18.3312" y="58.9932">attr_j: value_j, ... }</tspan></text><rect x="900.5" y="110.513" width="172" height="92.0106" stroke="#000000" stroke-width="1.33318" stroke-miterlimit="8" fill="#E9E9E9"/><text font-family="IntelOne Display Regular,IntelOne Display Regular_MSFontService,sans-serif" font-weight="400" font-size="16" transform="matrix(1 0 0 1.00012 944.88 131)">Operation5<tspan font-size="16" x="-16.1648" y="39.9954">{attr_e: value_e,</tspan><tspan font-size="16" x="-19.5844" y="58.9932">attr_f: value_f, ... }</tspan></text><rect x="900.5" y="297.534" width="172" height="91.0105" stroke="#000000" stroke-width="1.33318" stroke-miterlimit="8" fill="#E9E9E9"/><text font-family="IntelOne Display Regular,IntelOne Display Regular_MSFontService,sans-serif" font-weight="400" font-size="16" transform="matrix(1 0 0 1.00012 944.627 317)">Operation4<tspan font-size="16" x="-16.5781" y="39.9954">{attr_g: value_g,</tspan><tspan font-size="16" x="-23.8306" y="58.9932">attr_h: value_h, ... }</tspan></text><path d="M194.5 121.847 244.703 121.848 244.703 123.181 194.5 123.181ZM243.369 118.514 251.369 122.514 243.369 126.514Z"/><path d="M7.83316e-07-0.66659 171.998-0.666388 171.998 0.666792-7.83316e-07 0.66659ZM170.665-3.99934 178.664 0.00020995 170.665 3.99974Z" transform="matrix(1 0 0 -1.00012 533.5 76.5091)"/><path d="M778.5 104.846 871.981 104.846 871.981 156.85 871.314 156.183 894.174 156.183 894.174 157.516 870.648 157.516 870.648 105.512 871.314 106.179 778.5 106.179ZM892.841 152.85 900.84 156.85 892.841 160.85Z"/><path d="M619.5 121.847 689.208 121.847 689.208 290.855 687.875 290.855 687.875 122.514 688.542 123.181 619.5 123.181ZM692.541 289.522 688.542 297.522 684.542 289.522Z"/><path d="M1208.83 297.233 1208.83 113.846 1244.41 113.846 1244.41 115.18 1209.5 115.18 1210.17 114.513 1210.17 297.233ZM1243.07 110.513 1251.07 114.513 1243.07 118.513Z"/><text font-family="IntelOne Display Regular,IntelOne Display Regular_MSFontService,sans-serif" font-weight="400" font-size="15" transform="matrix(1 0 0 1.00012 411.749 112)">in:<tspan font-size="15" x="17.3313" y="0">0</tspan><tspan font-size="15" x="-205.814" y="1.99977">out: 0</tspan><tspan font-size="15" x="220.146" y="-44.9948">out: 0</tspan><tspan font-size="15" x="672.395" y="217.975">out: 0</tspan><tspan font-size="15" x="222.906" y="0">out</tspan>: <tspan font-size="15" x="250.236" y="0">1</tspan><tspan font-size="15" x="454.846" y="65.9924">in:</tspan><tspan font-size="15" x="472.177" y="65.9924">0</tspan><tspan font-size="15" x="448.583" y="217.975">in:</tspan><tspan font-size="15" x="465.914" y="217.975">0</tspan><tspan font-size="15" x="797.711" y="0">in:</tspan><tspan font-size="15" x="815.043" y="0">0</tspan><tspan font-size="15" x="797.711" y="-41.9951">in:</tspan><tspan font-size="15" x="815.043" y="-41.9951">1</tspan></text><rect x="23.5" y="412.548" width="171" height="91.0105" stroke="#000000" stroke-width="1.33318" stroke-miterlimit="8" fill="#E9E9E9"/><text font-family="IntelOne Display Regular,IntelOne Display Regular_MSFontService,sans-serif" font-weight="400" font-size="16" transform="matrix(1 0 0 1.00012 52.3838 464)">Operation node</text><rect x="251.5" y="76.5089" width="149" height="91.0105" stroke="#708541" stroke-width="1.33318" stroke-miterlimit="8" fill="#B1D272"/><text font-family="IntelOne Display Regular,IntelOne Display Regular_MSFontService,sans-serif" font-weight="400" font-size="16" transform="matrix(1 0 0 1.00012 307.552 97)">data1<tspan font-size="16" x="-40.4153" y="39.9954">{`shape`: None,</tspan><tspan font-size="16" x="-36.0825" y="58.9932">`value`: None}</tspan></text><rect x="247.5" y="412.548" width="150" height="91.0105" stroke="#708541" stroke-width="1.33318" stroke-miterlimit="8" fill="#B1D272"/><text font-family="IntelOne Display Regular,IntelOne Display Regular_MSFontService,sans-serif" font-weight="400" font-size="16" transform="matrix(1 0 0 1.00012 285.125 464)">Data node</text><path d="M400.5 121.847 441.282 121.848 441.282 123.181 400.5 123.181ZM439.949 118.514 447.948 122.514 439.949 126.514Z"/><rect x="712.5" y="30.5035" width="149" height="92.0106" stroke="#708541" stroke-width="1.33318" stroke-miterlimit="8" fill="#B1D272"/><text font-family="IntelOne Display Regular,IntelOne Display Regular_MSFontService,sans-serif" font-weight="400" font-size="16" transform="matrix(1 0 0 1.00012 756.949 51)">data2_0<tspan font-size="16" x="-28.7501" y="39.9954">{`shape`: None,</tspan><tspan font-size="16" x="-24.4172" y="58.9932">`value`: None}</tspan></text><rect x="614.5" y="297.534" width="149" height="91.0105" stroke="#708541" stroke-width="1.33318" stroke-miterlimit="8" fill="#B1D272"/><text font-family="IntelOne Display Regular,IntelOne Display Regular_MSFontService,sans-serif" font-weight="400" font-size="16" transform="matrix(1 0 0 1.00012 661.158 317)">data2_1<tspan font-size="16" x="-31.583" y="39.9954">{`shape`: None,</tspan><tspan font-size="16" x="-27.2502" y="58.9932">`value`: None}</tspan></text><path d="M763.5 341.873 894.254 341.873 894.254 343.206 763.5 343.206ZM892.921 338.54 900.92 342.54 892.921 346.54Z"/><rect x="1134.5" y="297.534" width="150" height="91.0105" stroke="#708541" stroke-width="1.33318" stroke-miterlimit="8" fill="#B1D272"/><text font-family="IntelOne Display Regular,IntelOne Display Regular_MSFontService,sans-serif" font-weight="400" font-size="16" transform="matrix(1 0 0 1.00012 1188.11 317)">data4<tspan font-size="16" x="-37.7489" y="39.9954">{`shape`: None,</tspan><tspan font-size="16" x="-33.4161" y="58.9932">`value`: None}</tspan></text><path d="M1072.5 341.873 1128.6 341.873 1128.6 343.206 1072.5 343.206ZM1127.27 338.54 1135.27 342.54 1127.27 346.54Z"/><path d="M861.502 75.8422 1243.92 77.0466 1243.92 78.38 861.498 77.1755ZM1242.6 73.7091 1250.59 77.7343 1242.58 81.7091Z"/><text font-family="IntelOne Display Regular,IntelOne Display Regular_MSFontService,sans-serif" font-weight="400" font-size="21" transform="matrix(1 0 0 1.00012 32.4935 378)">Legend:</text></g></svg>