<svg width="1760" height="672" xmlns="http://www.w3.org/2000/svg" xmlns:xlink="http://www.w3.org/1999/xlink" overflow="hidden"><defs><clipPath id="clip0"><rect x="0" y="0" width="1760" height="672"/></clipPath></defs><g clip-path="url(#clip0)"><rect x="0" y="0" width="1760" height="672" fill="#FFFFFF"/><rect x="89.5001" y="133.5" width="171" height="91" stroke="#000000" stroke-width="1.33333" stroke-miterlimit="8" fill="#E9E9E9"/><text font-family="IntelOne Display Regular,IntelOne Display Regular_MSFontService,sans-serif" font-weight="400" font-size="16" transform="translate(136.209 153)">Operation1<tspan font-size="16" x="-18.08" y="40">{attr_a: value_a,</tspan><tspan font-size="16" x="-26.8333" y="59">attr_b: value_b, ... }</tspan></text><rect x="552.5" y="133.5" width="172" height="91" stroke="#000000" stroke-width="1.33333" stroke-miterlimit="8" fill="#E9E9E9"/><text font-family="IntelOne Display Regular,IntelOne Display Regular_MSFontService,sans-serif" font-weight="400" font-size="16" transform="translate(597.107 153)">Operation2<tspan font-size="16" x="-16" y="40">{attr_c: value_c,</tspan><tspan font-size="16" x="-24.5867" y="59">attr_d: value_d, ... }</tspan></text><rect x="1548.5" y="133.5" width="171" height="91" stroke="#000000" stroke-width="1.33333" stroke-miterlimit="8" fill="#E9E9E9"/><text font-family="IntelOne Display Regular,IntelOne Display Regular_MSFontService,sans-serif" font-weight="400" font-size="16" transform="translate(1592.32 153)">Operation3<tspan font-size="16" x="-10.5801" y="40">{attr_i: value_i,</tspan><tspan font-size="16" x="-18.3334" y="59">attr_j: value_j, </tspan>... }</text><rect x="1128.5" y="182.5" width="172" height="91" stroke="#000000" stroke-width="1.33333" stroke-miterlimit="8" fill="#E9E9E9"/><text font-family="IntelOne Display Regular,IntelOne Display Regular_MSFontService,sans-serif" font-weight="400" font-size="16" transform="translate(1173.1 202)">Operation5<tspan font-size="16" x="-16.1667" y="40">{attr_e: value_e,</tspan><tspan font-size="16" x="-19.5867" y="59">attr_f: value_f, ... }</tspan></text><rect x="1128.5" y="353.5" width="172" height="92" stroke="#000000" stroke-width="1.33333" stroke-miterlimit="8" fill="#E9E9E9"/><text font-family="IntelOne Display Regular,IntelOne Display Regular_MSFontService,sans-serif" font-weight="400" font-size="16" transform="translate(1172.85 374)">Operation4<tspan font-size="16" x="-16.58" y="40">{attr_g: value_g,</tspan><tspan font-size="16" x="-23.8333" y="59">attr_h: value_h, ... }</tspan></text><path d="M260.5 177.833 328.493 177.833 328.493 179.167 260.5 179.167ZM327.159 174.5 335.159 178.5 327.159 182.5Z"/><path d="M0.00380431-0.666656 170.046 0.303699 170.038 1.63701-0.00380431 0.666656ZM168.732-3.03719 176.709 1.0084 168.686 4.96268Z" transform="matrix(1 0 0 -1 716.5 133.508)"/><path d="M1042.5 171.833 1072.92 171.833 1072.92 223.95 1072.25 223.284 1121.99 223.284 1121.99 224.617 1071.58 224.617 1071.58 172.5 1072.25 173.167 1042.5 173.167ZM1120.66 219.95 1128.66 223.95 1120.66 227.95Z"/><path d="M724.5 177.833 819.874 177.833 819.874 346.841 818.541 346.841 818.541 178.5 819.207 179.167 724.5 179.167ZM823.207 345.508 819.207 353.508 815.207 345.508Z"/><path d="M1479.83 353.508 1479.83 177.833 1541.69 177.833 1541.69 179.167 1480.5 179.167 1481.17 178.5 1481.17 353.508ZM1540.35 174.5 1548.35 178.5 1540.35 182.5Z"/><text font-family="IntelOne Display Regular,IntelOne Display Regular_MSFontService,sans-serif" font-weight="400" font-size="15" transform="translate(500.41 169)">in:<tspan font-size="15" x="17.3333" y="0">0</tspan><tspan font-size="15" x="-223.548" y="0">out: 0</tspan><tspan font-size="15" x="283.283" y="-46">out: 0</tspan><tspan font-size="15" x="857.31" y="219">out: 0</tspan><tspan font-size="15" x="256.486" y="0">out</tspan><tspan font-size="15" x="277.82" y="0">: </tspan>1<tspan font-size="15" x="589.268" y="44">in:</tspan><tspan font-size="15" x="606.602" y="44">0</tspan><tspan font-size="15" x="589.268" y="219">in:</tspan><tspan font-size="15" x="606.602" y="219">0</tspan><tspan font-size="15" x="995.3" y="-1">in:</tspan><tspan font-size="15" x="1012.63" y="-1">0</tspan><tspan font-size="15" x="995.3" y="-53">in:</tspan><tspan font-size="15" x="1012.63" y="-53">1</tspan></text><rect x="89.5001" y="469.5" width="171" height="91" stroke="#000000" stroke-width="1.33333" stroke-miterlimit="8" fill="#E9E9E9"/><text font-family="IntelOne Display Regular,IntelOne Display Regular_MSFontService,sans-serif" font-weight="400" font-size="16" transform="translate(118.625 520)">Operation node</text><rect x="335.5" y="133.5" width="149" height="91" stroke="#708541" stroke-width="1.33333" stroke-miterlimit="8" fill="#B1D272"/><text font-family="IntelOne Display Regular,IntelOne Display Regular_MSFontService,sans-serif" font-weight="400" font-size="16" transform="translate(391.607 153)">data1<tspan font-size="16" x="-40.42" y="40">{`shape`: None,</tspan><tspan font-size="16" x="-36.0867" y="59">`value`: None}</tspan></text><rect x="314.5" y="469.5" width="149" height="91" stroke="#708541" stroke-width="1.33333" stroke-miterlimit="8" fill="#B1D272"/><text font-family="IntelOne Display Regular,IntelOne Display Regular_MSFontService,sans-serif" font-weight="400" font-size="16" transform="translate(351.393 520)">Data node</text><path d="M484.5 177.833 545.682 177.833 545.682 179.167 484.5 179.167ZM544.349 174.5 552.349 178.5 544.349 182.5Z"/><rect x="893.5" y="86.5001" width="149" height="91" stroke="#708541" stroke-width="1.33333" stroke-miterlimit="8" fill="#B1D272"/><text font-family="IntelOne Display Regular,IntelOne Display Regular_MSFontService,sans-serif" font-weight="400" font-size="16" transform="translate(937.793 107)">data2_0<tspan font-size="16" x="-28.7534" y="40">{`shape`: None,</tspan><tspan font-size="16" x="-24.42" y="59">`value`: None}</tspan></text><rect x="744.5" y="353.5" width="149" height="92" stroke="#708541" stroke-width="1.33333" stroke-miterlimit="8" fill="#B1D272"/><text font-family="IntelOne Display Regular,IntelOne Display Regular_MSFontService,sans-serif" font-weight="400" font-size="16" transform="translate(791.307 374)">data2_1<tspan font-size="16" x="-31.5867" y="40">{`shape`: None,</tspan><tspan font-size="16" x="-27.2534" y="59">`value`: None}</tspan></text><path d="M893.5 398.833 1122.31 398.833 1122.31 400.167 893.5 400.167ZM1120.98 395.5 1128.98 399.5 1120.98 403.5Z"/><rect x="1405.5" y="353.5" width="149" height="92" stroke="#708541" stroke-width="1.33333" stroke-miterlimit="8" fill="#B1D272"/><text font-family="IntelOne Display Regular,IntelOne Display Regular_MSFontService,sans-serif" font-weight="400" font-size="16" transform="translate(1458.9 374)">data4<tspan font-size="16" x="-37.7534" y="40">{`shape`: None,</tspan><tspan font-size="16" x="-33.42" y="59">`value`: None}</tspan></text><path d="M1300.5 398.833 1399.14 398.833 1399.14 400.167 1300.5 400.167ZM1397.81 395.5 1405.81 399.5 1397.81 403.5Z"/><path d="M1042.5 131.833 1541.14 132.828 1541.13 134.162 1042.5 133.167ZM1539.81 129.492 1547.8 133.508 1539.79 137.492Z"/><text font-family="IntelOne Display Regular,IntelOne Display Regular_MSFontService,sans-serif" font-weight="400" font-size="21" transform="translate(98.7326 435)">Legend:</text></g></svg>