<svg width="1568" height="576" xmlns="http://www.w3.org/2000/svg" xmlns:xlink="http://www.w3.org/1999/xlink" overflow="hidden"><defs><clipPath id="clip0"><rect x="0" y="0" width="1568" height="576"/></clipPath></defs><g clip-path="url(#clip0)"><rect x="0" y="0" width="1568" height="576" fill="#FFFFFF"/><rect x="39.5001" y="97.5001" width="172" height="91" stroke="#000000" stroke-width="1.33333" stroke-miterlimit="8" fill="#E9E9E9"/><text font-family="IntelOne Display Regular,IntelOne Display Regular_MSFontService,sans-serif" font-weight="400" font-size="16" transform="translate(86.3899 118)">Operation1<tspan font-size="16" x="-18.08" y="40">{attr_a: value_a,</tspan><tspan font-size="16" x="-26.8333" y="59">attr_b: value_b, ... }</tspan></text><rect x="464.5" y="97.5001" width="172" height="91" stroke="#000000" stroke-width="1.33333" stroke-miterlimit="8" fill="#E9E9E9"/><text font-family="IntelOne Display Regular,IntelOne Display Regular_MSFontService,sans-serif" font-weight="400" font-size="16" transform="translate(509.109 118)">Operation2<tspan font-size="16" x="-16" y="40">{attr_c: value_c,</tspan><tspan font-size="16" x="-24.5867" y="59">attr_d: value_d, ... }</tspan></text><rect x="1310.5" y="94.5001" width="172" height="92" stroke="#000000" stroke-width="1.33333" stroke-miterlimit="8" fill="#E9E9E9"/><text font-family="IntelOne Display Regular,IntelOne Display Regular_MSFontService,sans-serif" font-weight="400" font-size="16" transform="translate(1355.02 115)">Operation3<tspan font-size="16" x="-10.58" y="40">{attr_i: value_i,</tspan><tspan font-size="16" x="-18.3333" y="59">attr_j: value_j, ... }</tspan></text><rect x="964.5" y="141.5" width="171" height="91" stroke="#000000" stroke-width="1.33333" stroke-miterlimit="8" fill="#E9E9E9"/><text font-family="IntelOne Display Regular,IntelOne Display Regular_MSFontService,sans-serif" font-weight="400" font-size="16" transform="translate(1008.59 161)">Operation5<tspan font-size="16" x="-16.1666" y="40">{attr_e: value_e,</tspan><tspan font-size="16" x="-19.5867" y="59">attr_f: value_f, ... }</tspan></text><rect x="964.5" y="318.5" width="172" height="91" stroke="#000000" stroke-width="1.33333" stroke-miterlimit="8" fill="#E9E9E9"/><text font-family="IntelOne Display Regular,IntelOne Display Regular_MSFontService,sans-serif" font-weight="400" font-size="16" transform="translate(1008.89 338)">Operation4<tspan font-size="16" x="-16.58" y="40">{attr_g: value_g,</tspan><tspan font-size="16" x="-23.8333" y="59">attr_h: value_h, ... }</tspan></text><path d="M211.5 142.833 261.709 142.833 261.709 144.167 211.5 144.167ZM260.375 139.5 268.375 143.5 260.375 147.5Z"/><path d="M7.83406e-07-0.666667 172.018-0.666465 172.018 0.666869-7.83406e-07 0.666667ZM170.684-3.9998 178.684 0.000209974 170.684 4.0002Z" transform="matrix(1 0 0 -1 550.5 97.5003)"/><path d="M833.5 130.833 899.478 130.833 899.478 186.905 898.811 186.238 957.455 186.238 957.455 187.571 898.144 187.571 898.144 131.5 898.811 132.167 833.5 132.167ZM956.122 182.905 964.122 186.905 956.122 190.905Z"/><path d="M636.5 142.833 706.216 142.833 706.216 311.841 704.883 311.841 704.883 143.5 705.55 144.167 636.5 144.167ZM709.55 310.508 705.55 318.508 701.55 310.508Z"/><path d="M1267.83 317.932 1267.83 139.833 1304.58 139.833 1304.58 141.167 1268.5 141.167 1269.17 140.5 1269.17 317.932ZM1303.25 136.5 1311.25 140.5 1303.25 144.5Z"/><text font-family="IntelOne Display Regular,IntelOne Display Regular_MSFontService,sans-serif" font-weight="400" font-size="15" transform="translate(428.213 133)">in:<tspan font-size="15" x="17.3333" y="0">0</tspan><tspan font-size="15" x="-205.838" y="2">out: 0</tspan><tspan font-size="15" x="220.171" y="-45">out: 0</tspan><tspan font-size="15" x="718.644" y="217">out: 0</tspan><tspan font-size="15" x="222.931" y="0">out</tspan><tspan font-size="15" x="244.264" y="0">: </tspan>1<tspan font-size="15" x="489.314" y="40">in:</tspan><tspan font-size="15" x="506.647" y="40">0</tspan><tspan font-size="15" x="489.314" y="217">in:</tspan><tspan font-size="15" x="506.647" y="217">0</tspan><tspan font-size="15" x="846.984" y="-2">in:</tspan><tspan font-size="15" x="864.318" y="-2">0</tspan><tspan font-size="15" x="846.984" y="-47">in:</tspan><tspan font-size="15" x="864.318" y="-47">1</tspan></text><rect x="39.5001" y="433.5" width="172" height="91" stroke="#000000" stroke-width="1.33333" stroke-miterlimit="8" fill="#E9E9E9"/><text font-family="IntelOne Display Regular,IntelOne Display Regular_MSFontService,sans-serif" font-weight="400" font-size="16" transform="translate(68.8065 485)">Operation node</text><rect x="268.5" y="97.5001" width="149" height="91" stroke="#708541" stroke-width="1.33333" stroke-miterlimit="8" fill="#B1D272"/><text font-family="IntelOne Display Regular,IntelOne Display Regular_MSFontService,sans-serif" font-weight="400" font-size="16" transform="translate(324.004 118)">data1<tspan font-size="16" x="-40.42" y="40">{`shape`: None,</tspan><tspan font-size="16" x="-36.0867" y="59">`value`: None}</tspan></text><rect x="264.5" y="433.5" width="149" height="91" stroke="#708541" stroke-width="1.33333" stroke-miterlimit="8" fill="#B1D272"/><text font-family="IntelOne Display Regular,IntelOne Display Regular_MSFontService,sans-serif" font-weight="400" font-size="16" transform="translate(301.575 485)">Data node</text><path d="M417.5 142.833 458.287 142.833 458.287 144.167 417.5 144.167ZM456.953 139.5 464.953 143.5 456.953 147.5Z"/><rect x="729.5" y="51.5001" width="149" height="92" stroke="#708541" stroke-width="1.33333" stroke-miterlimit="8" fill="#B1D272"/><text font-family="IntelOne Display Regular,IntelOne Display Regular_MSFontService,sans-serif" font-weight="400" font-size="16" transform="translate(773.453 72)">data2_0<tspan font-size="16" x="-28.7534" y="40">{`shape`: None,</tspan><tspan font-size="16" x="-24.42" y="59">`value`: None}</tspan></text><rect x="630.5" y="318.5" width="149" height="91" stroke="#708541" stroke-width="1.33333" stroke-miterlimit="8" fill="#B1D272"/><text font-family="IntelOne Display Regular,IntelOne Display Regular_MSFontService,sans-serif" font-weight="400" font-size="16" transform="translate(677.651 338)">data2_1<tspan font-size="16" x="-31.5867" y="40">{`shape`: None,</tspan><tspan font-size="16" x="-27.2534" y="59">`value`: None}</tspan></text><path d="M779.5 362.833 958.003 362.833 958.003 364.167 779.5 364.167ZM956.67 359.5 964.67 363.5 956.67 367.5Z"/><rect x="1193.5" y="318.5" width="149" height="91" stroke="#708541" stroke-width="1.33333" stroke-miterlimit="8" fill="#B1D272"/><text font-family="IntelOne Display Regular,IntelOne Display Regular_MSFontService,sans-serif" font-weight="400" font-size="16" transform="translate(1246.69 338)">data4<tspan font-size="16" x="-37.7533" y="40">{`shape`: None,</tspan><tspan font-size="16" x="-33.42" y="59">`value`: None}</tspan></text><path d="M1136.5 362.833 1186.9 362.833 1186.9 364.167 1136.5 364.167ZM1185.57 359.5 1193.57 363.5 1185.57 367.5Z"/><path d="M1.61893e-07-0.666667 425.665-0.666563 425.665 0.66677-1.61893e-07 0.666667ZM424.332-3.9999 432.332 0.000104987 424.332 4.0001Z" transform="matrix(1 0 0 -1 878.5 97.5002)"/><text font-family="IntelOne Display Regular,IntelOne Display Regular_MSFontService,sans-serif" font-weight="400" font-size="21" transform="translate(48.9139 399)">Legend:</text></g></svg>