<?xml version="1.0" encoding="UTF-8"?>
<svg width="1280" height="720" overflow="hidden" version="1.1" xmlns="http://www.w3.org/2000/svg"><defs><clipPath id="clip0"><rect width="1280" height="720"/></clipPath></defs><g clip-path="url(#clip0)"><path d="m0 0h1280v720h-1280z" fill="#fff"/><g transform="translate(191.08 137)" fill="#0070c0" aria-label="TF ModelIR v10 Model"><path d="m14.016-29.856h-13.056v-3.744h30.192v3.744h-13.008v29.856h-4.128z"/><path d="m35.232 0v-33.6h24.096v3.648h-19.968v11.424h18.624v3.648h-18.624v14.88z"/><path d="m101.09-33.6h5.472v33.6h-4.128v-28.32l-10.992 19.2h-3.36l-11.04-19.152v28.272h-4.128v-33.6h5.472l11.376 19.632z"/><path d="m135.31-11.568q0 5.232-3.504 8.784-3.504 3.504-8.64 3.504t-8.592-3.504q-3.408-3.504-3.408-8.736t3.504-8.736q3.504-3.552 8.64-3.552t8.544 3.504q3.456 3.504 3.456 8.736zm-20.16 0.048q0 3.744 2.304 6.288 2.352 2.544 5.808 2.544 3.408 0 5.712-2.544 2.352-2.544 2.352-6.336 0-3.696-2.352-6.24-2.352-2.592-5.76-2.592t-5.76 2.544q-2.304 2.544-2.304 6.336z"/><path d="m158.26-33.6h3.936v33.6h-3.888v-3.744q-1.584 2.016-3.84 3.12-2.208 1.104-4.752 1.104-4.848 0-8.16-3.36-3.264-3.408-3.264-8.64 0-5.28 3.36-8.736 3.408-3.504 8.352-3.504 2.4 0 4.512 1.008 2.16 0.96 3.744 2.784zm-8.112 30.672q3.504 0 5.856-2.496 2.4-2.544 2.4-6.24 0-3.744-2.304-6.192t-5.76-2.448q-3.552 0-5.808 2.4t-2.256 6.288 2.208 6.288 5.664 2.4z"/><path d="m178.42-2.592q2.304 0 4.224-0.96 1.968-1.008 3.6-3.024l2.352 2.16q-1.968 2.592-4.608 3.888-2.64 1.248-5.904 1.248-5.232 0-8.592-3.408-3.312-3.456-3.312-8.832 0-5.232 3.408-8.736t8.4-3.504q5.088 0 8.256 3.312t3.168 8.64q0 0.384-0.048 0.912-0.048 0.48-0.096 0.72h-19.056q0.384 3.408 2.64 5.52 2.304 2.064 5.568 2.064zm-0.384-17.856q-3.024 0-5.184 1.968t-2.64 5.28h15.264q-0.432-3.36-2.448-5.28-2.016-1.968-4.992-1.968z"/><path d="m193.78-33.6h3.936v33.6h-3.936z"/><path d="m515.31 0v-33.6h4.128v33.6z"/><path d="m544.01-14.16 9.552 14.16h-4.896l-9.072-13.68h-9.456v13.68h-4.128v-33.6h14.784q5.664 0 8.832 2.64 3.168 2.592 3.168 7.152 0 3.744-2.304 6.288t-6.48 3.36zm4.608-9.552q0-2.928-2.112-4.56-2.064-1.68-5.808-1.68h-10.56v12.672h10.224q3.792 0 6-1.728 2.256-1.776 2.256-4.704z"/><path d="m574.39 0-9.936-23.184h4.272l7.536 18.528 7.488-18.528h4.032l-9.84 23.184z"/><path d="m594.89-29.952h-5.184v-3.648h9.216v33.6h-4.032z"/><path d="m604.15-15.984v-1.536q0-7.728 3.696-12.288t9.888-4.56 9.792 4.512q3.648 4.512 3.648 12.24v1.536q0 7.728-3.696 12.288-3.648 4.56-9.84 4.56t-9.84-4.512-3.648-12.24zm13.488-14.736q-4.416 0-6.912 3.456-2.448 3.456-2.448 9.648v1.536q0 6.24 2.496 9.744 2.496 3.456 6.912 3.456t6.864-3.456q2.496-3.456 2.496-9.648v-1.536q0-6.24-2.496-9.696-2.496-3.504-6.912-3.504z"/><path d="m673.13-33.6h5.472v33.6h-4.128v-28.32l-10.992 19.2h-3.36l-11.04-19.152v28.272h-4.128v-33.6h5.472l11.376 19.632z"/><path d="m707.35-11.568q0 5.232-3.504 8.784-3.504 3.504-8.64 3.504t-8.592-3.504q-3.408-3.504-3.408-8.736t3.504-8.736q3.504-3.552 8.64-3.552t8.544 3.504q3.456 3.504 3.456 8.736zm-20.16 0.048q0 3.744 2.304 6.288 2.352 2.544 5.808 2.544 3.408 0 5.712-2.544 2.352-2.544 2.352-6.336 0-3.696-2.352-6.24-2.352-2.592-5.76-2.592t-5.76 2.544q-2.304 2.544-2.304 6.336z"/><path d="m730.3-33.6h3.936v33.6h-3.888v-3.744q-1.584 2.016-3.84 3.12-2.208 1.104-4.752 1.104-4.848 0-8.16-3.36-3.264-3.408-3.264-8.64 0-5.28 3.36-8.736 3.408-3.504 8.352-3.504 2.4 0 4.512 1.008 2.16 0.96 3.744 2.784zm-8.112 30.672q3.504 0 5.856-2.496 2.4-2.544 2.4-6.24 0-3.744-2.304-6.192t-5.76-2.448q-3.552 0-5.808 2.4t-2.256 6.288 2.208 6.288 5.664 2.4z"/><path d="m750.46-2.592q2.304 0 4.224-0.96 1.968-1.008 3.6-3.024l2.352 2.16q-1.968 2.592-4.608 3.888-2.64 1.248-5.904 1.248-5.232 0-8.592-3.408-3.312-3.456-3.312-8.832 0-5.232 3.408-8.736t8.4-3.504q5.088 0 8.256 3.312t3.168 8.64q0 0.384-0.048 0.912-0.048 0.48-0.096 0.72h-19.056q0.384 3.408 2.64 5.52 2.304 2.064 5.568 2.064zm-0.384-17.856q-3.024 0-5.184 1.968t-2.64 5.28h15.264q-0.432-3.36-2.448-5.28-2.016-1.968-4.992-1.968z"/><path d="m765.82-33.6h3.936v33.6h-3.936z"/></g><g fill="#fff" stroke="#000" stroke-miterlimit="8" stroke-width="1.3333"><path d="m98.5 171.5h393v377h-393z"/><path d="m640.5 171.5h392v377h-392z"/><path d="m244.5 199.83c0-2.946 2.388-5.334 5.334-5.334h53.333c2.945 0 5.333 2.388 5.333 5.334v21.333c0 2.945-2.388 5.333-5.333 5.333h-53.333c-2.946 0-5.334-2.388-5.334-5.333z" fill-rule="evenodd"/></g><g transform="translate(258.1 219)" aria-label="self"><path d="m10.608-3.384q0 1.632-1.392 2.664t-3.624 1.032q-1.464 0-2.76-0.456-1.272-0.48-2.304-1.416l1.008-1.488q1.104 0.912 2.064 1.32t2.04 0.408q1.392 0 2.232-0.528 0.864-0.552 0.864-1.416 0-0.888-0.72-1.272-0.72-0.408-2.376-0.432-2.424-0.096-3.552-0.888-1.104-0.792-1.104-2.472 0-1.536 1.272-2.544 1.296-1.032 3.312-1.032 1.368 0 2.568 0.432t2.184 1.272l-0.936 1.464q-0.984-0.792-1.896-1.152t-1.944-0.36q-1.176 0-1.944 0.528-0.744 0.528-0.744 1.296 0 0.84 0.672 1.224t2.136 0.456q2.616 0.072 3.768 0.864 1.176 0.792 1.176 2.496z"/><path d="m18.168-1.296q1.152 0 2.112-0.48 0.984-0.504 1.8-1.512l1.176 1.08q-0.984 1.296-2.304 1.944-1.32 0.624-2.952 0.624-2.616 0-4.296-1.704-1.656-1.728-1.656-4.416 0-2.616 1.704-4.368t4.2-1.752q2.544 0 4.128 1.656t1.584 4.32q0 0.192-0.024 0.456-0.024 0.24-0.048 0.36h-9.528q0.192 1.704 1.32 2.76 1.152 1.032 2.784 1.032zm-0.192-8.928q-1.512 0-2.592 0.984t-1.32 2.64h7.632q-0.216-1.68-1.224-2.64-1.008-0.984-2.496-0.984z"/><path d="m25.848-16.8h1.968v16.8h-1.968z"/><path d="m31.344-9.864h-1.584v-1.728h1.584v-2.184q0-1.464 0.768-2.232 0.792-0.792 2.256-0.792h1.584v1.632h-1.296q-0.672 0-1.008 0.36t-0.336 1.08v2.136h2.64v1.728h-2.64v9.864h-1.968z"/></g><path d="m193.5 287c0-6.903 5.597-12.5 12.5-12.5h151c6.904 0 12.5 5.597 12.5 12.5v50c0 6.904-5.596 12.5-12.5 12.5h-151c-6.903 0-12.5-5.596-12.5-12.5z" fill="#fff" fill-rule="evenodd" stroke="#000" stroke-miterlimit="8" stroke-width="1.3333"/><path d="m206.68 274.5h149.64c7.278 0 13.178 5.9 13.178 13.179v26.821h-176v-26.821c0-7.279 5.9-13.179 13.178-13.179z" fill="#003C71" fill-rule="evenodd" stroke="#000" stroke-miterlimit="8" stroke-width="1.3333"/><g transform="translate(200.96 303)" fill="#fff" aria-label="Conv2D"><path d="m3-8.424q0 3 1.8 4.992 1.8 1.968 4.512 1.968 1.824 0 3.192-0.84 1.392-0.84 2.376-2.52l1.584 0.912q-1.08 2.064-2.952 3.192-1.848 1.104-4.248 1.104-3.648 0-6.024-2.472-2.352-2.472-2.352-6.288 0-3.744 2.448-6.264 2.472-2.544 6.144-2.544 2.328 0 4.104 1.104 1.8 1.08 2.808 3.096l-1.656 0.984q-0.936-1.704-2.232-2.52t-3.072-0.816q-2.76 0-4.608 1.968-1.824 1.968-1.824 4.944z"/><path d="m30.144-5.784q0 2.616-1.752 4.392-1.752 1.752-4.32 1.752t-4.296-1.752q-1.704-1.752-1.704-4.368t1.752-4.368q1.752-1.776 4.32-1.776t4.272 1.752q1.728 1.752 1.728 4.368zm-10.08 0.024q0 1.872 1.152 3.144 1.176 1.272 2.904 1.272 1.704 0 2.856-1.272 1.176-1.272 1.176-3.168 0-1.848-1.176-3.12-1.176-1.296-2.88-1.296t-2.88 1.272q-1.152 1.272-1.152 3.168z"/><path d="m32.16-11.592h1.92v1.8q0.696-1.008 1.752-1.536 1.08-0.552 2.4-0.552 2.304 0 3.6 1.488t1.296 4.08v6.312h-1.944v-6.192q0-1.824-0.912-2.88-0.888-1.056-2.496-1.056-1.656 0-2.664 1.128t-1.008 2.928v6.072h-1.944z"/><path d="m49.056 0-4.968-11.592h2.136l3.768 9.264 3.744-9.264h2.016l-4.92 11.592z"/><path d="m68.952 0h-11.976v-1.68l5.808-5.328q2.064-1.872 2.808-2.976t0.744-2.352q0-1.32-0.984-2.16-0.96-0.864-2.4-0.864-1.776 0-2.808 1.104-1.008 1.08-1.08 3.048h-1.968q0.048-2.736 1.632-4.344 1.608-1.632 4.272-1.632 2.352 0 3.864 1.368 1.536 1.344 1.536 3.432 0 1.68-0.936 3.12-0.912 1.416-3.48 3.672l-4.248 3.792h9.216z"/><path d="m71.208 0v-16.8h6.312q3.936 0 6.336 2.328 2.424 2.328 2.424 6.048 0 3.696-2.448 6.072-2.448 2.352-6.36 2.352zm12.984-8.376q0-2.88-1.872-4.704-1.848-1.848-4.824-1.848h-4.224v13.056h4.224q2.976 0 4.824-1.824 1.872-1.824 1.872-4.68z"/></g><path d="m237.5 394c0-3.037 2.463-5.5 5.5-5.5h68c3.038 0 5.5 2.463 5.5 5.5v22c0 3.038-2.462 5.5-5.5 5.5h-68c-3.037 0-5.5-2.462-5.5-5.5z" fill="#FC4C02" fill-rule="evenodd" stroke="#000" stroke-miterlimit="8" stroke-width="1.3333"/><g transform="translate(249.01 413)" fill="#fff" aria-label="ReLU"><path d="m9.24-6.195 4.179 6.195h-2.142l-3.969-5.985h-4.137v5.985h-1.806v-14.7h6.468q2.478 0 3.864 1.155 1.386 1.134 1.386 3.129 0 1.638-1.008 2.751t-2.835 1.47zm2.016-4.179q0-1.281-0.924-1.995-0.903-0.735-2.541-0.735h-4.62v5.544h4.473q1.659 0 2.625-0.756 0.987-0.777 0.987-2.058z"/><path d="m19.719-1.134q1.008 0 1.848-0.42 0.861-0.441 1.575-1.323l1.029 0.945q-0.861 1.134-2.016 1.701-1.155 0.546-2.583 0.546-2.289 0-3.759-1.491-1.449-1.512-1.449-3.864 0-2.289 1.491-3.822t3.675-1.533q2.226 0 3.612 1.449t1.386 3.78q0 0.168-0.021 0.399-0.021 0.21-0.042 0.315h-8.337q0.168 1.491 1.155 2.415 1.008 0.903 2.436 0.903zm-0.168-7.812q-1.323 0-2.268 0.861t-1.155 2.31h6.678q-0.189-1.47-1.071-2.31-0.882-0.861-2.184-0.861z"/><path d="m26.502 0v-14.7h1.806v13.083h8.484v1.617z"/><path d="m44.646-1.281q2.184 0 3.528-1.47 1.365-1.491 1.365-3.864v-8.085h1.785v8.127q0 3.108-1.848 5.019-1.848 1.89-4.872 1.89t-4.851-1.89q-1.827-1.911-1.827-5.019v-8.127h1.806v8.085q0 2.373 1.365 3.864 1.365 1.47 3.549 1.47z"/></g><path d="m217.5 471.83c0-2.945 2.388-5.333 5.333-5.333h108.33c2.945 0 5.333 2.388 5.333 5.333v21.334c0 2.945-2.388 5.333-5.333 5.333h-108.33c-2.945 0-5.333-2.388-5.333-5.333z" fill="#fff" fill-rule="evenodd" stroke="#000" stroke-miterlimit="8" stroke-width="1.3333"/><g transform="translate(237.43 490)" aria-label="Identity"><path d="m1.728 0v-16.8h2.064v16.8z"/><path d="m16.248-16.8h1.968v16.8h-1.944v-1.872q-0.792 1.008-1.92 1.56-1.104 0.552-2.376 0.552-2.424 0-4.08-1.68-1.632-1.704-1.632-4.32 0-2.64 1.68-4.368 1.704-1.752 4.176-1.752 1.2 0 2.256 0.504 1.08 0.48 1.872 1.392zm-4.056 15.336q1.752 0 2.928-1.248 1.2-1.272 1.2-3.12 0-1.872-1.152-3.096t-2.88-1.224q-1.776 0-2.904 1.2t-1.128 3.144 1.104 3.144 2.832 1.2z"/><path d="m26.328-1.296q1.152 0 2.112-0.48 0.984-0.504 1.8-1.512l1.176 1.08q-0.984 1.296-2.304 1.944-1.32 0.624-2.952 0.624-2.616 0-4.296-1.704-1.656-1.728-1.656-4.416 0-2.616 1.704-4.368t4.2-1.752q2.544 0 4.128 1.656t1.584 4.32q0 0.192-0.024 0.456-0.024 0.24-0.048 0.36h-9.528q0.192 1.704 1.32 2.76 1.152 1.032 2.784 1.032zm-0.192-8.928q-1.512 0-2.592 0.984t-1.32 2.64h7.632q-0.216-1.68-1.224-2.64-1.008-0.984-2.496-0.984z"/><path d="m33.792-11.592h1.92v1.8q0.696-1.008 1.752-1.536 1.08-0.552 2.4-0.552 2.304 0 3.6 1.488t1.296 4.08v6.312h-1.944v-6.192q0-1.824-0.912-2.88-0.888-1.056-2.496-1.056-1.656 0-2.664 1.128t-1.008 2.928v6.072h-1.944z"/><path d="m47.808-3.096v-6.768h-1.584v-1.728h1.584v-3.552h1.944v3.552h2.688v1.728h-2.688v6.6q0 0.768 0.336 1.152 0.36 0.36 1.08 0.36h1.272v1.752h-1.56q-1.608 0-2.352-0.744-0.72-0.744-0.72-2.352z"/><path d="m54.528-15.48h2.16v2.136h-2.16zm0.096 15.48v-11.592h1.968v11.592z"/><path d="m60-3.096v-6.768h-1.584v-1.728h1.584v-3.552h1.944v3.552h2.688v1.728h-2.688v6.6q0 0.768 0.336 1.152 0.36 0.36 1.08 0.36h1.272v1.752h-1.56q-1.608 0-2.352-0.744-0.72-0.744-0.72-2.352z"/><path d="m70.536-0.096-4.896-11.496h2.136l3.744 9.216 3.744-9.216h2.04l-6.744 15.912h-2.016z"/></g><path transform="matrix(-1 0 0 1 276 226)" d="m1-2.1362e-6 9e-5 42.479h-2l-9.1e-5 -42.479zm3.0001 41.145-4 8-4-8z"/><g transform="translate(285.78 256)" aria-label="1x224x224x3"><path d="m2.835-13.104h-2.268v-1.596h4.032v14.7h-1.764z"/><path d="m8.211 0h-1.911l3.948-5.229-3.675-4.914h2.016l2.667 3.717 2.709-3.717h1.89l-3.675 4.893 4.011 5.25h-1.995l-2.982-4.095z"/><path d="m27.657 0h-10.479v-1.47l5.082-4.662q1.806-1.638 2.457-2.604t0.651-2.058q0-1.155-0.861-1.89-0.84-0.756-2.1-0.756-1.554 0-2.457 0.966-0.882 0.945-0.945 2.667h-1.722q0.042-2.394 1.428-3.801 1.407-1.428 3.738-1.428 2.058 0 3.381 1.197 1.344 1.176 1.344 3.003 0 1.47-0.819 2.73-0.798 1.239-3.045 3.213l-3.717 3.318h8.064z"/><path d="m39.543 0h-10.479v-1.47l5.082-4.662q1.806-1.638 2.457-2.604t0.651-2.058q0-1.155-0.861-1.89-0.84-0.756-2.1-0.756-1.554 0-2.457 0.966-0.882 0.945-0.945 2.667h-1.722q0.042-2.394 1.428-3.801 1.407-1.428 3.738-1.428 2.058 0 3.381 1.197 1.344 1.176 1.344 3.003 0 1.47-0.819 2.73-0.798 1.239-3.045 3.213l-3.717 3.318h8.064z"/><path d="m48.405-3.465h-7.98v-1.344l7.266-9.891h2.478v9.744h2.478v1.491h-2.478v3.465h-1.764zm0.063-9.807-6.111 8.316h6.111z"/><path d="m55.167 0h-1.911l3.948-5.229-3.675-4.914h2.016l2.667 3.717 2.709-3.717h1.89l-3.675 4.893 4.011 5.25h-1.995l-2.982-4.095z"/><path d="m74.613 0h-10.479v-1.47l5.082-4.662q1.806-1.638 2.457-2.604t0.651-2.058q0-1.155-0.861-1.89-0.84-0.756-2.1-0.756-1.554 0-2.457 0.966-0.882 0.945-0.945 2.667h-1.722q0.042-2.394 1.428-3.801 1.407-1.428 3.738-1.428 2.058 0 3.381 1.197 1.344 1.176 1.344 3.003 0 1.47-0.819 2.73-0.798 1.239-3.045 3.213l-3.717 3.318h8.064z"/><path d="m86.499 0h-10.479v-1.47l5.082-4.662q1.806-1.638 2.457-2.604t0.651-2.058q0-1.155-0.861-1.89-0.84-0.756-2.1-0.756-1.554 0-2.457 0.966-0.882 0.945-0.945 2.667h-1.722q0.042-2.394 1.428-3.801 1.407-1.428 3.738-1.428 2.058 0 3.381 1.197 1.344 1.176 1.344 3.003 0 1.47-0.819 2.73-0.798 1.239-3.045 3.213l-3.717 3.318h8.064z"/><path d="m95.361-3.465h-7.98v-1.344l7.266-9.891h2.478v9.744h2.478v1.491h-2.478v3.465h-1.764zm0.063-9.807-6.111 8.316h6.111z"/><path d="m102.12 0h-1.911l3.948-5.229-3.675-4.914h2.016l2.667 3.717 2.709-3.717h1.89l-3.675 4.893 4.011 5.25h-1.995l-2.982-4.095z"/><path d="m116.4-1.26q1.491 0 2.478-0.819 1.008-0.84 1.008-2.079 0-1.302-1.029-2.058-1.008-0.756-2.814-0.756h-0.924v-1.491h0.882q1.659 0 2.625-0.714 0.966-0.735 0.966-1.869 0-1.05-0.882-1.722t-2.31-0.672q-1.512 0-2.415 0.819-0.882 0.798-0.987 2.205h-1.722q0.063-1.974 1.491-3.297 1.449-1.323 3.717-1.323 2.163 0 3.528 1.113 1.386 1.092 1.386 2.73 0 1.218-0.714 2.121-0.693 0.903-2.016 1.365 1.512 0.42 2.268 1.323t0.756 2.31q0 1.869-1.512 3.15-1.512 1.26-3.822 1.26-2.457 0-3.906-1.323-1.428-1.344-1.449-3.675h1.701q0.084 1.638 1.029 2.52 0.966 0.882 2.667 0.882z"/></g><path d="m277 349v33.102h-2v-33.102zm3 31.769-4 8-4-8z"/><path d="m277 421v38.346h-2v-38.346zm3 37.013-4 8-4-8z"/><g transform="translate(290.44 523)" aria-label="1x112x112x64"><path d="m2.835-13.104h-2.268v-1.596h4.032v14.7h-1.764z"/><path d="m8.211 0h-1.911l3.948-5.229-3.675-4.914h2.016l2.667 3.717 2.709-3.717h1.89l-3.675 4.893 4.011 5.25h-1.995l-2.982-4.095z"/><path d="m19.215-13.104h-2.268v-1.596h4.032v14.7h-1.764z"/><path d="m25.326-13.104h-2.268v-1.596h4.032v14.7h-1.764z"/><path d="m39.879 0h-10.479v-1.47l5.082-4.662q1.806-1.638 2.457-2.604t0.651-2.058q0-1.155-0.861-1.89-0.84-0.756-2.1-0.756-1.554 0-2.457 0.966-0.882 0.945-0.945 2.667h-1.722q0.042-2.394 1.428-3.801 1.407-1.428 3.738-1.428 2.058 0 3.381 1.197 1.344 1.176 1.344 3.003 0 1.47-0.819 2.73-0.798 1.239-3.045 3.213l-3.717 3.318h8.064z"/><path d="m42.588 0h-1.911l3.948-5.229-3.675-4.914h2.016l2.667 3.717 2.709-3.717h1.89l-3.675 4.893 4.011 5.25h-1.995l-2.982-4.095z"/><path d="m53.592-13.104h-2.268v-1.596h4.032v14.7h-1.764z"/><path d="m59.703-13.104h-2.268v-1.596h4.032v14.7h-1.764z"/><path d="m74.256 0h-10.479v-1.47l5.082-4.662q1.806-1.638 2.457-2.604t0.651-2.058q0-1.155-0.861-1.89-0.84-0.756-2.1-0.756-1.554 0-2.457 0.966-0.882 0.945-0.945 2.667h-1.722q0.042-2.394 1.428-3.801 1.407-1.428 3.738-1.428 2.058 0 3.381 1.197 1.344 1.176 1.344 3.003 0 1.47-0.819 2.73-0.798 1.239-3.045 3.213l-3.717 3.318h8.064z"/><path d="m76.965 0h-1.911l3.948-5.229-3.675-4.914h2.016l2.667 3.717 2.709-3.717h1.89l-3.675 4.893 4.011 5.25h-1.995l-2.982-4.095z"/><path d="m91.602-9.723q2.268 0 3.696 1.344t1.428 3.465q0 2.226-1.638 3.738-1.617 1.491-4.032 1.491-2.289 0-3.801-1.407-1.512-1.428-1.512-3.612 0-1.764 0.756-3.297 0.777-1.533 2.646-3.528l2.94-3.171h2.268v0.042l-3.927 4.053q-0.357 0.378-0.693 0.756t-0.651 0.756q0.567-0.315 1.197-0.462 0.63-0.168 1.323-0.168zm3.318 4.83q0-1.491-0.987-2.415t-2.604-0.924-2.709 0.987q-1.071 0.966-1.071 2.436 0 1.554 1.008 2.541 1.029 0.987 2.562 0.987 1.659 0 2.73-1.029t1.071-2.583z"/><path d="m105.57-3.465h-7.98v-1.344l7.266-9.891h2.478v9.744h2.478v1.491h-2.478v3.465h-1.764zm0.063-9.807-6.111 8.316h6.111z"/></g><g aria-label="filter &lt;7x7x3x64&gt;"><path d="m207.09 329.87h-1.386v-1.512h1.386v-1.911q0-1.281 0.672-1.953 0.693-0.693 1.974-0.693h1.386v1.428h-1.134q-0.588 0-0.882 0.315t-0.294 0.945v1.869h2.31v1.512h-2.31v8.631h-1.722zm5.481-4.914h1.89v1.869h-1.89zm0.084 13.545v-10.143h1.722v10.143z"/><path d="m216.98 323.8h1.722v14.7h-1.722z"/><path d="m221.68 335.79v-5.922h-1.386v-1.512h1.386v-3.108h1.701v3.108h2.352v1.512h-2.352v5.775q0 0.672 0.294 1.008 0.315 0.315 0.945 0.315h1.113v1.533h-1.365q-1.407 0-2.058-0.651-0.63-0.651-0.63-2.058z"/><path d="m232.18 337.37q1.008 0 1.848-0.42 0.861-0.441 1.575-1.323l1.029 0.945q-0.861 1.134-2.016 1.701-1.155 0.546-2.583 0.546-2.289 0-3.759-1.491-1.449-1.512-1.449-3.864 0-2.289 1.491-3.822t3.675-1.533q2.226 0 3.612 1.449t1.386 3.78q0 0.168-0.021 0.399-0.021 0.21-0.042 0.315h-8.337q0.168 1.491 1.155 2.415 1.008 0.903 2.436 0.903zm-0.168-7.812q-1.323 0-2.268 0.861t-1.155 2.31h6.678q-0.189-1.47-1.071-2.31-0.882-0.861-2.184-0.861z"/><path d="m238.71 328.36h1.68v1.281q0.462-0.672 1.197-1.008t1.743-0.336h0.924v1.617h-0.945q-1.449 0-2.184 0.756-0.714 0.756-0.714 2.289v5.544h-1.701z"/><path d="m256.4 333.8v1.512l-7.14-3.465v-1.512l7.14-3.465v1.512l-5.838 2.709z"/><path d="m268.01 325.23-6.279 13.272h-1.953l6.426-13.125h-8.547v-1.575h10.353z"/><path d="m270.55 338.5h-1.911l3.948-5.229-3.675-4.914h2.016l2.667 3.717 2.709-3.717h1.89l-3.675 4.893 4.011 5.25h-1.995l-2.982-4.095z"/><path d="m289.28 325.23-6.279 13.272h-1.953l6.426-13.125h-8.547v-1.575h10.353z"/><path d="m291.82 338.5h-1.911l3.948-5.229-3.675-4.914h2.016l2.667 3.717 2.709-3.717h1.89l-3.675 4.893 4.011 5.25h-1.995l-2.982-4.095z"/><path d="m306.1 337.24q1.491 0 2.478-0.819 1.008-0.84 1.008-2.079 0-1.302-1.029-2.058-1.008-0.756-2.814-0.756h-0.924v-1.491h0.882q1.659 0 2.625-0.714 0.966-0.735 0.966-1.869 0-1.05-0.882-1.722t-2.31-0.672q-1.512 0-2.415 0.819-0.882 0.798-0.987 2.205h-1.722q0.063-1.974 1.491-3.297 1.449-1.323 3.717-1.323 2.163 0 3.528 1.113 1.386 1.092 1.386 2.73 0 1.218-0.714 2.121-0.693 0.903-2.016 1.365 1.512 0.42 2.268 1.323t0.756 2.31q0 1.869-1.512 3.15-1.512 1.26-3.822 1.26-2.457 0-3.906-1.323-1.428-1.344-1.449-3.675h1.701q0.084 1.638 1.029 2.52 0.966 0.882 2.667 0.882z"/><path d="m314.25 338.5h-1.911l3.948-5.229-3.675-4.914h2.016l2.667 3.717 2.709-3.717h1.89l-3.675 4.893 4.011 5.25h-1.995l-2.982-4.095z"/><path d="m328.89 328.78q2.268 0 3.696 1.344t1.428 3.465q0 2.226-1.638 3.738-1.617 1.491-4.032 1.491-2.289 0-3.801-1.407-1.512-1.428-1.512-3.612 0-1.764 0.756-3.297 0.777-1.533 2.646-3.528l2.94-3.171h2.268v0.042l-3.927 4.053q-0.357 0.378-0.693 0.756t-0.651 0.756q0.567-0.315 1.197-0.462 0.63-0.168 1.323-0.168zm3.318 4.83q0-1.491-0.987-2.415t-2.604-0.924-2.709 0.987q-1.071 0.966-1.071 2.436 0 1.554 1.008 2.541 1.029 0.987 2.562 0.987 1.659 0 2.73-1.029t1.071-2.583z"/><path d="m342.85 335.04h-7.98v-1.344l7.266-9.891h2.478v9.744h2.478v1.491h-2.478v3.465h-1.764zm0.063-9.807-6.111 8.316h6.111z"/><path d="m348.56 328.38v-1.512l7.14 3.465v1.512l-7.14 3.465v-1.512l5.838-2.709z"/></g><path d="m662.5 200.67c0-3.406 2.761-6.167 6.167-6.167h123.67c3.406 0 6.167 2.761 6.167 6.167v24.666c0 3.406-2.761 6.167-6.167 6.167h-123.67c-3.406 0-6.167-2.761-6.167-6.167z" fill-rule="evenodd" stroke="#000" stroke-miterlimit="8" stroke-width="1.3333"/><g transform="translate(675.5 221)" fill="#fff" aria-label="Parameter"><path d="m1.56 0v-16.8h7.296q2.76 0 4.344 1.392 1.608 1.368 1.608 3.72 0 2.376-1.728 3.816-1.728 1.416-4.608 1.416h-4.848v6.456zm11.136-11.64q0-1.536-1.032-2.4-1.032-0.888-2.88-0.888h-5.16v6.624h4.992q1.872 0 2.976-0.888 1.104-0.912 1.104-2.448z"/><path d="m26.16 0h-1.896v-1.896q-0.696 1.008-1.896 1.584-1.176 0.552-2.544 0.552-1.92 0-3.12-0.96-1.2-0.984-1.2-2.568 0-1.752 1.344-2.64 1.344-0.912 3.984-0.912h3.408q-0.024-1.632-0.864-2.52-0.816-0.888-2.352-0.888-0.912 0-1.8 0.384t-1.752 1.176l-1.032-1.296q1.008-0.96 2.208-1.44 1.2-0.504 2.568-0.504 2.328 0 3.624 1.392 1.32 1.368 1.32 3.792zm-1.92-5.328h-3.384q-1.752 0-2.592 0.48t-0.84 1.512q0 0.864 0.72 1.44 0.744 0.576 1.896 0.576 1.728 0 2.904-1.104 1.2-1.128 1.296-2.904z"/><path d="m28.56-11.592h1.92v1.464q0.528-0.768 1.368-1.152t1.992-0.384h1.056v1.848h-1.08q-1.656 0-2.496 0.864-0.816 0.864-0.816 2.616v6.336h-1.944z"/><path d="m45.96 0h-1.896v-1.896q-0.696 1.008-1.896 1.584-1.176 0.552-2.544 0.552-1.92 0-3.12-0.96-1.2-0.984-1.2-2.568 0-1.752 1.344-2.64 1.344-0.912 3.984-0.912h3.408q-0.024-1.632-0.864-2.52-0.816-0.888-2.352-0.888-0.912 0-1.8 0.384t-1.752 1.176l-1.032-1.296q1.008-0.96 2.208-1.44 1.2-0.504 2.568-0.504 2.328 0 3.624 1.392 1.32 1.368 1.32 3.792zm-1.92-5.328h-3.384q-1.752 0-2.592 0.48t-0.84 1.512q0 0.864 0.72 1.44 0.744 0.576 1.896 0.576 1.728 0 2.904-1.104 1.2-1.128 1.296-2.904z"/><path d="m48.36-11.592h1.92v1.392q0.648-0.84 1.464-1.248 0.84-0.432 1.872-0.432 1.2 0 2.136 0.504t1.488 1.464q0.648-0.96 1.632-1.464 1.008-0.504 2.256-0.504 2.04 0 3.24 1.32 1.224 1.32 1.224 3.432v7.128h-1.968v-7.008q0-1.464-0.744-2.28-0.72-0.84-2.04-0.84-1.296 0-2.112 0.912-0.792 0.888-0.792 2.328v6.888h-1.944v-7.008q0-1.464-0.744-2.28-0.72-0.84-2.04-0.84-1.296 0-2.112 0.912-0.792 0.888-0.792 2.328v6.888h-1.944z"/><path d="m73.584-1.296q1.152 0 2.112-0.48 0.984-0.504 1.8-1.512l1.176 1.08q-0.984 1.296-2.304 1.944-1.32 0.624-2.952 0.624-2.616 0-4.296-1.704-1.656-1.728-1.656-4.416 0-2.616 1.704-4.368t4.2-1.752q2.544 0 4.128 1.656t1.584 4.32q0 0.192-0.024 0.456-0.024 0.24-0.048 0.36h-9.528q0.192 1.704 1.32 2.76 1.152 1.032 2.784 1.032zm-0.192-8.928q-1.512 0-2.592 0.984t-1.32 2.64h7.632q-0.216-1.68-1.224-2.64-1.008-0.984-2.496-0.984z"/><path d="m81.576-3.096v-6.768h-1.584v-1.728h1.584v-3.552h1.944v3.552h2.688v1.728h-2.688v6.6q0 0.768 0.336 1.152 0.36 0.36 1.08 0.36h1.272v1.752h-1.56q-1.608 0-2.352-0.744-0.72-0.744-0.72-2.352z"/><path d="m93.576-1.296q1.152 0 2.112-0.48 0.984-0.504 1.8-1.512l1.176 1.08q-0.984 1.296-2.304 1.944-1.32 0.624-2.952 0.624-2.616 0-4.296-1.704-1.656-1.728-1.656-4.416 0-2.616 1.704-4.368t4.2-1.752q2.544 0 4.128 1.656t1.584 4.32q0 0.192-0.024 0.456-0.024 0.24-0.048 0.36h-9.528q0.192 1.704 1.32 2.76 1.152 1.032 2.784 1.032zm-0.192-8.928q-1.512 0-2.592 0.984t-1.32 2.64h7.632q-0.216-1.68-1.224-2.64-1.008-0.984-2.496-0.984z"/><path d="m101.04-11.592h1.92v1.464q0.528-0.768 1.368-1.152t1.992-0.384h1.056v1.848h-1.08q-1.656 0-2.496 0.864-0.816 0.864-0.816 2.616v6.336h-1.944z"/></g><path d="m845.5 200.67c0-3.406 2.761-6.167 6.167-6.167h77.666c3.406 0 6.167 2.761 6.167 6.167v24.666c0 3.406-2.761 6.167-6.167 6.167h-77.666c-3.406 0-6.167-2.761-6.167-6.167z" fill-rule="evenodd" stroke="#000" stroke-miterlimit="8" stroke-width="1.3333"/><g transform="translate(858.81 221)" fill="#fff" aria-label="Const"><path d="m3-8.424q0 3 1.8 4.992 1.8 1.968 4.512 1.968 1.824 0 3.192-0.84 1.392-0.84 2.376-2.52l1.584 0.912q-1.08 2.064-2.952 3.192-1.848 1.104-4.248 1.104-3.648 0-6.024-2.472-2.352-2.472-2.352-6.288 0-3.744 2.448-6.264 2.472-2.544 6.144-2.544 2.328 0 4.104 1.104 1.8 1.08 2.808 3.096l-1.656 0.984q-0.936-1.704-2.232-2.52t-3.072-0.816q-2.76 0-4.608 1.968-1.824 1.968-1.824 4.944z"/><path d="m30.144-5.784q0 2.616-1.752 4.392-1.752 1.752-4.32 1.752t-4.296-1.752q-1.704-1.752-1.704-4.368t1.752-4.368q1.752-1.776 4.32-1.776t4.272 1.752q1.728 1.752 1.728 4.368zm-10.08 0.024q0 1.872 1.152 3.144 1.176 1.272 2.904 1.272 1.704 0 2.856-1.272 1.176-1.272 1.176-3.168 0-1.848-1.176-3.12-1.176-1.296-2.88-1.296t-2.88 1.272q-1.152 1.272-1.152 3.168z"/><path d="m32.16-11.592h1.92v1.8q0.696-1.008 1.752-1.536 1.08-0.552 2.4-0.552 2.304 0 3.6 1.488t1.296 4.08v6.312h-1.944v-6.192q0-1.824-0.912-2.88-0.888-1.056-2.496-1.056-1.656 0-2.664 1.128t-1.008 2.928v6.072h-1.944z"/><path d="m54.864-3.384q0 1.632-1.392 2.664t-3.624 1.032q-1.464 0-2.76-0.456-1.272-0.48-2.304-1.416l1.008-1.488q1.104 0.912 2.064 1.32t2.04 0.408q1.392 0 2.232-0.528 0.864-0.552 0.864-1.416 0-0.888-0.72-1.272-0.72-0.408-2.376-0.432-2.424-0.096-3.552-0.888-1.104-0.792-1.104-2.472 0-1.536 1.272-2.544 1.296-1.032 3.312-1.032 1.368 0 2.568 0.432t2.184 1.272l-0.936 1.464q-0.984-0.792-1.896-1.152t-1.944-0.36q-1.176 0-1.944 0.528-0.744 0.528-0.744 1.296 0 0.84 0.672 1.224t2.136 0.456q2.616 0.072 3.768 0.864 1.176 0.792 1.176 2.496z"/><path d="m57.36-3.096v-6.768h-1.584v-1.728h1.584v-3.552h1.944v3.552h2.688v1.728h-2.688v6.6q0 0.768 0.336 1.152 0.36 0.36 1.08 0.36h1.272v1.752h-1.56q-1.608 0-2.352-0.744-0.72-0.744-0.72-2.352z"/></g><path d="m734.5 301.83c0-4.05 3.283-7.333 7.333-7.333h141.33c4.05 0 7.333 3.283 7.333 7.333v29.334c0 4.05-3.283 7.333-7.333 7.333h-141.33c-4.05 0-7.333-3.283-7.333-7.333z" fill="#003C71" fill-rule="evenodd" stroke="#000" stroke-miterlimit="8" stroke-width="1.3333"/><g transform="translate(748.24 325)" fill="#fff" aria-label="Convolution"><path d="m3-8.424q0 3 1.8 4.992 1.8 1.968 4.512 1.968 1.824 0 3.192-0.84 1.392-0.84 2.376-2.52l1.584 0.912q-1.08 2.064-2.952 3.192-1.848 1.104-4.248 1.104-3.648 0-6.024-2.472-2.352-2.472-2.352-6.288 0-3.744 2.448-6.264 2.472-2.544 6.144-2.544 2.328 0 4.104 1.104 1.8 1.08 2.808 3.096l-1.656 0.984q-0.936-1.704-2.232-2.52t-3.072-0.816q-2.76 0-4.608 1.968-1.824 1.968-1.824 4.944z"/><path d="m30.144-5.784q0 2.616-1.752 4.392-1.752 1.752-4.32 1.752t-4.296-1.752q-1.704-1.752-1.704-4.368t1.752-4.368q1.752-1.776 4.32-1.776t4.272 1.752q1.728 1.752 1.728 4.368zm-10.08 0.024q0 1.872 1.152 3.144 1.176 1.272 2.904 1.272 1.704 0 2.856-1.272 1.176-1.272 1.176-3.168 0-1.848-1.176-3.12-1.176-1.296-2.88-1.296t-2.88 1.272q-1.152 1.272-1.152 3.168z"/><path d="m32.16-11.592h1.92v1.8q0.696-1.008 1.752-1.536 1.08-0.552 2.4-0.552 2.304 0 3.6 1.488t1.296 4.08v6.312h-1.944v-6.192q0-1.824-0.912-2.88-0.888-1.056-2.496-1.056-1.656 0-2.664 1.128t-1.008 2.928v6.072h-1.944z"/><path d="m49.056 0-4.968-11.592h2.136l3.768 9.264 3.744-9.264h2.016l-4.92 11.592z"/><path d="m68.16-5.784q0 2.616-1.752 4.392-1.752 1.752-4.32 1.752t-4.296-1.752q-1.704-1.752-1.704-4.368t1.752-4.368q1.752-1.776 4.32-1.776t4.272 1.752q1.728 1.752 1.728 4.368zm-10.08 0.024q0 1.872 1.152 3.144 1.176 1.272 2.904 1.272 1.704 0 2.856-1.272 1.176-1.272 1.176-3.168 0-1.848-1.176-3.12-1.176-1.296-2.88-1.296t-2.88 1.272q-1.152 1.272-1.152 3.168z"/><path d="m70.392-16.8h1.968v16.8h-1.968z"/><path d="m85.968 0h-1.944v-1.776q-0.696 1.008-1.752 1.536-1.056 0.504-2.4 0.504-2.28 0-3.6-1.488-1.296-1.488-1.296-4.056v-6.312h1.968v6.192q0 1.824 0.888 2.88 0.912 1.056 2.52 1.056 1.632 0 2.64-1.128t1.008-2.928v-6.072h1.968z"/><path d="m89.136-3.096v-6.768h-1.584v-1.728h1.584v-3.552h1.944v3.552h2.688v1.728h-2.688v6.6q0 0.768 0.336 1.152 0.36 0.36 1.08 0.36h1.272v1.752h-1.56q-1.608 0-2.352-0.744-0.72-0.744-0.72-2.352z"/><path d="m95.856-15.48h2.16v2.136h-2.16zm0.096 15.48v-11.592h1.968v11.592z"/><path d="m112.22-5.784q0 2.616-1.752 4.392-1.752 1.752-4.32 1.752t-4.296-1.752q-1.704-1.752-1.704-4.368t1.752-4.368q1.752-1.776 4.32-1.776t4.272 1.752q1.728 1.752 1.728 4.368zm-10.08 0.024q0 1.872 1.152 3.144 1.176 1.272 2.904 1.272 1.704 0 2.856-1.272 1.176-1.272 1.176-3.168 0-1.848-1.176-3.12-1.176-1.296-2.88-1.296t-2.88 1.272q-1.152 1.272-1.152 3.168z"/><path d="m114.24-11.592h1.92v1.8q0.696-1.008 1.752-1.536 1.08-0.552 2.4-0.552 2.304 0 3.6 1.488t1.296 4.08v6.312h-1.944v-6.192q0-1.824-0.912-2.88-0.888-1.056-2.496-1.056-1.656 0-2.664 1.128t-1.008 2.928v6.072h-1.944z"/></g><path transform="matrix(1.837e-16 1 1 -1.837e-16 693 231)" d="m0.031235-0.99951 8.0272 0.25085 8.0518 0.69195 7.8655 1.0697 7.7433 1.5109 7.4272 1.8883 7.113 2.2031 6.8036 2.5198 6.3077 2.7755 5.8105 3.0315 5.254 3.2284 4.64 3.4323 3.9569 3.6378 3.2382 3.7563 2.628 5.0244-1.7722 0.927-2.5746-4.9223 0.1287 0.1894-3.125-3.625 0.0806 0.0833-3.875-3.5625 0.0821 0.0677-4.5625-3.375 0.0712 0.0481-5.1875-3.1875 0.0609 0.0346-5.75-3 0.0599 0.0287-6.25-2.75 0.0554 0.0224-6.75-2.5 0.0514 0.01748-7.0625-2.1875 0.0495 0.01394-7.375-1.875 0.0549 0.01232-7.6875-1.5 0.0567 0.00939-7.8125-1.0625 0.0492 0.00545-8-0.6875 0.05439 0.00318-8-0.25zm87.517 33.189-1.8612 8.7485-5.8821-6.738z"/><path d="m919.62 231.04-0.627 16.039-1.82 15.568-1.322 7.425-1.57 7.096-1.697 6.79-1.954 6.302-2.142 5.796-2.212 5.246-2.415 4.64-2.556 3.962-2.697 3.289-2.101 1.363-1.088-1.678 1.97-1.278-0.229 0.204 2.562-3.125-0.067 0.092 2.5-3.875-0.047 0.081 2.375-4.563-0.034 0.073 2.187-5.187-0.016 0.042 2.125-5.75-0.017 0.05 1.937-6.25-0.015 0.054 1.688-6.75-7e-3 0.026 1.563-7.062-8e-3 0.041 1.312-7.375-8e-3 0.059 1.812-15.5-6e-3 0.077 0.625-16zm-20.68 85.663-8.945-0.014 5.379-7.147z"/><g transform="translate(709.16 276)" aria-label="1x3x224x22464x3x7x7"><path d="m2.835-13.104h-2.268v-1.596h4.032v14.7h-1.764z"/><path d="m8.211 0h-1.911l3.948-5.229-3.675-4.914h2.016l2.667 3.717 2.709-3.717h1.89l-3.675 4.893 4.011 5.25h-1.995l-2.982-4.095z"/><path d="m22.491-1.26q1.491 0 2.478-0.819 1.008-0.84 1.008-2.079 0-1.302-1.029-2.058-1.008-0.756-2.814-0.756h-0.924v-1.491h0.882q1.659 0 2.625-0.714 0.966-0.735 0.966-1.869 0-1.05-0.882-1.722t-2.31-0.672q-1.512 0-2.415 0.819-0.882 0.798-0.987 2.205h-1.722q0.063-1.974 1.491-3.297 1.449-1.323 3.717-1.323 2.163 0 3.528 1.113 1.386 1.092 1.386 2.73 0 1.218-0.714 2.121-0.693 0.903-2.016 1.365 1.512 0.42 2.268 1.323t0.756 2.31q0 1.869-1.512 3.15-1.512 1.26-3.822 1.26-2.457 0-3.906-1.323-1.428-1.344-1.449-3.675h1.701q0.084 1.638 1.029 2.52 0.966 0.882 2.667 0.882z"/><path d="m30.639 0h-1.911l3.948-5.229-3.675-4.914h2.016l2.667 3.717 2.709-3.717h1.89l-3.675 4.893 4.011 5.25h-1.995l-2.982-4.095z"/><path d="m50.085 0h-10.479v-1.47l5.082-4.662q1.806-1.638 2.457-2.604t0.651-2.058q0-1.155-0.861-1.89-0.84-0.756-2.1-0.756-1.554 0-2.457 0.966-0.882 0.945-0.945 2.667h-1.722q0.042-2.394 1.428-3.801 1.407-1.428 3.738-1.428 2.058 0 3.381 1.197 1.344 1.176 1.344 3.003 0 1.47-0.819 2.73-0.798 1.239-3.045 3.213l-3.717 3.318h8.064z"/><path d="m61.971 0h-10.479v-1.47l5.082-4.662q1.806-1.638 2.457-2.604t0.651-2.058q0-1.155-0.861-1.89-0.84-0.756-2.1-0.756-1.554 0-2.457 0.966-0.882 0.945-0.945 2.667h-1.722q0.042-2.394 1.428-3.801 1.407-1.428 3.738-1.428 2.058 0 3.381 1.197 1.344 1.176 1.344 3.003 0 1.47-0.819 2.73-0.798 1.239-3.045 3.213l-3.717 3.318h8.064z"/><path d="m70.833-3.465h-7.98v-1.344l7.266-9.891h2.478v9.744h2.478v1.491h-2.478v3.465h-1.764zm0.063-9.807-6.111 8.316h6.111z"/><path d="m77.595 0h-1.911l3.948-5.229-3.675-4.914h2.016l2.667 3.717 2.709-3.717h1.89l-3.675 4.893 4.011 5.25h-1.995l-2.982-4.095z"/><path d="m97.041 0h-10.479v-1.47l5.082-4.662q1.806-1.638 2.457-2.604t0.651-2.058q0-1.155-0.861-1.89-0.84-0.756-2.1-0.756-1.554 0-2.457 0.966-0.882 0.945-0.945 2.667h-1.722q0.042-2.394 1.428-3.801 1.407-1.428 3.738-1.428 2.058 0 3.381 1.197 1.344 1.176 1.344 3.003 0 1.47-0.819 2.73-0.798 1.239-3.045 3.213l-3.717 3.318h8.064z"/><path d="m108.93 0h-10.479v-1.47l5.082-4.662q1.806-1.638 2.457-2.604t0.651-2.058q0-1.155-0.861-1.89-0.84-0.756-2.1-0.756-1.554 0-2.457 0.966-0.882 0.945-0.945 2.667h-1.722q0.042-2.394 1.428-3.801 1.407-1.428 3.738-1.428 2.058 0 3.381 1.197 1.344 1.176 1.344 3.003 0 1.47-0.819 2.73-0.798 1.239-3.045 3.213l-3.717 3.318h8.064z"/><path d="m117.79-3.465h-7.98v-1.344l7.266-9.891h2.478v9.744h2.478v1.491h-2.478v3.465h-1.764zm0.063-9.807-6.111 8.316h6.111z"/><path d="m215.68-9.723q2.268 0 3.696 1.344t1.428 3.465q0 2.226-1.638 3.738-1.617 1.491-4.032 1.491-2.289 0-3.801-1.407-1.512-1.428-1.512-3.612 0-1.764 0.756-3.297 0.777-1.533 2.646-3.528l2.94-3.171h2.268v0.042l-3.927 4.053q-0.357 0.378-0.693 0.756t-0.651 0.756q0.567-0.315 1.197-0.462 0.63-0.168 1.323-0.168zm3.318 4.83q0-1.491-0.987-2.415t-2.604-0.924-2.709 0.987q-1.071 0.966-1.071 2.436 0 1.554 1.008 2.541 1.029 0.987 2.562 0.987 1.659 0 2.73-1.029t1.071-2.583z"/><path d="m229.64-3.465h-7.98v-1.344l7.266-9.891h2.478v9.744h2.478v1.491h-2.478v3.465h-1.764zm0.063-9.807-6.111 8.316h6.111z"/><path d="m236.4 0h-1.911l3.948-5.229-3.675-4.914h2.016l2.667 3.717 2.709-3.717h1.89l-3.675 4.893 4.011 5.25h-1.995l-2.982-4.095z"/><path d="m250.68-1.26q1.491 0 2.478-0.819 1.008-0.84 1.008-2.079 0-1.302-1.029-2.058-1.008-0.756-2.814-0.756h-0.924v-1.491h0.882q1.659 0 2.625-0.714 0.966-0.735 0.966-1.869 0-1.05-0.882-1.722t-2.31-0.672q-1.512 0-2.415 0.819-0.882 0.798-0.987 2.205h-1.722q0.063-1.974 1.491-3.297 1.449-1.323 3.717-1.323 2.163 0 3.528 1.113 1.386 1.092 1.386 2.73 0 1.218-0.714 2.121-0.693 0.903-2.016 1.365 1.512 0.42 2.268 1.323t0.756 2.31q0 1.869-1.512 3.15-1.512 1.26-3.822 1.26-2.457 0-3.906-1.323-1.428-1.344-1.449-3.675h1.701q0.084 1.638 1.029 2.52 0.966 0.882 2.667 0.882z"/><path d="m258.83 0h-1.911l3.948-5.229-3.675-4.914h2.016l2.667 3.717 2.709-3.717h1.89l-3.675 4.893 4.011 5.25h-1.995l-2.982-4.095z"/><path d="m277.56-13.272-6.279 13.272h-1.953l6.426-13.125h-8.547v-1.575h10.353z"/><path d="m280.1 0h-1.911l3.948-5.229-3.675-4.914h2.016l2.667 3.717 2.709-3.717h1.89l-3.675 4.893 4.011 5.25h-1.995l-2.982-4.095z"/><path d="m298.84-13.272-6.279 13.272h-1.953l6.426-13.125h-8.547v-1.575h10.353z"/></g><path d="m769.5 394c0-3.037 2.463-5.5 5.5-5.5h74c3.038 0 5.5 2.463 5.5 5.5v22c0 3.038-2.462 5.5-5.5 5.5h-74c-3.037 0-5.5-2.462-5.5-5.5z" fill="#FC4C02" fill-rule="evenodd" stroke="#000" stroke-miterlimit="8" stroke-width="1.3333"/><g transform="translate(784.74 412)" fill="#fff" aria-label="ReLU"><path d="m9.24-6.195 4.179 6.195h-2.142l-3.969-5.985h-4.137v5.985h-1.806v-14.7h6.468q2.478 0 3.864 1.155 1.386 1.134 1.386 3.129 0 1.638-1.008 2.751t-2.835 1.47zm2.016-4.179q0-1.281-0.924-1.995-0.903-0.735-2.541-0.735h-4.62v5.544h4.473q1.659 0 2.625-0.756 0.987-0.777 0.987-2.058z"/><path d="m19.719-1.134q1.008 0 1.848-0.42 0.861-0.441 1.575-1.323l1.029 0.945q-0.861 1.134-2.016 1.701-1.155 0.546-2.583 0.546-2.289 0-3.759-1.491-1.449-1.512-1.449-3.864 0-2.289 1.491-3.822t3.675-1.533q2.226 0 3.612 1.449t1.386 3.78q0 0.168-0.021 0.399-0.021 0.21-0.042 0.315h-8.337q0.168 1.491 1.155 2.415 1.008 0.903 2.436 0.903zm-0.168-7.812q-1.323 0-2.268 0.861t-1.155 2.31h6.678q-0.189-1.47-1.071-2.31-0.882-0.861-2.184-0.861z"/><path d="m26.502 0v-14.7h1.806v13.083h8.484v1.617z"/><path d="m44.646-1.281q2.184 0 3.528-1.47 1.365-1.491 1.365-3.864v-8.085h1.785v8.127q0 3.108-1.848 5.019-1.848 1.89-4.872 1.89t-4.851-1.89q-1.827-1.911-1.827-5.019v-8.127h1.806v8.085q0 2.373 1.365 3.864 1.365 1.47 3.549 1.47z"/></g><path d="m761.5 482.83c0-2.946 2.388-5.334 5.334-5.334h91.333c2.945 0 5.333 2.388 5.333 5.334v21.333c0 2.945-2.388 5.333-5.333 5.333h-91.333c-2.946 0-5.334-2.388-5.334-5.333z" fill-rule="evenodd" stroke="#000" stroke-miterlimit="8" stroke-width="1.3333"/><g transform="translate(778.99 502)" fill="#fff" aria-label="Result"><path d="m10.56-7.08 4.776 7.08h-2.448l-4.536-6.84h-4.728v6.84h-2.064v-16.8h7.392q2.832 0 4.416 1.32 1.584 1.296 1.584 3.576 0 1.872-1.152 3.144t-3.24 1.68zm2.304-4.776q0-1.464-1.056-2.28-1.032-0.84-2.904-0.84h-5.28v6.336h5.112q1.896 0 3-0.864 1.128-0.888 1.128-2.352z"/><path d="m22.536-1.296q1.152 0 2.112-0.48 0.984-0.504 1.8-1.512l1.176 1.08q-0.984 1.296-2.304 1.944-1.32 0.624-2.952 0.624-2.616 0-4.296-1.704-1.656-1.728-1.656-4.416 0-2.616 1.704-4.368t4.2-1.752q2.544 0 4.128 1.656t1.584 4.32q0 0.192-0.024 0.456-0.024 0.24-0.048 0.36h-9.528q0.192 1.704 1.32 2.76 1.152 1.032 2.784 1.032zm-0.192-8.928q-1.512 0-2.592 0.984t-1.32 2.64h7.632q-0.216-1.68-1.224-2.64-1.008-0.984-2.496-0.984z"/><path d="m39.336-3.384q0 1.632-1.392 2.664t-3.624 1.032q-1.464 0-2.76-0.456-1.272-0.48-2.304-1.416l1.008-1.488q1.104 0.912 2.064 1.32t2.04 0.408q1.392 0 2.232-0.528 0.864-0.552 0.864-1.416 0-0.888-0.72-1.272-0.72-0.408-2.376-0.432-2.424-0.096-3.552-0.888-1.104-0.792-1.104-2.472 0-1.536 1.272-2.544 1.296-1.032 3.312-1.032 1.368 0 2.568 0.432t2.184 1.272l-0.936 1.464q-0.984-0.792-1.896-1.152t-1.944-0.36q-1.176 0-1.944 0.528-0.744 0.528-0.744 1.296 0 0.84 0.672 1.224t2.136 0.456q2.616 0.072 3.768 0.864 1.176 0.792 1.176 2.496z"/><path d="m52.152 0h-1.944v-1.776q-0.696 1.008-1.752 1.536-1.056 0.504-2.4 0.504-2.28 0-3.6-1.488-1.296-1.488-1.296-4.056v-6.312h1.968v6.192q0 1.824 0.888 2.88 0.912 1.056 2.52 1.056 1.632 0 2.64-1.128t1.008-2.928v-6.072h1.968z"/><path d="m54.888-16.8h1.968v16.8h-1.968z"/><path d="m60.264-3.096v-6.768h-1.584v-1.728h1.584v-3.552h1.944v3.552h2.688v1.728h-2.688v6.6q0 0.768 0.336 1.152 0.36 0.36 1.08 0.36h1.272v1.752h-1.56q-1.608 0-2.352-0.744-0.72-0.744-0.72-2.352z"/></g><path transform="matrix(-1 0 0 1 812 338)" d="m1-2.1258e-6 9e-5 42.72h-2l-9.1e-5 -42.72zm3.0001 41.386-4 8.0001-4-8z"/><path transform="matrix(-1 0 0 1 812 421)" d="m1-1.8608e-6 9e-5 49.754h-2l-9.3e-5 -49.754zm3.0001 48.421-4 8-4-8z"/><g transform="translate(821.51 368)" aria-label="1x64x112x1121x64x112x112"><path d="m2.835-13.104h-2.268v-1.596h4.032v14.7h-1.764z"/><path d="m8.211 0h-1.911l3.948-5.229-3.675-4.914h2.016l2.667 3.717 2.709-3.717h1.89l-3.675 4.893 4.011 5.25h-1.995l-2.982-4.095z"/><path d="m22.848-9.723q2.268 0 3.696 1.344t1.428 3.465q0 2.226-1.638 3.738-1.617 1.491-4.032 1.491-2.289 0-3.801-1.407-1.512-1.428-1.512-3.612 0-1.764 0.756-3.297 0.777-1.533 2.646-3.528l2.94-3.171h2.268v0.042l-3.927 4.053q-0.357 0.378-0.693 0.756t-0.651 0.756q0.567-0.315 1.197-0.462 0.63-0.168 1.323-0.168zm3.318 4.83q0-1.491-0.987-2.415t-2.604-0.924-2.709 0.987q-1.071 0.966-1.071 2.436 0 1.554 1.008 2.541 1.029 0.987 2.562 0.987 1.659 0 2.73-1.029t1.071-2.583z"/><path d="m36.813-3.465h-7.98v-1.344l7.266-9.891h2.478v9.744h2.478v1.491h-2.478v3.465h-1.764zm0.063-9.807-6.111 8.316h6.111z"/><path d="m43.575 0h-1.911l3.948-5.229-3.675-4.914h2.016l2.667 3.717 2.709-3.717h1.89l-3.675 4.893 4.011 5.25h-1.995l-2.982-4.095z"/><path d="m54.579-13.104h-2.268v-1.596h4.032v14.7h-1.764z"/><path d="m60.69-13.104h-2.268v-1.596h4.032v14.7h-1.764z"/><path d="m75.243 0h-10.479v-1.47l5.082-4.662q1.806-1.638 2.457-2.604t0.651-2.058q0-1.155-0.861-1.89-0.84-0.756-2.1-0.756-1.554 0-2.457 0.966-0.882 0.945-0.945 2.667h-1.722q0.042-2.394 1.428-3.801 1.407-1.428 3.738-1.428 2.058 0 3.381 1.197 1.344 1.176 1.344 3.003 0 1.47-0.819 2.73-0.798 1.239-3.045 3.213l-3.717 3.318h8.064z"/><path d="m77.952 0h-1.911l3.948-5.229-3.675-4.914h2.016l2.667 3.717 2.709-3.717h1.89l-3.675 4.893 4.011 5.25h-1.995l-2.982-4.095z"/><path d="m88.956-13.104h-2.268v-1.596h4.032v14.7h-1.764z"/><path d="m95.067-13.104h-2.268v-1.596h4.032v14.7h-1.764z"/><path d="m109.62 0h-10.479v-1.47l5.082-4.662q1.806-1.638 2.457-2.604t0.651-2.058q0-1.155-0.861-1.89-0.84-0.756-2.1-0.756-1.554 0-2.457 0.966-0.882 0.945-0.945 2.667h-1.722q0.042-2.394 1.428-3.801 1.407-1.428 3.738-1.428 2.058 0 3.381 1.197 1.344 1.176 1.344 3.003 0 1.47-0.819 2.73-0.798 1.239-3.045 3.213l-3.717 3.318h8.064z"/><path d="m2.8351 72.896h-2.268v-1.596h4.032v14.7h-1.764z"/><path d="m8.2111 86h-1.911l3.948-5.229-3.675-4.914h2.016l2.667 3.717 2.709-3.717h1.89l-3.675 4.893 4.011 5.25h-1.995l-2.982-4.095z"/><path d="m22.848 76.277q2.268 0 3.696 1.344t1.428 3.465q0 2.226-1.638 3.738-1.617 1.491-4.032 1.491-2.289 0-3.801-1.407-1.512-1.428-1.512-3.612 0-1.764 0.756-3.297 0.777-1.533 2.646-3.528l2.94-3.171h2.268v0.042l-3.927 4.053q-0.357 0.378-0.693 0.756t-0.651 0.756q0.567-0.315 1.197-0.462 0.63-0.168 1.323-0.168zm3.318 4.83q0-1.491-0.987-2.415t-2.604-0.924-2.709 0.987q-1.071 0.966-1.071 2.436 0 1.554 1.008 2.541 1.029 0.987 2.562 0.987 1.659 0 2.73-1.029t1.071-2.583z"/><path d="m36.813 82.535h-7.98v-1.344l7.266-9.891h2.478v9.744h2.478v1.491h-2.478v3.465h-1.764zm0.063-9.807-6.111 8.316h6.111z"/><path d="m43.575 86h-1.911l3.948-5.229-3.675-4.914h2.016l2.667 3.717 2.709-3.717h1.89l-3.675 4.893 4.011 5.25h-1.995l-2.982-4.095z"/><path d="m54.579 72.896h-2.268v-1.596h4.032v14.7h-1.764z"/><path d="m60.69 72.896h-2.268v-1.596h4.032v14.7h-1.764z"/><path d="m75.243 86h-10.479v-1.47l5.082-4.662q1.806-1.638 2.457-2.604t0.651-2.058q0-1.155-0.861-1.89-0.84-0.756-2.1-0.756-1.554 0-2.457 0.966-0.882 0.945-0.945 2.667h-1.722q0.042-2.394 1.428-3.801 1.407-1.428 3.738-1.428 2.058 0 3.381 1.197 1.344 1.176 1.344 3.003 0 1.47-0.819 2.73-0.798 1.239-3.045 3.213l-3.717 3.318h8.064z"/><path d="m77.952 86h-1.911l3.948-5.229-3.675-4.914h2.016l2.667 3.717 2.709-3.717h1.89l-3.675 4.893 4.011 5.25h-1.995l-2.982-4.095z"/><path d="m88.956 72.896h-2.268v-1.596h4.032v14.7h-1.764z"/><path d="m95.067 72.896h-2.268v-1.596h4.032v14.7h-1.764z"/><path d="m109.62 86h-10.479v-1.47l5.082-4.662q1.806-1.638 2.457-2.604t0.651-2.058q0-1.155-0.861-1.89-0.84-0.756-2.1-0.756-1.554 0-2.457 0.966-0.882 0.945-0.945 2.667h-1.722q0.042-2.394 1.428-3.801 1.407-1.428 3.738-1.428 2.058 0 3.381 1.197 1.344 1.176 1.344 3.003 0 1.47-0.819 2.73-0.798 1.239-3.045 3.213l-3.717 3.318h8.064z"/></g></g></svg>
