<svg width="1280" height="720" xmlns="http://www.w3.org/2000/svg" xmlns:xlink="http://www.w3.org/1999/xlink" overflow="hidden"><defs><clipPath id="clip0"><rect x="0" y="0" width="1280" height="720"/></clipPath></defs><g clip-path="url(#clip0)"><rect x="0" y="0" width="1280" height="720" fill="#FFFFFF"/><text fill="#0070C0" font-family="IntelOne Display Regular,IntelOne Display Regular_MSFontService,sans-serif" font-weight="400" font-size="48" transform="translate(191.084 137)">TF Model<tspan font-size="48" x="511.85" y="0">IR v10 Model</tspan></text><rect x="98.5001" y="171.5" width="393" height="377" stroke="#000000" stroke-width="1.33333" stroke-miterlimit="8" fill="#FFFFFF"/><rect x="640.5" y="171.5" width="392" height="377" stroke="#000000" stroke-width="1.33333" stroke-miterlimit="8" fill="#FFFFFF"/><path d="M244.5 199.834C244.5 196.888 246.888 194.5 249.834 194.5L303.167 194.5C306.112 194.5 308.5 196.888 308.5 199.834L308.5 221.167C308.5 224.112 306.112 226.5 303.167 226.5L249.834 226.5C246.888 226.5 244.5 224.112 244.5 221.167Z" stroke="#000000" stroke-width="1.33333" stroke-miterlimit="8" fill="#E7E6E6" fill-rule="evenodd"/><text font-family="IntelOne Display Regular,IntelOne Display Regular_MSFontService,sans-serif" font-weight="400" font-size="24" transform="translate(258.097 219)">self</text><path d="M193.5 287C193.5 280.097 199.097 274.5 206 274.5L357 274.5C363.904 274.5 369.5 280.097 369.5 287L369.5 337C369.5 343.904 363.904 349.5 357 349.5L206 349.5C199.097 349.5 193.5 343.904 193.5 337Z" stroke="#000000" stroke-width="1.33333" stroke-miterlimit="8" fill="#FFFFFF" fill-rule="evenodd"/><path d="M206.678 274.5 356.322 274.5C363.6 274.5 369.5 280.4 369.5 287.679L369.5 314.5 193.5 314.5 193.5 287.679C193.5 280.4 199.4 274.5 206.678 274.5Z" stroke="#000000" stroke-width="1.33333" stroke-miterlimit="8" fill="#003C71" fill-rule="evenodd"/><text fill="#FFFFFF" font-family="IntelOne Display Regular,IntelOne Display Regular_MSFontService,sans-serif" font-weight="400" font-size="24" transform="translate(200.965 303)">Conv2<tspan font-size="24" x="0" y="29">D</tspan><tspan fill="#000000" font-weight="700" font-size="19" x="1.39801" y="34">filter</tspan><tspan fill="#000000" font-size="19" x="39.398" y="34">&lt;7x7x3x64&gt;</tspan></text><path d="M237.5 394C237.5 390.963 239.963 388.5 243 388.5L311 388.5C314.038 388.5 316.5 390.963 316.5 394L316.5 416C316.5 419.038 314.038 421.5 311 421.5L243 421.5C239.963 421.5 237.5 419.038 237.5 416Z" stroke="#000000" stroke-width="1.33333" stroke-miterlimit="8" fill="#FC4C02" fill-rule="evenodd"/><text fill="#FFFFFF" font-family="IntelOne Display Regular,IntelOne Display Regular_MSFontService,sans-serif" font-weight="400" font-size="21" transform="translate(249.013 413)">ReLU</text><path d="M217.5 471.833C217.5 468.888 219.888 466.5 222.833 466.5L331.167 466.5C334.112 466.5 336.5 468.888 336.5 471.833L336.5 493.167C336.5 496.112 334.112 498.5 331.167 498.5L222.833 498.5C219.888 498.5 217.5 496.112 217.5 493.167Z" stroke="#000000" stroke-width="1.33333" stroke-miterlimit="8" fill="#E7E6E6" fill-rule="evenodd"/><text font-family="IntelOne Display Regular,IntelOne Display Regular_MSFontService,sans-serif" font-weight="400" font-size="24" transform="translate(237.43 490)">Identity</text><path d="M1-2.13625e-06 1.00009 42.4787-0.999909 42.4787-1 2.13625e-06ZM4.00009 41.1454 0.000104987 49.1454-3.99991 41.1454Z" transform="matrix(-1 0 0 1 276 226)"/><text font-family="IntelOne Display Regular,IntelOne Display Regular_MSFontService,sans-serif" font-weight="400" font-size="21" transform="translate(285.78 256)">1x224x224x3</text><path d="M277 349 277 382.102 275 382.102 275 349ZM280 380.769 276 388.769 272 380.769Z"/><path d="M277 421 277 459.346 275 459.346 275 421ZM280 458.013 276 466.013 272 458.013Z"/><text font-family="IntelOne Display Regular,IntelOne Display Regular_MSFontService,sans-serif" font-weight="400" font-size="21" transform="translate(290.441 523)">1x112x112x64</text><path d="M662.5 200.667C662.5 197.261 665.261 194.5 668.667 194.5L792.333 194.5C795.739 194.5 798.5 197.261 798.5 200.667L798.5 225.333C798.5 228.739 795.739 231.5 792.333 231.5L668.667 231.5C665.261 231.5 662.5 228.739 662.5 225.333Z" stroke="#000000" stroke-width="1.33333" stroke-miterlimit="8" fill-rule="evenodd"/><text fill="#FFFFFF" font-family="IntelOne Display Regular,IntelOne Display Regular_MSFontService,sans-serif" font-weight="400" font-size="24" transform="translate(675.495 221)">Parameter</text><path d="M845.5 200.667C845.5 197.261 848.261 194.5 851.667 194.5L929.333 194.5C932.739 194.5 935.5 197.261 935.5 200.667L935.5 225.333C935.5 228.739 932.739 231.5 929.333 231.5L851.667 231.5C848.261 231.5 845.5 228.739 845.5 225.333Z" stroke="#000000" stroke-width="1.33333" stroke-miterlimit="8" fill-rule="evenodd"/><text fill="#FFFFFF" font-family="IntelOne Display Regular,IntelOne Display Regular_MSFontService,sans-serif" font-weight="400" font-size="24" transform="translate(858.81 221)">Const</text><path d="M734.5 301.833C734.5 297.783 737.783 294.5 741.833 294.5L883.167 294.5C887.217 294.5 890.5 297.783 890.5 301.833L890.5 331.167C890.5 335.217 887.217 338.5 883.167 338.5L741.833 338.5C737.783 338.5 734.5 335.217 734.5 331.167Z" stroke="#000000" stroke-width="1.33333" stroke-miterlimit="8" fill="#003C71" fill-rule="evenodd"/><text fill="#FFFFFF" font-family="IntelOne Display Regular,IntelOne Display Regular_MSFontService,sans-serif" font-weight="400" font-size="24" transform="translate(748.244 325)">Convolution</text><path d="M0.0312348-0.999512 8.05847-0.748661 16.1103-0.0567107 23.9758 1.013 31.7191 2.5239 39.1463 4.41217 46.2593 6.61531 53.0629 9.13514 59.3706 11.9106 65.1811 14.9421 70.4351 18.1705 75.0751 21.6028 79.032 25.2406 82.2702 28.9969 84.8982 34.0213 83.126 34.9483 80.5514 30.026 80.6801 30.2154 77.5551 26.5904 77.6357 26.6737 73.7607 23.1112 73.8428 23.1789 69.2803 19.8039 69.3515 19.852 64.164 16.6645 64.2249 16.6991 58.4749 13.6991 58.5348 13.7278 52.2848 10.9778 52.3402 11.0002 45.5902 8.50025 45.6416 8.51773 38.5791 6.33023 38.6286 6.34417 31.2536 4.46917 31.3085 4.48149 23.621 2.98149 23.6777 2.99088 15.8652 1.92838 15.9144 1.93383 7.91438 1.24633 7.96877 1.24951-0.0312348 0.999512ZM87.5487 32.189 85.6875 40.9375 79.8054 34.1995Z" transform="matrix(1.83697e-16 1 1 -1.83697e-16 693 231)"/><path d="M919.622 231.039 918.995 247.078 917.175 262.646 915.853 270.071 914.283 277.167 912.586 283.957 910.632 290.259 908.49 296.055 906.278 301.301 903.863 305.941 901.307 309.903 898.61 313.192 896.509 314.555 895.421 312.877 897.391 311.599 897.162 311.803 899.724 308.678 899.657 308.77 902.157 304.895 902.11 304.976 904.485 300.413 904.451 300.486 906.638 295.299 906.622 295.341 908.747 289.591 908.73 289.641 910.667 283.391 910.652 283.445 912.34 276.695 912.333 276.721 913.896 269.659 913.888 269.7 915.2 262.325 915.192 262.384 917.004 246.884 916.998 246.961 917.623 230.961ZM898.942 316.702 889.997 316.688 895.376 309.541Z"/><text font-family="IntelOne Display Regular,IntelOne Display Regular_MSFontService,sans-serif" font-weight="400" font-size="21" transform="translate(709.155 276)">1x3x224x224<tspan font-size="21" x="209.208" y="0">64x3x7x7</tspan></text><path d="M769.5 394C769.5 390.963 771.963 388.5 775 388.5L849 388.5C852.038 388.5 854.5 390.963 854.5 394L854.5 416C854.5 419.038 852.038 421.5 849 421.5L775 421.5C771.963 421.5 769.5 419.038 769.5 416Z" stroke="#000000" stroke-width="1.33333" stroke-miterlimit="8" fill="#FC4C02" fill-rule="evenodd"/><text fill="#FFFFFF" font-family="IntelOne Display Regular,IntelOne Display Regular_MSFontService,sans-serif" font-weight="400" font-size="21" transform="translate(784.744 412)">ReLU</text><path d="M761.5 482.834C761.5 479.888 763.888 477.5 766.834 477.5L858.167 477.5C861.112 477.5 863.5 479.888 863.5 482.834L863.5 504.167C863.5 507.112 861.112 509.5 858.167 509.5L766.834 509.5C763.888 509.5 761.5 507.112 761.5 504.167Z" stroke="#000000" stroke-width="1.33333" stroke-miterlimit="8" fill-rule="evenodd"/><text fill="#FFFFFF" font-family="IntelOne Display Regular,IntelOne Display Regular_MSFontService,sans-serif" font-weight="400" font-size="24" transform="translate(778.994 502)">Result</text><path d="M1-2.12582e-06 1.00009 42.7198-0.999909 42.7198-1 2.12582e-06ZM4.00009 41.3864 0.000104987 49.3865-3.99991 41.3865Z" transform="matrix(-1 0 0 1 812 338)"/><path d="M1-1.86079e-06 1.00009 49.7539-0.999907 49.7539-1 1.86079e-06ZM4.00009 48.4206 0.000104987 56.4206-3.99991 48.4206Z" transform="matrix(-1 0 0 1 812 421)"/><text font-family="IntelOne Display Regular,IntelOne Display Regular_MSFontService,sans-serif" font-weight="400" font-size="21" transform="translate(821.511 368)">1x64x112x112<tspan font-size="21" x="0.00012207" y="86">1x64x112x112</tspan></text></g></svg>